%
M48
M72
T01C0.0200
T02C0.0320
T03C0.0354
T04C0.0400
T05C0.0420
%
T01
X13400Y17450
X4650Y17450
X9150Y17450
X3150Y2700
X3400Y13950
T02
X14400Y8200
X14400Y7200
X14400Y6200
T03
X4400Y1700
X4400Y2700
X4400Y3700
X4400Y4700
X4400Y5700
X4400Y6700
X4400Y7700
X4400Y8700
X4400Y9700
X4400Y10700
X4400Y11700
X4400Y12700
X4400Y13700
X4400Y14700
X4400Y15700
X10400Y1700
X10400Y2700
X10400Y3700
X10400Y4700
X10400Y5700
X10400Y6700
X10400Y7700
X10400Y8700
X10400Y9700
X10400Y10700
X10400Y11700
X10400Y12700
X10400Y13700
X10400Y14700
X10400Y15700
X2400Y5200
X2400Y4200
X2400Y3200
X1400Y6200
X1400Y5200
X1400Y4200
X1400Y3200
X2400Y6200
X12120Y11200
X14680Y11200
T04
X2400Y13700
X2400Y14700
X2400Y15700
X2400Y16700
X2400Y8700
X2400Y9700
X2400Y10700
X2400Y11700
X14900Y2200
X14900Y3200
X14900Y4200
X13150Y1200
X13150Y2200
X13150Y3200
X13150Y4200
X12400Y14700
X12400Y15700
X12400Y16700
X14650Y14700
X14650Y15700
X14650Y16700
T05
X7900Y17200
X6400Y17200
M30
