G75*
G70*
%OFA0B0*%
%FSLAX24Y24*%
%IPPOS*%
%LPD*%
%AMOC8*
5,1,8,0,0,1.08239X$1,22.5*
%
%ADD10C,0.0080*%
%ADD11C,0.0740*%
%ADD12R,0.0740X0.0740*%
%ADD13C,0.0808*%
%ADD14C,0.0820*%
%ADD15R,0.0820X0.0820*%
%ADD16C,0.0780*%
D10*
X000400Y000987D02*
X001187Y000200D01*
X015361Y000200D01*
X016148Y000987D01*
X016148Y017129D01*
X015361Y017917D01*
X001187Y017917D01*
X000400Y017129D01*
X000400Y000987D01*
D11*
X004400Y001700D03*
X004400Y002700D03*
X004400Y003700D03*
X004400Y004700D03*
X004400Y005700D03*
X004400Y006700D03*
X004400Y007700D03*
X004400Y008700D03*
X004400Y009700D03*
X004400Y010700D03*
X004400Y011700D03*
X004400Y012700D03*
X004400Y013700D03*
X004400Y014700D03*
X004400Y015700D03*
X006400Y017200D03*
X007900Y017200D03*
X010400Y014700D03*
X010400Y013700D03*
X010400Y012700D03*
X010400Y011700D03*
X010400Y010700D03*
X010400Y009700D03*
X010400Y008700D03*
X010400Y007700D03*
X010400Y006700D03*
X010400Y005700D03*
X010400Y004700D03*
X010400Y003700D03*
X010400Y002700D03*
X010400Y001700D03*
D12*
X010400Y015700D03*
D13*
X002400Y006200D03*
X002400Y005200D03*
X002400Y004200D03*
X002400Y003200D03*
X001400Y003200D03*
X001400Y004200D03*
X001400Y005200D03*
X001400Y006200D03*
D14*
X002400Y009700D03*
X002400Y010700D03*
X002400Y011700D03*
X002400Y014700D03*
X002400Y015700D03*
X002400Y016700D03*
X012400Y016700D03*
X012400Y015700D03*
X012400Y014700D03*
X014650Y014700D03*
X014650Y015700D03*
X014650Y016700D03*
X014400Y008200D03*
X014400Y007200D03*
X014400Y006200D03*
X014900Y004200D03*
X014900Y003200D03*
X014900Y002200D03*
X013150Y002200D03*
X013150Y003200D03*
X013150Y004200D03*
D15*
X013150Y001200D03*
X002400Y008700D03*
X002400Y013700D03*
D16*
X012120Y011200D03*
X014680Y011200D03*
M02*
