G75*
G70*
%OFA0B0*%
%FSLAX24Y24*%
%IPPOS*%
%LPD*%
%AMOC8*
5,1,8,0,0,1.08239X$1,22.5*
%
%ADD10C,0.0080*%
%ADD11C,0.0660*%
%ADD12R,0.0660X0.0660*%
%ADD13C,0.0728*%
%ADD14C,0.0740*%
%ADD15R,0.0740X0.0740*%
%ADD16C,0.0700*%
%ADD17C,0.0400*%
%ADD18C,0.0100*%
%ADD19C,0.0240*%
%ADD20C,0.0400*%
D10*
X000400Y000987D02*
X001187Y000200D01*
X015361Y000200D01*
X016148Y000987D01*
X016148Y017129D01*
X015361Y017917D01*
X001187Y017917D01*
X000400Y017129D01*
X000400Y000987D01*
D11*
X004400Y001700D03*
X004400Y002700D03*
X004400Y003700D03*
X004400Y004700D03*
X004400Y005700D03*
X004400Y006700D03*
X004400Y007700D03*
X004400Y008700D03*
X004400Y009700D03*
X004400Y010700D03*
X004400Y011700D03*
X004400Y012700D03*
X004400Y013700D03*
X004400Y014700D03*
X004400Y015700D03*
X006400Y017200D03*
X007900Y017200D03*
X010400Y014700D03*
X010400Y013700D03*
X010400Y012700D03*
X010400Y011700D03*
X010400Y010700D03*
X010400Y009700D03*
X010400Y008700D03*
X010400Y007700D03*
X010400Y006700D03*
X010400Y005700D03*
X010400Y004700D03*
X010400Y003700D03*
X010400Y002700D03*
X010400Y001700D03*
D12*
X010400Y015700D03*
D13*
X002400Y006200D03*
X002400Y005200D03*
X002400Y004200D03*
X002400Y003200D03*
X001400Y003200D03*
X001400Y004200D03*
X001400Y005200D03*
X001400Y006200D03*
D14*
X002400Y009700D03*
X002400Y010700D03*
X002400Y011700D03*
X002400Y014700D03*
X002400Y015700D03*
X002400Y016700D03*
X012400Y016700D03*
X012400Y015700D03*
X012400Y014700D03*
X014650Y014700D03*
X014650Y015700D03*
X014650Y016700D03*
X014400Y008200D03*
X014400Y007200D03*
X014400Y006200D03*
X014900Y004200D03*
X014900Y003200D03*
X014900Y002200D03*
X013150Y002200D03*
X013150Y003200D03*
X013150Y004200D03*
D15*
X013150Y001200D03*
X002400Y008700D03*
X002400Y013700D03*
D16*
X012120Y011200D03*
X014680Y011200D03*
D17*
X013400Y017450D03*
X009150Y017450D03*
X004650Y017450D03*
X003400Y013950D03*
X003150Y002700D03*
D18*
X000795Y000890D02*
X012630Y000890D01*
X012630Y000810D02*
X012640Y000772D01*
X012660Y000738D01*
X012688Y000710D01*
X012722Y000690D01*
X012760Y000680D01*
X013100Y000680D01*
X013100Y001150D01*
X012630Y001150D01*
X012630Y000810D01*
X012635Y000791D02*
X000893Y000791D01*
X000992Y000693D02*
X012718Y000693D01*
X012630Y000988D02*
X000696Y000988D01*
X000610Y001074D02*
X000610Y017042D01*
X001274Y017707D01*
X015274Y017707D01*
X015938Y017042D01*
X015938Y004762D01*
X015896Y004864D01*
X015814Y004946D01*
X015314Y005446D01*
X015208Y005490D01*
X012020Y005490D01*
X010900Y006610D01*
X010900Y006799D01*
X010824Y006983D01*
X010683Y007124D01*
X010499Y007200D01*
X010683Y007276D01*
X010824Y007417D01*
X010900Y007601D01*
X010900Y007799D01*
X010824Y007983D01*
X010683Y008124D01*
X010499Y008200D01*
X010683Y008276D01*
X010824Y008417D01*
X010900Y008601D01*
X010900Y008799D01*
X010824Y008983D01*
X010683Y009124D01*
X010499Y009200D01*
X010301Y009200D01*
X010117Y009124D01*
X009976Y008983D01*
X009900Y008799D01*
X009900Y008601D01*
X009976Y008417D01*
X010117Y008276D01*
X010301Y008200D01*
X010499Y008200D01*
X010301Y008200D01*
X010117Y008124D01*
X009976Y007983D01*
X009900Y007799D01*
X009900Y007601D01*
X009976Y007417D01*
X010117Y007276D01*
X010301Y007200D01*
X010499Y007200D01*
X010301Y007200D01*
X010117Y007124D01*
X009976Y006983D01*
X009900Y006799D01*
X009900Y006601D01*
X009976Y006417D01*
X010117Y006276D01*
X010301Y006200D01*
X010117Y006124D01*
X009976Y005983D01*
X009950Y005920D01*
X008241Y005920D01*
X005370Y008791D01*
X005370Y011041D01*
X005241Y011170D01*
X005120Y011291D01*
X005120Y011291D01*
X004991Y011420D01*
X004825Y011420D01*
X004900Y011601D01*
X004900Y011799D01*
X004824Y011983D01*
X004683Y012124D01*
X004499Y012200D01*
X004683Y012276D01*
X004824Y012417D01*
X004900Y012601D01*
X004900Y012799D01*
X004824Y012983D01*
X004683Y013124D01*
X004499Y013200D01*
X004301Y013200D01*
X004117Y013124D01*
X003976Y012983D01*
X003900Y012799D01*
X003900Y012601D01*
X003976Y012417D01*
X004117Y012276D01*
X004301Y012200D01*
X004499Y012200D01*
X004301Y012200D01*
X004117Y012124D01*
X003976Y011983D01*
X003900Y011799D01*
X003900Y011601D01*
X003975Y011420D01*
X003741Y011420D01*
X003620Y011541D01*
X003620Y013647D01*
X003714Y013740D01*
X003770Y013876D01*
X003770Y014024D01*
X003714Y014160D01*
X003610Y014264D01*
X003474Y014320D01*
X003326Y014320D01*
X003190Y014264D01*
X003086Y014160D01*
X003030Y014024D01*
X003030Y013876D01*
X003086Y013740D01*
X003180Y013647D01*
X003180Y011359D01*
X003559Y010980D01*
X003975Y010980D01*
X003900Y010799D01*
X003900Y010601D01*
X003976Y010417D01*
X004117Y010276D01*
X004301Y010200D01*
X004117Y010124D01*
X004002Y010009D01*
X003064Y010946D01*
X002958Y010990D01*
X002864Y010990D01*
X002858Y011006D01*
X002706Y011158D01*
X002604Y011200D01*
X002706Y011242D01*
X002858Y011394D01*
X002940Y011593D01*
X002940Y011807D01*
X002858Y012006D01*
X002706Y012158D01*
X002507Y012240D01*
X002293Y012240D01*
X002094Y012158D01*
X001942Y012006D01*
X001860Y011807D01*
X001860Y011593D01*
X001942Y011394D01*
X002094Y011242D01*
X002196Y011200D01*
X002094Y011158D01*
X001942Y011006D01*
X001860Y010807D01*
X001860Y010593D01*
X001942Y010394D01*
X002094Y010242D01*
X002196Y010200D01*
X002094Y010158D01*
X001942Y010006D01*
X001860Y009807D01*
X001860Y009593D01*
X001942Y009394D01*
X002094Y009242D01*
X002148Y009220D01*
X002010Y009220D01*
X001972Y009210D01*
X001938Y009190D01*
X001910Y009162D01*
X001890Y009128D01*
X001880Y009090D01*
X001880Y008750D01*
X002350Y008750D01*
X002350Y008650D01*
X002450Y008650D01*
X002450Y008750D01*
X002920Y008750D01*
X002920Y009090D01*
X002910Y009128D01*
X002890Y009162D01*
X002862Y009190D01*
X002828Y009210D01*
X002790Y009220D01*
X002652Y009220D01*
X002706Y009242D01*
X002858Y009394D01*
X002940Y009593D01*
X002940Y009807D01*
X002858Y010006D01*
X002706Y010158D01*
X002604Y010200D01*
X002706Y010242D01*
X002827Y010363D01*
X003654Y009536D01*
X003736Y009454D01*
X003842Y009410D01*
X003983Y009410D01*
X004117Y009276D01*
X004301Y009200D01*
X004117Y009124D01*
X003976Y008983D01*
X003900Y008799D01*
X003900Y008601D01*
X003976Y008417D01*
X004117Y008276D01*
X004301Y008200D01*
X004117Y008124D01*
X003976Y007983D01*
X003900Y007799D01*
X003900Y007601D01*
X003976Y007417D01*
X004117Y007276D01*
X004301Y007200D01*
X004117Y007124D01*
X003976Y006983D01*
X003900Y006799D01*
X003900Y006601D01*
X003976Y006417D01*
X004117Y006276D01*
X004301Y006200D01*
X004117Y006124D01*
X003976Y005983D01*
X003900Y005799D01*
X003900Y005601D01*
X003975Y005420D01*
X003741Y005420D01*
X003241Y005920D01*
X002862Y005920D01*
X002934Y006094D01*
X002934Y006306D01*
X002853Y006503D01*
X002703Y006653D01*
X002506Y006734D01*
X002294Y006734D01*
X002097Y006653D01*
X001947Y006503D01*
X001888Y006361D01*
X001877Y006397D01*
X001840Y006469D01*
X001792Y006535D01*
X001735Y006592D01*
X001669Y006640D01*
X001597Y006677D01*
X001520Y006702D01*
X001440Y006714D01*
X001439Y006714D01*
X001439Y006239D01*
X001361Y006239D01*
X001361Y006714D01*
X001360Y006714D01*
X001280Y006702D01*
X001203Y006677D01*
X001131Y006640D01*
X001065Y006592D01*
X001008Y006535D01*
X000960Y006469D01*
X000923Y006397D01*
X000898Y006320D01*
X000886Y006240D01*
X000886Y006239D01*
X001361Y006239D01*
X001361Y006161D01*
X000886Y006161D01*
X000886Y006160D01*
X000898Y006080D01*
X000923Y006003D01*
X000960Y005931D01*
X001008Y005865D01*
X001065Y005808D01*
X001131Y005760D01*
X001203Y005723D01*
X001239Y005712D01*
X001097Y005653D01*
X000947Y005503D01*
X000866Y005306D01*
X000866Y005094D01*
X000947Y004897D01*
X001097Y004747D01*
X001211Y004700D01*
X001097Y004653D01*
X000947Y004503D01*
X000866Y004306D01*
X000866Y004094D01*
X000947Y003897D01*
X001097Y003747D01*
X001211Y003700D01*
X001097Y003653D01*
X000947Y003503D01*
X000866Y003306D01*
X000866Y003094D01*
X000947Y002897D01*
X001097Y002747D01*
X001294Y002666D01*
X001506Y002666D01*
X001703Y002747D01*
X001853Y002897D01*
X001900Y003011D01*
X001947Y002897D01*
X002097Y002747D01*
X002294Y002666D01*
X002506Y002666D01*
X002703Y002747D01*
X002853Y002897D01*
X002934Y003094D01*
X002934Y003306D01*
X002853Y003503D01*
X002703Y003653D01*
X002589Y003700D01*
X002703Y003747D01*
X002747Y003792D01*
X003430Y003109D01*
X003559Y002980D01*
X003975Y002980D01*
X003900Y002799D01*
X003900Y002601D01*
X003976Y002417D01*
X004117Y002276D01*
X004301Y002200D01*
X004117Y002124D01*
X003976Y001983D01*
X003900Y001799D01*
X003900Y001601D01*
X003976Y001417D01*
X004117Y001276D01*
X004301Y001200D01*
X004499Y001200D01*
X004683Y001276D01*
X004824Y001417D01*
X004900Y001601D01*
X004900Y001799D01*
X004824Y001983D01*
X004683Y002124D01*
X004499Y002200D01*
X004301Y002200D01*
X004499Y002200D01*
X004683Y002276D01*
X004824Y002417D01*
X004900Y002601D01*
X004900Y002799D01*
X004825Y002980D01*
X009059Y002980D01*
X009430Y002609D01*
X009559Y002480D01*
X009950Y002480D01*
X009976Y002417D01*
X010117Y002276D01*
X010301Y002200D01*
X010117Y002124D01*
X009976Y001983D01*
X009900Y001799D01*
X009900Y001601D01*
X009976Y001417D01*
X010117Y001276D01*
X010301Y001200D01*
X010499Y001200D01*
X010683Y001276D01*
X010824Y001417D01*
X010900Y001601D01*
X010900Y001799D01*
X010824Y001983D01*
X010683Y002124D01*
X010499Y002200D01*
X010301Y002200D01*
X010499Y002200D01*
X010683Y002276D01*
X010824Y002417D01*
X010900Y002601D01*
X010900Y002799D01*
X010824Y002983D01*
X010683Y003124D01*
X010499Y003200D01*
X010683Y003276D01*
X010824Y003417D01*
X010900Y003601D01*
X010900Y003799D01*
X010824Y003983D01*
X010683Y004124D01*
X010499Y004200D01*
X010683Y004276D01*
X010824Y004417D01*
X010900Y004601D01*
X010900Y004799D01*
X010824Y004983D01*
X010683Y005124D01*
X010499Y005200D01*
X010301Y005200D01*
X010117Y005124D01*
X009976Y004983D01*
X009900Y004799D01*
X009900Y004601D01*
X009926Y004537D01*
X009809Y004420D01*
X006241Y004420D01*
X005241Y005420D01*
X004825Y005420D01*
X004900Y005601D01*
X004900Y005799D01*
X004824Y005983D01*
X004683Y006124D01*
X004499Y006200D01*
X004301Y006200D01*
X004499Y006200D01*
X004683Y006276D01*
X004824Y006417D01*
X004900Y006601D01*
X004900Y006799D01*
X004824Y006983D01*
X004683Y007124D01*
X004499Y007200D01*
X004301Y007200D01*
X004499Y007200D01*
X004683Y007276D01*
X004824Y007417D01*
X004900Y007601D01*
X004900Y007799D01*
X004824Y007983D01*
X004683Y008124D01*
X004499Y008200D01*
X004301Y008200D01*
X004499Y008200D01*
X004683Y008276D01*
X004824Y008417D01*
X004900Y008601D01*
X004900Y008799D01*
X004824Y008983D01*
X004683Y009124D01*
X004499Y009200D01*
X004301Y009200D01*
X004499Y009200D01*
X004683Y009276D01*
X004824Y009417D01*
X004900Y009601D01*
X004900Y009799D01*
X004824Y009983D01*
X004683Y010124D01*
X004499Y010200D01*
X004301Y010200D01*
X004499Y010200D01*
X004683Y010276D01*
X004824Y010417D01*
X004900Y010601D01*
X004900Y010799D01*
X004837Y010952D01*
X004930Y010859D01*
X004930Y008609D01*
X005059Y008480D01*
X008059Y005480D01*
X009950Y005480D01*
X009976Y005417D01*
X010117Y005276D01*
X010301Y005200D01*
X010499Y005200D01*
X010683Y005276D01*
X010824Y005417D01*
X010900Y005601D01*
X010900Y005790D01*
X011654Y005036D01*
X011736Y004954D01*
X011842Y004910D01*
X015030Y004910D01*
X015360Y004580D01*
X015360Y004501D01*
X015358Y004506D01*
X015206Y004658D01*
X015007Y004740D01*
X014793Y004740D01*
X014594Y004658D01*
X014442Y004506D01*
X014360Y004307D01*
X014360Y004093D01*
X014442Y003894D01*
X014594Y003742D01*
X014696Y003700D01*
X014594Y003658D01*
X014442Y003506D01*
X014360Y003307D01*
X014360Y003093D01*
X014442Y002894D01*
X014594Y002742D01*
X014722Y002689D01*
X014700Y002682D01*
X014627Y002645D01*
X014561Y002597D01*
X014503Y002539D01*
X014455Y002473D01*
X014418Y002400D01*
X014393Y002322D01*
X014381Y002250D01*
X014850Y002250D01*
X014850Y002150D01*
X014950Y002150D01*
X014950Y002250D01*
X015419Y002250D01*
X015407Y002322D01*
X015382Y002400D01*
X015345Y002473D01*
X015297Y002539D01*
X015239Y002597D01*
X015173Y002645D01*
X015100Y002682D01*
X015078Y002689D01*
X015206Y002742D01*
X015358Y002894D01*
X015431Y003071D01*
X015896Y003536D01*
X015938Y003638D01*
X015938Y001074D01*
X015274Y000410D01*
X001274Y000410D01*
X000610Y001074D01*
X000610Y001087D02*
X012630Y001087D01*
X012630Y001250D02*
X013100Y001250D01*
X013100Y001150D01*
X013200Y001150D01*
X013200Y001250D01*
X013670Y001250D01*
X013670Y001590D01*
X013660Y001628D01*
X013640Y001662D01*
X013612Y001690D01*
X013578Y001710D01*
X013540Y001720D01*
X013402Y001720D01*
X013456Y001742D01*
X013608Y001894D01*
X013690Y002093D01*
X013690Y002307D01*
X013608Y002506D01*
X013456Y002658D01*
X013354Y002700D01*
X013456Y002742D01*
X013608Y002894D01*
X013690Y003093D01*
X013690Y003307D01*
X013608Y003506D01*
X013456Y003658D01*
X013354Y003700D01*
X013456Y003742D01*
X013608Y003894D01*
X013690Y004093D01*
X013690Y004307D01*
X013608Y004506D01*
X013456Y004658D01*
X013257Y004740D01*
X013043Y004740D01*
X012844Y004658D01*
X012692Y004506D01*
X012610Y004307D01*
X012610Y004093D01*
X012692Y003894D01*
X012844Y003742D01*
X012946Y003700D01*
X012844Y003658D01*
X012692Y003506D01*
X012610Y003307D01*
X012610Y003093D01*
X012692Y002894D01*
X012844Y002742D01*
X012946Y002700D01*
X012844Y002658D01*
X012692Y002506D01*
X012610Y002307D01*
X012610Y002093D01*
X012692Y001894D01*
X012844Y001742D01*
X012898Y001720D01*
X012760Y001720D01*
X012722Y001710D01*
X012688Y001690D01*
X012660Y001662D01*
X012640Y001628D01*
X012630Y001590D01*
X012630Y001250D01*
X012630Y001284D02*
X010691Y001284D01*
X010789Y001382D02*
X012630Y001382D01*
X012630Y001481D02*
X010850Y001481D01*
X010891Y001579D02*
X012630Y001579D01*
X012675Y001678D02*
X010900Y001678D01*
X010900Y001776D02*
X012810Y001776D01*
X012712Y001875D02*
X010869Y001875D01*
X010828Y001973D02*
X012660Y001973D01*
X012619Y002072D02*
X010736Y002072D01*
X010572Y002170D02*
X012610Y002170D01*
X012610Y002269D02*
X010665Y002269D01*
X010774Y002367D02*
X012635Y002367D01*
X012675Y002466D02*
X010844Y002466D01*
X010885Y002564D02*
X012750Y002564D01*
X012856Y002663D02*
X010900Y002663D01*
X010900Y002761D02*
X012825Y002761D01*
X012727Y002860D02*
X010875Y002860D01*
X010834Y002958D02*
X012666Y002958D01*
X012625Y003057D02*
X010751Y003057D01*
X010608Y003155D02*
X012610Y003155D01*
X012610Y003254D02*
X010629Y003254D01*
X010499Y003200D02*
X010301Y003200D01*
X010117Y003276D01*
X009976Y003417D01*
X009950Y003480D01*
X005809Y003480D01*
X005309Y003980D01*
X004825Y003980D01*
X004900Y003799D01*
X004900Y003601D01*
X004825Y003420D01*
X009241Y003420D01*
X009741Y002920D01*
X009950Y002920D01*
X009976Y002983D01*
X010117Y003124D01*
X010301Y003200D01*
X010499Y003200D01*
X010759Y003352D02*
X012628Y003352D01*
X012669Y003451D02*
X010838Y003451D01*
X010879Y003549D02*
X012735Y003549D01*
X012834Y003648D02*
X010900Y003648D01*
X010900Y003746D02*
X012840Y003746D01*
X012742Y003845D02*
X010881Y003845D01*
X010841Y003943D02*
X012672Y003943D01*
X012631Y004042D02*
X010766Y004042D01*
X010644Y004140D02*
X012610Y004140D01*
X012610Y004239D02*
X010592Y004239D01*
X010499Y004200D02*
X010301Y004200D01*
X010237Y004226D01*
X010148Y004137D01*
X010301Y004200D01*
X010499Y004200D01*
X010744Y004337D02*
X012622Y004337D01*
X012663Y004436D02*
X010832Y004436D01*
X010872Y004534D02*
X012720Y004534D01*
X012819Y004633D02*
X010900Y004633D01*
X010900Y004731D02*
X013021Y004731D01*
X013279Y004731D02*
X014771Y004731D01*
X014569Y004633D02*
X013481Y004633D01*
X013580Y004534D02*
X014470Y004534D01*
X014413Y004436D02*
X013637Y004436D01*
X013678Y004337D02*
X014372Y004337D01*
X014360Y004239D02*
X013690Y004239D01*
X013690Y004140D02*
X014360Y004140D01*
X014381Y004042D02*
X013669Y004042D01*
X013628Y003943D02*
X014422Y003943D01*
X014492Y003845D02*
X013558Y003845D01*
X013460Y003746D02*
X014590Y003746D01*
X014584Y003648D02*
X013466Y003648D01*
X013565Y003549D02*
X014485Y003549D01*
X014419Y003451D02*
X013631Y003451D01*
X013672Y003352D02*
X014378Y003352D01*
X014360Y003254D02*
X013690Y003254D01*
X013690Y003155D02*
X014360Y003155D01*
X014375Y003057D02*
X013675Y003057D01*
X013634Y002958D02*
X014416Y002958D01*
X014477Y002860D02*
X013573Y002860D01*
X013475Y002761D02*
X014575Y002761D01*
X014662Y002663D02*
X013444Y002663D01*
X013550Y002564D02*
X014529Y002564D01*
X014452Y002466D02*
X013625Y002466D01*
X013665Y002367D02*
X014408Y002367D01*
X014384Y002269D02*
X013690Y002269D01*
X013690Y002170D02*
X014850Y002170D01*
X014850Y002150D02*
X014381Y002150D01*
X014393Y002078D01*
X014418Y002000D01*
X014455Y001927D01*
X014503Y001861D01*
X014561Y001803D01*
X014627Y001755D01*
X014700Y001718D01*
X014778Y001693D01*
X014850Y001681D01*
X014850Y002150D01*
X014850Y002072D02*
X014950Y002072D01*
X014950Y002150D02*
X014950Y001681D01*
X015022Y001693D01*
X015100Y001718D01*
X015173Y001755D01*
X015239Y001803D01*
X015297Y001861D01*
X015345Y001927D01*
X015382Y002000D01*
X015407Y002078D01*
X015419Y002150D01*
X014950Y002150D01*
X014950Y002170D02*
X015938Y002170D01*
X015938Y002072D02*
X015405Y002072D01*
X015368Y001973D02*
X015938Y001973D01*
X015938Y001875D02*
X015306Y001875D01*
X015201Y001776D02*
X015938Y001776D01*
X015938Y001678D02*
X013625Y001678D01*
X013670Y001579D02*
X015938Y001579D01*
X015938Y001481D02*
X013670Y001481D01*
X013670Y001382D02*
X015938Y001382D01*
X015938Y001284D02*
X013670Y001284D01*
X013670Y001150D02*
X013200Y001150D01*
X013200Y000680D01*
X013540Y000680D01*
X013578Y000690D01*
X013612Y000710D01*
X013640Y000738D01*
X013660Y000772D01*
X013670Y000810D01*
X013670Y001150D01*
X013670Y001087D02*
X015938Y001087D01*
X015938Y001185D02*
X013200Y001185D01*
X013200Y001087D02*
X013100Y001087D01*
X013100Y001185D02*
X000610Y001185D01*
X000610Y001284D02*
X004109Y001284D01*
X004011Y001382D02*
X000610Y001382D01*
X000610Y001481D02*
X003950Y001481D01*
X003909Y001579D02*
X000610Y001579D01*
X000610Y001678D02*
X003900Y001678D01*
X003900Y001776D02*
X000610Y001776D01*
X000610Y001875D02*
X003931Y001875D01*
X003972Y001973D02*
X000610Y001973D01*
X000610Y002072D02*
X004064Y002072D01*
X004228Y002170D02*
X000610Y002170D01*
X000610Y002269D02*
X004135Y002269D01*
X004026Y002367D02*
X000610Y002367D01*
X000610Y002466D02*
X003956Y002466D01*
X003915Y002564D02*
X000610Y002564D01*
X000610Y002663D02*
X003900Y002663D01*
X003900Y002761D02*
X002716Y002761D01*
X002815Y002860D02*
X003925Y002860D01*
X003966Y002958D02*
X002878Y002958D01*
X002919Y003057D02*
X003482Y003057D01*
X003384Y003155D02*
X002934Y003155D01*
X002934Y003254D02*
X003285Y003254D01*
X003187Y003352D02*
X002915Y003352D01*
X002874Y003451D02*
X003088Y003451D01*
X002990Y003549D02*
X002806Y003549D01*
X002891Y003648D02*
X002708Y003648D01*
X002700Y003746D02*
X002793Y003746D01*
X002650Y004200D02*
X002400Y004200D01*
X002650Y004200D02*
X003650Y003200D01*
X009150Y003200D01*
X009650Y002700D01*
X010400Y002700D01*
X010049Y003057D02*
X009605Y003057D01*
X009506Y003155D02*
X010192Y003155D01*
X010171Y003254D02*
X009408Y003254D01*
X009309Y003352D02*
X010041Y003352D01*
X009962Y003451D02*
X004838Y003451D01*
X004879Y003549D02*
X005740Y003549D01*
X005641Y003648D02*
X004900Y003648D01*
X004900Y003746D02*
X005543Y003746D01*
X005444Y003845D02*
X004881Y003845D01*
X004841Y003943D02*
X005346Y003943D01*
X005400Y004200D02*
X003650Y004200D01*
X002650Y005200D01*
X002400Y005200D01*
X001900Y005700D02*
X003150Y005700D01*
X003650Y005200D01*
X005150Y005200D01*
X006150Y004200D01*
X009900Y004200D01*
X010400Y004700D01*
X010019Y005027D02*
X005635Y005027D01*
X005536Y005125D02*
X010120Y005125D01*
X010244Y005224D02*
X005438Y005224D01*
X005339Y005322D02*
X010071Y005322D01*
X009975Y005421D02*
X004825Y005421D01*
X004866Y005519D02*
X008020Y005519D01*
X007921Y005618D02*
X004900Y005618D01*
X004900Y005716D02*
X007823Y005716D01*
X007724Y005815D02*
X004894Y005815D01*
X004853Y005913D02*
X007626Y005913D01*
X007527Y006012D02*
X004796Y006012D01*
X004697Y006110D02*
X007429Y006110D01*
X007330Y006209D02*
X004520Y006209D01*
X004714Y006307D02*
X007232Y006307D01*
X007133Y006406D02*
X004813Y006406D01*
X004860Y006504D02*
X007035Y006504D01*
X006936Y006603D02*
X004900Y006603D01*
X004900Y006701D02*
X006838Y006701D01*
X006739Y006800D02*
X004900Y006800D01*
X004859Y006898D02*
X006641Y006898D01*
X006542Y006997D02*
X004811Y006997D01*
X004712Y007095D02*
X006444Y007095D01*
X006345Y007194D02*
X004515Y007194D01*
X004699Y007292D02*
X006247Y007292D01*
X006148Y007391D02*
X004798Y007391D01*
X004854Y007489D02*
X006050Y007489D01*
X005951Y007588D02*
X004895Y007588D01*
X004900Y007686D02*
X005853Y007686D01*
X005754Y007785D02*
X004900Y007785D01*
X004865Y007883D02*
X005656Y007883D01*
X005557Y007982D02*
X004825Y007982D01*
X004727Y008080D02*
X005459Y008080D01*
X005360Y008179D02*
X004551Y008179D01*
X004684Y008277D02*
X005262Y008277D01*
X005163Y008376D02*
X004783Y008376D01*
X004848Y008474D02*
X005065Y008474D01*
X004966Y008573D02*
X004888Y008573D01*
X004900Y008671D02*
X004930Y008671D01*
X004930Y008770D02*
X004900Y008770D01*
X004872Y008868D02*
X004930Y008868D01*
X004930Y008967D02*
X004831Y008967D01*
X004742Y009065D02*
X004930Y009065D01*
X004930Y009164D02*
X004588Y009164D01*
X004649Y009262D02*
X004930Y009262D01*
X004930Y009361D02*
X004768Y009361D01*
X004841Y009459D02*
X004930Y009459D01*
X004930Y009558D02*
X004882Y009558D01*
X004900Y009656D02*
X004930Y009656D01*
X004930Y009755D02*
X004900Y009755D01*
X004878Y009853D02*
X004930Y009853D01*
X004930Y009952D02*
X004837Y009952D01*
X004757Y010050D02*
X004930Y010050D01*
X004930Y010149D02*
X004624Y010149D01*
X004613Y010247D02*
X004930Y010247D01*
X004930Y010346D02*
X004753Y010346D01*
X004835Y010444D02*
X004930Y010444D01*
X004930Y010543D02*
X004876Y010543D01*
X004900Y010641D02*
X004930Y010641D01*
X004930Y010740D02*
X004900Y010740D01*
X004884Y010838D02*
X004930Y010838D01*
X004852Y010937D02*
X004843Y010937D01*
X004900Y011200D02*
X003650Y011200D01*
X003400Y011450D01*
X003400Y013950D01*
X003243Y014286D02*
X002749Y014286D01*
X002706Y014242D02*
X002858Y014394D01*
X002940Y014593D01*
X002940Y014807D01*
X002858Y015006D01*
X002706Y015158D01*
X002604Y015200D01*
X002706Y015242D01*
X002858Y015394D01*
X002940Y015593D01*
X002940Y015807D01*
X002858Y016006D01*
X002706Y016158D01*
X002604Y016200D01*
X002706Y016242D01*
X002858Y016394D01*
X002940Y016593D01*
X002940Y016807D01*
X002858Y017006D01*
X002706Y017158D01*
X002507Y017240D01*
X002293Y017240D01*
X002094Y017158D01*
X001942Y017006D01*
X001860Y016807D01*
X001860Y016593D01*
X001942Y016394D01*
X002094Y016242D01*
X002196Y016200D01*
X002094Y016158D01*
X001942Y016006D01*
X001860Y015807D01*
X001860Y015593D01*
X001942Y015394D01*
X002094Y015242D01*
X002196Y015200D01*
X002094Y015158D01*
X001942Y015006D01*
X001860Y014807D01*
X001860Y014593D01*
X001942Y014394D01*
X002094Y014242D01*
X002148Y014220D01*
X002010Y014220D01*
X001972Y014210D01*
X001938Y014190D01*
X001910Y014162D01*
X001890Y014128D01*
X001880Y014090D01*
X001880Y013750D01*
X002350Y013750D01*
X002350Y013650D01*
X001880Y013650D01*
X001880Y013310D01*
X001890Y013272D01*
X001910Y013238D01*
X001938Y013210D01*
X001972Y013190D01*
X002010Y013180D01*
X002350Y013180D01*
X002350Y013650D01*
X002450Y013650D01*
X002450Y013750D01*
X002920Y013750D01*
X002920Y014090D01*
X002910Y014128D01*
X002890Y014162D01*
X002862Y014190D01*
X002828Y014210D01*
X002790Y014220D01*
X002652Y014220D01*
X002706Y014242D01*
X002865Y014187D02*
X003114Y014187D01*
X003057Y014089D02*
X002920Y014089D01*
X002920Y013990D02*
X003030Y013990D01*
X003030Y013892D02*
X002920Y013892D01*
X002920Y013793D02*
X003065Y013793D01*
X003132Y013695D02*
X002450Y013695D01*
X002450Y013650D02*
X002920Y013650D01*
X002920Y013310D01*
X002910Y013272D01*
X002890Y013238D01*
X002862Y013210D01*
X002828Y013190D01*
X002790Y013180D01*
X002450Y013180D01*
X002450Y013650D01*
X002450Y013596D02*
X002350Y013596D01*
X002350Y013498D02*
X002450Y013498D01*
X002450Y013399D02*
X002350Y013399D01*
X002350Y013301D02*
X002450Y013301D01*
X002450Y013202D02*
X002350Y013202D01*
X001952Y013202D02*
X000610Y013202D01*
X000610Y013104D02*
X003180Y013104D01*
X003180Y013202D02*
X002848Y013202D01*
X002917Y013301D02*
X003180Y013301D01*
X003180Y013399D02*
X002920Y013399D01*
X002920Y013498D02*
X003180Y013498D01*
X003180Y013596D02*
X002920Y013596D01*
X002350Y013695D02*
X000610Y013695D01*
X000610Y013793D02*
X001880Y013793D01*
X001880Y013892D02*
X000610Y013892D01*
X000610Y013990D02*
X001880Y013990D01*
X001880Y014089D02*
X000610Y014089D01*
X000610Y014187D02*
X001935Y014187D01*
X002051Y014286D02*
X000610Y014286D01*
X000610Y014384D02*
X001952Y014384D01*
X001906Y014483D02*
X000610Y014483D01*
X000610Y014581D02*
X001865Y014581D01*
X001860Y014680D02*
X000610Y014680D01*
X000610Y014778D02*
X001860Y014778D01*
X001889Y014877D02*
X000610Y014877D01*
X000610Y014975D02*
X001929Y014975D01*
X002010Y015074D02*
X000610Y015074D01*
X000610Y015172D02*
X002129Y015172D01*
X002066Y015271D02*
X000610Y015271D01*
X000610Y015369D02*
X001967Y015369D01*
X001912Y015468D02*
X000610Y015468D01*
X000610Y015566D02*
X001871Y015566D01*
X001860Y015665D02*
X000610Y015665D01*
X000610Y015763D02*
X001860Y015763D01*
X001882Y015862D02*
X000610Y015862D01*
X000610Y015960D02*
X001923Y015960D01*
X001995Y016059D02*
X000610Y016059D01*
X000610Y016157D02*
X002093Y016157D01*
X002081Y016256D02*
X000610Y016256D01*
X000610Y016354D02*
X001982Y016354D01*
X001918Y016453D02*
X000610Y016453D01*
X000610Y016551D02*
X001877Y016551D01*
X001860Y016650D02*
X000610Y016650D01*
X000610Y016748D02*
X001860Y016748D01*
X001876Y016847D02*
X000610Y016847D01*
X000610Y016945D02*
X001917Y016945D01*
X001980Y017044D02*
X000611Y017044D01*
X000710Y017142D02*
X002078Y017142D01*
X002722Y017142D02*
X004819Y017142D01*
X004917Y017241D02*
X000808Y017241D01*
X000907Y017339D02*
X005016Y017339D01*
X005086Y017410D02*
X004086Y016410D01*
X004030Y016274D01*
X004030Y016037D01*
X003976Y015983D01*
X003900Y015799D01*
X003900Y015601D01*
X003976Y015417D01*
X004117Y015276D01*
X004301Y015200D01*
X004499Y015200D01*
X004683Y015276D01*
X004824Y015417D01*
X004900Y015601D01*
X004900Y015799D01*
X004824Y015983D01*
X004770Y016037D01*
X004770Y016047D01*
X005553Y016830D01*
X006063Y016830D01*
X006117Y016776D01*
X006301Y016700D01*
X006499Y016700D01*
X006683Y016776D01*
X006824Y016917D01*
X006900Y017101D01*
X006900Y017299D01*
X006824Y017483D01*
X006683Y017624D01*
X006499Y017700D01*
X006301Y017700D01*
X006117Y017624D01*
X006063Y017570D01*
X005326Y017570D01*
X005190Y017514D01*
X005086Y017410D01*
X005114Y017438D02*
X001005Y017438D01*
X001104Y017536D02*
X005244Y017536D01*
X004720Y017044D02*
X002820Y017044D01*
X002883Y016945D02*
X004622Y016945D01*
X004523Y016847D02*
X002924Y016847D01*
X002940Y016748D02*
X004425Y016748D01*
X004326Y016650D02*
X002940Y016650D01*
X002923Y016551D02*
X004228Y016551D01*
X004129Y016453D02*
X002882Y016453D01*
X002818Y016354D02*
X004063Y016354D01*
X004030Y016256D02*
X002719Y016256D01*
X002707Y016157D02*
X004030Y016157D01*
X004030Y016059D02*
X002805Y016059D01*
X002877Y015960D02*
X003967Y015960D01*
X003926Y015862D02*
X002918Y015862D01*
X002940Y015763D02*
X003900Y015763D01*
X003900Y015665D02*
X002940Y015665D01*
X002929Y015566D02*
X003914Y015566D01*
X003955Y015468D02*
X002888Y015468D01*
X002833Y015369D02*
X004024Y015369D01*
X004130Y015271D02*
X002734Y015271D01*
X002671Y015172D02*
X004312Y015172D01*
X004288Y015168D02*
X004361Y015180D01*
X004361Y014739D01*
X004439Y014739D01*
X004880Y014739D01*
X004868Y014812D01*
X004845Y014884D01*
X004811Y014952D01*
X004766Y015013D01*
X004713Y015066D01*
X004652Y015111D01*
X004584Y015145D01*
X004512Y015168D01*
X004439Y015180D01*
X004439Y014739D01*
X004439Y014661D01*
X004880Y014661D01*
X004868Y014588D01*
X004845Y014516D01*
X004811Y014448D01*
X004766Y014387D01*
X004713Y014334D01*
X004652Y014289D01*
X004584Y014255D01*
X004512Y014232D01*
X004439Y014220D01*
X004439Y014661D01*
X004361Y014661D01*
X004361Y014220D01*
X004288Y014232D01*
X004216Y014255D01*
X004148Y014289D01*
X004087Y014334D01*
X004034Y014387D01*
X003989Y014448D01*
X003955Y014516D01*
X003932Y014588D01*
X003920Y014661D01*
X004361Y014661D01*
X004361Y014739D01*
X003920Y014739D01*
X003932Y014812D01*
X003955Y014884D01*
X003989Y014952D01*
X004034Y015013D01*
X004087Y015066D01*
X004148Y015111D01*
X004216Y015145D01*
X004288Y015168D01*
X004361Y015172D02*
X004439Y015172D01*
X004488Y015172D02*
X010233Y015172D01*
X010301Y015200D02*
X010117Y015124D01*
X009976Y014983D01*
X009900Y014799D01*
X009900Y014601D01*
X009976Y014417D01*
X010117Y014276D01*
X010301Y014200D01*
X010117Y014124D01*
X009976Y013983D01*
X009900Y013799D01*
X009900Y013601D01*
X009976Y013417D01*
X010117Y013276D01*
X010301Y013200D01*
X010499Y013200D01*
X010683Y013276D01*
X010824Y013417D01*
X010900Y013601D01*
X010900Y013799D01*
X010824Y013983D01*
X010683Y014124D01*
X010499Y014200D01*
X010301Y014200D01*
X010499Y014200D01*
X010683Y014276D01*
X010824Y014417D01*
X010900Y014601D01*
X010900Y014799D01*
X010824Y014983D01*
X010683Y015124D01*
X010499Y015200D01*
X010301Y015200D01*
X010567Y015172D02*
X012181Y015172D01*
X012200Y015182D02*
X012222Y015189D01*
X012094Y015242D01*
X011942Y015394D01*
X011860Y015593D01*
X011860Y015807D01*
X011942Y016006D01*
X012094Y016158D01*
X012196Y016200D01*
X012094Y016242D01*
X011942Y016394D01*
X011860Y016593D01*
X011860Y016807D01*
X011942Y017006D01*
X012094Y017158D01*
X012293Y017240D01*
X012507Y017240D01*
X012706Y017158D01*
X012858Y017006D01*
X012940Y016807D01*
X012940Y016593D01*
X012858Y016394D01*
X012706Y016242D01*
X012604Y016200D01*
X012706Y016158D01*
X012858Y016006D01*
X012940Y015807D01*
X012940Y015593D01*
X012858Y015394D01*
X012706Y015242D01*
X012578Y015189D01*
X012600Y015182D01*
X012673Y015145D01*
X012739Y015097D01*
X012797Y015039D01*
X012845Y014973D01*
X012882Y014900D01*
X012907Y014822D01*
X012919Y014750D01*
X012450Y014750D01*
X012450Y014650D01*
X012919Y014650D01*
X012907Y014578D01*
X012882Y014500D01*
X012845Y014427D01*
X012797Y014361D01*
X012739Y014303D01*
X012673Y014255D01*
X012600Y014218D01*
X012522Y014193D01*
X012450Y014181D01*
X012450Y014650D01*
X012350Y014650D01*
X012350Y014181D01*
X012278Y014193D01*
X012200Y014218D01*
X012127Y014255D01*
X012061Y014303D01*
X012003Y014361D01*
X011955Y014427D01*
X011918Y014500D01*
X011893Y014578D01*
X011881Y014650D01*
X012350Y014650D01*
X012350Y014750D01*
X011881Y014750D01*
X011893Y014822D01*
X011918Y014900D01*
X011955Y014973D01*
X012003Y015039D01*
X012061Y015097D01*
X012127Y015145D01*
X012200Y015182D01*
X012066Y015271D02*
X010871Y015271D01*
X010900Y015300D02*
X010800Y015200D01*
X010000Y015200D01*
X009900Y015300D01*
X009900Y016100D01*
X010000Y016200D01*
X010800Y016200D01*
X010900Y016100D01*
X010900Y015300D01*
X010900Y015369D02*
X011967Y015369D01*
X011912Y015468D02*
X010900Y015468D01*
X010900Y015566D02*
X011871Y015566D01*
X011860Y015665D02*
X010900Y015665D01*
X010900Y015763D02*
X011860Y015763D01*
X011882Y015862D02*
X010900Y015862D01*
X010900Y015960D02*
X011923Y015960D01*
X011995Y016059D02*
X010900Y016059D01*
X010843Y016157D02*
X012093Y016157D01*
X012081Y016256D02*
X004979Y016256D01*
X005077Y016354D02*
X011982Y016354D01*
X011918Y016453D02*
X005176Y016453D01*
X005274Y016551D02*
X011877Y016551D01*
X011860Y016650D02*
X005373Y016650D01*
X005471Y016748D02*
X006185Y016748D01*
X006615Y016748D02*
X007738Y016748D01*
X007716Y016755D02*
X007788Y016732D01*
X007850Y016722D01*
X007850Y017150D01*
X007950Y017150D01*
X007950Y017250D01*
X008378Y017250D01*
X008368Y017312D01*
X008345Y017384D01*
X008311Y017452D01*
X008266Y017513D01*
X008213Y017566D01*
X008152Y017611D01*
X008084Y017645D01*
X008012Y017668D01*
X007950Y017678D01*
X007950Y017250D01*
X007850Y017250D01*
X007850Y017678D01*
X007788Y017668D01*
X007716Y017645D01*
X007648Y017611D01*
X007587Y017566D01*
X007534Y017513D01*
X007489Y017452D01*
X007455Y017384D01*
X007432Y017312D01*
X007422Y017250D01*
X007850Y017250D01*
X007850Y017150D01*
X007422Y017150D01*
X007432Y017088D01*
X007455Y017016D01*
X007489Y016948D01*
X007534Y016887D01*
X007587Y016834D01*
X007648Y016789D01*
X007716Y016755D01*
X007850Y016748D02*
X007950Y016748D01*
X007950Y016722D02*
X008012Y016732D01*
X008084Y016755D01*
X008152Y016789D01*
X008213Y016834D01*
X008266Y016887D01*
X008311Y016948D01*
X008345Y017016D01*
X008368Y017088D01*
X008378Y017150D01*
X007950Y017150D01*
X007950Y016722D01*
X008062Y016748D02*
X011860Y016748D01*
X011876Y016847D02*
X008225Y016847D01*
X008308Y016945D02*
X011917Y016945D01*
X011980Y017044D02*
X008354Y017044D01*
X008377Y017142D02*
X012078Y017142D01*
X012722Y017142D02*
X014328Y017142D01*
X014344Y017158D02*
X014192Y017006D01*
X014110Y016807D01*
X014110Y016593D01*
X014192Y016394D01*
X014344Y016242D01*
X014446Y016200D01*
X014344Y016158D01*
X014192Y016006D01*
X014110Y015807D01*
X014110Y015593D01*
X014117Y015577D01*
X013404Y014864D01*
X013360Y014758D01*
X013360Y014320D01*
X011030Y011990D01*
X010817Y011990D01*
X010683Y012124D01*
X010499Y012200D01*
X010301Y012200D01*
X010117Y012124D01*
X009976Y011983D01*
X009900Y011799D01*
X009900Y011601D01*
X009976Y011417D01*
X010117Y011276D01*
X010301Y011200D01*
X010499Y011200D01*
X010683Y011276D01*
X010817Y011410D01*
X011208Y011410D01*
X011314Y011454D01*
X013814Y013954D01*
X013896Y014036D01*
X013940Y014142D01*
X013940Y014580D01*
X014135Y014775D01*
X014131Y014750D01*
X014600Y014750D01*
X014600Y014650D01*
X014700Y014650D01*
X014700Y014750D01*
X015169Y014750D01*
X015157Y014822D01*
X015132Y014900D01*
X015095Y014973D01*
X015047Y015039D01*
X014989Y015097D01*
X014923Y015145D01*
X014850Y015182D01*
X014828Y015189D01*
X014956Y015242D01*
X015108Y015394D01*
X015190Y015593D01*
X015190Y015807D01*
X015108Y016006D01*
X014956Y016158D01*
X014854Y016200D01*
X014956Y016242D01*
X015108Y016394D01*
X015190Y016593D01*
X015190Y016807D01*
X015108Y017006D01*
X014956Y017158D01*
X014757Y017240D01*
X014543Y017240D01*
X014344Y017158D01*
X014230Y017044D02*
X012820Y017044D01*
X012883Y016945D02*
X014167Y016945D01*
X014126Y016847D02*
X012924Y016847D01*
X012940Y016748D02*
X014110Y016748D01*
X014110Y016650D02*
X012940Y016650D01*
X012923Y016551D02*
X014127Y016551D01*
X014168Y016453D02*
X012882Y016453D01*
X012818Y016354D02*
X014232Y016354D01*
X014331Y016256D02*
X012719Y016256D01*
X012707Y016157D02*
X014343Y016157D01*
X014245Y016059D02*
X012805Y016059D01*
X012877Y015960D02*
X014173Y015960D01*
X014132Y015862D02*
X012918Y015862D01*
X012940Y015763D02*
X014110Y015763D01*
X014110Y015665D02*
X012940Y015665D01*
X012929Y015566D02*
X014106Y015566D01*
X014007Y015468D02*
X012888Y015468D01*
X012833Y015369D02*
X013909Y015369D01*
X013810Y015271D02*
X012734Y015271D01*
X012619Y015172D02*
X013712Y015172D01*
X013613Y015074D02*
X012762Y015074D01*
X012843Y014975D02*
X013515Y014975D01*
X013416Y014877D02*
X012889Y014877D01*
X012914Y014778D02*
X013368Y014778D01*
X013360Y014680D02*
X012450Y014680D01*
X012450Y014581D02*
X012350Y014581D01*
X012350Y014483D02*
X012450Y014483D01*
X012450Y014384D02*
X012350Y014384D01*
X012350Y014286D02*
X012450Y014286D01*
X012450Y014187D02*
X012350Y014187D01*
X012315Y014187D02*
X010531Y014187D01*
X010693Y014286D02*
X012086Y014286D01*
X011987Y014384D02*
X010791Y014384D01*
X010851Y014483D02*
X011927Y014483D01*
X011892Y014581D02*
X010892Y014581D01*
X010900Y014680D02*
X012350Y014680D01*
X011957Y014975D02*
X010827Y014975D01*
X010868Y014877D02*
X011911Y014877D01*
X011886Y014778D02*
X010900Y014778D01*
X010734Y015074D02*
X012038Y015074D01*
X012485Y014187D02*
X013227Y014187D01*
X013325Y014286D02*
X012714Y014286D01*
X012813Y014384D02*
X013360Y014384D01*
X013360Y014483D02*
X012873Y014483D01*
X012908Y014581D02*
X013360Y014581D01*
X013128Y014089D02*
X010719Y014089D01*
X010817Y013990D02*
X013030Y013990D01*
X012931Y013892D02*
X010862Y013892D01*
X010900Y013793D02*
X012833Y013793D01*
X012734Y013695D02*
X010900Y013695D01*
X010898Y013596D02*
X012636Y013596D01*
X012537Y013498D02*
X010857Y013498D01*
X010806Y013399D02*
X012439Y013399D01*
X012340Y013301D02*
X010708Y013301D01*
X010652Y013111D02*
X010584Y013145D01*
X010512Y013168D01*
X010439Y013180D01*
X010439Y012739D01*
X010880Y012739D01*
X010868Y012812D01*
X010845Y012884D01*
X010811Y012952D01*
X010766Y013013D01*
X010713Y013066D01*
X010652Y013111D01*
X010661Y013104D02*
X012143Y013104D01*
X012242Y013202D02*
X010504Y013202D01*
X010439Y013104D02*
X010361Y013104D01*
X010361Y013180D02*
X010288Y013168D01*
X010216Y013145D01*
X010148Y013111D01*
X010087Y013066D01*
X010034Y013013D01*
X009989Y012952D01*
X009955Y012884D01*
X009932Y012812D01*
X009920Y012739D01*
X010361Y012739D01*
X010361Y013180D01*
X010296Y013202D02*
X004504Y013202D01*
X004499Y013200D02*
X004683Y013276D01*
X004824Y013417D01*
X004900Y013601D01*
X004900Y013799D01*
X004824Y013983D01*
X004683Y014124D01*
X004499Y014200D01*
X004301Y014200D01*
X004117Y014124D01*
X003976Y013983D01*
X003900Y013799D01*
X003900Y013601D01*
X003976Y013417D01*
X004117Y013276D01*
X004301Y013200D01*
X004499Y013200D01*
X004704Y013104D02*
X010139Y013104D01*
X010028Y013005D02*
X004802Y013005D01*
X004856Y012907D02*
X009967Y012907D01*
X009931Y012808D02*
X004896Y012808D01*
X004900Y012710D02*
X010361Y012710D01*
X010361Y012739D02*
X010361Y012661D01*
X010439Y012661D01*
X010439Y012739D01*
X010361Y012739D01*
X010361Y012808D02*
X010439Y012808D01*
X010439Y012710D02*
X011749Y012710D01*
X011848Y012808D02*
X010869Y012808D01*
X010833Y012907D02*
X011946Y012907D01*
X012045Y013005D02*
X010772Y013005D01*
X010439Y013005D02*
X010361Y013005D01*
X010361Y012907D02*
X010439Y012907D01*
X010439Y012661D02*
X010880Y012661D01*
X010868Y012588D01*
X010845Y012516D01*
X010811Y012448D01*
X010766Y012387D01*
X010713Y012334D01*
X010652Y012289D01*
X010584Y012255D01*
X010512Y012232D01*
X010439Y012220D01*
X010439Y012661D01*
X010439Y012611D02*
X010361Y012611D01*
X010361Y012661D02*
X010361Y012220D01*
X010288Y012232D01*
X010216Y012255D01*
X010148Y012289D01*
X010087Y012334D01*
X010034Y012387D01*
X009989Y012448D01*
X009955Y012516D01*
X009932Y012588D01*
X009920Y012661D01*
X010361Y012661D01*
X010361Y012513D02*
X010439Y012513D01*
X010439Y012414D02*
X010361Y012414D01*
X010361Y012316D02*
X010439Y012316D01*
X010687Y012316D02*
X011355Y012316D01*
X011454Y012414D02*
X010786Y012414D01*
X010843Y012513D02*
X011552Y012513D01*
X011651Y012611D02*
X010872Y012611D01*
X010689Y012119D02*
X011158Y012119D01*
X011257Y012217D02*
X004541Y012217D01*
X004689Y012119D02*
X010111Y012119D01*
X010013Y012020D02*
X004787Y012020D01*
X004849Y011922D02*
X009951Y011922D01*
X009910Y011823D02*
X004890Y011823D01*
X004900Y011725D02*
X009900Y011725D01*
X009900Y011626D02*
X004900Y011626D01*
X004870Y011528D02*
X009930Y011528D01*
X009971Y011429D02*
X004829Y011429D01*
X005081Y011331D02*
X010062Y011331D01*
X010223Y011232D02*
X005179Y011232D01*
X005241Y011170D02*
X005241Y011170D01*
X005278Y011134D02*
X010140Y011134D01*
X010117Y011124D02*
X009976Y010983D01*
X009900Y010799D01*
X009900Y010601D01*
X009976Y010417D01*
X010117Y010276D01*
X010301Y010200D01*
X010499Y010200D01*
X010683Y010276D01*
X010824Y010417D01*
X010900Y010601D01*
X010900Y010799D01*
X010824Y010983D01*
X010683Y011124D01*
X010499Y011200D01*
X010301Y011200D01*
X010117Y011124D01*
X010028Y011035D02*
X005370Y011035D01*
X005370Y010937D02*
X009957Y010937D01*
X009916Y010838D02*
X005370Y010838D01*
X005370Y010740D02*
X009900Y010740D01*
X009900Y010641D02*
X005370Y010641D01*
X005370Y010543D02*
X009924Y010543D01*
X009965Y010444D02*
X005370Y010444D01*
X005370Y010346D02*
X010047Y010346D01*
X010187Y010247D02*
X005370Y010247D01*
X005370Y010149D02*
X010176Y010149D01*
X010117Y010124D02*
X009976Y009983D01*
X009900Y009799D01*
X009900Y009601D01*
X009976Y009417D01*
X010117Y009276D01*
X010301Y009200D01*
X010499Y009200D01*
X010683Y009276D01*
X010817Y009410D01*
X011030Y009410D01*
X013404Y007036D01*
X013486Y006954D01*
X013592Y006910D01*
X013936Y006910D01*
X013942Y006894D01*
X014094Y006742D01*
X014222Y006689D01*
X014200Y006682D01*
X014127Y006645D01*
X014061Y006597D01*
X014003Y006539D01*
X013955Y006473D01*
X013918Y006400D01*
X013893Y006322D01*
X013880Y006241D01*
X013880Y006230D01*
X014370Y006230D01*
X014370Y006660D01*
X014430Y006660D01*
X014430Y006230D01*
X014920Y006230D01*
X014920Y006241D01*
X014907Y006322D01*
X014882Y006400D01*
X014845Y006473D01*
X014797Y006539D01*
X014739Y006597D01*
X014673Y006645D01*
X014600Y006682D01*
X014578Y006689D01*
X014706Y006742D01*
X014858Y006894D01*
X014940Y007093D01*
X014940Y007307D01*
X014858Y007506D01*
X014706Y007658D01*
X014604Y007700D01*
X014706Y007742D01*
X014858Y007894D01*
X014940Y008093D01*
X014940Y008307D01*
X014858Y008506D01*
X014706Y008658D01*
X014507Y008740D01*
X014293Y008740D01*
X014094Y008658D01*
X013942Y008506D01*
X013860Y008307D01*
X013860Y008093D01*
X013942Y007894D01*
X014094Y007742D01*
X014196Y007700D01*
X014094Y007658D01*
X013942Y007506D01*
X013936Y007490D01*
X013770Y007490D01*
X011314Y009946D01*
X011208Y009990D01*
X010817Y009990D01*
X010683Y010124D01*
X010499Y010200D01*
X010301Y010200D01*
X010117Y010124D01*
X010043Y010050D02*
X005370Y010050D01*
X005370Y009952D02*
X009963Y009952D01*
X009922Y009853D02*
X005370Y009853D01*
X005370Y009755D02*
X009900Y009755D01*
X009900Y009656D02*
X005370Y009656D01*
X005370Y009558D02*
X009918Y009558D01*
X009959Y009459D02*
X005370Y009459D01*
X005370Y009361D02*
X010032Y009361D01*
X010151Y009262D02*
X005370Y009262D01*
X005370Y009164D02*
X010212Y009164D01*
X010058Y009065D02*
X005370Y009065D01*
X005370Y008967D02*
X009969Y008967D01*
X009928Y008868D02*
X005370Y008868D01*
X005392Y008770D02*
X009900Y008770D01*
X009900Y008671D02*
X005490Y008671D01*
X005589Y008573D02*
X009912Y008573D01*
X009952Y008474D02*
X005687Y008474D01*
X005786Y008376D02*
X010017Y008376D01*
X010116Y008277D02*
X005884Y008277D01*
X005983Y008179D02*
X010249Y008179D01*
X010073Y008080D02*
X006081Y008080D01*
X006180Y007982D02*
X009975Y007982D01*
X009935Y007883D02*
X006278Y007883D01*
X006377Y007785D02*
X009900Y007785D01*
X009900Y007686D02*
X006475Y007686D01*
X006574Y007588D02*
X009905Y007588D01*
X009946Y007489D02*
X006672Y007489D01*
X006771Y007391D02*
X010002Y007391D01*
X010101Y007292D02*
X006869Y007292D01*
X006968Y007194D02*
X010285Y007194D01*
X010515Y007194D02*
X013246Y007194D01*
X013148Y007292D02*
X010699Y007292D01*
X010798Y007391D02*
X013049Y007391D01*
X012951Y007489D02*
X010854Y007489D01*
X010895Y007588D02*
X012852Y007588D01*
X012754Y007686D02*
X010900Y007686D01*
X010900Y007785D02*
X012655Y007785D01*
X012557Y007883D02*
X010865Y007883D01*
X010825Y007982D02*
X012458Y007982D01*
X012360Y008080D02*
X010727Y008080D01*
X010551Y008179D02*
X012261Y008179D01*
X012163Y008277D02*
X010684Y008277D01*
X010783Y008376D02*
X012064Y008376D01*
X011966Y008474D02*
X010848Y008474D01*
X010888Y008573D02*
X011867Y008573D01*
X011769Y008671D02*
X010900Y008671D01*
X010900Y008770D02*
X011670Y008770D01*
X011572Y008868D02*
X010872Y008868D01*
X010831Y008967D02*
X011473Y008967D01*
X011375Y009065D02*
X010742Y009065D01*
X010588Y009164D02*
X011276Y009164D01*
X011178Y009262D02*
X010649Y009262D01*
X010768Y009361D02*
X011079Y009361D01*
X011506Y009755D02*
X015938Y009755D01*
X015938Y009853D02*
X011407Y009853D01*
X011301Y009952D02*
X015938Y009952D01*
X015938Y010050D02*
X010757Y010050D01*
X010624Y010149D02*
X015938Y010149D01*
X015938Y010247D02*
X010613Y010247D01*
X010753Y010346D02*
X015938Y010346D01*
X015938Y010444D02*
X010835Y010444D01*
X010876Y010543D02*
X015938Y010543D01*
X015938Y010641D02*
X010900Y010641D01*
X010900Y010740D02*
X011873Y010740D01*
X011826Y010759D02*
X012017Y010680D01*
X012224Y010680D01*
X012415Y010759D01*
X012561Y010905D01*
X012640Y011097D01*
X012640Y011303D01*
X012561Y011495D01*
X012415Y011641D01*
X012224Y011720D01*
X012017Y011720D01*
X011826Y011641D01*
X011680Y011495D01*
X011600Y011303D01*
X011600Y011097D01*
X011680Y010905D01*
X011826Y010759D01*
X011747Y010838D02*
X010884Y010838D01*
X010843Y010937D02*
X011667Y010937D01*
X011626Y011035D02*
X010772Y011035D01*
X010660Y011134D02*
X011600Y011134D01*
X011600Y011232D02*
X010577Y011232D01*
X010738Y011331D02*
X011612Y011331D01*
X011652Y011429D02*
X011254Y011429D01*
X011388Y011528D02*
X011713Y011528D01*
X011811Y011626D02*
X011486Y011626D01*
X011585Y011725D02*
X015938Y011725D01*
X015938Y011823D02*
X011683Y011823D01*
X011782Y011922D02*
X015938Y011922D01*
X015938Y012020D02*
X011880Y012020D01*
X011979Y012119D02*
X015938Y012119D01*
X015938Y012217D02*
X012077Y012217D01*
X012176Y012316D02*
X015938Y012316D01*
X015938Y012414D02*
X012274Y012414D01*
X012373Y012513D02*
X015938Y012513D01*
X015938Y012611D02*
X012471Y012611D01*
X012570Y012710D02*
X015938Y012710D01*
X015938Y012808D02*
X012668Y012808D01*
X012767Y012907D02*
X015938Y012907D01*
X015938Y013005D02*
X012865Y013005D01*
X012964Y013104D02*
X015938Y013104D01*
X015938Y013202D02*
X013062Y013202D01*
X013161Y013301D02*
X015938Y013301D01*
X015938Y013399D02*
X013259Y013399D01*
X013358Y013498D02*
X015938Y013498D01*
X015938Y013596D02*
X013456Y013596D01*
X013555Y013695D02*
X015938Y013695D01*
X015938Y013793D02*
X013653Y013793D01*
X013752Y013892D02*
X015938Y013892D01*
X015938Y013990D02*
X013850Y013990D01*
X013918Y014089D02*
X015938Y014089D01*
X015938Y014187D02*
X014735Y014187D01*
X014700Y014187D02*
X014600Y014187D01*
X014600Y014181D02*
X014600Y014650D01*
X014131Y014650D01*
X014143Y014578D01*
X014168Y014500D01*
X014205Y014427D01*
X014253Y014361D01*
X014311Y014303D01*
X014377Y014255D01*
X014450Y014218D01*
X014528Y014193D01*
X014600Y014181D01*
X014565Y014187D02*
X013940Y014187D01*
X013940Y014286D02*
X014336Y014286D01*
X014237Y014384D02*
X013940Y014384D01*
X013940Y014483D02*
X014177Y014483D01*
X014142Y014581D02*
X013941Y014581D01*
X014040Y014680D02*
X014600Y014680D01*
X014600Y014581D02*
X014700Y014581D01*
X014700Y014650D02*
X014700Y014181D01*
X014772Y014193D01*
X014850Y014218D01*
X014923Y014255D01*
X014989Y014303D01*
X015047Y014361D01*
X015095Y014427D01*
X015132Y014500D01*
X015157Y014578D01*
X015169Y014650D01*
X014700Y014650D01*
X014700Y014680D02*
X015938Y014680D01*
X015938Y014778D02*
X015164Y014778D01*
X015139Y014877D02*
X015938Y014877D01*
X015938Y014975D02*
X015093Y014975D01*
X015012Y015074D02*
X015938Y015074D01*
X015938Y015172D02*
X014869Y015172D01*
X014984Y015271D02*
X015938Y015271D01*
X015938Y015369D02*
X015083Y015369D01*
X015138Y015468D02*
X015938Y015468D01*
X015938Y015566D02*
X015179Y015566D01*
X015190Y015665D02*
X015938Y015665D01*
X015938Y015763D02*
X015190Y015763D01*
X015168Y015862D02*
X015938Y015862D01*
X015938Y015960D02*
X015127Y015960D01*
X015055Y016059D02*
X015938Y016059D01*
X015938Y016157D02*
X014957Y016157D01*
X014969Y016256D02*
X015938Y016256D01*
X015938Y016354D02*
X015068Y016354D01*
X015132Y016453D02*
X015938Y016453D01*
X015938Y016551D02*
X015173Y016551D01*
X015190Y016650D02*
X015938Y016650D01*
X015938Y016748D02*
X015190Y016748D01*
X015174Y016847D02*
X015938Y016847D01*
X015938Y016945D02*
X015133Y016945D01*
X015070Y017044D02*
X015937Y017044D01*
X015838Y017142D02*
X014972Y017142D01*
X015444Y017536D02*
X008243Y017536D01*
X008318Y017438D02*
X015543Y017438D01*
X015641Y017339D02*
X008360Y017339D01*
X008104Y017635D02*
X015346Y017635D01*
X015740Y017241D02*
X007950Y017241D01*
X007950Y017339D02*
X007850Y017339D01*
X007850Y017241D02*
X006900Y017241D01*
X006900Y017142D02*
X007423Y017142D01*
X007446Y017044D02*
X006876Y017044D01*
X006836Y016945D02*
X007492Y016945D01*
X007575Y016847D02*
X006754Y016847D01*
X006884Y017339D02*
X007440Y017339D01*
X007482Y017438D02*
X006843Y017438D01*
X006771Y017536D02*
X007557Y017536D01*
X007696Y017635D02*
X006657Y017635D01*
X006143Y017635D02*
X001202Y017635D01*
X002790Y015074D02*
X004098Y015074D01*
X004007Y014975D02*
X002871Y014975D01*
X002911Y014877D02*
X003953Y014877D01*
X003926Y014778D02*
X002940Y014778D01*
X002940Y014680D02*
X004361Y014680D01*
X004439Y014680D02*
X009900Y014680D01*
X009900Y014778D02*
X004874Y014778D01*
X004847Y014877D02*
X009932Y014877D01*
X009973Y014975D02*
X004793Y014975D01*
X004702Y015074D02*
X010066Y015074D01*
X009929Y015271D02*
X004670Y015271D01*
X004776Y015369D02*
X009900Y015369D01*
X009900Y015468D02*
X004845Y015468D01*
X004886Y015566D02*
X009900Y015566D01*
X009900Y015665D02*
X004900Y015665D01*
X004900Y015763D02*
X009900Y015763D01*
X009900Y015862D02*
X004874Y015862D01*
X004833Y015960D02*
X009900Y015960D01*
X009900Y016059D02*
X004782Y016059D01*
X004880Y016157D02*
X009957Y016157D01*
X009908Y014581D02*
X004866Y014581D01*
X004828Y014483D02*
X009949Y014483D01*
X010009Y014384D02*
X004763Y014384D01*
X004644Y014286D02*
X010107Y014286D01*
X010269Y014187D02*
X004531Y014187D01*
X004439Y014286D02*
X004361Y014286D01*
X004361Y014384D02*
X004439Y014384D01*
X004439Y014483D02*
X004361Y014483D01*
X004361Y014581D02*
X004439Y014581D01*
X004439Y014778D02*
X004361Y014778D01*
X004361Y014877D02*
X004439Y014877D01*
X004439Y014975D02*
X004361Y014975D01*
X004361Y015074D02*
X004439Y015074D01*
X003934Y014581D02*
X002935Y014581D01*
X002894Y014483D02*
X003972Y014483D01*
X004037Y014384D02*
X002848Y014384D01*
X003557Y014286D02*
X004156Y014286D01*
X004269Y014187D02*
X003686Y014187D01*
X003743Y014089D02*
X004081Y014089D01*
X003983Y013990D02*
X003770Y013990D01*
X003770Y013892D02*
X003938Y013892D01*
X003900Y013793D02*
X003735Y013793D01*
X003668Y013695D02*
X003900Y013695D01*
X003902Y013596D02*
X003620Y013596D01*
X003620Y013498D02*
X003943Y013498D01*
X003994Y013399D02*
X003620Y013399D01*
X003620Y013301D02*
X004092Y013301D01*
X004096Y013104D02*
X003620Y013104D01*
X003620Y013202D02*
X004296Y013202D01*
X003998Y013005D02*
X003620Y013005D01*
X003620Y012907D02*
X003944Y012907D01*
X003904Y012808D02*
X003620Y012808D01*
X003620Y012710D02*
X003900Y012710D01*
X003900Y012611D02*
X003620Y012611D01*
X003620Y012513D02*
X003936Y012513D01*
X003979Y012414D02*
X003620Y012414D01*
X003620Y012316D02*
X004077Y012316D01*
X004259Y012217D02*
X003620Y012217D01*
X003620Y012119D02*
X004111Y012119D01*
X004013Y012020D02*
X003620Y012020D01*
X003620Y011922D02*
X003951Y011922D01*
X003910Y011823D02*
X003620Y011823D01*
X003620Y011725D02*
X003900Y011725D01*
X003900Y011626D02*
X003620Y011626D01*
X003634Y011528D02*
X003930Y011528D01*
X003971Y011429D02*
X003732Y011429D01*
X003405Y011134D02*
X002730Y011134D01*
X002681Y011232D02*
X003307Y011232D01*
X003208Y011331D02*
X002794Y011331D01*
X002872Y011429D02*
X003180Y011429D01*
X003180Y011528D02*
X002913Y011528D01*
X002940Y011626D02*
X003180Y011626D01*
X003180Y011725D02*
X002940Y011725D01*
X002934Y011823D02*
X003180Y011823D01*
X003180Y011922D02*
X002893Y011922D01*
X002844Y012020D02*
X003180Y012020D01*
X003180Y012119D02*
X002745Y012119D01*
X002563Y012217D02*
X003180Y012217D01*
X003180Y012316D02*
X000610Y012316D01*
X000610Y012414D02*
X003180Y012414D01*
X003180Y012513D02*
X000610Y012513D01*
X000610Y012611D02*
X003180Y012611D01*
X003180Y012710D02*
X000610Y012710D01*
X000610Y012808D02*
X003180Y012808D01*
X003180Y012907D02*
X000610Y012907D01*
X000610Y013005D02*
X003180Y013005D01*
X002237Y012217D02*
X000610Y012217D01*
X000610Y012119D02*
X002055Y012119D01*
X001956Y012020D02*
X000610Y012020D01*
X000610Y011922D02*
X001907Y011922D01*
X001866Y011823D02*
X000610Y011823D01*
X000610Y011725D02*
X001860Y011725D01*
X001860Y011626D02*
X000610Y011626D01*
X000610Y011528D02*
X001887Y011528D01*
X001928Y011429D02*
X000610Y011429D01*
X000610Y011331D02*
X002006Y011331D01*
X002119Y011232D02*
X000610Y011232D01*
X000610Y011134D02*
X002070Y011134D01*
X001971Y011035D02*
X000610Y011035D01*
X000610Y010937D02*
X001913Y010937D01*
X001873Y010838D02*
X000610Y010838D01*
X000610Y010740D02*
X001860Y010740D01*
X001860Y010641D02*
X000610Y010641D01*
X000610Y010543D02*
X001881Y010543D01*
X001922Y010444D02*
X000610Y010444D01*
X000610Y010346D02*
X001991Y010346D01*
X002089Y010247D02*
X000610Y010247D01*
X000610Y010149D02*
X002085Y010149D01*
X001986Y010050D02*
X000610Y010050D01*
X000610Y009952D02*
X001920Y009952D01*
X001879Y009853D02*
X000610Y009853D01*
X000610Y009755D02*
X001860Y009755D01*
X001860Y009656D02*
X000610Y009656D01*
X000610Y009558D02*
X001875Y009558D01*
X001915Y009459D02*
X000610Y009459D01*
X000610Y009361D02*
X001976Y009361D01*
X002074Y009262D02*
X000610Y009262D01*
X000610Y009164D02*
X001911Y009164D01*
X001880Y009065D02*
X000610Y009065D01*
X000610Y008967D02*
X001880Y008967D01*
X001880Y008868D02*
X000610Y008868D01*
X000610Y008770D02*
X001880Y008770D01*
X001880Y008650D02*
X001880Y008310D01*
X001890Y008272D01*
X001910Y008238D01*
X001938Y008210D01*
X001972Y008190D01*
X002010Y008180D01*
X002350Y008180D01*
X002350Y008650D01*
X001880Y008650D01*
X001880Y008573D02*
X000610Y008573D01*
X000610Y008671D02*
X002350Y008671D01*
X002350Y008573D02*
X002450Y008573D01*
X002450Y008650D02*
X002450Y008180D01*
X002790Y008180D01*
X002828Y008190D01*
X002862Y008210D01*
X002890Y008238D01*
X002910Y008272D01*
X002920Y008310D01*
X002920Y008650D01*
X002450Y008650D01*
X002450Y008671D02*
X003900Y008671D01*
X003900Y008770D02*
X002920Y008770D01*
X002920Y008868D02*
X003928Y008868D01*
X003969Y008967D02*
X002920Y008967D01*
X002920Y009065D02*
X004058Y009065D01*
X004212Y009164D02*
X002889Y009164D01*
X002726Y009262D02*
X004151Y009262D01*
X004032Y009361D02*
X002824Y009361D01*
X002885Y009459D02*
X003731Y009459D01*
X003632Y009558D02*
X002925Y009558D01*
X002940Y009656D02*
X003534Y009656D01*
X003435Y009755D02*
X002940Y009755D01*
X002921Y009853D02*
X003337Y009853D01*
X003238Y009952D02*
X002880Y009952D01*
X002814Y010050D02*
X003140Y010050D01*
X003041Y010149D02*
X002715Y010149D01*
X002711Y010247D02*
X002943Y010247D01*
X002844Y010346D02*
X002809Y010346D01*
X003271Y010740D02*
X003900Y010740D01*
X003900Y010641D02*
X003369Y010641D01*
X003468Y010543D02*
X003924Y010543D01*
X003965Y010444D02*
X003566Y010444D01*
X003665Y010346D02*
X004047Y010346D01*
X004187Y010247D02*
X003763Y010247D01*
X003862Y010149D02*
X004176Y010149D01*
X004043Y010050D02*
X003960Y010050D01*
X003916Y010838D02*
X003172Y010838D01*
X003074Y010937D02*
X003957Y010937D01*
X003504Y011035D02*
X002829Y011035D01*
X004723Y012316D02*
X010113Y012316D01*
X010014Y012414D02*
X004821Y012414D01*
X004864Y012513D02*
X009957Y012513D01*
X009928Y012611D02*
X004900Y012611D01*
X004708Y013301D02*
X010092Y013301D01*
X009994Y013399D02*
X004806Y013399D01*
X004857Y013498D02*
X009943Y013498D01*
X009902Y013596D02*
X004898Y013596D01*
X004900Y013695D02*
X009900Y013695D01*
X009900Y013793D02*
X004900Y013793D01*
X004862Y013892D02*
X009938Y013892D01*
X009983Y013990D02*
X004817Y013990D01*
X004719Y014089D02*
X010081Y014089D01*
X010787Y012020D02*
X011060Y012020D01*
X012368Y010740D02*
X014482Y010740D01*
X014488Y010737D02*
X014562Y010712D01*
X014640Y010700D01*
X014641Y010700D01*
X014641Y011161D01*
X014718Y011161D01*
X014718Y010700D01*
X014719Y010700D01*
X014797Y010712D01*
X014871Y010737D01*
X014942Y010772D01*
X015005Y010819D01*
X015061Y010874D01*
X015107Y010938D01*
X015143Y011008D01*
X015167Y011083D01*
X015180Y011161D01*
X015180Y011161D01*
X014718Y011161D01*
X014718Y011239D01*
X014641Y011239D01*
X014641Y011700D01*
X014640Y011700D01*
X014562Y011688D01*
X014488Y011663D01*
X014417Y011628D01*
X014354Y011581D01*
X014298Y011526D01*
X014252Y011462D01*
X014216Y011392D01*
X014192Y011317D01*
X014180Y011239D01*
X014180Y011239D01*
X014641Y011239D01*
X014641Y011161D01*
X014180Y011161D01*
X014192Y011083D01*
X014216Y011008D01*
X014252Y010938D01*
X014298Y010874D01*
X014354Y010819D01*
X014417Y010772D01*
X014488Y010737D01*
X014641Y010740D02*
X014718Y010740D01*
X014718Y010838D02*
X014641Y010838D01*
X014641Y010937D02*
X014718Y010937D01*
X014718Y011035D02*
X014641Y011035D01*
X014641Y011134D02*
X014718Y011134D01*
X014718Y011232D02*
X015938Y011232D01*
X015938Y011134D02*
X015175Y011134D01*
X015152Y011035D02*
X015938Y011035D01*
X015938Y010937D02*
X015106Y010937D01*
X015025Y010838D02*
X015938Y010838D01*
X015938Y010740D02*
X014877Y010740D01*
X014718Y011239D02*
X015180Y011239D01*
X015167Y011317D01*
X015143Y011392D01*
X015107Y011462D01*
X015061Y011526D01*
X015005Y011581D01*
X014942Y011628D01*
X014871Y011663D01*
X014797Y011688D01*
X014719Y011700D01*
X014718Y011700D01*
X014718Y011239D01*
X014641Y011232D02*
X012640Y011232D01*
X012640Y011134D02*
X014184Y011134D01*
X014180Y011161D02*
X014180Y011161D01*
X014207Y011035D02*
X012615Y011035D01*
X012574Y010937D02*
X014253Y010937D01*
X014334Y010838D02*
X012494Y010838D01*
X012629Y011331D02*
X014196Y011331D01*
X014235Y011429D02*
X012588Y011429D01*
X012528Y011528D02*
X014300Y011528D01*
X014415Y011626D02*
X012430Y011626D01*
X011604Y009656D02*
X015938Y009656D01*
X015938Y009558D02*
X011703Y009558D01*
X011801Y009459D02*
X015938Y009459D01*
X015938Y009361D02*
X011900Y009361D01*
X011998Y009262D02*
X015938Y009262D01*
X015938Y009164D02*
X012097Y009164D01*
X012195Y009065D02*
X015938Y009065D01*
X015938Y008967D02*
X012294Y008967D01*
X012392Y008868D02*
X015938Y008868D01*
X015938Y008770D02*
X012491Y008770D01*
X012589Y008671D02*
X014126Y008671D01*
X014009Y008573D02*
X012688Y008573D01*
X012786Y008474D02*
X013929Y008474D01*
X013888Y008376D02*
X012885Y008376D01*
X012983Y008277D02*
X013860Y008277D01*
X013860Y008179D02*
X013082Y008179D01*
X013180Y008080D02*
X013865Y008080D01*
X013906Y007982D02*
X013279Y007982D01*
X013377Y007883D02*
X013953Y007883D01*
X014052Y007785D02*
X013476Y007785D01*
X013574Y007686D02*
X014162Y007686D01*
X014024Y007588D02*
X013673Y007588D01*
X013345Y007095D02*
X010712Y007095D01*
X010811Y006997D02*
X013443Y006997D01*
X013941Y006898D02*
X010859Y006898D01*
X010900Y006800D02*
X014037Y006800D01*
X014194Y006701D02*
X010900Y006701D01*
X010908Y006603D02*
X014069Y006603D01*
X013978Y006504D02*
X011006Y006504D01*
X011105Y006406D02*
X013921Y006406D01*
X013890Y006307D02*
X011203Y006307D01*
X011302Y006209D02*
X014370Y006209D01*
X014370Y006230D02*
X014370Y006170D01*
X013880Y006170D01*
X013880Y006159D01*
X013893Y006078D01*
X013918Y006000D01*
X013955Y005927D01*
X014003Y005861D01*
X014061Y005803D01*
X014127Y005755D01*
X014200Y005718D01*
X014278Y005693D01*
X014359Y005680D01*
X014370Y005680D01*
X014370Y006170D01*
X014430Y006170D01*
X014430Y006230D01*
X014370Y006230D01*
X014430Y006209D02*
X015938Y006209D01*
X015938Y006307D02*
X014910Y006307D01*
X014879Y006406D02*
X015938Y006406D01*
X015938Y006504D02*
X014822Y006504D01*
X014731Y006603D02*
X015938Y006603D01*
X015938Y006701D02*
X014606Y006701D01*
X014763Y006800D02*
X015938Y006800D01*
X015938Y006898D02*
X014859Y006898D01*
X014900Y006997D02*
X015938Y006997D01*
X015938Y007095D02*
X014940Y007095D01*
X014940Y007194D02*
X015938Y007194D01*
X015938Y007292D02*
X014940Y007292D01*
X014906Y007391D02*
X015938Y007391D01*
X015938Y007489D02*
X014865Y007489D01*
X014776Y007588D02*
X015938Y007588D01*
X015938Y007686D02*
X014638Y007686D01*
X014748Y007785D02*
X015938Y007785D01*
X015938Y007883D02*
X014847Y007883D01*
X014894Y007982D02*
X015938Y007982D01*
X015938Y008080D02*
X014935Y008080D01*
X014940Y008179D02*
X015938Y008179D01*
X015938Y008277D02*
X014940Y008277D01*
X014912Y008376D02*
X015938Y008376D01*
X015938Y008474D02*
X014871Y008474D01*
X014791Y008573D02*
X015938Y008573D01*
X015938Y008671D02*
X014674Y008671D01*
X014430Y006603D02*
X014370Y006603D01*
X014370Y006504D02*
X014430Y006504D01*
X014430Y006406D02*
X014370Y006406D01*
X014370Y006307D02*
X014430Y006307D01*
X014430Y006170D02*
X014920Y006170D01*
X014920Y006159D01*
X014907Y006078D01*
X014882Y006000D01*
X014845Y005927D01*
X014797Y005861D01*
X014739Y005803D01*
X014673Y005755D01*
X014600Y005718D01*
X014522Y005693D01*
X014441Y005680D01*
X014430Y005680D01*
X014430Y006170D01*
X014430Y006110D02*
X014370Y006110D01*
X014370Y006012D02*
X014430Y006012D01*
X014430Y005913D02*
X014370Y005913D01*
X014370Y005815D02*
X014430Y005815D01*
X014430Y005716D02*
X014370Y005716D01*
X014207Y005716D02*
X011794Y005716D01*
X011696Y005815D02*
X014050Y005815D01*
X013966Y005913D02*
X011597Y005913D01*
X011499Y006012D02*
X013914Y006012D01*
X013888Y006110D02*
X011400Y006110D01*
X010974Y005716D02*
X010900Y005716D01*
X010900Y005618D02*
X011072Y005618D01*
X011171Y005519D02*
X010866Y005519D01*
X010825Y005421D02*
X011269Y005421D01*
X011368Y005322D02*
X010729Y005322D01*
X010556Y005224D02*
X011466Y005224D01*
X011565Y005125D02*
X010680Y005125D01*
X010781Y005027D02*
X011663Y005027D01*
X011799Y004928D02*
X010847Y004928D01*
X010888Y004830D02*
X015110Y004830D01*
X015029Y004731D02*
X015209Y004731D01*
X015231Y004633D02*
X015307Y004633D01*
X015330Y004534D02*
X015360Y004534D01*
X015832Y004928D02*
X015938Y004928D01*
X015938Y004830D02*
X015910Y004830D01*
X015938Y005027D02*
X015734Y005027D01*
X015635Y005125D02*
X015938Y005125D01*
X015938Y005224D02*
X015537Y005224D01*
X015438Y005322D02*
X015938Y005322D01*
X015938Y005421D02*
X015340Y005421D01*
X014834Y005913D02*
X015938Y005913D01*
X015938Y005815D02*
X014750Y005815D01*
X014593Y005716D02*
X015938Y005716D01*
X015938Y005618D02*
X011893Y005618D01*
X011991Y005519D02*
X015938Y005519D01*
X015938Y006012D02*
X014886Y006012D01*
X014912Y006110D02*
X015938Y006110D01*
X015901Y003549D02*
X015938Y003549D01*
X015938Y003451D02*
X015811Y003451D01*
X015712Y003352D02*
X015938Y003352D01*
X015938Y003254D02*
X015614Y003254D01*
X015515Y003155D02*
X015938Y003155D01*
X015938Y003057D02*
X015425Y003057D01*
X015384Y002958D02*
X015938Y002958D01*
X015938Y002860D02*
X015323Y002860D01*
X015225Y002761D02*
X015938Y002761D01*
X015938Y002663D02*
X015138Y002663D01*
X015271Y002564D02*
X015938Y002564D01*
X015938Y002466D02*
X015348Y002466D01*
X015392Y002367D02*
X015938Y002367D01*
X015938Y002269D02*
X015416Y002269D01*
X014950Y001973D02*
X014850Y001973D01*
X014850Y001875D02*
X014950Y001875D01*
X014950Y001776D02*
X014850Y001776D01*
X014599Y001776D02*
X013490Y001776D01*
X013588Y001875D02*
X014494Y001875D01*
X014432Y001973D02*
X013640Y001973D01*
X013681Y002072D02*
X014395Y002072D01*
X013670Y000988D02*
X015852Y000988D01*
X015753Y000890D02*
X013670Y000890D01*
X013665Y000791D02*
X015655Y000791D01*
X015556Y000693D02*
X013582Y000693D01*
X013200Y000693D02*
X013100Y000693D01*
X013100Y000791D02*
X013200Y000791D01*
X013200Y000890D02*
X013100Y000890D01*
X013100Y000988D02*
X013200Y000988D01*
X015359Y000496D02*
X001189Y000496D01*
X001090Y000594D02*
X015458Y000594D01*
X010400Y003700D02*
X005900Y003700D01*
X005400Y004200D01*
X005930Y004731D02*
X009900Y004731D01*
X009900Y004633D02*
X006029Y004633D01*
X006127Y004534D02*
X009923Y004534D01*
X009824Y004436D02*
X006226Y004436D01*
X005832Y004830D02*
X009912Y004830D01*
X009953Y004928D02*
X005733Y004928D01*
X004280Y006209D02*
X002934Y006209D01*
X002934Y006307D02*
X004086Y006307D01*
X003987Y006406D02*
X002893Y006406D01*
X002851Y006504D02*
X003940Y006504D01*
X003900Y006603D02*
X002753Y006603D01*
X002586Y006701D02*
X003900Y006701D01*
X003900Y006800D02*
X000610Y006800D01*
X000610Y006898D02*
X003941Y006898D01*
X003989Y006997D02*
X000610Y006997D01*
X000610Y007095D02*
X004088Y007095D01*
X004101Y007292D02*
X000610Y007292D01*
X000610Y007194D02*
X004285Y007194D01*
X004002Y007391D02*
X000610Y007391D01*
X000610Y007489D02*
X003946Y007489D01*
X003905Y007588D02*
X000610Y007588D01*
X000610Y007686D02*
X003900Y007686D01*
X003900Y007785D02*
X000610Y007785D01*
X000610Y007883D02*
X003935Y007883D01*
X003975Y007982D02*
X000610Y007982D01*
X000610Y008080D02*
X004073Y008080D01*
X004249Y008179D02*
X000610Y008179D01*
X000610Y008277D02*
X001889Y008277D01*
X001880Y008376D02*
X000610Y008376D01*
X000610Y008474D02*
X001880Y008474D01*
X002350Y008474D02*
X002450Y008474D01*
X002450Y008376D02*
X002350Y008376D01*
X002350Y008277D02*
X002450Y008277D01*
X002911Y008277D02*
X004116Y008277D01*
X004017Y008376D02*
X002920Y008376D01*
X002920Y008474D02*
X003952Y008474D01*
X003912Y008573D02*
X002920Y008573D01*
X002214Y006701D02*
X001522Y006701D01*
X001439Y006701D02*
X001361Y006701D01*
X001278Y006701D02*
X000610Y006701D01*
X000610Y006603D02*
X001079Y006603D01*
X000985Y006504D02*
X000610Y006504D01*
X000610Y006406D02*
X000928Y006406D01*
X000896Y006307D02*
X000610Y006307D01*
X000610Y006209D02*
X001361Y006209D01*
X001361Y006307D02*
X001439Y006307D01*
X001439Y006406D02*
X001361Y006406D01*
X001361Y006504D02*
X001439Y006504D01*
X001439Y006603D02*
X001361Y006603D01*
X001721Y006603D02*
X002047Y006603D01*
X001949Y006504D02*
X001815Y006504D01*
X001872Y006406D02*
X001907Y006406D01*
X001900Y005700D02*
X001400Y005200D01*
X001015Y004830D02*
X000610Y004830D01*
X000610Y004928D02*
X000934Y004928D01*
X000894Y005027D02*
X000610Y005027D01*
X000610Y005125D02*
X000866Y005125D01*
X000866Y005224D02*
X000610Y005224D01*
X000610Y005322D02*
X000872Y005322D01*
X000913Y005421D02*
X000610Y005421D01*
X000610Y005519D02*
X000964Y005519D01*
X001062Y005618D02*
X000610Y005618D01*
X000610Y005716D02*
X001226Y005716D01*
X001058Y005815D02*
X000610Y005815D01*
X000610Y005913D02*
X000973Y005913D01*
X000921Y006012D02*
X000610Y006012D01*
X000610Y006110D02*
X000894Y006110D01*
X001136Y004731D02*
X000610Y004731D01*
X000610Y004633D02*
X001077Y004633D01*
X000979Y004534D02*
X000610Y004534D01*
X000610Y004436D02*
X000919Y004436D01*
X000879Y004337D02*
X000610Y004337D01*
X000610Y004239D02*
X000866Y004239D01*
X000866Y004140D02*
X000610Y004140D01*
X000610Y004042D02*
X000887Y004042D01*
X000928Y003943D02*
X000610Y003943D01*
X000610Y003845D02*
X001000Y003845D01*
X001100Y003746D02*
X000610Y003746D01*
X000610Y003648D02*
X001092Y003648D01*
X000994Y003549D02*
X000610Y003549D01*
X000610Y003451D02*
X000926Y003451D01*
X000885Y003352D02*
X000610Y003352D01*
X000610Y003254D02*
X000866Y003254D01*
X000866Y003155D02*
X000610Y003155D01*
X000610Y003057D02*
X000881Y003057D01*
X000922Y002958D02*
X000610Y002958D01*
X000610Y002860D02*
X000985Y002860D01*
X001084Y002761D02*
X000610Y002761D01*
X001716Y002761D02*
X002084Y002761D01*
X001985Y002860D02*
X001815Y002860D01*
X001878Y002958D02*
X001922Y002958D01*
X003741Y005421D02*
X003975Y005421D01*
X003934Y005519D02*
X003642Y005519D01*
X003544Y005618D02*
X003900Y005618D01*
X003900Y005716D02*
X003445Y005716D01*
X003347Y005815D02*
X003906Y005815D01*
X003947Y005913D02*
X003248Y005913D01*
X002900Y006012D02*
X004004Y006012D01*
X004103Y006110D02*
X002934Y006110D01*
X005150Y008700D02*
X005150Y010950D01*
X004900Y011200D01*
X005150Y008700D02*
X008150Y005700D01*
X010400Y005700D01*
X010004Y006012D02*
X008150Y006012D01*
X008051Y006110D02*
X010103Y006110D01*
X010086Y006307D02*
X007854Y006307D01*
X007756Y006406D02*
X009987Y006406D01*
X009940Y006504D02*
X007657Y006504D01*
X007559Y006603D02*
X009900Y006603D01*
X009900Y006701D02*
X007460Y006701D01*
X007362Y006800D02*
X009900Y006800D01*
X009941Y006898D02*
X007263Y006898D01*
X007165Y006997D02*
X009989Y006997D01*
X010088Y007095D02*
X007066Y007095D01*
X007953Y006209D02*
X010280Y006209D01*
X010301Y006200D02*
X010490Y006200D01*
X010490Y006200D01*
X010301Y006200D01*
X010151Y004140D02*
X010156Y004140D01*
X009966Y002958D02*
X009703Y002958D01*
X009376Y002663D02*
X004900Y002663D01*
X004900Y002761D02*
X009278Y002761D01*
X009179Y002860D02*
X004875Y002860D01*
X004834Y002958D02*
X009081Y002958D01*
X009475Y002564D02*
X004885Y002564D01*
X004844Y002466D02*
X009956Y002466D01*
X010026Y002367D02*
X004774Y002367D01*
X004665Y002269D02*
X010135Y002269D01*
X010228Y002170D02*
X004572Y002170D01*
X004736Y002072D02*
X010064Y002072D01*
X009972Y001973D02*
X004828Y001973D01*
X004869Y001875D02*
X009931Y001875D01*
X009900Y001776D02*
X004900Y001776D01*
X004900Y001678D02*
X009900Y001678D01*
X009909Y001579D02*
X004891Y001579D01*
X004850Y001481D02*
X009950Y001481D01*
X010011Y001382D02*
X004789Y001382D01*
X004691Y001284D02*
X010109Y001284D01*
X014641Y011331D02*
X014718Y011331D01*
X014718Y011429D02*
X014641Y011429D01*
X014641Y011528D02*
X014718Y011528D01*
X014718Y011626D02*
X014641Y011626D01*
X014944Y011626D02*
X015938Y011626D01*
X015938Y011528D02*
X015059Y011528D01*
X015124Y011429D02*
X015938Y011429D01*
X015938Y011331D02*
X015163Y011331D01*
X015180Y011239D02*
X015180Y011239D01*
X014964Y014286D02*
X015938Y014286D01*
X015938Y014384D02*
X015063Y014384D01*
X015123Y014483D02*
X015938Y014483D01*
X015938Y014581D02*
X015158Y014581D01*
X014700Y014483D02*
X014600Y014483D01*
X014600Y014384D02*
X014700Y014384D01*
X014700Y014286D02*
X014600Y014286D01*
X007950Y016847D02*
X007850Y016847D01*
X007850Y016945D02*
X007950Y016945D01*
X007950Y017044D02*
X007850Y017044D01*
X007850Y017142D02*
X007950Y017142D01*
X007950Y017438D02*
X007850Y017438D01*
X007850Y017536D02*
X007950Y017536D01*
X007950Y017635D02*
X007850Y017635D01*
X001880Y013596D02*
X000610Y013596D01*
X000610Y013498D02*
X001880Y013498D01*
X001880Y013399D02*
X000610Y013399D01*
X000610Y013301D02*
X001883Y013301D01*
D19*
X002400Y010700D02*
X002900Y010700D01*
X003900Y009700D01*
X004400Y009700D01*
X010400Y009700D02*
X011150Y009700D01*
X013650Y007200D01*
X014400Y007200D01*
X015150Y005200D02*
X015650Y004700D01*
X015650Y003700D01*
X015150Y003200D01*
X014900Y003200D01*
X015150Y005200D02*
X011900Y005200D01*
X010400Y006700D01*
X010400Y011700D02*
X011150Y011700D01*
X013650Y014200D01*
X013650Y014700D01*
X014650Y015700D01*
D20*
X006400Y017200D02*
X005400Y017200D01*
X004400Y016200D01*
X004400Y015700D01*
M02*
