solid Lurkerv10 Baseplate
facet normal 0.0 1.0 0.0
  outer loop
    vertex 48.40556257980266 155.02728437138234 1.9999999999999998
    vertex 56.40556257980266 155.02728437138234 3.0
    vertex 94.40556257980265 155.02728437138234 1.9999999999999998
  endloop
endfacet
facet normal 0.0 1.0 0.0
  outer loop
    vertex 56.40556257980266 155.02728437138234 3.0
    vertex 48.40556257980266 155.02728437138234 1.9999999999999998
    vertex 48.40556257980266 155.02728437138234 12.999999999999998
  endloop
endfacet
facet normal 0.0 1.0 0.0
  outer loop
    vertex 56.40556257980266 155.02728437138234 3.0
    vertex 48.40556257980266 155.02728437138234 12.999999999999998
    vertex 56.40556257980266 155.02728437138234 12.999999999999998
  endloop
endfacet
facet normal 0.0 1.0 0.0
  outer loop
    vertex 94.40556257980265 155.02728437138234 1.9999999999999998
    vertex 86.40556257980265 155.02728437138234 3.0
    vertex 94.40556257980265 155.02728437138234 12.999999999999998
  endloop
endfacet
facet normal 0.0 1.0 0.0
  outer loop
    vertex 86.40556257980265 155.02728437138234 3.0
    vertex 94.40556257980265 155.02728437138234 1.9999999999999998
    vertex 56.40556257980266 155.02728437138234 3.0
  endloop
endfacet
facet normal 0.0 1.0 0.0
  outer loop
    vertex 94.40556257980265 155.02728437138234 12.999999999999998
    vertex 86.40556257980265 155.02728437138234 3.0
    vertex 86.40556257980265 155.02728437138234 12.999999999999998
  endloop
endfacet
facet normal -1.0 0.0 0.0
  outer loop
    vertex 48.40556257980266 155.02728437138234 12.999999999999998
    vertex 48.40556257980266 147.02728437138234 3.0
    vertex 48.40556257980266 147.02728437138234 12.999999999999998
  endloop
endfacet
facet normal -1.0 0.0 0.0
  outer loop
    vertex 48.40556257980266 112.02728437138232 12.999999999999998
    vertex 48.40556257980266 104.02728437138234 1.9999999999999998
    vertex 48.40556257980266 104.02728437138234 12.999999999999998
  endloop
endfacet
facet normal -1.0 0.0 0.0
  outer loop
    vertex 48.40556257980266 104.02728437138234 1.9999999999999998
    vertex 48.40556257980266 112.02728437138232 12.999999999999998
    vertex 48.40556257980266 112.02728437138232 3.0
  endloop
endfacet
facet normal -1.0 0.0 0.0
  outer loop
    vertex 48.40556257980266 104.02728437138234 1.9999999999999998
    vertex 48.40556257980266 112.02728437138232 3.0
    vertex 48.40556257980266 155.02728437138234 1.9999999999999998
  endloop
endfacet
facet normal -1.0 0.0 0.0
  outer loop
    vertex 48.40556257980266 155.02728437138234 1.9999999999999998
    vertex 48.40556257980266 112.02728437138232 3.0
    vertex 48.40556257980266 147.02728437138234 3.0
  endloop
endfacet
facet normal -1.0 0.0 0.0
  outer loop
    vertex 48.40556257980266 155.02728437138234 1.9999999999999998
    vertex 48.40556257980266 147.02728437138234 3.0
    vertex 48.40556257980266 155.02728437138234 12.999999999999998
  endloop
endfacet
facet normal 0.0 -1.0 0.0
  outer loop
    vertex 96.40556257980265 102.02728437138234 20.0
    vertex 46.40556257980266 102.02728437138234 0.0
    vertex 96.40556257980265 102.02728437138234 0.0
  endloop
endfacet
facet normal 0.0 -1.0 0.0
  outer loop
    vertex 46.40556257980266 102.02728437138234 0.0
    vertex 96.40556257980265 102.02728437138234 20.0
    vertex 46.40556257980266 102.02728437138234 20.0
  endloop
endfacet
facet normal 0.0 0.0 -1.0
  outer loop
    vertex 96.40556257980265 157.02728437138234 0.0
    vertex 46.40556257980266 102.02728437138234 0.0
    vertex 46.40556257980266 157.02728437138234 0.0
  endloop
endfacet
facet normal 0.0 0.0 -1.0
  outer loop
    vertex 46.40556257980266 102.02728437138234 0.0
    vertex 96.40556257980265 157.02728437138234 0.0
    vertex 96.40556257980265 102.02728437138234 0.0
  endloop
endfacet
facet normal 0.0 1.0 0.0
  outer loop
    vertex 46.40556257980266 157.02728437138234 20.0
    vertex 96.40556257980265 157.02728437138234 0.0
    vertex 46.40556257980266 157.02728437138234 0.0
  endloop
endfacet
facet normal 0.0 1.0 0.0
  outer loop
    vertex 96.40556257980265 157.02728437138234 0.0
    vertex 46.40556257980266 157.02728437138234 20.0
    vertex 96.40556257980265 157.02728437138234 20.0
  endloop
endfacet
facet normal -1.0 -0.0 -0.0
  outer loop
    vertex 46.40556257980266 157.02728437138234 20.0
    vertex 46.40556257980266 102.02728437138234 0.0
    vertex 46.40556257980266 102.02728437138234 20.0
  endloop
endfacet
facet normal -1.0 -0.0 -0.0
  outer loop
    vertex 46.40556257980266 102.02728437138234 0.0
    vertex 46.40556257980266 157.02728437138234 20.0
    vertex 46.40556257980266 157.02728437138234 0.0
  endloop
endfacet
facet normal 1.0 0.0 0.0
  outer loop
    vertex 96.40556257980265 157.02728437138234 0.0
    vertex 96.40556257980265 102.02728437138234 20.0
    vertex 96.40556257980265 102.02728437138234 0.0
  endloop
endfacet
facet normal 1.0 0.0 0.0
  outer loop
    vertex 96.40556257980265 102.02728437138234 20.0
    vertex 96.40556257980265 157.02728437138234 0.0
    vertex 96.40556257980265 157.02728437138234 20.0
  endloop
endfacet
facet normal 1.0 0.0 0.0
  outer loop
    vertex 95.40556257980265 156.02728437138234 20.0
    vertex 95.40556257980265 103.02728437138234 25.0
    vertex 95.40556257980265 103.02728437138234 20.0
  endloop
endfacet
facet normal 1.0 0.0 0.0
  outer loop
    vertex 95.40556257980265 103.02728437138234 25.0
    vertex 95.40556257980265 156.02728437138234 20.0
    vertex 95.40556257980265 156.02728437138234 25.0
  endloop
endfacet
facet normal 0.0 1.0 0.0
  outer loop
    vertex 48.40556257980266 104.02728437138234 25.0
    vertex 56.40556257980266 104.02728437138234 12.999999999999998
    vertex 48.40556257980266 104.02728437138234 12.999999999999998
  endloop
endfacet
facet normal 0.0 1.0 0.0
  outer loop
    vertex 56.40556257980266 104.02728437138234 12.999999999999998
    vertex 48.40556257980266 104.02728437138234 25.0
    vertex 86.40556257980265 104.02728437138234 12.999999999999998
  endloop
endfacet
facet normal 0.0 1.0 0.0
  outer loop
    vertex 86.40556257980265 104.02728437138234 12.999999999999998
    vertex 48.40556257980266 104.02728437138234 25.0
    vertex 94.40556257980265 104.02728437138234 12.999999999999998
  endloop
endfacet
facet normal 0.0 1.0 0.0
  outer loop
    vertex 94.40556257980265 104.02728437138234 12.999999999999998
    vertex 48.40556257980266 104.02728437138234 25.0
    vertex 94.40556257980265 104.02728437138234 25.0
  endloop
endfacet
facet normal 0.0 1.0 0.0
  outer loop
    vertex 56.40556257980266 104.02728437138234 12.999999999999998
    vertex 86.40556257980265 104.02728437138234 3.0
    vertex 56.40556257980266 104.02728437138234 3.0
  endloop
endfacet
facet normal 0.0 1.0 0.0
  outer loop
    vertex 86.40556257980265 104.02728437138234 3.0
    vertex 56.40556257980266 104.02728437138234 12.999999999999998
    vertex 86.40556257980265 104.02728437138234 12.999999999999998
  endloop
endfacet
facet normal 0.0 0.0 1.0
  outer loop
    vertex 46.40556257980266 102.02728437138234 20.0
    vertex 47.405562579802655 103.02728437138234 20.0
    vertex 46.40556257980266 157.02728437138234 20.0
  endloop
endfacet
facet normal 0.0 0.0 1.0
  outer loop
    vertex 47.405562579802655 103.02728437138234 20.0
    vertex 46.40556257980266 102.02728437138234 20.0
    vertex 96.40556257980265 102.02728437138234 20.0
  endloop
endfacet
facet normal 0.0 0.0 1.0
  outer loop
    vertex 47.405562579802655 103.02728437138234 20.0
    vertex 96.40556257980265 102.02728437138234 20.0
    vertex 95.40556257980265 103.02728437138234 20.0
  endloop
endfacet
facet normal 0.0 0.0 1.0
  outer loop
    vertex 95.40556257980265 103.02728437138234 20.0
    vertex 96.40556257980265 102.02728437138234 20.0
    vertex 95.40556257980265 156.02728437138234 20.0
  endloop
endfacet
facet normal 0.0 0.0 1.0
  outer loop
    vertex 46.40556257980266 157.02728437138234 20.0
    vertex 47.405562579802655 156.02728437138234 20.0
    vertex 96.40556257980265 157.02728437138234 20.0
  endloop
endfacet
facet normal 0.0 0.0 1.0
  outer loop
    vertex 47.405562579802655 156.02728437138234 20.0
    vertex 46.40556257980266 157.02728437138234 20.0
    vertex 47.405562579802655 103.02728437138234 20.0
  endloop
endfacet
facet normal 0.0 0.0 1.0
  outer loop
    vertex 96.40556257980265 157.02728437138234 20.0
    vertex 47.405562579802655 156.02728437138234 20.0
    vertex 95.40556257980265 156.02728437138234 20.0
  endloop
endfacet
facet normal 0.0 0.0 1.0
  outer loop
    vertex 96.40556257980265 157.02728437138234 20.0
    vertex 95.40556257980265 156.02728437138234 20.0
    vertex 96.40556257980265 102.02728437138234 20.0
  endloop
endfacet
facet normal 0.0 1.0 0.0
  outer loop
    vertex 47.405562579802655 156.02728437138234 25.0
    vertex 95.40556257980265 156.02728437138234 20.0
    vertex 47.405562579802655 156.02728437138234 20.0
  endloop
endfacet
facet normal 0.0 1.0 0.0
  outer loop
    vertex 95.40556257980265 156.02728437138234 20.0
    vertex 47.405562579802655 156.02728437138234 25.0
    vertex 95.40556257980265 156.02728437138234 25.0
  endloop
endfacet
facet normal -1.0 0.0 0.0
  outer loop
    vertex 94.40556257980265 155.02728437138234 25.0
    vertex 94.40556257980265 104.02728437138234 12.999999999999998
    vertex 94.40556257980265 104.02728437138234 25.0
  endloop
endfacet
facet normal -1.0 0.0 0.0
  outer loop
    vertex 94.40556257980265 104.02728437138234 12.999999999999998
    vertex 94.40556257980265 155.02728437138234 25.0
    vertex 94.40556257980265 112.02728437138232 12.999999999999998
  endloop
endfacet
facet normal -1.0 0.0 0.0
  outer loop
    vertex 94.40556257980265 112.02728437138232 12.999999999999998
    vertex 94.40556257980265 155.02728437138234 25.0
    vertex 94.40556257980265 112.02728437138232 3.0
  endloop
endfacet
facet normal -1.0 0.0 0.0
  outer loop
    vertex 94.40556257980265 112.02728437138232 3.0
    vertex 94.40556257980265 155.02728437138234 25.0
    vertex 94.40556257980265 147.02728437138234 12.999999999999998
  endloop
endfacet
facet normal -1.0 0.0 0.0
  outer loop
    vertex 94.40556257980265 147.02728437138234 12.999999999999998
    vertex 94.40556257980265 155.02728437138234 25.0
    vertex 94.40556257980265 155.02728437138234 12.999999999999998
  endloop
endfacet
facet normal -1.0 0.0 0.0
  outer loop
    vertex 94.40556257980265 147.02728437138234 3.0
    vertex 94.40556257980265 112.02728437138232 3.0
    vertex 94.40556257980265 147.02728437138234 12.999999999999998
  endloop
endfacet
facet normal 0.0 0.0 1.0
  outer loop
    vertex 47.405562579802655 103.02728437138234 25.0
    vertex 48.40556257980266 104.02728437138234 25.0
    vertex 47.405562579802655 156.02728437138234 25.0
  endloop
endfacet
facet normal 0.0 0.0 1.0
  outer loop
    vertex 48.40556257980266 104.02728437138234 25.0
    vertex 47.405562579802655 103.02728437138234 25.0
    vertex 95.40556257980265 103.02728437138234 25.0
  endloop
endfacet
facet normal 0.0 0.0 1.0
  outer loop
    vertex 48.40556257980266 104.02728437138234 25.0
    vertex 95.40556257980265 103.02728437138234 25.0
    vertex 94.40556257980265 104.02728437138234 25.0
  endloop
endfacet
facet normal 0.0 0.0 1.0
  outer loop
    vertex 94.40556257980265 104.02728437138234 25.0
    vertex 95.40556257980265 103.02728437138234 25.0
    vertex 94.40556257980265 155.02728437138234 25.0
  endloop
endfacet
facet normal 0.0 0.0 1.0
  outer loop
    vertex 47.405562579802655 156.02728437138234 25.0
    vertex 48.40556257980266 155.02728437138234 25.0
    vertex 95.40556257980265 156.02728437138234 25.0
  endloop
endfacet
facet normal 0.0 0.0 1.0
  outer loop
    vertex 48.40556257980266 155.02728437138234 25.0
    vertex 47.405562579802655 156.02728437138234 25.0
    vertex 48.40556257980266 104.02728437138234 25.0
  endloop
endfacet
facet normal 0.0 0.0 1.0
  outer loop
    vertex 95.40556257980265 156.02728437138234 25.0
    vertex 48.40556257980266 155.02728437138234 25.0
    vertex 94.40556257980265 155.02728437138234 25.0
  endloop
endfacet
facet normal 0.0 0.0 1.0
  outer loop
    vertex 95.40556257980265 156.02728437138234 25.0
    vertex 94.40556257980265 155.02728437138234 25.0
    vertex 95.40556257980265 103.02728437138234 25.0
  endloop
endfacet
facet normal -1.0 -0.0 -0.0
  outer loop
    vertex 47.405562579802655 156.02728437138234 25.0
    vertex 47.405562579802655 103.02728437138234 20.0
    vertex 47.405562579802655 103.02728437138234 25.0
  endloop
endfacet
facet normal -1.0 -0.0 -0.0
  outer loop
    vertex 47.405562579802655 103.02728437138234 20.0
    vertex 47.405562579802655 156.02728437138234 25.0
    vertex 47.405562579802655 156.02728437138234 20.0
  endloop
endfacet
facet normal 0.0 -1.0 0.0
  outer loop
    vertex 95.40556257980265 103.02728437138234 25.0
    vertex 47.405562579802655 103.02728437138234 20.0
    vertex 95.40556257980265 103.02728437138234 20.0
  endloop
endfacet
facet normal 0.0 -1.0 0.0
  outer loop
    vertex 47.405562579802655 103.02728437138234 20.0
    vertex 95.40556257980265 103.02728437138234 25.0
    vertex 47.405562579802655 103.02728437138234 25.0
  endloop
endfacet
facet normal 0.0 -1.0 0.0
  outer loop
    vertex 94.40556257980265 155.02728437138234 25.0
    vertex 86.40556257980265 155.02728437138234 12.999999999999998
    vertex 94.40556257980265 155.02728437138234 12.999999999999998
  endloop
endfacet
facet normal 0.0 -1.0 0.0
  outer loop
    vertex 86.40556257980265 155.02728437138234 12.999999999999998
    vertex 94.40556257980265 155.02728437138234 25.0
    vertex 56.40556257980266 155.02728437138234 12.999999999999998
  endloop
endfacet
facet normal 0.0 -1.0 0.0
  outer loop
    vertex 56.40556257980266 155.02728437138234 12.999999999999998
    vertex 94.40556257980265 155.02728437138234 25.0
    vertex 48.40556257980266 155.02728437138234 12.999999999999998
  endloop
endfacet
facet normal 0.0 -1.0 0.0
  outer loop
    vertex 48.40556257980266 155.02728437138234 12.999999999999998
    vertex 94.40556257980265 155.02728437138234 25.0
    vertex 48.40556257980266 155.02728437138234 25.0
  endloop
endfacet
facet normal 0.0 -1.0 0.0
  outer loop
    vertex 86.40556257980265 155.02728437138234 12.999999999999998
    vertex 56.40556257980266 155.02728437138234 3.0
    vertex 86.40556257980265 155.02728437138234 3.0
  endloop
endfacet
facet normal 0.0 -1.0 0.0
  outer loop
    vertex 56.40556257980266 155.02728437138234 3.0
    vertex 86.40556257980265 155.02728437138234 12.999999999999998
    vertex 56.40556257980266 155.02728437138234 12.999999999999998
  endloop
endfacet
facet normal 1.0 0.0 0.0
  outer loop
    vertex 48.40556257980266 147.02728437138234 3.0
    vertex 48.40556257980266 112.02728437138232 12.999999999999998
    vertex 48.40556257980266 112.02728437138232 3.0
  endloop
endfacet
facet normal 1.0 0.0 0.0
  outer loop
    vertex 48.40556257980266 112.02728437138232 12.999999999999998
    vertex 48.40556257980266 104.02728437138234 25.0
    vertex 48.40556257980266 104.02728437138234 12.999999999999998
  endloop
endfacet
facet normal 1.0 0.0 0.0
  outer loop
    vertex 48.40556257980266 104.02728437138234 25.0
    vertex 48.40556257980266 112.02728437138232 12.999999999999998
    vertex 48.40556257980266 155.02728437138234 25.0
  endloop
endfacet
facet normal 1.0 0.0 0.0
  outer loop
    vertex 48.40556257980266 155.02728437138234 25.0
    vertex 48.40556257980266 112.02728437138232 12.999999999999998
    vertex 48.40556257980266 147.02728437138234 12.999999999999998
  endloop
endfacet
facet normal 1.0 0.0 0.0
  outer loop
    vertex 48.40556257980266 147.02728437138234 12.999999999999998
    vertex 48.40556257980266 112.02728437138232 12.999999999999998
    vertex 48.40556257980266 147.02728437138234 3.0
  endloop
endfacet
facet normal 1.0 0.0 0.0
  outer loop
    vertex 48.40556257980266 155.02728437138234 25.0
    vertex 48.40556257980266 147.02728437138234 12.999999999999998
    vertex 48.40556257980266 155.02728437138234 12.999999999999998
  endloop
endfacet
facet normal 2.203098814490544e-17 -2.203098814490549e-17 1.0
  outer loop
    vertex 56.40556257980266 147.02728437138234 12.999999999999998
    vertex 48.40556257980266 155.02728437138234 12.999999999999998
    vertex 48.40556257980266 147.02728437138234 12.999999999999998
  endloop
endfacet
facet normal 2.203098814490544e-17 -2.203098814490549e-17 1.0
  outer loop
    vertex 48.40556257980266 155.02728437138234 12.999999999999998
    vertex 56.40556257980266 147.02728437138234 12.999999999999998
    vertex 56.40556257980266 155.02728437138234 12.999999999999998
  endloop
endfacet
facet normal -9.707288772819303e-34 -1.0 -2.2030988144905486e-17
  outer loop
    vertex 56.40556257980266 147.02728437138234 12.999999999999998
    vertex 48.40556257980266 147.02728437138234 3.0
    vertex 56.40556257980266 147.02728437138234 3.0
  endloop
endfacet
facet normal -9.707288772819303e-34 -1.0 -2.2030988144905486e-17
  outer loop
    vertex 48.40556257980266 147.02728437138234 3.0
    vertex 56.40556257980266 147.02728437138234 12.999999999999998
    vertex 48.40556257980266 147.02728437138234 12.999999999999998
  endloop
endfacet
facet normal 1.0 9.707288772819303e-34 -2.203098814490544e-17
  outer loop
    vertex 56.40556257980266 155.02728437138234 3.0
    vertex 56.40556257980266 147.02728437138234 12.999999999999998
    vertex 56.40556257980266 147.02728437138234 3.0
  endloop
endfacet
facet normal 1.0 9.707288772819303e-34 -2.203098814490544e-17
  outer loop
    vertex 56.40556257980266 147.02728437138234 12.999999999999998
    vertex 56.40556257980266 155.02728437138234 3.0
    vertex 56.40556257980266 155.02728437138234 12.999999999999998
  endloop
endfacet
facet normal 3.3844956429577633e-34 2.2166535172696098e-64 1.0
  outer loop
    vertex 94.40556257980265 112.02728437138232 3.0
    vertex 86.40556257980265 147.02728437138234 3.0
    vertex 86.40556257980265 112.02728437138232 3.0
  endloop
endfacet
facet normal 3.3844956429577633e-34 2.2166535172696098e-64 1.0
  outer loop
    vertex 86.40556257980265 147.02728437138234 3.0
    vertex 94.40556257980265 112.02728437138232 3.0
    vertex 94.40556257980265 147.02728437138234 3.0
  endloop
endfacet
facet normal 3.3844956429577633e-34 2.2166535172696098e-64 1.0
  outer loop
    vertex 86.40556257980265 104.02728437138234 3.0
    vertex 56.40556257980266 112.02728437138232 3.0
    vertex 56.40556257980266 104.02728437138234 3.0
  endloop
endfacet
facet normal 3.3844956429577633e-34 2.2166535172696098e-64 1.0
  outer loop
    vertex 56.40556257980266 112.02728437138232 3.0
    vertex 86.40556257980265 104.02728437138234 3.0
    vertex 56.40556257980266 147.02728437138234 3.0
  endloop
endfacet
facet normal 3.3844956429577633e-34 2.2166535172696098e-64 1.0
  outer loop
    vertex 56.40556257980266 147.02728437138234 3.0
    vertex 86.40556257980265 104.02728437138234 3.0
    vertex 56.40556257980266 155.02728437138234 3.0
  endloop
endfacet
facet normal 3.3844956429577633e-34 2.2166535172696098e-64 1.0
  outer loop
    vertex 56.40556257980266 155.02728437138234 3.0
    vertex 86.40556257980265 104.02728437138234 3.0
    vertex 86.40556257980265 155.02728437138234 3.0
  endloop
endfacet
facet normal 3.3844956429577633e-34 2.2166535172696098e-64 1.0
  outer loop
    vertex 86.40556257980265 155.02728437138234 3.0
    vertex 86.40556257980265 104.02728437138234 3.0
    vertex 86.40556257980265 112.02728437138232 3.0
  endloop
endfacet
facet normal 3.3844956429577633e-34 2.2166535172696098e-64 1.0
  outer loop
    vertex 86.40556257980265 155.02728437138234 3.0
    vertex 86.40556257980265 112.02728437138232 3.0
    vertex 86.40556257980265 147.02728437138234 3.0
  endloop
endfacet
facet normal 3.3844956429577633e-34 2.2166535172696098e-64 1.0
  outer loop
    vertex 56.40556257980266 112.02728437138232 3.0
    vertex 48.40556257980266 147.02728437138234 3.0
    vertex 48.40556257980266 112.02728437138232 3.0
  endloop
endfacet
facet normal 3.3844956429577633e-34 2.2166535172696098e-64 1.0
  outer loop
    vertex 48.40556257980266 147.02728437138234 3.0
    vertex 56.40556257980266 112.02728437138232 3.0
    vertex 56.40556257980266 147.02728437138234 3.0
  endloop
endfacet
facet normal -2.2030988144905458e-17 -2.2030988144905492e-17 1.0
  outer loop
    vertex 94.40556257980265 147.02728437138234 12.999999999999998
    vertex 86.40556257980265 155.02728437138234 12.999999999999998
    vertex 86.40556257980265 147.02728437138234 12.999999999999998
  endloop
endfacet
facet normal -2.2030988144905458e-17 -2.2030988144905492e-17 1.0
  outer loop
    vertex 86.40556257980265 155.02728437138234 12.999999999999998
    vertex 94.40556257980265 147.02728437138234 12.999999999999998
    vertex 94.40556257980265 155.02728437138234 12.999999999999998
  endloop
endfacet
facet normal -1.0 9.70728877281931e-34 -2.2030988144905458e-17
  outer loop
    vertex 86.40556257980265 155.02728437138234 12.999999999999998
    vertex 86.40556257980265 147.02728437138234 3.0
    vertex 86.40556257980265 147.02728437138234 12.999999999999998
  endloop
endfacet
facet normal -1.0 9.70728877281931e-34 -2.2030988144905458e-17
  outer loop
    vertex 86.40556257980265 147.02728437138234 3.0
    vertex 86.40556257980265 155.02728437138234 12.999999999999998
    vertex 86.40556257980265 155.02728437138234 3.0
  endloop
endfacet
facet normal 9.707288772819311e-34 -1.0 -2.2030988144905492e-17
  outer loop
    vertex 94.40556257980265 147.02728437138234 3.0
    vertex 86.40556257980265 147.02728437138234 12.999999999999998
    vertex 86.40556257980265 147.02728437138234 3.0
  endloop
endfacet
facet normal 9.707288772819311e-34 -1.0 -2.2030988144905492e-17
  outer loop
    vertex 86.40556257980265 147.02728437138234 12.999999999999998
    vertex 94.40556257980265 147.02728437138234 3.0
    vertex 94.40556257980265 147.02728437138234 12.999999999999998
  endloop
endfacet
facet normal -2.2030988144905458e-17 2.2030988144905492e-17 1.0
  outer loop
    vertex 94.40556257980265 104.02728437138234 12.999999999999998
    vertex 86.40556257980265 112.02728437138232 12.999999999999998
    vertex 86.40556257980265 104.02728437138234 12.999999999999998
  endloop
endfacet
facet normal -2.2030988144905458e-17 2.2030988144905492e-17 1.0
  outer loop
    vertex 86.40556257980265 112.02728437138232 12.999999999999998
    vertex 94.40556257980265 104.02728437138234 12.999999999999998
    vertex 94.40556257980265 112.02728437138232 12.999999999999998
  endloop
endfacet
facet normal 9.707288772819311e-34 1.0 -2.2030988144905492e-17
  outer loop
    vertex 86.40556257980265 112.02728437138232 12.999999999999998
    vertex 94.40556257980265 112.02728437138232 3.0
    vertex 86.40556257980265 112.02728437138232 3.0
  endloop
endfacet
facet normal 9.707288772819311e-34 1.0 -2.2030988144905492e-17
  outer loop
    vertex 94.40556257980265 112.02728437138232 3.0
    vertex 86.40556257980265 112.02728437138232 12.999999999999998
    vertex 94.40556257980265 112.02728437138232 12.999999999999998
  endloop
endfacet
facet normal -1.0 -9.70728877281931e-34 -2.2030988144905458e-17
  outer loop
    vertex 86.40556257980265 112.02728437138232 12.999999999999998
    vertex 86.40556257980265 104.02728437138234 3.0
    vertex 86.40556257980265 104.02728437138234 12.999999999999998
  endloop
endfacet
facet normal -1.0 -9.70728877281931e-34 -2.2030988144905458e-17
  outer loop
    vertex 86.40556257980265 104.02728437138234 3.0
    vertex 86.40556257980265 112.02728437138232 12.999999999999998
    vertex 86.40556257980265 112.02728437138232 3.0
  endloop
endfacet
facet normal 2.203098814490544e-17 2.203098814490549e-17 1.0
  outer loop
    vertex 56.40556257980266 104.02728437138234 12.999999999999998
    vertex 48.40556257980266 112.02728437138232 12.999999999999998
    vertex 48.40556257980266 104.02728437138234 12.999999999999998
  endloop
endfacet
facet normal 2.203098814490544e-17 2.203098814490549e-17 1.0
  outer loop
    vertex 48.40556257980266 112.02728437138232 12.999999999999998
    vertex 56.40556257980266 104.02728437138234 12.999999999999998
    vertex 56.40556257980266 112.02728437138232 12.999999999999998
  endloop
endfacet
facet normal 1.0 -9.707288772819303e-34 -2.203098814490544e-17
  outer loop
    vertex 56.40556257980266 112.02728437138232 3.0
    vertex 56.40556257980266 104.02728437138234 12.999999999999998
    vertex 56.40556257980266 104.02728437138234 3.0
  endloop
endfacet
facet normal 1.0 -9.707288772819303e-34 -2.203098814490544e-17
  outer loop
    vertex 56.40556257980266 104.02728437138234 12.999999999999998
    vertex 56.40556257980266 112.02728437138232 3.0
    vertex 56.40556257980266 112.02728437138232 12.999999999999998
  endloop
endfacet
facet normal -9.707288772819303e-34 1.0 -2.2030988144905486e-17
  outer loop
    vertex 48.40556257980266 112.02728437138232 3.0
    vertex 56.40556257980266 112.02728437138232 12.999999999999998
    vertex 56.40556257980266 112.02728437138232 3.0
  endloop
endfacet
facet normal -9.707288772819303e-34 1.0 -2.2030988144905486e-17
  outer loop
    vertex 56.40556257980266 112.02728437138232 12.999999999999998
    vertex 48.40556257980266 112.02728437138232 3.0
    vertex 48.40556257980266 112.02728437138232 12.999999999999998
  endloop
endfacet
endsolid Lurkerv10 Baseplate
