G75*
%MOIN*%
%OFA0B0*%
%FSLAX24Y24*%
%IPPOS*%
%LPD*%
%AMOC8*
5,1,8,0,0,1.08239X$1,22.5*
%
%ADD10C,0.0080*%
%ADD11C,0.0000*%
%ADD12C,0.0660*%
%ADD13C,0.0728*%
%ADD14C,0.0740*%
%ADD15R,0.0740X0.0740*%
%ADD16C,0.0400*%
%ADD17C,0.0100*%
%ADD18C,0.0240*%
%ADD19C,0.0160*%
D10*
X000400Y001125D02*
X000400Y018054D01*
X001187Y018842D01*
X015361Y018842D01*
X016148Y018054D01*
X016148Y001912D01*
X015361Y001125D01*
X000400Y001125D01*
D11*
X000990Y017660D02*
X000992Y017708D01*
X000998Y017756D01*
X001008Y017803D01*
X001021Y017849D01*
X001039Y017894D01*
X001059Y017938D01*
X001084Y017980D01*
X001112Y018019D01*
X001142Y018056D01*
X001176Y018090D01*
X001213Y018122D01*
X001251Y018151D01*
X001292Y018176D01*
X001335Y018198D01*
X001380Y018216D01*
X001426Y018230D01*
X001473Y018241D01*
X001521Y018248D01*
X001569Y018251D01*
X001617Y018250D01*
X001665Y018245D01*
X001713Y018236D01*
X001759Y018224D01*
X001804Y018207D01*
X001848Y018187D01*
X001890Y018164D01*
X001930Y018137D01*
X001968Y018107D01*
X002003Y018074D01*
X002035Y018038D01*
X002065Y018000D01*
X002091Y017959D01*
X002113Y017916D01*
X002133Y017872D01*
X002148Y017827D01*
X002160Y017780D01*
X002168Y017732D01*
X002172Y017684D01*
X002172Y017636D01*
X002168Y017588D01*
X002160Y017540D01*
X002148Y017493D01*
X002133Y017448D01*
X002113Y017404D01*
X002091Y017361D01*
X002065Y017320D01*
X002035Y017282D01*
X002003Y017246D01*
X001968Y017213D01*
X001930Y017183D01*
X001890Y017156D01*
X001848Y017133D01*
X001804Y017113D01*
X001759Y017096D01*
X001713Y017084D01*
X001665Y017075D01*
X001617Y017070D01*
X001569Y017069D01*
X001521Y017072D01*
X001473Y017079D01*
X001426Y017090D01*
X001380Y017104D01*
X001335Y017122D01*
X001292Y017144D01*
X001251Y017169D01*
X001213Y017198D01*
X001176Y017230D01*
X001142Y017264D01*
X001112Y017301D01*
X001084Y017340D01*
X001059Y017382D01*
X001039Y017426D01*
X001021Y017471D01*
X001008Y017517D01*
X000998Y017564D01*
X000992Y017612D01*
X000990Y017660D01*
X014376Y017660D02*
X014378Y017708D01*
X014384Y017756D01*
X014394Y017803D01*
X014407Y017849D01*
X014425Y017894D01*
X014445Y017938D01*
X014470Y017980D01*
X014498Y018019D01*
X014528Y018056D01*
X014562Y018090D01*
X014599Y018122D01*
X014637Y018151D01*
X014678Y018176D01*
X014721Y018198D01*
X014766Y018216D01*
X014812Y018230D01*
X014859Y018241D01*
X014907Y018248D01*
X014955Y018251D01*
X015003Y018250D01*
X015051Y018245D01*
X015099Y018236D01*
X015145Y018224D01*
X015190Y018207D01*
X015234Y018187D01*
X015276Y018164D01*
X015316Y018137D01*
X015354Y018107D01*
X015389Y018074D01*
X015421Y018038D01*
X015451Y018000D01*
X015477Y017959D01*
X015499Y017916D01*
X015519Y017872D01*
X015534Y017827D01*
X015546Y017780D01*
X015554Y017732D01*
X015558Y017684D01*
X015558Y017636D01*
X015554Y017588D01*
X015546Y017540D01*
X015534Y017493D01*
X015519Y017448D01*
X015499Y017404D01*
X015477Y017361D01*
X015451Y017320D01*
X015421Y017282D01*
X015389Y017246D01*
X015354Y017213D01*
X015316Y017183D01*
X015276Y017156D01*
X015234Y017133D01*
X015190Y017113D01*
X015145Y017096D01*
X015099Y017084D01*
X015051Y017075D01*
X015003Y017070D01*
X014955Y017069D01*
X014907Y017072D01*
X014859Y017079D01*
X014812Y017090D01*
X014766Y017104D01*
X014721Y017122D01*
X014678Y017144D01*
X014637Y017169D01*
X014599Y017198D01*
X014562Y017230D01*
X014528Y017264D01*
X014498Y017301D01*
X014470Y017340D01*
X014445Y017382D01*
X014425Y017426D01*
X014407Y017471D01*
X014394Y017517D01*
X014384Y017564D01*
X014378Y017612D01*
X014376Y017660D01*
X014376Y002306D02*
X014378Y002354D01*
X014384Y002402D01*
X014394Y002449D01*
X014407Y002495D01*
X014425Y002540D01*
X014445Y002584D01*
X014470Y002626D01*
X014498Y002665D01*
X014528Y002702D01*
X014562Y002736D01*
X014599Y002768D01*
X014637Y002797D01*
X014678Y002822D01*
X014721Y002844D01*
X014766Y002862D01*
X014812Y002876D01*
X014859Y002887D01*
X014907Y002894D01*
X014955Y002897D01*
X015003Y002896D01*
X015051Y002891D01*
X015099Y002882D01*
X015145Y002870D01*
X015190Y002853D01*
X015234Y002833D01*
X015276Y002810D01*
X015316Y002783D01*
X015354Y002753D01*
X015389Y002720D01*
X015421Y002684D01*
X015451Y002646D01*
X015477Y002605D01*
X015499Y002562D01*
X015519Y002518D01*
X015534Y002473D01*
X015546Y002426D01*
X015554Y002378D01*
X015558Y002330D01*
X015558Y002282D01*
X015554Y002234D01*
X015546Y002186D01*
X015534Y002139D01*
X015519Y002094D01*
X015499Y002050D01*
X015477Y002007D01*
X015451Y001966D01*
X015421Y001928D01*
X015389Y001892D01*
X015354Y001859D01*
X015316Y001829D01*
X015276Y001802D01*
X015234Y001779D01*
X015190Y001759D01*
X015145Y001742D01*
X015099Y001730D01*
X015051Y001721D01*
X015003Y001716D01*
X014955Y001715D01*
X014907Y001718D01*
X014859Y001725D01*
X014812Y001736D01*
X014766Y001750D01*
X014721Y001768D01*
X014678Y001790D01*
X014637Y001815D01*
X014599Y001844D01*
X014562Y001876D01*
X014528Y001910D01*
X014498Y001947D01*
X014470Y001986D01*
X014445Y002028D01*
X014425Y002072D01*
X014407Y002117D01*
X014394Y002163D01*
X014384Y002210D01*
X014378Y002258D01*
X014376Y002306D01*
D12*
X011900Y002625D03*
X011900Y003625D03*
X011900Y004625D03*
X011900Y005625D03*
X011900Y006625D03*
X011900Y007625D03*
X011900Y008625D03*
X011900Y009625D03*
X011900Y010625D03*
X011900Y011625D03*
X011900Y012625D03*
X011900Y013625D03*
X011900Y014625D03*
X011900Y015625D03*
X011900Y016625D03*
X005900Y016625D03*
X005900Y015625D03*
X005900Y014625D03*
X005900Y013625D03*
X005900Y012625D03*
X005900Y011625D03*
X005900Y010625D03*
X005900Y009625D03*
X005900Y008625D03*
X005900Y007625D03*
X005900Y006625D03*
X005900Y005625D03*
X005900Y004625D03*
X005900Y003625D03*
X005900Y002625D03*
D13*
X002900Y003125D03*
X002900Y004125D03*
X002900Y005125D03*
X002900Y006125D03*
X001900Y006125D03*
X001900Y005125D03*
X001900Y004125D03*
X001900Y003125D03*
D14*
X001900Y007625D03*
X001900Y008625D03*
X001900Y009625D03*
X001900Y011125D03*
X002900Y011125D03*
X003900Y011125D03*
X003900Y013125D03*
X002900Y013125D03*
X001900Y013125D03*
X002900Y015625D03*
X002900Y016625D03*
X002900Y017625D03*
X004400Y015625D03*
X004400Y014625D03*
X013400Y006125D03*
X014400Y006125D03*
X015400Y006125D03*
X015400Y004125D03*
X014400Y004125D03*
X013400Y004125D03*
X015400Y009625D03*
X015400Y010625D03*
X015400Y011625D03*
X015400Y013625D03*
X014400Y013625D03*
X014400Y015625D03*
X015400Y015625D03*
D15*
X015400Y008625D03*
X002900Y014625D03*
D16*
X003650Y018375D03*
X009150Y018375D03*
X010650Y014625D03*
X012900Y011375D03*
X013900Y011125D03*
X013900Y010125D03*
X012900Y008125D03*
X011150Y007125D03*
X010400Y007875D03*
X013900Y012625D03*
X013400Y018375D03*
X002650Y010125D03*
X004150Y002125D03*
D17*
X004423Y001875D02*
X004464Y001915D01*
X004520Y002051D01*
X004520Y002141D01*
X004754Y002375D01*
X005462Y002375D01*
X005476Y002342D01*
X005617Y002201D01*
X005801Y002125D01*
X005999Y002125D01*
X006183Y002201D01*
X006324Y002342D01*
X006400Y002526D01*
X006400Y002724D01*
X006324Y002908D01*
X006183Y003049D01*
X005999Y003125D01*
X006183Y003201D01*
X006324Y003342D01*
X006400Y003526D01*
X006400Y003724D01*
X006324Y003908D01*
X006183Y004049D01*
X005999Y004125D01*
X006183Y004201D01*
X006324Y004342D01*
X006400Y004526D01*
X006400Y004724D01*
X006324Y004908D01*
X006183Y005049D01*
X005999Y005125D01*
X006183Y005201D01*
X006324Y005342D01*
X006400Y005526D01*
X006400Y005724D01*
X006324Y005908D01*
X006183Y006049D01*
X005999Y006125D01*
X005801Y006125D01*
X005617Y006049D01*
X005476Y005908D01*
X005462Y005875D01*
X005004Y005875D01*
X003862Y007017D01*
X003792Y007087D01*
X003700Y007125D01*
X002044Y007125D01*
X002100Y007143D01*
X002173Y007180D01*
X002239Y007228D01*
X002297Y007286D01*
X002345Y007352D01*
X002382Y007425D01*
X002407Y007503D01*
X002420Y007584D01*
X002420Y007595D01*
X001930Y007595D01*
X001930Y007655D01*
X002420Y007655D01*
X002420Y007666D01*
X002407Y007747D01*
X002382Y007825D01*
X002345Y007898D01*
X002297Y007964D01*
X002239Y008022D01*
X002173Y008070D01*
X002100Y008107D01*
X002078Y008114D01*
X002206Y008167D01*
X002358Y008319D01*
X002440Y008518D01*
X002440Y008732D01*
X002358Y008931D01*
X002206Y009083D01*
X002104Y009125D01*
X002206Y009167D01*
X002358Y009319D01*
X002440Y009518D01*
X002440Y009732D01*
X002358Y009931D01*
X002206Y010083D01*
X002007Y010165D01*
X001793Y010165D01*
X001594Y010083D01*
X001442Y009931D01*
X001360Y009732D01*
X001360Y009518D01*
X001442Y009319D01*
X001594Y009167D01*
X001696Y009125D01*
X001594Y009083D01*
X001442Y008931D01*
X001360Y008732D01*
X001360Y008518D01*
X001442Y008319D01*
X001594Y008167D01*
X001722Y008114D01*
X001700Y008107D01*
X001627Y008070D01*
X001561Y008022D01*
X001503Y007964D01*
X001455Y007898D01*
X001418Y007825D01*
X001393Y007747D01*
X001380Y007666D01*
X001380Y007655D01*
X001870Y007655D01*
X001870Y008085D01*
X001930Y008085D01*
X001930Y007655D01*
X001870Y007655D01*
X001870Y007595D01*
X001380Y007595D01*
X001380Y007584D01*
X001393Y007503D01*
X001418Y007425D01*
X001455Y007352D01*
X001503Y007286D01*
X001561Y007228D01*
X001627Y007180D01*
X001700Y007143D01*
X001756Y007125D01*
X001600Y007125D01*
X001508Y007087D01*
X000938Y006517D01*
X000900Y006425D01*
X000900Y005325D01*
X000938Y005233D01*
X001188Y004983D01*
X001258Y004913D01*
X001350Y004875D01*
X001425Y004875D01*
X001447Y004822D01*
X001597Y004672D01*
X001711Y004625D01*
X001597Y004578D01*
X001447Y004428D01*
X001425Y004375D01*
X001350Y004375D01*
X001258Y004337D01*
X001188Y004267D01*
X000688Y003767D01*
X000650Y003675D01*
X000650Y002075D01*
X000688Y001983D01*
X000758Y001913D01*
X001258Y001413D01*
X001350Y001375D01*
X008450Y001375D01*
X008542Y001413D01*
X008612Y001483D01*
X009504Y002375D01*
X011462Y002375D01*
X011476Y002342D01*
X011617Y002201D01*
X011801Y002125D01*
X011999Y002125D01*
X012183Y002201D01*
X012324Y002342D01*
X012400Y002526D01*
X012400Y002724D01*
X012324Y002908D01*
X012183Y003049D01*
X011999Y003125D01*
X011801Y003125D01*
X011617Y003049D01*
X011476Y002908D01*
X011462Y002875D01*
X009350Y002875D01*
X009258Y002837D01*
X008296Y001875D01*
X004423Y001875D01*
X004461Y001913D02*
X008334Y001913D01*
X008433Y002012D02*
X004503Y002012D01*
X004520Y002110D02*
X008531Y002110D01*
X008630Y002209D02*
X006191Y002209D01*
X006289Y002307D02*
X008728Y002307D01*
X008827Y002406D02*
X006350Y002406D01*
X006391Y002504D02*
X008925Y002504D01*
X009024Y002603D02*
X006400Y002603D01*
X006400Y002701D02*
X009122Y002701D01*
X009221Y002800D02*
X006369Y002800D01*
X006328Y002898D02*
X011472Y002898D01*
X011564Y002997D02*
X006236Y002997D01*
X006072Y003095D02*
X011728Y003095D01*
X011801Y003125D02*
X011617Y003201D01*
X011476Y003342D01*
X011400Y003526D01*
X011400Y003724D01*
X011476Y003908D01*
X011617Y004049D01*
X011801Y004125D01*
X011999Y004125D01*
X012169Y004055D01*
X012360Y004245D01*
X012360Y004429D01*
X012324Y004342D01*
X012183Y004201D01*
X011999Y004125D01*
X011801Y004125D01*
X011617Y004201D01*
X011476Y004342D01*
X011400Y004526D01*
X011400Y004724D01*
X011476Y004908D01*
X011617Y005049D01*
X011801Y005125D01*
X011999Y005125D01*
X012183Y005049D01*
X012324Y004908D01*
X012360Y004821D01*
X012360Y005429D01*
X012324Y005342D01*
X012183Y005201D01*
X011999Y005125D01*
X011801Y005125D01*
X011617Y005201D01*
X011476Y005342D01*
X011400Y005526D01*
X011400Y005724D01*
X011476Y005908D01*
X011617Y006049D01*
X011801Y006125D01*
X011999Y006125D01*
X012183Y006049D01*
X012324Y005908D01*
X012360Y005821D01*
X012360Y006429D01*
X012324Y006342D01*
X012183Y006201D01*
X011999Y006125D01*
X011801Y006125D01*
X011617Y006201D01*
X011476Y006342D01*
X011400Y006526D01*
X011400Y006724D01*
X011476Y006908D01*
X011617Y007049D01*
X011801Y007125D01*
X011999Y007125D01*
X012183Y007049D01*
X012324Y006908D01*
X012389Y006752D01*
X012404Y006789D01*
X012860Y007245D01*
X012860Y007755D01*
X012860Y007755D01*
X012826Y007755D01*
X012690Y007811D01*
X012586Y007915D01*
X012530Y008051D01*
X012530Y008199D01*
X012586Y008335D01*
X012690Y008439D01*
X012826Y008495D01*
X012974Y008495D01*
X013110Y008439D01*
X013214Y008335D01*
X013270Y008199D01*
X013270Y008165D01*
X013396Y008039D01*
X013440Y007933D01*
X013440Y007067D01*
X013396Y006961D01*
X013314Y006879D01*
X012940Y006505D01*
X012940Y006368D01*
X012955Y006398D01*
X013003Y006464D01*
X013061Y006522D01*
X013127Y006570D01*
X013200Y006607D01*
X013278Y006632D01*
X013350Y006644D01*
X013350Y006175D01*
X013450Y006175D01*
X013450Y006644D01*
X013522Y006632D01*
X013600Y006607D01*
X013673Y006570D01*
X013739Y006522D01*
X013797Y006464D01*
X013845Y006398D01*
X013882Y006325D01*
X013889Y006303D01*
X013942Y006431D01*
X014094Y006583D01*
X014293Y006665D01*
X014507Y006665D01*
X014706Y006583D01*
X014858Y006431D01*
X014900Y006329D01*
X014942Y006431D01*
X015094Y006583D01*
X015293Y006665D01*
X015507Y006665D01*
X015706Y006583D01*
X015858Y006431D01*
X015938Y006237D01*
X015938Y009513D01*
X015858Y009319D01*
X015706Y009167D01*
X015652Y009145D01*
X015790Y009145D01*
X015828Y009135D01*
X015862Y009115D01*
X015890Y009087D01*
X015910Y009053D01*
X015920Y009015D01*
X015920Y008675D01*
X015450Y008675D01*
X015450Y008575D01*
X015920Y008575D01*
X015920Y008235D01*
X015910Y008197D01*
X015890Y008163D01*
X015862Y008135D01*
X015828Y008115D01*
X015790Y008105D01*
X015450Y008105D01*
X015450Y008575D01*
X015350Y008575D01*
X015350Y008105D01*
X015010Y008105D01*
X014972Y008115D01*
X014938Y008135D01*
X014910Y008163D01*
X014890Y008197D01*
X014880Y008235D01*
X014880Y008575D01*
X015350Y008575D01*
X015350Y008675D01*
X014880Y008675D01*
X014880Y009015D01*
X014889Y009049D01*
X014862Y008983D01*
X014792Y008913D01*
X014700Y008875D01*
X012350Y008875D01*
X012335Y008881D01*
X012400Y008724D01*
X012400Y008526D01*
X012324Y008342D01*
X012183Y008201D01*
X011999Y008125D01*
X011801Y008125D01*
X011648Y008188D01*
X011737Y008099D01*
X011801Y008125D01*
X011999Y008125D01*
X012183Y008049D01*
X012324Y007908D01*
X012400Y007724D01*
X012400Y007526D01*
X012324Y007342D01*
X012183Y007201D01*
X011999Y007125D01*
X011801Y007125D01*
X011617Y007201D01*
X011476Y007342D01*
X011400Y007526D01*
X011400Y007724D01*
X011426Y007788D01*
X011059Y008155D01*
X011059Y008155D01*
X010930Y008284D01*
X010930Y011966D01*
X011059Y012095D01*
X011309Y012345D01*
X011475Y012345D01*
X011400Y012526D01*
X011400Y012724D01*
X011476Y012908D01*
X011617Y013049D01*
X011801Y013125D01*
X011999Y013125D01*
X012183Y013201D01*
X012324Y013342D01*
X012400Y013526D01*
X012400Y013724D01*
X012324Y013908D01*
X012183Y014049D01*
X011999Y014125D01*
X012183Y014201D01*
X012324Y014342D01*
X012400Y014526D01*
X012400Y014724D01*
X012324Y014908D01*
X012183Y015049D01*
X011999Y015125D01*
X011801Y015125D01*
X011617Y015049D01*
X011476Y014908D01*
X011400Y014724D01*
X011400Y014526D01*
X011476Y014342D01*
X011617Y014201D01*
X011801Y014125D01*
X011999Y014125D01*
X011801Y014125D01*
X011617Y014049D01*
X011476Y013908D01*
X011400Y013724D01*
X011400Y013526D01*
X011476Y013342D01*
X011617Y013201D01*
X011801Y013125D01*
X011999Y013125D01*
X012183Y013049D01*
X012324Y012908D01*
X012400Y012724D01*
X012400Y012526D01*
X012325Y012345D01*
X013559Y012345D01*
X013608Y012394D01*
X013586Y012415D01*
X013530Y012551D01*
X012400Y012551D01*
X012400Y012650D02*
X013530Y012650D01*
X013530Y012699D02*
X013530Y012551D01*
X013571Y012453D02*
X012370Y012453D01*
X012329Y012354D02*
X013568Y012354D01*
X013650Y012125D02*
X011400Y012125D01*
X011150Y011875D01*
X011150Y008375D01*
X011900Y007625D01*
X011440Y007429D02*
X011369Y007429D01*
X011360Y007439D02*
X011224Y007495D01*
X011076Y007495D01*
X010940Y007439D01*
X010877Y007375D01*
X010254Y007375D01*
X007650Y009979D01*
X007650Y011425D01*
X007612Y011517D01*
X006397Y012731D01*
X006324Y012908D01*
X006183Y013049D01*
X005999Y013125D01*
X005801Y013125D01*
X005617Y013049D01*
X005476Y012908D01*
X005400Y012724D01*
X005400Y012526D01*
X005476Y012342D01*
X005617Y012201D01*
X005801Y012125D01*
X005617Y012049D01*
X005476Y011908D01*
X005400Y011724D01*
X005400Y011526D01*
X005476Y011342D01*
X005617Y011201D01*
X005801Y011125D01*
X005617Y011049D01*
X005476Y010908D01*
X005400Y010724D01*
X005400Y010526D01*
X005476Y010342D01*
X005617Y010201D01*
X005801Y010125D01*
X005617Y010049D01*
X005598Y010030D01*
X005150Y010479D01*
X005150Y014175D01*
X005112Y014267D01*
X005042Y014337D01*
X004917Y014462D01*
X004940Y014518D01*
X004940Y014732D01*
X004858Y014931D01*
X004706Y015083D01*
X004578Y015136D01*
X004600Y015143D01*
X004673Y015180D01*
X004739Y015228D01*
X004797Y015286D01*
X004845Y015352D01*
X004882Y015425D01*
X004907Y015503D01*
X004919Y015575D01*
X004450Y015575D01*
X004450Y015675D01*
X004350Y015675D01*
X004350Y016144D01*
X004278Y016132D01*
X004200Y016107D01*
X004127Y016070D01*
X004061Y016022D01*
X004003Y015964D01*
X003955Y015898D01*
X003918Y015825D01*
X003893Y015747D01*
X003881Y015675D01*
X004350Y015675D01*
X004350Y015575D01*
X003881Y015575D01*
X003893Y015503D01*
X003918Y015425D01*
X003955Y015352D01*
X004003Y015286D01*
X004061Y015228D01*
X004127Y015180D01*
X004200Y015143D01*
X004222Y015136D01*
X004094Y015083D01*
X003942Y014931D01*
X003860Y014732D01*
X003860Y014518D01*
X003942Y014319D01*
X004094Y014167D01*
X004293Y014085D01*
X004507Y014085D01*
X004563Y014108D01*
X004650Y014021D01*
X004650Y010325D01*
X004688Y010233D01*
X004758Y010163D01*
X005403Y009519D01*
X005476Y009342D01*
X005617Y009201D01*
X005801Y009125D01*
X005617Y009049D01*
X005476Y008908D01*
X005400Y008724D01*
X005400Y008526D01*
X005476Y008342D01*
X005617Y008201D01*
X005801Y008125D01*
X005617Y008049D01*
X005476Y007908D01*
X005400Y007724D01*
X005400Y007526D01*
X005476Y007342D01*
X005617Y007201D01*
X005801Y007125D01*
X005617Y007049D01*
X005476Y006908D01*
X005400Y006724D01*
X005400Y006526D01*
X005476Y006342D01*
X005617Y006201D01*
X005801Y006125D01*
X005999Y006125D01*
X006183Y006201D01*
X006324Y006342D01*
X006400Y006526D01*
X006400Y006724D01*
X006324Y006908D01*
X006183Y007049D01*
X005999Y007125D01*
X005801Y007125D01*
X005999Y007125D01*
X006183Y007201D01*
X006324Y007342D01*
X006400Y007526D01*
X006400Y007724D01*
X006324Y007908D01*
X006183Y008049D01*
X005999Y008125D01*
X005801Y008125D01*
X005999Y008125D01*
X006183Y008201D01*
X006324Y008342D01*
X006400Y008526D01*
X006400Y008724D01*
X006324Y008908D01*
X006183Y009049D01*
X005999Y009125D01*
X005801Y009125D01*
X005999Y009125D01*
X006183Y009201D01*
X006324Y009342D01*
X006400Y009526D01*
X006400Y009724D01*
X006324Y009908D01*
X006183Y010049D01*
X005999Y010125D01*
X005801Y010125D01*
X005999Y010125D01*
X006183Y010201D01*
X006324Y010342D01*
X006400Y010526D01*
X006400Y010724D01*
X006324Y010908D01*
X006183Y011049D01*
X005999Y011125D01*
X005801Y011125D01*
X005999Y011125D01*
X006183Y011201D01*
X006324Y011342D01*
X006400Y011526D01*
X006400Y011724D01*
X006324Y011908D01*
X006183Y012049D01*
X005999Y012125D01*
X005801Y012125D01*
X005999Y012125D01*
X006183Y012201D01*
X006202Y012220D01*
X007150Y011271D01*
X007150Y009825D01*
X007188Y009733D01*
X007258Y009663D01*
X009938Y006983D01*
X010008Y006913D01*
X010100Y006875D01*
X010877Y006875D01*
X010940Y006811D01*
X011076Y006755D01*
X011224Y006755D01*
X011360Y006811D01*
X011464Y006915D01*
X011520Y007051D01*
X011520Y007199D01*
X011464Y007335D01*
X011360Y007439D01*
X011400Y007528D02*
X010528Y007528D01*
X010474Y007505D02*
X010610Y007561D01*
X010714Y007665D01*
X010770Y007801D01*
X010770Y007949D01*
X010714Y008085D01*
X010620Y008178D01*
X010620Y014255D01*
X010724Y014255D01*
X010860Y014311D01*
X010964Y014415D01*
X011020Y014551D01*
X011020Y014699D01*
X010964Y014835D01*
X010860Y014939D01*
X010724Y014995D01*
X010576Y014995D01*
X010440Y014939D01*
X010336Y014835D01*
X010280Y014699D01*
X010280Y014566D01*
X010180Y014466D01*
X010180Y008178D01*
X010086Y008085D01*
X010030Y007949D01*
X010030Y007801D01*
X010086Y007665D01*
X010190Y007561D01*
X010326Y007505D01*
X010474Y007505D01*
X010272Y007528D02*
X010101Y007528D01*
X010126Y007626D02*
X010003Y007626D01*
X010062Y007725D02*
X009904Y007725D01*
X009806Y007823D02*
X010030Y007823D01*
X010030Y007922D02*
X009707Y007922D01*
X009609Y008020D02*
X010060Y008020D01*
X010120Y008119D02*
X009510Y008119D01*
X009412Y008217D02*
X010180Y008217D01*
X010180Y008316D02*
X009313Y008316D01*
X009215Y008414D02*
X010180Y008414D01*
X010180Y008513D02*
X009116Y008513D01*
X009018Y008611D02*
X010180Y008611D01*
X010180Y008710D02*
X008919Y008710D01*
X008821Y008808D02*
X010180Y008808D01*
X010180Y008907D02*
X008722Y008907D01*
X008624Y009005D02*
X010180Y009005D01*
X010180Y009104D02*
X008525Y009104D01*
X008427Y009202D02*
X010180Y009202D01*
X010180Y009301D02*
X008328Y009301D01*
X008230Y009399D02*
X010180Y009399D01*
X010180Y009498D02*
X008131Y009498D01*
X008033Y009596D02*
X010180Y009596D01*
X010180Y009695D02*
X007934Y009695D01*
X007836Y009793D02*
X010180Y009793D01*
X010180Y009892D02*
X007737Y009892D01*
X007650Y009990D02*
X010180Y009990D01*
X010180Y010089D02*
X007650Y010089D01*
X007650Y010187D02*
X010180Y010187D01*
X010180Y010286D02*
X007650Y010286D01*
X007650Y010384D02*
X010180Y010384D01*
X010180Y010483D02*
X007650Y010483D01*
X007650Y010581D02*
X010180Y010581D01*
X010180Y010680D02*
X007650Y010680D01*
X007650Y010778D02*
X010180Y010778D01*
X010180Y010877D02*
X007650Y010877D01*
X007650Y010975D02*
X010180Y010975D01*
X010180Y011074D02*
X007650Y011074D01*
X007650Y011172D02*
X010180Y011172D01*
X010180Y011271D02*
X007650Y011271D01*
X007650Y011369D02*
X010180Y011369D01*
X010180Y011468D02*
X007632Y011468D01*
X007563Y011566D02*
X010180Y011566D01*
X010180Y011665D02*
X007464Y011665D01*
X007366Y011763D02*
X010180Y011763D01*
X010180Y011862D02*
X007267Y011862D01*
X007169Y011960D02*
X010180Y011960D01*
X010180Y012059D02*
X007070Y012059D01*
X006972Y012157D02*
X010180Y012157D01*
X010180Y012256D02*
X006873Y012256D01*
X006775Y012354D02*
X010180Y012354D01*
X010180Y012453D02*
X006676Y012453D01*
X006578Y012551D02*
X010180Y012551D01*
X010180Y012650D02*
X006479Y012650D01*
X006390Y012748D02*
X010180Y012748D01*
X010180Y012847D02*
X006349Y012847D01*
X006287Y012945D02*
X010180Y012945D01*
X010180Y013044D02*
X006189Y013044D01*
X006084Y013180D02*
X006152Y013214D01*
X006213Y013259D01*
X006266Y013312D01*
X006311Y013373D01*
X006345Y013441D01*
X006368Y013513D01*
X006380Y013586D01*
X005939Y013586D01*
X005939Y013664D01*
X006380Y013664D01*
X006368Y013737D01*
X006345Y013809D01*
X006311Y013877D01*
X006266Y013938D01*
X006213Y013991D01*
X006152Y014036D01*
X006084Y014070D01*
X006012Y014093D01*
X005939Y014105D01*
X005939Y013664D01*
X005861Y013664D01*
X005861Y014105D01*
X005788Y014093D01*
X005716Y014070D01*
X005648Y014036D01*
X005587Y013991D01*
X005534Y013938D01*
X005489Y013877D01*
X005455Y013809D01*
X005432Y013737D01*
X005420Y013664D01*
X005861Y013664D01*
X005861Y013586D01*
X005939Y013586D01*
X005939Y013145D01*
X006012Y013157D01*
X006084Y013180D01*
X006187Y013241D02*
X010180Y013241D01*
X010180Y013339D02*
X006286Y013339D01*
X006343Y013438D02*
X010180Y013438D01*
X010180Y013536D02*
X006372Y013536D01*
X006369Y013733D02*
X010180Y013733D01*
X010180Y013635D02*
X005939Y013635D01*
X005861Y013635D02*
X005150Y013635D01*
X005150Y013733D02*
X005431Y013733D01*
X005467Y013832D02*
X005150Y013832D01*
X005150Y013930D02*
X005528Y013930D01*
X005639Y014029D02*
X005150Y014029D01*
X005150Y014127D02*
X005796Y014127D01*
X005801Y014125D02*
X005999Y014125D01*
X006183Y014201D01*
X006324Y014342D01*
X006400Y014526D01*
X006400Y014724D01*
X006324Y014908D01*
X006183Y015049D01*
X005999Y015125D01*
X006183Y015201D01*
X006324Y015342D01*
X006400Y015526D01*
X006400Y015724D01*
X006324Y015908D01*
X006183Y016049D01*
X005999Y016125D01*
X006183Y016201D01*
X006324Y016342D01*
X006400Y016526D01*
X006400Y016724D01*
X006324Y016908D01*
X006183Y017049D01*
X005999Y017125D01*
X005801Y017125D01*
X005617Y017049D01*
X005476Y016908D01*
X005400Y016724D01*
X005400Y016526D01*
X005476Y016342D01*
X005617Y016201D01*
X005801Y016125D01*
X005999Y016125D01*
X005801Y016125D01*
X005617Y016049D01*
X005476Y015908D01*
X005400Y015724D01*
X005400Y015526D01*
X005476Y015342D01*
X005617Y015201D01*
X005801Y015125D01*
X005999Y015125D01*
X005801Y015125D01*
X005617Y015049D01*
X005476Y014908D01*
X005400Y014724D01*
X005400Y014526D01*
X005476Y014342D01*
X005617Y014201D01*
X005801Y014125D01*
X005861Y014029D02*
X005939Y014029D01*
X005939Y013930D02*
X005861Y013930D01*
X005861Y013832D02*
X005939Y013832D01*
X005939Y013733D02*
X005861Y013733D01*
X005861Y013586D02*
X005420Y013586D01*
X005432Y013513D01*
X005455Y013441D01*
X005489Y013373D01*
X005534Y013312D01*
X005587Y013259D01*
X005648Y013214D01*
X005716Y013180D01*
X005788Y013157D01*
X005861Y013145D01*
X005861Y013586D01*
X005861Y013536D02*
X005939Y013536D01*
X005939Y013438D02*
X005861Y013438D01*
X005861Y013339D02*
X005939Y013339D01*
X005939Y013241D02*
X005861Y013241D01*
X005613Y013241D02*
X005150Y013241D01*
X005150Y013339D02*
X005514Y013339D01*
X005457Y013438D02*
X005150Y013438D01*
X005150Y013536D02*
X005428Y013536D01*
X005150Y013142D02*
X010180Y013142D01*
X010620Y013142D02*
X011759Y013142D01*
X011611Y013044D02*
X010620Y013044D01*
X010620Y012945D02*
X011513Y012945D01*
X011451Y012847D02*
X010620Y012847D01*
X010620Y012748D02*
X011410Y012748D01*
X011400Y012650D02*
X010620Y012650D01*
X010620Y012551D02*
X011400Y012551D01*
X011430Y012453D02*
X010620Y012453D01*
X010620Y012354D02*
X011471Y012354D01*
X011219Y012256D02*
X010620Y012256D01*
X010620Y012157D02*
X011121Y012157D01*
X011022Y012059D02*
X010620Y012059D01*
X010620Y011960D02*
X010930Y011960D01*
X010930Y011862D02*
X010620Y011862D01*
X010620Y011763D02*
X010930Y011763D01*
X010930Y011665D02*
X010620Y011665D01*
X010620Y011566D02*
X010930Y011566D01*
X010930Y011468D02*
X010620Y011468D01*
X010620Y011369D02*
X010930Y011369D01*
X010930Y011271D02*
X010620Y011271D01*
X010620Y011172D02*
X010930Y011172D01*
X010930Y011074D02*
X010620Y011074D01*
X010620Y010975D02*
X010930Y010975D01*
X010930Y010877D02*
X010620Y010877D01*
X010620Y010778D02*
X010930Y010778D01*
X010930Y010680D02*
X010620Y010680D01*
X010620Y010581D02*
X010930Y010581D01*
X010930Y010483D02*
X010620Y010483D01*
X010620Y010384D02*
X010930Y010384D01*
X010930Y010286D02*
X010620Y010286D01*
X010620Y010187D02*
X010930Y010187D01*
X010930Y010089D02*
X010620Y010089D01*
X010620Y009990D02*
X010930Y009990D01*
X010930Y009892D02*
X010620Y009892D01*
X010620Y009793D02*
X010930Y009793D01*
X010930Y009695D02*
X010620Y009695D01*
X010620Y009596D02*
X010930Y009596D01*
X010930Y009498D02*
X010620Y009498D01*
X010620Y009399D02*
X010930Y009399D01*
X010930Y009301D02*
X010620Y009301D01*
X010620Y009202D02*
X010930Y009202D01*
X010930Y009104D02*
X010620Y009104D01*
X010620Y009005D02*
X010930Y009005D01*
X010930Y008907D02*
X010620Y008907D01*
X010620Y008808D02*
X010930Y008808D01*
X010930Y008710D02*
X010620Y008710D01*
X010620Y008611D02*
X010930Y008611D01*
X010930Y008513D02*
X010620Y008513D01*
X010620Y008414D02*
X010930Y008414D01*
X010930Y008316D02*
X010620Y008316D01*
X010620Y008217D02*
X010997Y008217D01*
X011095Y008119D02*
X010680Y008119D01*
X010740Y008020D02*
X011194Y008020D01*
X011292Y007922D02*
X010770Y007922D01*
X010770Y007823D02*
X011391Y007823D01*
X011400Y007725D02*
X010738Y007725D01*
X010674Y007626D02*
X011400Y007626D01*
X011465Y007331D02*
X011487Y007331D01*
X011506Y007232D02*
X011586Y007232D01*
X011520Y007134D02*
X011780Y007134D01*
X011603Y007035D02*
X011513Y007035D01*
X011504Y006937D02*
X011472Y006937D01*
X011447Y006838D02*
X011386Y006838D01*
X011406Y006740D02*
X006394Y006740D01*
X006400Y006641D02*
X011400Y006641D01*
X011400Y006543D02*
X006400Y006543D01*
X006366Y006444D02*
X011434Y006444D01*
X011475Y006346D02*
X006325Y006346D01*
X006229Y006247D02*
X011571Y006247D01*
X011744Y006149D02*
X006056Y006149D01*
X006180Y006050D02*
X011620Y006050D01*
X011519Y005952D02*
X006281Y005952D01*
X006347Y005853D02*
X011453Y005853D01*
X011412Y005755D02*
X006388Y005755D01*
X006400Y005656D02*
X011400Y005656D01*
X011400Y005558D02*
X006400Y005558D01*
X006372Y005459D02*
X011428Y005459D01*
X011468Y005361D02*
X006332Y005361D01*
X006244Y005262D02*
X011556Y005262D01*
X011708Y005164D02*
X006092Y005164D01*
X005999Y005125D02*
X005801Y005125D01*
X005617Y005201D01*
X005476Y005342D01*
X005462Y005375D01*
X004850Y005375D01*
X004758Y005413D01*
X003546Y006625D01*
X003089Y006625D01*
X003203Y006578D01*
X003353Y006428D01*
X003434Y006231D01*
X003434Y006019D01*
X003353Y005822D01*
X003203Y005672D01*
X003089Y005625D01*
X003203Y005578D01*
X003353Y005428D01*
X003434Y005231D01*
X003434Y005019D01*
X003412Y004966D01*
X003504Y004875D01*
X005462Y004875D01*
X005476Y004908D01*
X005617Y005049D01*
X005801Y005125D01*
X005999Y005125D01*
X006144Y005065D02*
X011656Y005065D01*
X011534Y004967D02*
X006266Y004967D01*
X006341Y004868D02*
X011459Y004868D01*
X011419Y004770D02*
X006381Y004770D01*
X006400Y004671D02*
X011400Y004671D01*
X011400Y004573D02*
X006400Y004573D01*
X006379Y004474D02*
X011421Y004474D01*
X011462Y004376D02*
X006338Y004376D01*
X006259Y004277D02*
X011541Y004277D01*
X011671Y004179D02*
X006129Y004179D01*
X006108Y004080D02*
X011692Y004080D01*
X011549Y003982D02*
X006251Y003982D01*
X006334Y003883D02*
X011466Y003883D01*
X011425Y003785D02*
X006375Y003785D01*
X006400Y003686D02*
X011400Y003686D01*
X011400Y003588D02*
X006400Y003588D01*
X006385Y003489D02*
X011415Y003489D01*
X011456Y003391D02*
X006344Y003391D01*
X006274Y003292D02*
X011526Y003292D01*
X011635Y003194D02*
X006165Y003194D01*
X005999Y003125D02*
X005801Y003125D01*
X005617Y003201D01*
X005598Y003220D01*
X005362Y002983D01*
X005292Y002913D01*
X005200Y002875D01*
X004100Y002875D01*
X004008Y002913D01*
X003226Y003696D01*
X003203Y003672D01*
X003089Y003625D01*
X003203Y003578D01*
X003353Y003428D01*
X003434Y003231D01*
X003434Y003019D01*
X003353Y002822D01*
X003203Y002672D01*
X003006Y002591D01*
X002794Y002591D01*
X002597Y002672D01*
X002447Y002822D01*
X002400Y002936D01*
X002353Y002822D01*
X002203Y002672D01*
X002006Y002591D01*
X001794Y002591D01*
X001597Y002672D01*
X001447Y002822D01*
X001366Y003019D01*
X001366Y003231D01*
X001447Y003428D01*
X001597Y003578D01*
X001711Y003625D01*
X001597Y003672D01*
X001449Y003821D01*
X001150Y003521D01*
X001150Y002229D01*
X001504Y001875D01*
X003877Y001875D01*
X003836Y001915D01*
X003780Y002051D01*
X003780Y002199D01*
X003836Y002335D01*
X003940Y002439D01*
X004076Y002495D01*
X004166Y002495D01*
X004508Y002837D01*
X004600Y002875D01*
X005462Y002875D01*
X005476Y002908D01*
X005617Y003049D01*
X005801Y003125D01*
X005999Y003125D01*
X005728Y003095D02*
X005474Y003095D01*
X005564Y002997D02*
X005375Y002997D01*
X005472Y002898D02*
X005255Y002898D01*
X005572Y003194D02*
X005635Y003194D01*
X005259Y003588D02*
X004041Y003588D01*
X003943Y003686D02*
X005357Y003686D01*
X005403Y003731D02*
X005046Y003375D01*
X004254Y003375D01*
X003434Y004194D01*
X003434Y004231D01*
X003375Y004375D01*
X005462Y004375D01*
X005476Y004342D01*
X005617Y004201D01*
X005801Y004125D01*
X005999Y004125D01*
X005801Y004125D01*
X005617Y004049D01*
X005476Y003908D01*
X005403Y003731D01*
X005425Y003785D02*
X003844Y003785D01*
X003746Y003883D02*
X005466Y003883D01*
X005549Y003982D02*
X003647Y003982D01*
X003549Y004080D02*
X005692Y004080D01*
X005671Y004179D02*
X003450Y004179D01*
X003415Y004277D02*
X005541Y004277D01*
X005534Y004967D02*
X003413Y004967D01*
X003434Y005065D02*
X005656Y005065D01*
X005708Y005164D02*
X003434Y005164D01*
X003421Y005262D02*
X005556Y005262D01*
X005468Y005361D02*
X003381Y005361D01*
X003321Y005459D02*
X004712Y005459D01*
X004614Y005558D02*
X003223Y005558D01*
X003164Y005656D02*
X004515Y005656D01*
X004417Y005755D02*
X003285Y005755D01*
X003366Y005853D02*
X004318Y005853D01*
X004220Y005952D02*
X003406Y005952D01*
X003434Y006050D02*
X004121Y006050D01*
X004023Y006149D02*
X003434Y006149D01*
X003428Y006247D02*
X003924Y006247D01*
X003826Y006346D02*
X003387Y006346D01*
X003336Y006444D02*
X003727Y006444D01*
X003629Y006543D02*
X003238Y006543D01*
X003844Y007035D02*
X005603Y007035D01*
X005504Y006937D02*
X003942Y006937D01*
X004041Y006838D02*
X005447Y006838D01*
X005406Y006740D02*
X004139Y006740D01*
X004238Y006641D02*
X005400Y006641D01*
X005400Y006543D02*
X004336Y006543D01*
X004435Y006444D02*
X005434Y006444D01*
X005475Y006346D02*
X004533Y006346D01*
X004632Y006247D02*
X005571Y006247D01*
X005744Y006149D02*
X004730Y006149D01*
X004829Y006050D02*
X005620Y006050D01*
X005519Y005952D02*
X004927Y005952D01*
X005780Y007134D02*
X002070Y007134D01*
X001930Y007134D02*
X001870Y007134D01*
X001870Y007125D02*
X001870Y007595D01*
X001930Y007595D01*
X001930Y007125D01*
X001870Y007125D01*
X001870Y007232D02*
X001930Y007232D01*
X001930Y007331D02*
X001870Y007331D01*
X001870Y007429D02*
X001930Y007429D01*
X001930Y007528D02*
X001870Y007528D01*
X001870Y007626D02*
X000610Y007626D01*
X000610Y007528D02*
X001389Y007528D01*
X001417Y007429D02*
X000610Y007429D01*
X000610Y007331D02*
X001471Y007331D01*
X001558Y007232D02*
X000610Y007232D01*
X000610Y007134D02*
X001730Y007134D01*
X001456Y007035D02*
X000610Y007035D01*
X000610Y006937D02*
X001358Y006937D01*
X001259Y006838D02*
X000610Y006838D01*
X000610Y006740D02*
X001161Y006740D01*
X001062Y006641D02*
X000610Y006641D01*
X000610Y006543D02*
X000964Y006543D01*
X000908Y006444D02*
X000610Y006444D01*
X000610Y006346D02*
X000900Y006346D01*
X000900Y006247D02*
X000610Y006247D01*
X000610Y006149D02*
X000900Y006149D01*
X000900Y006050D02*
X000610Y006050D01*
X000610Y005952D02*
X000900Y005952D01*
X000900Y005853D02*
X000610Y005853D01*
X000610Y005755D02*
X000900Y005755D01*
X000900Y005656D02*
X000610Y005656D01*
X000610Y005558D02*
X000900Y005558D01*
X000900Y005459D02*
X000610Y005459D01*
X000610Y005361D02*
X000900Y005361D01*
X000926Y005262D02*
X000610Y005262D01*
X000610Y005164D02*
X001008Y005164D01*
X001106Y005065D02*
X000610Y005065D01*
X000610Y004967D02*
X001205Y004967D01*
X001188Y004983D02*
X001188Y004983D01*
X001428Y004868D02*
X000610Y004868D01*
X000610Y004770D02*
X001500Y004770D01*
X001600Y004671D02*
X000610Y004671D01*
X000610Y004573D02*
X001592Y004573D01*
X001494Y004474D02*
X000610Y004474D01*
X000610Y004376D02*
X001426Y004376D01*
X001198Y004277D02*
X000610Y004277D01*
X000610Y004179D02*
X001100Y004179D01*
X001001Y004080D02*
X000610Y004080D01*
X000610Y003982D02*
X000903Y003982D01*
X000804Y003883D02*
X000610Y003883D01*
X000610Y003785D02*
X000706Y003785D01*
X000655Y003686D02*
X000610Y003686D01*
X000610Y003588D02*
X000650Y003588D01*
X000650Y003489D02*
X000610Y003489D01*
X000610Y003391D02*
X000650Y003391D01*
X000650Y003292D02*
X000610Y003292D01*
X000610Y003194D02*
X000650Y003194D01*
X000650Y003095D02*
X000610Y003095D01*
X000610Y002997D02*
X000650Y002997D01*
X000650Y002898D02*
X000610Y002898D01*
X000610Y002800D02*
X000650Y002800D01*
X000650Y002701D02*
X000610Y002701D01*
X000610Y002603D02*
X000650Y002603D01*
X000650Y002504D02*
X000610Y002504D01*
X000610Y002406D02*
X000650Y002406D01*
X000650Y002307D02*
X000610Y002307D01*
X000610Y002209D02*
X000650Y002209D01*
X000650Y002110D02*
X000610Y002110D01*
X000610Y002012D02*
X000676Y002012D01*
X000610Y001913D02*
X000758Y001913D01*
X000857Y001815D02*
X000610Y001815D01*
X000610Y001716D02*
X000955Y001716D01*
X001054Y001618D02*
X000610Y001618D01*
X000610Y001519D02*
X001152Y001519D01*
X001251Y001421D02*
X000610Y001421D01*
X000610Y001335D02*
X000610Y017967D01*
X001274Y018632D01*
X015274Y018632D01*
X015938Y017967D01*
X015938Y011737D01*
X015858Y011931D01*
X015706Y012083D01*
X015507Y012165D01*
X015293Y012165D01*
X015094Y012083D01*
X014942Y011931D01*
X014936Y011915D01*
X013751Y011915D01*
X013870Y012034D01*
X014120Y012284D01*
X014120Y012322D01*
X014214Y012415D01*
X014270Y012551D01*
X015938Y012551D01*
X015938Y012453D02*
X014229Y012453D01*
X014270Y012551D02*
X014270Y012699D01*
X014214Y012835D01*
X014110Y012939D01*
X013974Y012995D01*
X013826Y012995D01*
X013690Y012939D01*
X013586Y012835D01*
X013530Y012699D01*
X013550Y012748D02*
X012390Y012748D01*
X012349Y012847D02*
X013598Y012847D01*
X013706Y012945D02*
X012287Y012945D01*
X012189Y013044D02*
X015938Y013044D01*
X015938Y013142D02*
X015596Y013142D01*
X015600Y013143D02*
X015673Y013180D01*
X015739Y013228D01*
X015797Y013286D01*
X015845Y013352D01*
X015882Y013425D01*
X015907Y013503D01*
X015920Y013584D01*
X015920Y013595D01*
X015430Y013595D01*
X015430Y013655D01*
X015920Y013655D01*
X015920Y013666D01*
X015907Y013747D01*
X015882Y013825D01*
X015845Y013898D01*
X015797Y013964D01*
X015739Y014022D01*
X015673Y014070D01*
X015600Y014107D01*
X015522Y014132D01*
X015441Y014145D01*
X015430Y014145D01*
X015430Y013655D01*
X015370Y013655D01*
X015370Y014145D01*
X015359Y014145D01*
X015278Y014132D01*
X015200Y014107D01*
X015127Y014070D01*
X015061Y014022D01*
X015003Y013964D01*
X014955Y013898D01*
X014918Y013825D01*
X014911Y013803D01*
X014858Y013931D01*
X014706Y014083D01*
X014507Y014165D01*
X014293Y014165D01*
X014094Y014083D01*
X013942Y013931D01*
X013860Y013732D01*
X013860Y013518D01*
X013942Y013319D01*
X014094Y013167D01*
X014293Y013085D01*
X014507Y013085D01*
X014706Y013167D01*
X014858Y013319D01*
X014911Y013447D01*
X014918Y013425D01*
X014955Y013352D01*
X015003Y013286D01*
X015061Y013228D01*
X015127Y013180D01*
X015200Y013143D01*
X015278Y013118D01*
X015359Y013105D01*
X015370Y013105D01*
X015370Y013595D01*
X015430Y013595D01*
X015430Y013105D01*
X015441Y013105D01*
X015522Y013118D01*
X015600Y013143D01*
X015430Y013142D02*
X015370Y013142D01*
X015370Y013241D02*
X015430Y013241D01*
X015430Y013339D02*
X015370Y013339D01*
X015370Y013438D02*
X015430Y013438D01*
X015430Y013536D02*
X015370Y013536D01*
X015430Y013635D02*
X015938Y013635D01*
X015938Y013733D02*
X015909Y013733D01*
X015878Y013832D02*
X015938Y013832D01*
X015938Y013930D02*
X015821Y013930D01*
X015729Y014029D02*
X015938Y014029D01*
X015938Y014127D02*
X015538Y014127D01*
X015430Y014127D02*
X015370Y014127D01*
X015370Y014029D02*
X015430Y014029D01*
X015430Y013930D02*
X015370Y013930D01*
X015370Y013832D02*
X015430Y013832D01*
X015430Y013733D02*
X015370Y013733D01*
X015071Y014029D02*
X014760Y014029D01*
X014858Y013930D02*
X014979Y013930D01*
X014922Y013832D02*
X014899Y013832D01*
X014907Y013438D02*
X014914Y013438D01*
X014866Y013339D02*
X014965Y013339D01*
X015049Y013241D02*
X014779Y013241D01*
X014645Y013142D02*
X015204Y013142D01*
X015751Y013241D02*
X015938Y013241D01*
X015938Y013339D02*
X015835Y013339D01*
X015886Y013438D02*
X015938Y013438D01*
X015938Y013536D02*
X015912Y013536D01*
X015938Y012945D02*
X014094Y012945D01*
X014202Y012847D02*
X015938Y012847D01*
X015938Y012748D02*
X014250Y012748D01*
X014270Y012650D02*
X015938Y012650D01*
X015938Y012354D02*
X014152Y012354D01*
X014092Y012256D02*
X015938Y012256D01*
X015938Y012157D02*
X015527Y012157D01*
X015273Y012157D02*
X013993Y012157D01*
X013895Y012059D02*
X015070Y012059D01*
X014971Y011960D02*
X013796Y011960D01*
X013650Y012125D02*
X013900Y012375D01*
X013900Y012625D01*
X014155Y013142D02*
X012041Y013142D01*
X012223Y013241D02*
X014021Y013241D01*
X013934Y013339D02*
X012321Y013339D01*
X012364Y013438D02*
X013893Y013438D01*
X013860Y013536D02*
X012400Y013536D01*
X012400Y013635D02*
X013860Y013635D01*
X013860Y013733D02*
X012396Y013733D01*
X012356Y013832D02*
X013901Y013832D01*
X013942Y013930D02*
X012302Y013930D01*
X012204Y014029D02*
X014040Y014029D01*
X014201Y014127D02*
X012004Y014127D01*
X011796Y014127D02*
X010620Y014127D01*
X010620Y014029D02*
X011596Y014029D01*
X011498Y013930D02*
X010620Y013930D01*
X010620Y013832D02*
X011444Y013832D01*
X011404Y013733D02*
X010620Y013733D01*
X010620Y013635D02*
X011400Y013635D01*
X011400Y013536D02*
X010620Y013536D01*
X010620Y013438D02*
X011436Y013438D01*
X011479Y013339D02*
X010620Y013339D01*
X010620Y013241D02*
X011577Y013241D01*
X011592Y014226D02*
X010620Y014226D01*
X010872Y014324D02*
X011494Y014324D01*
X011443Y014423D02*
X010967Y014423D01*
X011007Y014521D02*
X011402Y014521D01*
X011400Y014620D02*
X011020Y014620D01*
X011012Y014718D02*
X011400Y014718D01*
X011438Y014817D02*
X010971Y014817D01*
X010883Y014915D02*
X011483Y014915D01*
X011581Y015014D02*
X006219Y015014D01*
X006317Y014915D02*
X010417Y014915D01*
X010329Y014817D02*
X006362Y014817D01*
X006400Y014718D02*
X010288Y014718D01*
X010280Y014620D02*
X006400Y014620D01*
X006398Y014521D02*
X010235Y014521D01*
X010180Y014423D02*
X006357Y014423D01*
X006306Y014324D02*
X010180Y014324D01*
X010180Y014226D02*
X006208Y014226D01*
X006161Y014029D02*
X010180Y014029D01*
X010180Y014127D02*
X006004Y014127D01*
X006272Y013930D02*
X010180Y013930D01*
X010180Y013832D02*
X006333Y013832D01*
X005592Y014226D02*
X005129Y014226D01*
X005055Y014324D02*
X005494Y014324D01*
X005443Y014423D02*
X004956Y014423D01*
X004940Y014521D02*
X005402Y014521D01*
X005400Y014620D02*
X004940Y014620D01*
X004940Y014718D02*
X005400Y014718D01*
X005438Y014817D02*
X004905Y014817D01*
X004864Y014915D02*
X005483Y014915D01*
X005581Y015014D02*
X004775Y015014D01*
X004635Y015112D02*
X005769Y015112D01*
X005607Y015211D02*
X004714Y015211D01*
X004813Y015309D02*
X005509Y015309D01*
X005449Y015408D02*
X004873Y015408D01*
X004908Y015506D02*
X005408Y015506D01*
X005400Y015605D02*
X004450Y015605D01*
X004450Y015675D02*
X004919Y015675D01*
X004907Y015747D01*
X004882Y015825D01*
X004845Y015898D01*
X004797Y015964D01*
X004739Y016022D01*
X004673Y016070D01*
X004600Y016107D01*
X004522Y016132D01*
X004450Y016144D01*
X004450Y015675D01*
X004450Y015703D02*
X004350Y015703D01*
X004350Y015605D02*
X003440Y015605D01*
X003440Y015518D02*
X003440Y015732D01*
X003358Y015931D01*
X003206Y016083D01*
X003104Y016125D01*
X003206Y016167D01*
X003358Y016319D01*
X003440Y016518D01*
X003440Y016732D01*
X003358Y016931D01*
X003206Y017083D01*
X003104Y017125D01*
X003206Y017167D01*
X003358Y017319D01*
X003440Y017518D01*
X003440Y017732D01*
X003358Y017931D01*
X003206Y018083D01*
X003007Y018165D01*
X002793Y018165D01*
X002594Y018083D01*
X002442Y017931D01*
X002360Y017732D01*
X002360Y017518D01*
X002442Y017319D01*
X002594Y017167D01*
X002696Y017125D01*
X002594Y017083D01*
X002442Y016931D01*
X002360Y016732D01*
X002360Y016518D01*
X002442Y016319D01*
X002594Y016167D01*
X002696Y016125D01*
X002594Y016083D01*
X002442Y015931D01*
X002360Y015732D01*
X002360Y015518D01*
X002442Y015319D01*
X002594Y015167D01*
X002648Y015145D01*
X002510Y015145D01*
X002472Y015135D01*
X002438Y015115D01*
X002410Y015087D01*
X002390Y015053D01*
X002380Y015015D01*
X002380Y014675D01*
X002850Y014675D01*
X002850Y014575D01*
X002380Y014575D01*
X002380Y014235D01*
X002390Y014197D01*
X002410Y014163D01*
X002438Y014135D01*
X002472Y014115D01*
X002510Y014105D01*
X002850Y014105D01*
X002850Y014575D01*
X002950Y014575D01*
X002950Y014675D01*
X003420Y014675D01*
X003420Y015015D01*
X003410Y015053D01*
X003390Y015087D01*
X003362Y015115D01*
X003328Y015135D01*
X003290Y015145D01*
X003152Y015145D01*
X003206Y015167D01*
X003358Y015319D01*
X003440Y015518D01*
X003435Y015506D02*
X003892Y015506D01*
X003927Y015408D02*
X003394Y015408D01*
X003348Y015309D02*
X003987Y015309D01*
X004086Y015211D02*
X003249Y015211D01*
X003365Y015112D02*
X004165Y015112D01*
X004025Y015014D02*
X003420Y015014D01*
X003420Y014915D02*
X003936Y014915D01*
X003895Y014817D02*
X003420Y014817D01*
X003420Y014718D02*
X003860Y014718D01*
X003860Y014620D02*
X002950Y014620D01*
X002950Y014575D02*
X003420Y014575D01*
X003420Y014235D01*
X003410Y014197D01*
X003390Y014163D01*
X003362Y014135D01*
X003328Y014115D01*
X003290Y014105D01*
X002950Y014105D01*
X002950Y014575D01*
X002950Y014521D02*
X002850Y014521D01*
X002850Y014423D02*
X002950Y014423D01*
X002950Y014324D02*
X002850Y014324D01*
X002850Y014226D02*
X002950Y014226D01*
X002950Y014127D02*
X002850Y014127D01*
X002850Y014620D02*
X000610Y014620D01*
X000610Y014718D02*
X002380Y014718D01*
X002380Y014817D02*
X000610Y014817D01*
X000610Y014915D02*
X002380Y014915D01*
X002380Y015014D02*
X000610Y015014D01*
X000610Y015112D02*
X002435Y015112D01*
X002551Y015211D02*
X000610Y015211D01*
X000610Y015309D02*
X002452Y015309D01*
X002406Y015408D02*
X000610Y015408D01*
X000610Y015506D02*
X002365Y015506D01*
X002360Y015605D02*
X000610Y015605D01*
X000610Y015703D02*
X002360Y015703D01*
X002389Y015802D02*
X000610Y015802D01*
X000610Y015900D02*
X002429Y015900D01*
X002510Y015999D02*
X000610Y015999D01*
X000610Y016097D02*
X002629Y016097D01*
X002566Y016196D02*
X000610Y016196D01*
X000610Y016294D02*
X002467Y016294D01*
X002412Y016393D02*
X000610Y016393D01*
X000610Y016491D02*
X002371Y016491D01*
X002360Y016590D02*
X000610Y016590D01*
X000610Y016688D02*
X002360Y016688D01*
X002382Y016787D02*
X000610Y016787D01*
X000610Y016885D02*
X002423Y016885D01*
X002495Y016984D02*
X001934Y016984D01*
X002012Y017016D02*
X001732Y016900D01*
X001430Y016900D01*
X001150Y017016D01*
X000936Y017230D01*
X000821Y017509D01*
X000821Y017812D01*
X000936Y018091D01*
X001150Y018305D01*
X001430Y018421D01*
X001732Y018421D01*
X002012Y018305D01*
X002226Y018091D01*
X002342Y017812D01*
X002342Y017509D01*
X002226Y017230D01*
X002012Y017016D01*
X002078Y017082D02*
X002593Y017082D01*
X002581Y017181D02*
X002177Y017181D01*
X002246Y017279D02*
X002482Y017279D01*
X002418Y017378D02*
X002287Y017378D01*
X002328Y017476D02*
X002377Y017476D01*
X002360Y017575D02*
X002342Y017575D01*
X002342Y017673D02*
X002360Y017673D01*
X002342Y017772D02*
X002376Y017772D01*
X002417Y017870D02*
X002317Y017870D01*
X002277Y017969D02*
X002480Y017969D01*
X002578Y018067D02*
X002236Y018067D01*
X002152Y018166D02*
X014396Y018166D01*
X014322Y018091D02*
X014206Y017812D01*
X014206Y017509D01*
X014322Y017230D01*
X014536Y017016D01*
X014816Y016900D01*
X015118Y016900D01*
X015398Y017016D01*
X015612Y017230D01*
X015727Y017509D01*
X015727Y017812D01*
X015612Y018091D01*
X015398Y018305D01*
X015118Y018421D01*
X014816Y018421D01*
X014536Y018305D01*
X014322Y018091D01*
X014312Y018067D02*
X003222Y018067D01*
X003320Y017969D02*
X014271Y017969D01*
X014231Y017870D02*
X003383Y017870D01*
X003424Y017772D02*
X014206Y017772D01*
X014206Y017673D02*
X003440Y017673D01*
X003440Y017575D02*
X014206Y017575D01*
X014220Y017476D02*
X003423Y017476D01*
X003382Y017378D02*
X014261Y017378D01*
X014302Y017279D02*
X003318Y017279D01*
X003219Y017181D02*
X014371Y017181D01*
X014470Y017082D02*
X012103Y017082D01*
X012183Y017049D02*
X011999Y017125D01*
X011801Y017125D01*
X011617Y017049D01*
X011476Y016908D01*
X011400Y016724D01*
X011400Y016526D01*
X011476Y016342D01*
X011617Y016201D01*
X011801Y016125D01*
X011999Y016125D01*
X012183Y016201D01*
X012324Y016342D01*
X012400Y016526D01*
X012400Y016724D01*
X012324Y016908D01*
X012183Y017049D01*
X012249Y016984D02*
X014614Y016984D01*
X015320Y016984D02*
X015938Y016984D01*
X015938Y017082D02*
X015464Y017082D01*
X015563Y017181D02*
X015938Y017181D01*
X015938Y017279D02*
X015632Y017279D01*
X015673Y017378D02*
X015938Y017378D01*
X015938Y017476D02*
X015714Y017476D01*
X015727Y017575D02*
X015938Y017575D01*
X015938Y017673D02*
X015727Y017673D01*
X015727Y017772D02*
X015938Y017772D01*
X015938Y017870D02*
X015703Y017870D01*
X015663Y017969D02*
X015937Y017969D01*
X015838Y018067D02*
X015622Y018067D01*
X015537Y018166D02*
X015740Y018166D01*
X015641Y018264D02*
X015439Y018264D01*
X015543Y018363D02*
X015259Y018363D01*
X015444Y018461D02*
X001104Y018461D01*
X001202Y018560D02*
X015346Y018560D01*
X014675Y018363D02*
X001873Y018363D01*
X002053Y018264D02*
X014495Y018264D01*
X015938Y016885D02*
X012333Y016885D01*
X012374Y016787D02*
X015938Y016787D01*
X015938Y016688D02*
X012400Y016688D01*
X012400Y016590D02*
X015938Y016590D01*
X015938Y016491D02*
X012386Y016491D01*
X012345Y016393D02*
X015938Y016393D01*
X015938Y016294D02*
X012276Y016294D01*
X012170Y016196D02*
X015938Y016196D01*
X015938Y016097D02*
X015619Y016097D01*
X015600Y016107D02*
X015522Y016132D01*
X015441Y016145D01*
X015430Y016145D01*
X015430Y015655D01*
X015920Y015655D01*
X015920Y015666D01*
X015907Y015747D01*
X015882Y015825D01*
X015845Y015898D01*
X015797Y015964D01*
X015739Y016022D01*
X015673Y016070D01*
X015600Y016107D01*
X015430Y016097D02*
X015370Y016097D01*
X015370Y016145D02*
X015359Y016145D01*
X015278Y016132D01*
X015200Y016107D01*
X015127Y016070D01*
X015061Y016022D01*
X015003Y015964D01*
X014955Y015898D01*
X014918Y015825D01*
X014911Y015803D01*
X014858Y015931D01*
X014706Y016083D01*
X014507Y016165D01*
X014293Y016165D01*
X014094Y016083D01*
X013942Y015931D01*
X013860Y015732D01*
X013860Y015518D01*
X013942Y015319D01*
X014094Y015167D01*
X014293Y015085D01*
X014507Y015085D01*
X014706Y015167D01*
X014858Y015319D01*
X014911Y015447D01*
X014918Y015425D01*
X014955Y015352D01*
X015003Y015286D01*
X015061Y015228D01*
X015127Y015180D01*
X015200Y015143D01*
X015278Y015118D01*
X015359Y015105D01*
X015370Y015105D01*
X015370Y015595D01*
X015430Y015595D01*
X015430Y015655D01*
X015370Y015655D01*
X015370Y016145D01*
X015370Y015999D02*
X015430Y015999D01*
X015430Y015900D02*
X015370Y015900D01*
X015370Y015802D02*
X015430Y015802D01*
X015430Y015703D02*
X015370Y015703D01*
X015430Y015605D02*
X015938Y015605D01*
X015920Y015595D02*
X015430Y015595D01*
X015430Y015105D01*
X015441Y015105D01*
X015522Y015118D01*
X015600Y015143D01*
X015673Y015180D01*
X015739Y015228D01*
X015797Y015286D01*
X015845Y015352D01*
X015882Y015425D01*
X015907Y015503D01*
X015920Y015584D01*
X015920Y015595D01*
X015908Y015506D02*
X015938Y015506D01*
X015938Y015408D02*
X015873Y015408D01*
X015813Y015309D02*
X015938Y015309D01*
X015938Y015211D02*
X015714Y015211D01*
X015938Y015112D02*
X015485Y015112D01*
X015430Y015112D02*
X015370Y015112D01*
X015315Y015112D02*
X014573Y015112D01*
X014749Y015211D02*
X015086Y015211D01*
X014987Y015309D02*
X014848Y015309D01*
X014894Y015408D02*
X014927Y015408D01*
X015370Y015408D02*
X015430Y015408D01*
X015430Y015506D02*
X015370Y015506D01*
X015370Y015309D02*
X015430Y015309D01*
X015430Y015211D02*
X015370Y015211D01*
X015938Y015014D02*
X012219Y015014D01*
X012317Y014915D02*
X015938Y014915D01*
X015938Y014817D02*
X012362Y014817D01*
X012400Y014718D02*
X015938Y014718D01*
X015938Y014620D02*
X012400Y014620D01*
X012398Y014521D02*
X015938Y014521D01*
X015938Y014423D02*
X012357Y014423D01*
X012306Y014324D02*
X015938Y014324D01*
X015938Y014226D02*
X012208Y014226D01*
X012031Y015112D02*
X014227Y015112D01*
X014051Y015211D02*
X012144Y015211D01*
X012152Y015214D02*
X012213Y015259D01*
X012266Y015312D01*
X012311Y015373D01*
X012345Y015441D01*
X012368Y015513D01*
X012380Y015586D01*
X011939Y015586D01*
X011939Y015664D01*
X012380Y015664D01*
X012368Y015737D01*
X012345Y015809D01*
X012311Y015877D01*
X012266Y015938D01*
X012213Y015991D01*
X012152Y016036D01*
X012084Y016070D01*
X012012Y016093D01*
X011939Y016105D01*
X011939Y015664D01*
X011861Y015664D01*
X011861Y016105D01*
X011788Y016093D01*
X011716Y016070D01*
X011648Y016036D01*
X011587Y015991D01*
X011534Y015938D01*
X011489Y015877D01*
X011455Y015809D01*
X011432Y015737D01*
X011420Y015664D01*
X011861Y015664D01*
X011861Y015586D01*
X011939Y015586D01*
X011939Y015145D01*
X012012Y015157D01*
X012084Y015180D01*
X012152Y015214D01*
X012263Y015309D02*
X013952Y015309D01*
X013906Y015408D02*
X012328Y015408D01*
X012366Y015506D02*
X013865Y015506D01*
X013860Y015605D02*
X011939Y015605D01*
X011861Y015605D02*
X006400Y015605D01*
X006400Y015703D02*
X011426Y015703D01*
X011453Y015802D02*
X006368Y015802D01*
X006327Y015900D02*
X011507Y015900D01*
X011598Y015999D02*
X006234Y015999D01*
X006067Y016097D02*
X011812Y016097D01*
X011861Y016097D02*
X011939Y016097D01*
X011988Y016097D02*
X014129Y016097D01*
X014010Y015999D02*
X012202Y015999D01*
X012293Y015900D02*
X013929Y015900D01*
X013889Y015802D02*
X012347Y015802D01*
X012374Y015703D02*
X013860Y015703D01*
X014671Y016097D02*
X015181Y016097D01*
X015038Y015999D02*
X014790Y015999D01*
X014871Y015900D02*
X014957Y015900D01*
X015762Y015999D02*
X015938Y015999D01*
X015938Y015900D02*
X015843Y015900D01*
X015889Y015802D02*
X015938Y015802D01*
X015938Y015703D02*
X015914Y015703D01*
X015262Y014127D02*
X014599Y014127D01*
X015730Y012059D02*
X015938Y012059D01*
X015938Y011960D02*
X015829Y011960D01*
X015887Y011862D02*
X015938Y011862D01*
X015927Y011763D02*
X015938Y011763D01*
X015196Y011125D02*
X015094Y011083D01*
X014942Y010931D01*
X014919Y010875D01*
X012338Y010875D01*
X012324Y010908D01*
X012183Y011049D01*
X011999Y011125D01*
X011801Y011125D01*
X011617Y011049D01*
X011476Y010908D01*
X011400Y010724D01*
X011400Y010526D01*
X011476Y010342D01*
X011617Y010201D01*
X011801Y010125D01*
X011999Y010125D01*
X012183Y010201D01*
X012324Y010342D01*
X012338Y010375D01*
X014919Y010375D01*
X014942Y010319D01*
X015094Y010167D01*
X015196Y010125D01*
X015094Y010083D01*
X014942Y009931D01*
X014860Y009732D01*
X014860Y009646D01*
X014589Y009375D01*
X012504Y009375D01*
X012386Y009492D01*
X012400Y009526D01*
X012400Y009724D01*
X012324Y009908D01*
X012183Y010049D01*
X011999Y010125D01*
X011801Y010125D01*
X011617Y010049D01*
X011476Y009908D01*
X011400Y009724D01*
X011400Y009526D01*
X011476Y009342D01*
X011617Y009201D01*
X011801Y009125D01*
X011617Y009049D01*
X011476Y008908D01*
X011400Y008724D01*
X011400Y008526D01*
X011463Y008373D01*
X011370Y008466D01*
X011370Y011784D01*
X011463Y011877D01*
X011400Y011724D01*
X011400Y011526D01*
X011476Y011342D01*
X011617Y011201D01*
X011801Y011125D01*
X011999Y011125D01*
X012183Y011201D01*
X012324Y011342D01*
X012400Y011526D01*
X012400Y011724D01*
X012325Y011905D01*
X013068Y011905D01*
X012986Y011871D01*
X012904Y011789D01*
X012886Y011745D01*
X012826Y011745D01*
X012690Y011689D01*
X012586Y011585D01*
X012530Y011449D01*
X012530Y011301D01*
X012586Y011165D01*
X012690Y011061D01*
X012826Y011005D01*
X012974Y011005D01*
X013110Y011061D01*
X013214Y011165D01*
X013270Y011301D01*
X013270Y011335D01*
X014936Y011335D01*
X014942Y011319D01*
X015094Y011167D01*
X015196Y011125D01*
X015089Y011172D02*
X013216Y011172D01*
X013257Y011271D02*
X014991Y011271D01*
X015085Y011074D02*
X013122Y011074D01*
X012678Y011074D02*
X012124Y011074D01*
X012113Y011172D02*
X012584Y011172D01*
X012543Y011271D02*
X012253Y011271D01*
X012335Y011369D02*
X012530Y011369D01*
X012538Y011468D02*
X012376Y011468D01*
X012400Y011566D02*
X012579Y011566D01*
X012666Y011665D02*
X012400Y011665D01*
X012384Y011763D02*
X012893Y011763D01*
X012976Y011862D02*
X012343Y011862D01*
X011687Y011172D02*
X011370Y011172D01*
X011370Y011074D02*
X011676Y011074D01*
X011543Y010975D02*
X011370Y010975D01*
X011370Y010877D02*
X011463Y010877D01*
X011422Y010778D02*
X011370Y010778D01*
X011370Y010680D02*
X011400Y010680D01*
X011400Y010581D02*
X011370Y010581D01*
X011370Y010483D02*
X011418Y010483D01*
X011459Y010384D02*
X011370Y010384D01*
X011370Y010286D02*
X011532Y010286D01*
X011651Y010187D02*
X011370Y010187D01*
X011370Y010089D02*
X011712Y010089D01*
X011558Y009990D02*
X011370Y009990D01*
X011370Y009892D02*
X011469Y009892D01*
X011428Y009793D02*
X011370Y009793D01*
X011370Y009695D02*
X011400Y009695D01*
X011400Y009596D02*
X011370Y009596D01*
X011370Y009498D02*
X011412Y009498D01*
X011452Y009399D02*
X011370Y009399D01*
X011370Y009301D02*
X011517Y009301D01*
X011616Y009202D02*
X011370Y009202D01*
X011370Y009104D02*
X011749Y009104D01*
X011801Y009125D02*
X011999Y009125D01*
X012080Y009092D01*
X012033Y009139D01*
X011999Y009125D01*
X011801Y009125D01*
X012051Y009104D02*
X012068Y009104D01*
X012365Y008808D02*
X014880Y008808D01*
X014880Y008710D02*
X012400Y008710D01*
X012400Y008611D02*
X015350Y008611D01*
X015350Y008513D02*
X015450Y008513D01*
X015450Y008611D02*
X015938Y008611D01*
X015938Y008513D02*
X015920Y008513D01*
X015920Y008414D02*
X015938Y008414D01*
X015938Y008316D02*
X015920Y008316D01*
X015915Y008217D02*
X015938Y008217D01*
X015938Y008119D02*
X015834Y008119D01*
X015938Y008020D02*
X013404Y008020D01*
X013440Y007922D02*
X015938Y007922D01*
X015938Y007823D02*
X013440Y007823D01*
X013440Y007725D02*
X015938Y007725D01*
X015938Y007626D02*
X013440Y007626D01*
X013440Y007528D02*
X015938Y007528D01*
X015938Y007429D02*
X013440Y007429D01*
X013440Y007331D02*
X015938Y007331D01*
X015938Y007232D02*
X013440Y007232D01*
X013440Y007134D02*
X015938Y007134D01*
X015938Y007035D02*
X013427Y007035D01*
X013372Y006937D02*
X015938Y006937D01*
X015938Y006838D02*
X013273Y006838D01*
X013175Y006740D02*
X015938Y006740D01*
X015938Y006641D02*
X015565Y006641D01*
X015746Y006543D02*
X015938Y006543D01*
X015938Y006444D02*
X015845Y006444D01*
X015893Y006346D02*
X015938Y006346D01*
X015934Y006247D02*
X015938Y006247D01*
X015938Y006013D02*
X015938Y004237D01*
X015858Y004431D01*
X015706Y004583D01*
X015507Y004665D01*
X015293Y004665D01*
X015094Y004583D01*
X014942Y004431D01*
X014900Y004329D01*
X014858Y004431D01*
X014706Y004583D01*
X014507Y004665D01*
X014293Y004665D01*
X014094Y004583D01*
X013942Y004431D01*
X013889Y004303D01*
X013882Y004325D01*
X013845Y004398D01*
X013797Y004464D01*
X013739Y004522D01*
X013673Y004570D01*
X013600Y004607D01*
X013522Y004632D01*
X013450Y004644D01*
X013450Y004175D01*
X013350Y004175D01*
X013350Y004644D01*
X013278Y004632D01*
X013200Y004607D01*
X013127Y004570D01*
X013061Y004522D01*
X013003Y004464D01*
X012955Y004398D01*
X012940Y004368D01*
X012940Y005882D01*
X012955Y005852D01*
X013003Y005786D01*
X013061Y005728D01*
X013127Y005680D01*
X013200Y005643D01*
X013278Y005618D01*
X013350Y005606D01*
X013350Y006075D01*
X013450Y006075D01*
X013450Y005606D01*
X013522Y005618D01*
X013600Y005643D01*
X013673Y005680D01*
X013739Y005728D01*
X013797Y005786D01*
X013845Y005852D01*
X013882Y005925D01*
X013889Y005947D01*
X013942Y005819D01*
X014094Y005667D01*
X014293Y005585D01*
X014507Y005585D01*
X014706Y005667D01*
X014858Y005819D01*
X014900Y005921D01*
X014942Y005819D01*
X015094Y005667D01*
X015293Y005585D01*
X015507Y005585D01*
X015706Y005667D01*
X015858Y005819D01*
X015938Y006013D01*
X015938Y005952D02*
X015913Y005952D01*
X015938Y005853D02*
X015872Y005853D01*
X015938Y005755D02*
X015793Y005755D01*
X015679Y005656D02*
X015938Y005656D01*
X015938Y005558D02*
X012940Y005558D01*
X012940Y005656D02*
X013175Y005656D01*
X013035Y005755D02*
X012940Y005755D01*
X012940Y005853D02*
X012955Y005853D01*
X012940Y005459D02*
X015938Y005459D01*
X015938Y005361D02*
X012940Y005361D01*
X012940Y005262D02*
X015938Y005262D01*
X015938Y005164D02*
X012940Y005164D01*
X012940Y005065D02*
X015938Y005065D01*
X015938Y004967D02*
X012940Y004967D01*
X012940Y004868D02*
X015938Y004868D01*
X015938Y004770D02*
X012940Y004770D01*
X012940Y004671D02*
X015938Y004671D01*
X015938Y004573D02*
X015716Y004573D01*
X015815Y004474D02*
X015938Y004474D01*
X015938Y004376D02*
X015881Y004376D01*
X015922Y004277D02*
X015938Y004277D01*
X015938Y004013D02*
X015938Y001999D01*
X015274Y001335D01*
X000610Y001335D01*
X001269Y002110D02*
X003780Y002110D01*
X003784Y002209D02*
X001170Y002209D01*
X001150Y002307D02*
X003825Y002307D01*
X003907Y002406D02*
X001150Y002406D01*
X001150Y002504D02*
X004175Y002504D01*
X004274Y002603D02*
X003034Y002603D01*
X003231Y002701D02*
X004372Y002701D01*
X004471Y002800D02*
X003330Y002800D01*
X003384Y002898D02*
X004045Y002898D01*
X003925Y002997D02*
X003425Y002997D01*
X003434Y003095D02*
X003826Y003095D01*
X003728Y003194D02*
X003434Y003194D01*
X003409Y003292D02*
X003629Y003292D01*
X003531Y003391D02*
X003368Y003391D01*
X003432Y003489D02*
X003291Y003489D01*
X003334Y003588D02*
X003179Y003588D01*
X003216Y003686D02*
X003235Y003686D01*
X002416Y002898D02*
X002384Y002898D01*
X002330Y002800D02*
X002470Y002800D01*
X002569Y002701D02*
X002231Y002701D01*
X002034Y002603D02*
X002766Y002603D01*
X001766Y002603D02*
X001150Y002603D01*
X001150Y002701D02*
X001569Y002701D01*
X001470Y002800D02*
X001150Y002800D01*
X001150Y002898D02*
X001416Y002898D01*
X001375Y002997D02*
X001150Y002997D01*
X001150Y003095D02*
X001366Y003095D01*
X001366Y003194D02*
X001150Y003194D01*
X001150Y003292D02*
X001391Y003292D01*
X001432Y003391D02*
X001150Y003391D01*
X001150Y003489D02*
X001509Y003489D01*
X001621Y003588D02*
X001216Y003588D01*
X001315Y003686D02*
X001584Y003686D01*
X001485Y003785D02*
X001413Y003785D01*
X001367Y002012D02*
X003797Y002012D01*
X003839Y001913D02*
X001466Y001913D01*
X004140Y003489D02*
X005160Y003489D01*
X005062Y003391D02*
X004238Y003391D01*
X004686Y002307D02*
X005511Y002307D01*
X005609Y002209D02*
X004587Y002209D01*
X008549Y001421D02*
X015359Y001421D01*
X015458Y001519D02*
X008648Y001519D01*
X008746Y001618D02*
X014642Y001618D01*
X014536Y001661D02*
X014816Y001546D01*
X015118Y001546D01*
X015398Y001661D01*
X015612Y001875D01*
X015727Y002155D01*
X015727Y002457D01*
X015612Y002737D01*
X015398Y002951D01*
X015118Y003067D01*
X014816Y003067D01*
X014536Y002951D01*
X014322Y002737D01*
X014206Y002457D01*
X014206Y002155D01*
X014322Y001875D01*
X014536Y001661D01*
X014481Y001716D02*
X008845Y001716D01*
X008943Y001815D02*
X014383Y001815D01*
X014307Y001913D02*
X009042Y001913D01*
X009140Y002012D02*
X014266Y002012D01*
X014225Y002110D02*
X009239Y002110D01*
X009337Y002209D02*
X011609Y002209D01*
X011511Y002307D02*
X009436Y002307D01*
X011801Y003125D02*
X011999Y003125D01*
X012183Y003201D01*
X012324Y003342D01*
X012357Y003422D01*
X012814Y003879D01*
X012896Y003961D01*
X012902Y003975D01*
X012918Y003925D01*
X012955Y003852D01*
X013003Y003786D01*
X013061Y003728D01*
X013127Y003680D01*
X013200Y003643D01*
X013278Y003618D01*
X013350Y003606D01*
X013350Y004075D01*
X013450Y004075D01*
X013450Y003606D01*
X013522Y003618D01*
X013600Y003643D01*
X013673Y003680D01*
X013739Y003728D01*
X013797Y003786D01*
X013845Y003852D01*
X013882Y003925D01*
X013889Y003947D01*
X013942Y003819D01*
X014094Y003667D01*
X014293Y003585D01*
X014507Y003585D01*
X014706Y003667D01*
X014858Y003819D01*
X014900Y003921D01*
X014942Y003819D01*
X015094Y003667D01*
X015293Y003585D01*
X015507Y003585D01*
X015706Y003667D01*
X015858Y003819D01*
X015938Y004013D01*
X015938Y003982D02*
X015925Y003982D01*
X015938Y003883D02*
X015884Y003883D01*
X015938Y003785D02*
X015823Y003785D01*
X015725Y003686D02*
X015938Y003686D01*
X015938Y003588D02*
X015513Y003588D01*
X015287Y003588D02*
X014513Y003588D01*
X014287Y003588D02*
X012523Y003588D01*
X012621Y003686D02*
X013120Y003686D01*
X013005Y003785D02*
X012720Y003785D01*
X012818Y003883D02*
X012940Y003883D01*
X013350Y003883D02*
X013450Y003883D01*
X013450Y003785D02*
X013350Y003785D01*
X013350Y003686D02*
X013450Y003686D01*
X013680Y003686D02*
X014075Y003686D01*
X013977Y003785D02*
X013795Y003785D01*
X013860Y003883D02*
X013916Y003883D01*
X013919Y004376D02*
X013856Y004376D01*
X013786Y004474D02*
X013985Y004474D01*
X014084Y004573D02*
X013667Y004573D01*
X013450Y004573D02*
X013350Y004573D01*
X013350Y004474D02*
X013450Y004474D01*
X013450Y004376D02*
X013350Y004376D01*
X013350Y004277D02*
X013450Y004277D01*
X013450Y004179D02*
X013350Y004179D01*
X013350Y003982D02*
X013450Y003982D01*
X012944Y004376D02*
X012940Y004376D01*
X012940Y004474D02*
X013014Y004474D01*
X012940Y004573D02*
X013133Y004573D01*
X012360Y004376D02*
X012338Y004376D01*
X012360Y004277D02*
X012259Y004277D01*
X012293Y004179D02*
X012129Y004179D01*
X012108Y004080D02*
X012195Y004080D01*
X012424Y003489D02*
X015938Y003489D01*
X015938Y003391D02*
X012344Y003391D01*
X012274Y003292D02*
X015938Y003292D01*
X015938Y003194D02*
X012165Y003194D01*
X012072Y003095D02*
X015938Y003095D01*
X015938Y002997D02*
X015288Y002997D01*
X015451Y002898D02*
X015938Y002898D01*
X015938Y002800D02*
X015549Y002800D01*
X015627Y002701D02*
X015938Y002701D01*
X015938Y002603D02*
X015667Y002603D01*
X015708Y002504D02*
X015938Y002504D01*
X015938Y002406D02*
X015727Y002406D01*
X015727Y002307D02*
X015938Y002307D01*
X015938Y002209D02*
X015727Y002209D01*
X015709Y002110D02*
X015938Y002110D01*
X015938Y002012D02*
X015668Y002012D01*
X015627Y001913D02*
X015852Y001913D01*
X015753Y001815D02*
X015551Y001815D01*
X015452Y001716D02*
X015655Y001716D01*
X015556Y001618D02*
X015292Y001618D01*
X014266Y002603D02*
X012400Y002603D01*
X012400Y002701D02*
X014307Y002701D01*
X014385Y002800D02*
X012369Y002800D01*
X012328Y002898D02*
X014483Y002898D01*
X014646Y002997D02*
X012236Y002997D01*
X012391Y002504D02*
X014226Y002504D01*
X014206Y002406D02*
X012350Y002406D01*
X012289Y002307D02*
X014206Y002307D01*
X014206Y002209D02*
X012191Y002209D01*
X012341Y004868D02*
X012360Y004868D01*
X012360Y004967D02*
X012266Y004967D01*
X012360Y005065D02*
X012144Y005065D01*
X012092Y005164D02*
X012360Y005164D01*
X012360Y005262D02*
X012244Y005262D01*
X012332Y005361D02*
X012360Y005361D01*
X012347Y005853D02*
X012360Y005853D01*
X012360Y005952D02*
X012281Y005952D01*
X012360Y006050D02*
X012180Y006050D01*
X012056Y006149D02*
X012360Y006149D01*
X012360Y006247D02*
X012229Y006247D01*
X012325Y006346D02*
X012360Y006346D01*
X012353Y006838D02*
X012453Y006838D01*
X012551Y006937D02*
X012296Y006937D01*
X012197Y007035D02*
X012650Y007035D01*
X012748Y007134D02*
X012020Y007134D01*
X012214Y007232D02*
X012847Y007232D01*
X012860Y007331D02*
X012313Y007331D01*
X012360Y007429D02*
X012860Y007429D01*
X012860Y007528D02*
X012400Y007528D01*
X012400Y007626D02*
X012860Y007626D01*
X012860Y007725D02*
X012400Y007725D01*
X012359Y007823D02*
X012679Y007823D01*
X012584Y007922D02*
X012311Y007922D01*
X012212Y008020D02*
X012543Y008020D01*
X012530Y008119D02*
X012015Y008119D01*
X012199Y008217D02*
X012538Y008217D01*
X012578Y008316D02*
X012298Y008316D01*
X012354Y008414D02*
X012666Y008414D01*
X012395Y008513D02*
X014880Y008513D01*
X014880Y008414D02*
X013134Y008414D01*
X013222Y008316D02*
X014880Y008316D01*
X014885Y008217D02*
X013262Y008217D01*
X013317Y008119D02*
X014966Y008119D01*
X015350Y008119D02*
X015450Y008119D01*
X015450Y008217D02*
X015350Y008217D01*
X015350Y008316D02*
X015450Y008316D01*
X015450Y008414D02*
X015350Y008414D01*
X014880Y008907D02*
X014776Y008907D01*
X014871Y009005D02*
X014880Y009005D01*
X014650Y009125D02*
X015150Y009625D01*
X015400Y009625D01*
X015741Y009202D02*
X015938Y009202D01*
X015938Y009104D02*
X015874Y009104D01*
X015920Y009005D02*
X015938Y009005D01*
X015938Y008907D02*
X015920Y008907D01*
X015920Y008808D02*
X015938Y008808D01*
X015938Y008710D02*
X015920Y008710D01*
X015938Y009301D02*
X015839Y009301D01*
X015891Y009399D02*
X015938Y009399D01*
X015932Y009498D02*
X015938Y009498D01*
X015108Y010089D02*
X012088Y010089D01*
X012149Y010187D02*
X015074Y010187D01*
X014976Y010286D02*
X012268Y010286D01*
X012242Y009990D02*
X015001Y009990D01*
X014926Y009892D02*
X012331Y009892D01*
X012372Y009793D02*
X014885Y009793D01*
X014860Y009695D02*
X012400Y009695D01*
X012400Y009596D02*
X014810Y009596D01*
X014711Y009498D02*
X012388Y009498D01*
X012480Y009399D02*
X014613Y009399D01*
X014920Y010877D02*
X012337Y010877D01*
X012257Y010975D02*
X014986Y010975D01*
X011785Y008119D02*
X011718Y008119D01*
X011446Y008414D02*
X011422Y008414D01*
X011405Y008513D02*
X011370Y008513D01*
X011370Y008611D02*
X011400Y008611D01*
X011400Y008710D02*
X011370Y008710D01*
X011370Y008808D02*
X011435Y008808D01*
X011475Y008907D02*
X011370Y008907D01*
X011370Y009005D02*
X011573Y009005D01*
X010400Y007875D02*
X010400Y014375D01*
X010650Y014625D01*
X011534Y015312D02*
X011587Y015259D01*
X011648Y015214D01*
X011716Y015180D01*
X011788Y015157D01*
X011861Y015145D01*
X011861Y015586D01*
X011420Y015586D01*
X011432Y015513D01*
X011455Y015441D01*
X011489Y015373D01*
X011534Y015312D01*
X011537Y015309D02*
X006291Y015309D01*
X006351Y015408D02*
X011472Y015408D01*
X011434Y015506D02*
X006392Y015506D01*
X006193Y015211D02*
X011656Y015211D01*
X011769Y015112D02*
X006031Y015112D01*
X005400Y015703D02*
X004914Y015703D01*
X004889Y015802D02*
X005432Y015802D01*
X005473Y015900D02*
X004843Y015900D01*
X004762Y015999D02*
X005566Y015999D01*
X005733Y016097D02*
X004619Y016097D01*
X004450Y016097D02*
X004350Y016097D01*
X004350Y015999D02*
X004450Y015999D01*
X004450Y015900D02*
X004350Y015900D01*
X004350Y015802D02*
X004450Y015802D01*
X004181Y016097D02*
X003171Y016097D01*
X003234Y016196D02*
X005630Y016196D01*
X005524Y016294D02*
X003333Y016294D01*
X003388Y016393D02*
X005455Y016393D01*
X005414Y016491D02*
X003429Y016491D01*
X003440Y016590D02*
X005400Y016590D01*
X005400Y016688D02*
X003440Y016688D01*
X003418Y016787D02*
X005426Y016787D01*
X005467Y016885D02*
X003377Y016885D01*
X003305Y016984D02*
X005551Y016984D01*
X005697Y017082D02*
X003207Y017082D01*
X003290Y015999D02*
X004038Y015999D01*
X003957Y015900D02*
X003371Y015900D01*
X003411Y015802D02*
X003911Y015802D01*
X003886Y015703D02*
X003440Y015703D01*
X003420Y014521D02*
X003860Y014521D01*
X003899Y014423D02*
X003420Y014423D01*
X003420Y014324D02*
X003940Y014324D01*
X004036Y014226D02*
X003417Y014226D01*
X003348Y014127D02*
X004191Y014127D01*
X004643Y014029D02*
X000610Y014029D01*
X000610Y014127D02*
X002452Y014127D01*
X002383Y014226D02*
X000610Y014226D01*
X000610Y014324D02*
X002380Y014324D01*
X002380Y014423D02*
X000610Y014423D01*
X000610Y014521D02*
X002380Y014521D01*
X002007Y013665D02*
X001793Y013665D01*
X001594Y013583D01*
X001442Y013431D01*
X001360Y013232D01*
X001360Y013018D01*
X001442Y012819D01*
X001594Y012667D01*
X001793Y012585D01*
X002007Y012585D01*
X002206Y012667D01*
X002358Y012819D01*
X002400Y012921D01*
X002442Y012819D01*
X002594Y012667D01*
X002793Y012585D01*
X003007Y012585D01*
X003206Y012667D01*
X003358Y012819D01*
X003411Y012947D01*
X003418Y012925D01*
X003455Y012852D01*
X003503Y012786D01*
X003561Y012728D01*
X003627Y012680D01*
X003700Y012643D01*
X003778Y012618D01*
X003850Y012606D01*
X003850Y013075D01*
X003950Y013075D01*
X003950Y013175D01*
X003850Y013175D01*
X003850Y013644D01*
X003778Y013632D01*
X003700Y013607D01*
X003627Y013570D01*
X003561Y013522D01*
X003503Y013464D01*
X003455Y013398D01*
X003418Y013325D01*
X003411Y013303D01*
X003358Y013431D01*
X003206Y013583D01*
X003007Y013665D01*
X002793Y013665D01*
X002594Y013583D01*
X002442Y013431D01*
X002400Y013329D01*
X002358Y013431D01*
X002206Y013583D01*
X002007Y013665D01*
X002081Y013635D02*
X002719Y013635D01*
X002547Y013536D02*
X002253Y013536D01*
X002351Y013438D02*
X002449Y013438D01*
X002404Y013339D02*
X002396Y013339D01*
X002369Y012847D02*
X002431Y012847D01*
X002513Y012748D02*
X002287Y012748D01*
X002163Y012650D02*
X002637Y012650D01*
X003163Y012650D02*
X003688Y012650D01*
X003850Y012650D02*
X003950Y012650D01*
X003950Y012606D02*
X004022Y012618D01*
X004100Y012643D01*
X004173Y012680D01*
X004239Y012728D01*
X004297Y012786D01*
X004345Y012852D01*
X004382Y012925D01*
X004407Y013003D01*
X004419Y013075D01*
X003950Y013075D01*
X003950Y012606D01*
X003950Y012748D02*
X003850Y012748D01*
X003850Y012847D02*
X003950Y012847D01*
X003950Y012945D02*
X003850Y012945D01*
X003850Y013044D02*
X003950Y013044D01*
X003950Y013142D02*
X004650Y013142D01*
X004650Y013044D02*
X004414Y013044D01*
X004388Y012945D02*
X004650Y012945D01*
X004650Y012847D02*
X004340Y012847D01*
X004258Y012748D02*
X004650Y012748D01*
X004650Y012650D02*
X004112Y012650D01*
X003950Y013175D02*
X004419Y013175D01*
X004407Y013247D01*
X004382Y013325D01*
X004345Y013398D01*
X004297Y013464D01*
X004239Y013522D01*
X004173Y013570D01*
X004100Y013607D01*
X004022Y013632D01*
X003950Y013644D01*
X003950Y013175D01*
X003950Y013241D02*
X003850Y013241D01*
X003850Y013339D02*
X003950Y013339D01*
X003950Y013438D02*
X003850Y013438D01*
X003850Y013536D02*
X003950Y013536D01*
X003950Y013635D02*
X003850Y013635D01*
X003793Y013635D02*
X003081Y013635D01*
X003253Y013536D02*
X003581Y013536D01*
X003484Y013438D02*
X003351Y013438D01*
X003396Y013339D02*
X003425Y013339D01*
X003410Y012945D02*
X003412Y012945D01*
X003369Y012847D02*
X003460Y012847D01*
X003542Y012748D02*
X003287Y012748D01*
X004007Y013635D02*
X004650Y013635D01*
X004650Y013733D02*
X000610Y013733D01*
X000610Y013635D02*
X001719Y013635D01*
X001547Y013536D02*
X000610Y013536D01*
X000610Y013438D02*
X001449Y013438D01*
X001404Y013339D02*
X000610Y013339D01*
X000610Y013241D02*
X001363Y013241D01*
X001360Y013142D02*
X000610Y013142D01*
X000610Y013044D02*
X001360Y013044D01*
X001390Y012945D02*
X000610Y012945D01*
X000610Y012847D02*
X001431Y012847D01*
X001513Y012748D02*
X000610Y012748D01*
X000610Y012650D02*
X001637Y012650D01*
X001793Y011665D02*
X001594Y011583D01*
X001442Y011431D01*
X001360Y011232D01*
X001360Y011018D01*
X001442Y010819D01*
X001594Y010667D01*
X001793Y010585D01*
X002007Y010585D01*
X002206Y010667D01*
X002358Y010819D01*
X002400Y010921D01*
X002442Y010819D01*
X002594Y010667D01*
X002793Y010585D01*
X003007Y010585D01*
X003206Y010667D01*
X003358Y010819D01*
X003411Y010947D01*
X003418Y010925D01*
X003455Y010852D01*
X003503Y010786D01*
X003561Y010728D01*
X003627Y010680D01*
X003700Y010643D01*
X003778Y010618D01*
X003850Y010606D01*
X003850Y011075D01*
X003950Y011075D01*
X003950Y011175D01*
X003850Y011175D01*
X003850Y011644D01*
X003778Y011632D01*
X003700Y011607D01*
X003627Y011570D01*
X003561Y011522D01*
X003503Y011464D01*
X003455Y011398D01*
X003418Y011325D01*
X003411Y011303D01*
X003358Y011431D01*
X003206Y011583D01*
X003007Y011665D01*
X002793Y011665D01*
X002594Y011583D01*
X002442Y011431D01*
X002400Y011329D01*
X002358Y011431D01*
X002206Y011583D01*
X002007Y011665D01*
X001793Y011665D01*
X001791Y011665D02*
X000610Y011665D01*
X000610Y011763D02*
X004650Y011763D01*
X004650Y011665D02*
X003009Y011665D01*
X003223Y011566D02*
X003622Y011566D01*
X003507Y011468D02*
X003321Y011468D01*
X003383Y011369D02*
X003441Y011369D01*
X003443Y010877D02*
X003382Y010877D01*
X003317Y010778D02*
X003512Y010778D01*
X003629Y010680D02*
X003218Y010680D01*
X003850Y010680D02*
X003950Y010680D01*
X003950Y010606D02*
X004022Y010618D01*
X004100Y010643D01*
X004173Y010680D01*
X004239Y010728D01*
X004297Y010786D01*
X004345Y010852D01*
X004382Y010925D01*
X004407Y011003D01*
X004419Y011075D01*
X003950Y011075D01*
X003950Y010606D01*
X003950Y010778D02*
X003850Y010778D01*
X003850Y010877D02*
X003950Y010877D01*
X003950Y010975D02*
X003850Y010975D01*
X003850Y011074D02*
X003950Y011074D01*
X003950Y011172D02*
X004650Y011172D01*
X004650Y011074D02*
X004418Y011074D01*
X004398Y010975D02*
X004650Y010975D01*
X004650Y010877D02*
X004357Y010877D01*
X004288Y010778D02*
X004650Y010778D01*
X004650Y010680D02*
X004171Y010680D01*
X003950Y011175D02*
X004419Y011175D01*
X004407Y011247D01*
X004382Y011325D01*
X004345Y011398D01*
X004297Y011464D01*
X004239Y011522D01*
X004173Y011570D01*
X004100Y011607D01*
X004022Y011632D01*
X003950Y011644D01*
X003950Y011175D01*
X003950Y011271D02*
X003850Y011271D01*
X003850Y011369D02*
X003950Y011369D01*
X003950Y011468D02*
X003850Y011468D01*
X003850Y011566D02*
X003950Y011566D01*
X004178Y011566D02*
X004650Y011566D01*
X004650Y011468D02*
X004293Y011468D01*
X004359Y011369D02*
X004650Y011369D01*
X004650Y011271D02*
X004399Y011271D01*
X004650Y011862D02*
X000610Y011862D01*
X000610Y011960D02*
X004650Y011960D01*
X004650Y012059D02*
X000610Y012059D01*
X000610Y012157D02*
X004650Y012157D01*
X004650Y012256D02*
X000610Y012256D01*
X000610Y012354D02*
X004650Y012354D01*
X004650Y012453D02*
X000610Y012453D01*
X000610Y012551D02*
X004650Y012551D01*
X005150Y012551D02*
X005400Y012551D01*
X005400Y012650D02*
X005150Y012650D01*
X005150Y012748D02*
X005410Y012748D01*
X005451Y012847D02*
X005150Y012847D01*
X005150Y012945D02*
X005513Y012945D01*
X005611Y013044D02*
X005150Y013044D01*
X004650Y013241D02*
X004408Y013241D01*
X004375Y013339D02*
X004650Y013339D01*
X004650Y013438D02*
X004316Y013438D01*
X004219Y013536D02*
X004650Y013536D01*
X004650Y013832D02*
X000610Y013832D01*
X000610Y013930D02*
X004650Y013930D01*
X005900Y012625D02*
X006150Y012625D01*
X006077Y012157D02*
X006264Y012157D01*
X006363Y012059D02*
X006160Y012059D01*
X006272Y011960D02*
X006461Y011960D01*
X006560Y011862D02*
X006343Y011862D01*
X006384Y011763D02*
X006658Y011763D01*
X006757Y011665D02*
X006400Y011665D01*
X006400Y011566D02*
X006855Y011566D01*
X006954Y011468D02*
X006376Y011468D01*
X006335Y011369D02*
X007052Y011369D01*
X007150Y011271D02*
X006253Y011271D01*
X006113Y011172D02*
X007150Y011172D01*
X007150Y011074D02*
X006124Y011074D01*
X006257Y010975D02*
X007150Y010975D01*
X007150Y010877D02*
X006337Y010877D01*
X006378Y010778D02*
X007150Y010778D01*
X007150Y010680D02*
X006400Y010680D01*
X006400Y010581D02*
X007150Y010581D01*
X007150Y010483D02*
X006382Y010483D01*
X006341Y010384D02*
X007150Y010384D01*
X007150Y010286D02*
X006268Y010286D01*
X006149Y010187D02*
X007150Y010187D01*
X007150Y010089D02*
X006088Y010089D01*
X006242Y009990D02*
X007150Y009990D01*
X007150Y009892D02*
X006331Y009892D01*
X006372Y009793D02*
X007163Y009793D01*
X007227Y009695D02*
X006400Y009695D01*
X006400Y009596D02*
X007325Y009596D01*
X007424Y009498D02*
X006388Y009498D01*
X006348Y009399D02*
X007522Y009399D01*
X007621Y009301D02*
X006283Y009301D01*
X006184Y009202D02*
X007719Y009202D01*
X007818Y009104D02*
X006051Y009104D01*
X006227Y009005D02*
X007916Y009005D01*
X008015Y008907D02*
X006325Y008907D01*
X006365Y008808D02*
X008113Y008808D01*
X008212Y008710D02*
X006400Y008710D01*
X006400Y008611D02*
X008310Y008611D01*
X008409Y008513D02*
X006395Y008513D01*
X006354Y008414D02*
X008507Y008414D01*
X008606Y008316D02*
X006298Y008316D01*
X006199Y008217D02*
X008704Y008217D01*
X008803Y008119D02*
X006015Y008119D01*
X006212Y008020D02*
X008901Y008020D01*
X009000Y007922D02*
X006311Y007922D01*
X006359Y007823D02*
X009098Y007823D01*
X009197Y007725D02*
X006400Y007725D01*
X006400Y007626D02*
X009295Y007626D01*
X009394Y007528D02*
X006400Y007528D01*
X006360Y007429D02*
X009492Y007429D01*
X009591Y007331D02*
X006313Y007331D01*
X006214Y007232D02*
X009689Y007232D01*
X009788Y007134D02*
X006020Y007134D01*
X006197Y007035D02*
X009886Y007035D01*
X009985Y006937D02*
X006296Y006937D01*
X006353Y006838D02*
X010914Y006838D01*
X010931Y007429D02*
X010200Y007429D01*
X012940Y006444D02*
X012989Y006444D01*
X012978Y006543D02*
X013090Y006543D01*
X013076Y006641D02*
X013334Y006641D01*
X013350Y006641D02*
X013450Y006641D01*
X013466Y006641D02*
X014235Y006641D01*
X014054Y006543D02*
X013710Y006543D01*
X013811Y006444D02*
X013955Y006444D01*
X013907Y006346D02*
X013871Y006346D01*
X013450Y006346D02*
X013350Y006346D01*
X013350Y006444D02*
X013450Y006444D01*
X013450Y006543D02*
X013350Y006543D01*
X013350Y006247D02*
X013450Y006247D01*
X013450Y006050D02*
X013350Y006050D01*
X013350Y005952D02*
X013450Y005952D01*
X013450Y005853D02*
X013350Y005853D01*
X013350Y005755D02*
X013450Y005755D01*
X013450Y005656D02*
X013350Y005656D01*
X013625Y005656D02*
X014121Y005656D01*
X014007Y005755D02*
X013765Y005755D01*
X013845Y005853D02*
X013928Y005853D01*
X014679Y005656D02*
X015121Y005656D01*
X015007Y005755D02*
X014793Y005755D01*
X014872Y005853D02*
X014928Y005853D01*
X014907Y006346D02*
X014893Y006346D01*
X014845Y006444D02*
X014955Y006444D01*
X015054Y006543D02*
X014746Y006543D01*
X014565Y006641D02*
X015235Y006641D01*
X015084Y004573D02*
X014716Y004573D01*
X014815Y004474D02*
X014985Y004474D01*
X014919Y004376D02*
X014881Y004376D01*
X014884Y003883D02*
X014916Y003883D01*
X014977Y003785D02*
X014823Y003785D01*
X014725Y003686D02*
X015075Y003686D01*
X011547Y011271D02*
X011370Y011271D01*
X011370Y011369D02*
X011465Y011369D01*
X011424Y011468D02*
X011370Y011468D01*
X011370Y011566D02*
X011400Y011566D01*
X011400Y011665D02*
X011370Y011665D01*
X011370Y011763D02*
X011416Y011763D01*
X011448Y011862D02*
X011457Y011862D01*
X011861Y015211D02*
X011939Y015211D01*
X011939Y015309D02*
X011861Y015309D01*
X011861Y015408D02*
X011939Y015408D01*
X011939Y015506D02*
X011861Y015506D01*
X011861Y015703D02*
X011939Y015703D01*
X011939Y015802D02*
X011861Y015802D01*
X011861Y015900D02*
X011939Y015900D01*
X011939Y015999D02*
X011861Y015999D01*
X011630Y016196D02*
X006170Y016196D01*
X006276Y016294D02*
X011524Y016294D01*
X011455Y016393D02*
X006345Y016393D01*
X006386Y016491D02*
X011414Y016491D01*
X011400Y016590D02*
X006400Y016590D01*
X006400Y016688D02*
X011400Y016688D01*
X011426Y016787D02*
X006374Y016787D01*
X006333Y016885D02*
X011467Y016885D01*
X011551Y016984D02*
X006249Y016984D01*
X006103Y017082D02*
X011697Y017082D01*
X005723Y012157D02*
X005150Y012157D01*
X005150Y012059D02*
X005640Y012059D01*
X005528Y011960D02*
X005150Y011960D01*
X005150Y011862D02*
X005457Y011862D01*
X005416Y011763D02*
X005150Y011763D01*
X005150Y011665D02*
X005400Y011665D01*
X005400Y011566D02*
X005150Y011566D01*
X005150Y011468D02*
X005424Y011468D01*
X005465Y011369D02*
X005150Y011369D01*
X005150Y011271D02*
X005547Y011271D01*
X005687Y011172D02*
X005150Y011172D01*
X005150Y011074D02*
X005676Y011074D01*
X005543Y010975D02*
X005150Y010975D01*
X005150Y010877D02*
X005463Y010877D01*
X005422Y010778D02*
X005150Y010778D01*
X005150Y010680D02*
X005400Y010680D01*
X005400Y010581D02*
X005150Y010581D01*
X005150Y010483D02*
X005418Y010483D01*
X005459Y010384D02*
X005245Y010384D01*
X005343Y010286D02*
X005532Y010286D01*
X005442Y010187D02*
X005651Y010187D01*
X005712Y010089D02*
X005540Y010089D01*
X005227Y009695D02*
X002440Y009695D01*
X002440Y009596D02*
X005325Y009596D01*
X005412Y009498D02*
X002432Y009498D01*
X002391Y009399D02*
X005452Y009399D01*
X005517Y009301D02*
X002339Y009301D01*
X002241Y009202D02*
X005616Y009202D01*
X005749Y009104D02*
X002156Y009104D01*
X002284Y009005D02*
X005573Y009005D01*
X005475Y008907D02*
X002368Y008907D01*
X002409Y008808D02*
X005435Y008808D01*
X005400Y008710D02*
X002440Y008710D01*
X002440Y008611D02*
X005400Y008611D01*
X005405Y008513D02*
X002438Y008513D01*
X002397Y008414D02*
X005446Y008414D01*
X005502Y008316D02*
X002354Y008316D01*
X002256Y008217D02*
X005601Y008217D01*
X005588Y008020D02*
X002240Y008020D01*
X002327Y007922D02*
X005489Y007922D01*
X005441Y007823D02*
X002382Y007823D01*
X002411Y007725D02*
X005400Y007725D01*
X005400Y007626D02*
X001930Y007626D01*
X001930Y007725D02*
X001870Y007725D01*
X001870Y007823D02*
X001930Y007823D01*
X001930Y007922D02*
X001870Y007922D01*
X001870Y008020D02*
X001930Y008020D01*
X002088Y008119D02*
X005785Y008119D01*
X005400Y007528D02*
X002411Y007528D01*
X002383Y007429D02*
X005440Y007429D01*
X005487Y007331D02*
X002329Y007331D01*
X002242Y007232D02*
X005586Y007232D01*
X005128Y009793D02*
X002415Y009793D01*
X002374Y009892D02*
X005030Y009892D01*
X004931Y009990D02*
X002299Y009990D01*
X002192Y010089D02*
X004833Y010089D01*
X004734Y010187D02*
X000610Y010187D01*
X000610Y010089D02*
X001608Y010089D01*
X001501Y009990D02*
X000610Y009990D01*
X000610Y009892D02*
X001426Y009892D01*
X001385Y009793D02*
X000610Y009793D01*
X000610Y009695D02*
X001360Y009695D01*
X001360Y009596D02*
X000610Y009596D01*
X000610Y009498D02*
X001368Y009498D01*
X001409Y009399D02*
X000610Y009399D01*
X000610Y009301D02*
X001461Y009301D01*
X001559Y009202D02*
X000610Y009202D01*
X000610Y009104D02*
X001644Y009104D01*
X001516Y009005D02*
X000610Y009005D01*
X000610Y008907D02*
X001432Y008907D01*
X001391Y008808D02*
X000610Y008808D01*
X000610Y008710D02*
X001360Y008710D01*
X001360Y008611D02*
X000610Y008611D01*
X000610Y008513D02*
X001362Y008513D01*
X001403Y008414D02*
X000610Y008414D01*
X000610Y008316D02*
X001446Y008316D01*
X001544Y008217D02*
X000610Y008217D01*
X000610Y008119D02*
X001712Y008119D01*
X001560Y008020D02*
X000610Y008020D01*
X000610Y007922D02*
X001473Y007922D01*
X001418Y007823D02*
X000610Y007823D01*
X000610Y007725D02*
X001389Y007725D01*
X000610Y010286D02*
X004666Y010286D01*
X004650Y010384D02*
X000610Y010384D01*
X000610Y010483D02*
X004650Y010483D01*
X004650Y010581D02*
X000610Y010581D01*
X000610Y010680D02*
X001582Y010680D01*
X001483Y010778D02*
X000610Y010778D01*
X000610Y010877D02*
X001418Y010877D01*
X001378Y010975D02*
X000610Y010975D01*
X000610Y011074D02*
X001360Y011074D01*
X001360Y011172D02*
X000610Y011172D01*
X000610Y011271D02*
X001376Y011271D01*
X001417Y011369D02*
X000610Y011369D01*
X000610Y011468D02*
X001479Y011468D01*
X001577Y011566D02*
X000610Y011566D01*
X002009Y011665D02*
X002791Y011665D01*
X002577Y011566D02*
X002223Y011566D01*
X002321Y011468D02*
X002479Y011468D01*
X002417Y011369D02*
X002383Y011369D01*
X002382Y010877D02*
X002418Y010877D01*
X002483Y010778D02*
X002317Y010778D01*
X002218Y010680D02*
X002582Y010680D01*
X005150Y012256D02*
X005562Y012256D01*
X005471Y012354D02*
X005150Y012354D01*
X005150Y012453D02*
X005430Y012453D01*
X001228Y016984D02*
X000610Y016984D01*
X000610Y017082D02*
X001084Y017082D01*
X000985Y017181D02*
X000610Y017181D01*
X000610Y017279D02*
X000916Y017279D01*
X000875Y017378D02*
X000610Y017378D01*
X000610Y017476D02*
X000834Y017476D01*
X000821Y017575D02*
X000610Y017575D01*
X000610Y017673D02*
X000821Y017673D01*
X000821Y017772D02*
X000610Y017772D01*
X000610Y017870D02*
X000845Y017870D01*
X000886Y017969D02*
X000611Y017969D01*
X000710Y018067D02*
X000926Y018067D01*
X001011Y018166D02*
X000808Y018166D01*
X000907Y018264D02*
X001109Y018264D01*
X001005Y018363D02*
X001289Y018363D01*
D18*
X012650Y006625D02*
X013150Y007125D01*
X013150Y007875D01*
X012900Y008125D01*
X012650Y006625D02*
X012650Y004125D01*
X012150Y003625D01*
X011900Y003625D01*
X013150Y011625D02*
X015400Y011625D01*
D19*
X015400Y010625D02*
X011900Y010625D01*
X011900Y009625D02*
X012400Y009125D01*
X014650Y009125D01*
X012900Y011375D02*
X013150Y011625D01*
X011150Y007125D02*
X010150Y007125D01*
X007400Y009875D01*
X007400Y011375D01*
X006150Y012625D01*
X004900Y014125D02*
X004900Y010375D01*
X005650Y009625D01*
X005900Y009625D01*
X003650Y006875D02*
X001650Y006875D01*
X001150Y006375D01*
X001150Y005375D01*
X001400Y005125D01*
X001900Y005125D01*
X001900Y004125D02*
X001400Y004125D01*
X000900Y003625D01*
X000900Y002125D01*
X001400Y001625D01*
X008400Y001625D01*
X009400Y002625D01*
X011900Y002625D01*
X005900Y002625D02*
X004650Y002625D01*
X004150Y002125D01*
X004150Y003125D02*
X003150Y004125D01*
X002900Y004125D01*
X003400Y004625D02*
X002900Y005125D01*
X003400Y004625D02*
X005900Y004625D01*
X005900Y003625D02*
X005650Y003625D01*
X005150Y003125D01*
X004150Y003125D01*
X004900Y005625D02*
X003650Y006875D01*
X004900Y005625D02*
X005900Y005625D01*
X004900Y014125D02*
X004400Y014625D01*
M02*
