%
M48
M72
T01C0.0200
T02C0.0320
T03C0.0354
T04C0.0400
T05C0.1181
%
T01
X13400Y18375
X3650Y18375
X9150Y18375
X2650Y10125
X13900Y11125
X13900Y10125
X12900Y11375
X12900Y8125
X4150Y2125
X11150Y7125
X10650Y14625
X10400Y7875
X13900Y12625
T02
X1900Y9625
X1900Y8625
X1900Y7625
X14400Y15625
X15400Y15625
X14400Y13625
X15400Y13625
T03
X11900Y3625
X11900Y13625
X11900Y5625
X11900Y6625
X11900Y7625
X11900Y8625
X11900Y9625
X11900Y10625
X11900Y11625
X11900Y12625
X5900Y12625
X5900Y11625
X5900Y10625
X5900Y9625
X5900Y8625
X5900Y7625
X5900Y6625
X5900Y5625
X5900Y4625
X5900Y3625
X5900Y2625
X11900Y2625
X5900Y13625
X11900Y15625
X11900Y4625
X11900Y14625
X5900Y14625
X5900Y15625
X5900Y16625
X11900Y16625
X2900Y5125
X2900Y4125
X2900Y3125
X1900Y6125
X1900Y5125
X1900Y4125
X1900Y3125
X2900Y6125
T04
X2900Y14625
X2900Y15625
X2900Y16625
X2900Y17625
X15400Y8625
X15400Y9625
X15400Y10625
X15400Y11625
X4400Y15625
X4400Y14625
X13400Y6125
X14400Y6125
X15400Y6125
X13400Y4125
X14400Y4125
X15400Y4125
X3900Y13125
X2900Y13125
X1900Y13125
X3900Y11125
X2900Y11125
X1900Y11125
T05
X14967Y17660
X14967Y2306
X1581Y17660
M30
