G75*
%MOIN*%
%OFA0B0*%
%FSLAX24Y24*%
%IPPOS*%
%LPD*%
%AMOC8*
5,1,8,0,0,1.08239X$1,22.5*
%
%ADD10C,0.0080*%
%ADD11C,0.0000*%
%ADD12C,0.0660*%
%ADD13C,0.0728*%
%ADD14C,0.0740*%
%ADD15R,0.0740X0.0740*%
%ADD16R,0.0709X0.0630*%
%ADD17R,0.0630X0.0551*%
%ADD18C,0.0100*%
%ADD19C,0.0400*%
%ADD20C,0.0240*%
%ADD21C,0.0160*%
%ADD22C,0.0320*%
D10*
X000400Y001125D02*
X000400Y018054D01*
X001187Y018842D01*
X015361Y018842D01*
X016148Y018054D01*
X016148Y001912D01*
X015361Y001125D01*
X000400Y001125D01*
D11*
X000990Y017660D02*
X000992Y017708D01*
X000998Y017756D01*
X001008Y017803D01*
X001021Y017849D01*
X001039Y017894D01*
X001059Y017938D01*
X001084Y017980D01*
X001112Y018019D01*
X001142Y018056D01*
X001176Y018090D01*
X001213Y018122D01*
X001251Y018151D01*
X001292Y018176D01*
X001335Y018198D01*
X001380Y018216D01*
X001426Y018230D01*
X001473Y018241D01*
X001521Y018248D01*
X001569Y018251D01*
X001617Y018250D01*
X001665Y018245D01*
X001713Y018236D01*
X001759Y018224D01*
X001804Y018207D01*
X001848Y018187D01*
X001890Y018164D01*
X001930Y018137D01*
X001968Y018107D01*
X002003Y018074D01*
X002035Y018038D01*
X002065Y018000D01*
X002091Y017959D01*
X002113Y017916D01*
X002133Y017872D01*
X002148Y017827D01*
X002160Y017780D01*
X002168Y017732D01*
X002172Y017684D01*
X002172Y017636D01*
X002168Y017588D01*
X002160Y017540D01*
X002148Y017493D01*
X002133Y017448D01*
X002113Y017404D01*
X002091Y017361D01*
X002065Y017320D01*
X002035Y017282D01*
X002003Y017246D01*
X001968Y017213D01*
X001930Y017183D01*
X001890Y017156D01*
X001848Y017133D01*
X001804Y017113D01*
X001759Y017096D01*
X001713Y017084D01*
X001665Y017075D01*
X001617Y017070D01*
X001569Y017069D01*
X001521Y017072D01*
X001473Y017079D01*
X001426Y017090D01*
X001380Y017104D01*
X001335Y017122D01*
X001292Y017144D01*
X001251Y017169D01*
X001213Y017198D01*
X001176Y017230D01*
X001142Y017264D01*
X001112Y017301D01*
X001084Y017340D01*
X001059Y017382D01*
X001039Y017426D01*
X001021Y017471D01*
X001008Y017517D01*
X000998Y017564D01*
X000992Y017612D01*
X000990Y017660D01*
X014376Y017660D02*
X014378Y017708D01*
X014384Y017756D01*
X014394Y017803D01*
X014407Y017849D01*
X014425Y017894D01*
X014445Y017938D01*
X014470Y017980D01*
X014498Y018019D01*
X014528Y018056D01*
X014562Y018090D01*
X014599Y018122D01*
X014637Y018151D01*
X014678Y018176D01*
X014721Y018198D01*
X014766Y018216D01*
X014812Y018230D01*
X014859Y018241D01*
X014907Y018248D01*
X014955Y018251D01*
X015003Y018250D01*
X015051Y018245D01*
X015099Y018236D01*
X015145Y018224D01*
X015190Y018207D01*
X015234Y018187D01*
X015276Y018164D01*
X015316Y018137D01*
X015354Y018107D01*
X015389Y018074D01*
X015421Y018038D01*
X015451Y018000D01*
X015477Y017959D01*
X015499Y017916D01*
X015519Y017872D01*
X015534Y017827D01*
X015546Y017780D01*
X015554Y017732D01*
X015558Y017684D01*
X015558Y017636D01*
X015554Y017588D01*
X015546Y017540D01*
X015534Y017493D01*
X015519Y017448D01*
X015499Y017404D01*
X015477Y017361D01*
X015451Y017320D01*
X015421Y017282D01*
X015389Y017246D01*
X015354Y017213D01*
X015316Y017183D01*
X015276Y017156D01*
X015234Y017133D01*
X015190Y017113D01*
X015145Y017096D01*
X015099Y017084D01*
X015051Y017075D01*
X015003Y017070D01*
X014955Y017069D01*
X014907Y017072D01*
X014859Y017079D01*
X014812Y017090D01*
X014766Y017104D01*
X014721Y017122D01*
X014678Y017144D01*
X014637Y017169D01*
X014599Y017198D01*
X014562Y017230D01*
X014528Y017264D01*
X014498Y017301D01*
X014470Y017340D01*
X014445Y017382D01*
X014425Y017426D01*
X014407Y017471D01*
X014394Y017517D01*
X014384Y017564D01*
X014378Y017612D01*
X014376Y017660D01*
X014376Y002306D02*
X014378Y002354D01*
X014384Y002402D01*
X014394Y002449D01*
X014407Y002495D01*
X014425Y002540D01*
X014445Y002584D01*
X014470Y002626D01*
X014498Y002665D01*
X014528Y002702D01*
X014562Y002736D01*
X014599Y002768D01*
X014637Y002797D01*
X014678Y002822D01*
X014721Y002844D01*
X014766Y002862D01*
X014812Y002876D01*
X014859Y002887D01*
X014907Y002894D01*
X014955Y002897D01*
X015003Y002896D01*
X015051Y002891D01*
X015099Y002882D01*
X015145Y002870D01*
X015190Y002853D01*
X015234Y002833D01*
X015276Y002810D01*
X015316Y002783D01*
X015354Y002753D01*
X015389Y002720D01*
X015421Y002684D01*
X015451Y002646D01*
X015477Y002605D01*
X015499Y002562D01*
X015519Y002518D01*
X015534Y002473D01*
X015546Y002426D01*
X015554Y002378D01*
X015558Y002330D01*
X015558Y002282D01*
X015554Y002234D01*
X015546Y002186D01*
X015534Y002139D01*
X015519Y002094D01*
X015499Y002050D01*
X015477Y002007D01*
X015451Y001966D01*
X015421Y001928D01*
X015389Y001892D01*
X015354Y001859D01*
X015316Y001829D01*
X015276Y001802D01*
X015234Y001779D01*
X015190Y001759D01*
X015145Y001742D01*
X015099Y001730D01*
X015051Y001721D01*
X015003Y001716D01*
X014955Y001715D01*
X014907Y001718D01*
X014859Y001725D01*
X014812Y001736D01*
X014766Y001750D01*
X014721Y001768D01*
X014678Y001790D01*
X014637Y001815D01*
X014599Y001844D01*
X014562Y001876D01*
X014528Y001910D01*
X014498Y001947D01*
X014470Y001986D01*
X014445Y002028D01*
X014425Y002072D01*
X014407Y002117D01*
X014394Y002163D01*
X014384Y002210D01*
X014378Y002258D01*
X014376Y002306D01*
D12*
X011900Y002625D03*
X011900Y003625D03*
X011900Y004625D03*
X011900Y005625D03*
X011900Y006625D03*
X011900Y007625D03*
X011900Y008625D03*
X011900Y009625D03*
X011900Y010625D03*
X011900Y011625D03*
X011900Y012625D03*
X011900Y013625D03*
X011900Y014625D03*
X011900Y015625D03*
X011900Y016625D03*
X005900Y016625D03*
X005900Y015625D03*
X005900Y014625D03*
X005900Y013625D03*
X005900Y012625D03*
X005900Y011625D03*
X005900Y010625D03*
X005900Y009625D03*
X005900Y008625D03*
X005900Y007625D03*
X005900Y006625D03*
X005900Y005625D03*
X005900Y004625D03*
X005900Y003625D03*
X005900Y002625D03*
D13*
X002900Y003125D03*
X002900Y004125D03*
X002900Y005125D03*
X002900Y006125D03*
X001900Y006125D03*
X001900Y005125D03*
X001900Y004125D03*
X001900Y003125D03*
D14*
X001900Y007625D03*
X001900Y008625D03*
X001900Y009625D03*
X001900Y011125D03*
X002900Y011125D03*
X003900Y011125D03*
X003900Y013125D03*
X002900Y013125D03*
X001900Y013125D03*
X002900Y015625D03*
X002900Y016625D03*
X002900Y017625D03*
X004400Y015625D03*
X004400Y014625D03*
X013400Y006125D03*
X014400Y006125D03*
X015400Y006125D03*
X015400Y004125D03*
X014400Y004125D03*
X013400Y004125D03*
X015400Y009625D03*
X015400Y010625D03*
X015400Y011625D03*
X015400Y013625D03*
X014400Y013625D03*
X014400Y015625D03*
X015400Y015625D03*
D15*
X015400Y008625D03*
X002900Y014625D03*
D16*
X004400Y016574D03*
X004400Y017676D03*
X003400Y009676D03*
X003400Y008574D03*
X013400Y013574D03*
X013400Y014676D03*
X013400Y015574D03*
X013400Y016676D03*
D17*
X004900Y006676D03*
X003900Y006676D03*
X003900Y005574D03*
X004900Y005574D03*
D18*
X004479Y005164D02*
X004321Y005164D01*
X004285Y005128D02*
X004385Y005228D01*
X004385Y005244D01*
X004415Y005244D01*
X004415Y005228D01*
X004515Y005128D01*
X004570Y005128D01*
X004570Y002309D01*
X004620Y002188D01*
X005370Y001438D01*
X005463Y001345D01*
X005488Y001335D01*
X000610Y001335D01*
X000610Y017967D01*
X001274Y018632D01*
X015274Y018632D01*
X015938Y017967D01*
X015938Y011737D01*
X015858Y011931D01*
X015706Y012083D01*
X015507Y012165D01*
X015293Y012165D01*
X015094Y012083D01*
X014942Y011931D01*
X014860Y011732D01*
X014860Y011518D01*
X014942Y011319D01*
X015094Y011167D01*
X015196Y011125D01*
X015094Y011083D01*
X014942Y010931D01*
X014860Y010732D01*
X014860Y010518D01*
X014942Y010319D01*
X015094Y010167D01*
X015196Y010125D01*
X015094Y010083D01*
X014942Y009931D01*
X014860Y009732D01*
X014860Y009518D01*
X014942Y009319D01*
X015094Y009167D01*
X015148Y009145D01*
X015010Y009145D01*
X014972Y009135D01*
X014938Y009115D01*
X014910Y009087D01*
X014890Y009053D01*
X014880Y009015D01*
X014880Y008675D01*
X015350Y008675D01*
X015350Y008575D01*
X015450Y008575D01*
X015450Y008675D01*
X015920Y008675D01*
X015920Y009015D01*
X015910Y009053D01*
X015890Y009087D01*
X015862Y009115D01*
X015828Y009135D01*
X015790Y009145D01*
X015652Y009145D01*
X015706Y009167D01*
X015858Y009319D01*
X015938Y009513D01*
X015938Y006237D01*
X015858Y006431D01*
X015706Y006583D01*
X015690Y006589D01*
X015690Y006683D01*
X015646Y006789D01*
X015564Y006871D01*
X013690Y008745D01*
X013690Y012183D01*
X013646Y012289D01*
X012400Y013535D01*
X012400Y013724D01*
X012324Y013908D01*
X012183Y014049D01*
X011999Y014125D01*
X012183Y014201D01*
X012324Y014342D01*
X012400Y014526D01*
X012400Y014724D01*
X012325Y014905D01*
X012741Y014905D01*
X012876Y015040D01*
X012876Y014291D01*
X012975Y014191D01*
X013825Y014191D01*
X013902Y014269D01*
X014091Y014080D01*
X013942Y013931D01*
X013924Y013888D01*
X013924Y013959D01*
X013825Y014059D01*
X012975Y014059D01*
X012876Y013959D01*
X012876Y013188D01*
X012975Y013089D01*
X013180Y013089D01*
X013180Y013034D01*
X013309Y012905D01*
X013530Y012684D01*
X013530Y012551D01*
X013384Y012551D01*
X013286Y012650D02*
X013530Y012650D01*
X013530Y012551D02*
X013586Y012415D01*
X013690Y012311D01*
X013826Y012255D01*
X013974Y012255D01*
X014110Y012311D01*
X014214Y012415D01*
X014270Y012551D01*
X015938Y012551D01*
X015938Y012453D02*
X014229Y012453D01*
X014270Y012551D02*
X014270Y012699D01*
X014214Y012835D01*
X014110Y012939D01*
X013974Y012995D01*
X013841Y012995D01*
X013747Y013089D01*
X013825Y013089D01*
X013924Y013188D01*
X013924Y013362D01*
X013942Y013319D01*
X014094Y013167D01*
X014293Y013085D01*
X014507Y013085D01*
X014706Y013167D01*
X014858Y013319D01*
X014911Y013447D01*
X014918Y013425D01*
X014955Y013352D01*
X015003Y013286D01*
X015061Y013228D01*
X015127Y013180D01*
X015200Y013143D01*
X015278Y013118D01*
X015359Y013105D01*
X015370Y013105D01*
X015370Y013595D01*
X015430Y013595D01*
X015430Y013655D01*
X015370Y013655D01*
X015370Y014145D01*
X015359Y014145D01*
X015278Y014132D01*
X015200Y014107D01*
X015127Y014070D01*
X015061Y014022D01*
X015003Y013964D01*
X014955Y013898D01*
X014918Y013825D01*
X014911Y013803D01*
X014858Y013931D01*
X014706Y014083D01*
X014650Y014106D01*
X014650Y014175D01*
X014612Y014267D01*
X014112Y014767D01*
X014042Y014837D01*
X013950Y014875D01*
X013924Y014875D01*
X013924Y015062D01*
X013861Y015125D01*
X013924Y015188D01*
X013924Y015362D01*
X013942Y015319D01*
X014094Y015167D01*
X014293Y015085D01*
X014507Y015085D01*
X014706Y015167D01*
X014858Y015319D01*
X014911Y015447D01*
X014918Y015425D01*
X014955Y015352D01*
X015003Y015286D01*
X015061Y015228D01*
X015127Y015180D01*
X015200Y015143D01*
X015278Y015118D01*
X015359Y015105D01*
X015370Y015105D01*
X015370Y015595D01*
X015430Y015595D01*
X015430Y015655D01*
X015370Y015655D01*
X015370Y016145D01*
X015359Y016145D01*
X015278Y016132D01*
X015200Y016107D01*
X015127Y016070D01*
X015061Y016022D01*
X015003Y015964D01*
X014955Y015898D01*
X014918Y015825D01*
X014911Y015803D01*
X014858Y015931D01*
X014706Y016083D01*
X014650Y016106D01*
X014650Y016425D01*
X014612Y016517D01*
X014542Y016587D01*
X014240Y016888D01*
X014149Y016926D01*
X013924Y016926D01*
X013924Y017062D01*
X013825Y017161D01*
X012975Y017161D01*
X012876Y017062D01*
X012876Y016291D01*
X012975Y016191D01*
X013825Y016191D01*
X013924Y016291D01*
X013924Y016426D01*
X013995Y016426D01*
X014150Y016271D01*
X014150Y016106D01*
X014094Y016083D01*
X013942Y015931D01*
X013924Y015888D01*
X013924Y015959D01*
X013825Y016059D01*
X012975Y016059D01*
X012876Y015959D01*
X012876Y015595D01*
X012809Y015595D01*
X012680Y015466D01*
X012559Y015345D01*
X012290Y015345D01*
X012311Y015373D01*
X012345Y015441D01*
X012368Y015513D01*
X012380Y015586D01*
X011939Y015586D01*
X011939Y015664D01*
X011861Y015664D01*
X011861Y016105D01*
X011788Y016093D01*
X011716Y016070D01*
X011648Y016036D01*
X011587Y015991D01*
X011534Y015938D01*
X011489Y015877D01*
X011455Y015809D01*
X011432Y015737D01*
X011420Y015664D01*
X011861Y015664D01*
X011861Y015586D01*
X011420Y015586D01*
X011432Y015513D01*
X011455Y015441D01*
X011489Y015373D01*
X011510Y015345D01*
X010809Y015345D01*
X010559Y015095D01*
X010430Y014966D01*
X010430Y014928D01*
X010336Y014835D01*
X010280Y014699D01*
X010280Y014551D01*
X010336Y014415D01*
X010440Y014311D01*
X010576Y014255D01*
X010724Y014255D01*
X010860Y014311D01*
X010964Y014415D01*
X011020Y014551D01*
X011020Y014699D01*
X010964Y014835D01*
X010942Y014856D01*
X010991Y014905D01*
X011475Y014905D01*
X011400Y014724D01*
X011400Y014526D01*
X011476Y014342D01*
X011617Y014201D01*
X011801Y014125D01*
X011999Y014125D01*
X011801Y014125D01*
X011617Y014049D01*
X011483Y013915D01*
X010520Y013915D01*
X009190Y015245D01*
X009190Y017183D01*
X009146Y017289D01*
X008064Y018371D01*
X007958Y018415D01*
X004842Y018415D01*
X004736Y018371D01*
X004654Y018289D01*
X004526Y018161D01*
X003975Y018161D01*
X003876Y018062D01*
X003876Y017915D01*
X003364Y017915D01*
X003358Y017931D01*
X003206Y018083D01*
X003007Y018165D01*
X002793Y018165D01*
X002594Y018083D01*
X002442Y017931D01*
X002360Y017732D01*
X002360Y017518D01*
X002367Y017502D01*
X002319Y017454D01*
X002342Y017509D01*
X002342Y017812D01*
X002226Y018091D01*
X002012Y018305D01*
X001732Y018421D01*
X001430Y018421D01*
X001150Y018305D01*
X000936Y018091D01*
X000821Y017812D01*
X000821Y017509D01*
X000936Y017230D01*
X001150Y017016D01*
X001430Y016900D01*
X001732Y016900D01*
X001788Y016923D01*
X001736Y016871D01*
X001654Y016789D01*
X001610Y016683D01*
X001610Y013589D01*
X001594Y013583D01*
X001442Y013431D01*
X001360Y013232D01*
X001360Y013018D01*
X001442Y012819D01*
X001594Y012667D01*
X001610Y012661D01*
X001610Y011589D01*
X001594Y011583D01*
X001442Y011431D01*
X001360Y011232D01*
X001360Y011018D01*
X001442Y010819D01*
X001594Y010667D01*
X001610Y010661D01*
X001610Y010089D01*
X001594Y010083D01*
X001442Y009931D01*
X001360Y009732D01*
X001360Y009518D01*
X001442Y009319D01*
X001594Y009167D01*
X001696Y009125D01*
X001594Y009083D01*
X001442Y008931D01*
X001360Y008732D01*
X001360Y008518D01*
X001442Y008319D01*
X001594Y008167D01*
X001722Y008114D01*
X001700Y008107D01*
X001627Y008070D01*
X001561Y008022D01*
X001503Y007964D01*
X001455Y007898D01*
X001418Y007825D01*
X001393Y007747D01*
X001380Y007666D01*
X001380Y007655D01*
X001870Y007655D01*
X001870Y008085D01*
X001930Y008085D01*
X001930Y007655D01*
X001870Y007655D01*
X001870Y007595D01*
X001930Y007595D01*
X001930Y007655D01*
X002420Y007655D01*
X002420Y007666D01*
X002407Y007747D01*
X002382Y007825D01*
X002345Y007898D01*
X002297Y007964D01*
X002239Y008022D01*
X002173Y008070D01*
X002100Y008107D01*
X002078Y008114D01*
X002206Y008167D01*
X002358Y008319D01*
X002381Y008375D01*
X002876Y008375D01*
X002876Y008188D01*
X002975Y008089D01*
X003825Y008089D01*
X003829Y008093D01*
X004508Y007413D01*
X004600Y007375D01*
X005462Y007375D01*
X005476Y007342D01*
X005617Y007201D01*
X005801Y007125D01*
X005617Y007049D01*
X005476Y006908D01*
X005400Y006724D01*
X005400Y006526D01*
X005476Y006342D01*
X005617Y006201D01*
X005801Y006125D01*
X005617Y006049D01*
X005476Y005908D01*
X005400Y005724D01*
X005400Y005526D01*
X005476Y005342D01*
X005617Y005201D01*
X005801Y005125D01*
X005617Y005049D01*
X005476Y004908D01*
X005400Y004724D01*
X005400Y004526D01*
X005476Y004342D01*
X005617Y004201D01*
X005801Y004125D01*
X005617Y004049D01*
X005476Y003908D01*
X005400Y003724D01*
X005400Y003526D01*
X005476Y003342D01*
X005617Y003201D01*
X005801Y003125D01*
X005617Y003049D01*
X005476Y002908D01*
X005400Y002724D01*
X005400Y002526D01*
X005476Y002342D01*
X005617Y002201D01*
X005801Y002125D01*
X005999Y002125D01*
X006183Y002201D01*
X006324Y002342D01*
X006400Y002526D01*
X006400Y002724D01*
X006324Y002908D01*
X006183Y003049D01*
X005999Y003125D01*
X005801Y003125D01*
X005999Y003125D01*
X006183Y003201D01*
X006324Y003342D01*
X006400Y003526D01*
X006400Y003724D01*
X006324Y003908D01*
X006183Y004049D01*
X005999Y004125D01*
X005801Y004125D01*
X005999Y004125D01*
X006183Y004201D01*
X006324Y004342D01*
X006400Y004526D01*
X006400Y004724D01*
X006324Y004908D01*
X006183Y005049D01*
X005999Y005125D01*
X005801Y005125D01*
X005999Y005125D01*
X006183Y005201D01*
X006324Y005342D01*
X006400Y005526D01*
X006400Y005724D01*
X006324Y005908D01*
X006183Y006049D01*
X005999Y006125D01*
X005801Y006125D01*
X005999Y006125D01*
X006183Y006201D01*
X006324Y006342D01*
X006400Y006526D01*
X006400Y006724D01*
X006386Y006758D01*
X007612Y007983D01*
X007650Y008075D01*
X007650Y017175D01*
X007612Y017267D01*
X007542Y017337D01*
X007044Y017835D01*
X007780Y017835D01*
X008610Y017005D01*
X008610Y015067D01*
X008654Y014961D01*
X010154Y013461D01*
X010236Y013379D01*
X010342Y013335D01*
X011483Y013335D01*
X011617Y013201D01*
X011801Y013125D01*
X011617Y013049D01*
X011476Y012908D01*
X011400Y012724D01*
X011400Y012526D01*
X011476Y012342D01*
X011617Y012201D01*
X011801Y012125D01*
X011617Y012049D01*
X011476Y011908D01*
X011400Y011724D01*
X011400Y011526D01*
X011476Y011342D01*
X011617Y011201D01*
X011801Y011125D01*
X011999Y011125D01*
X012183Y011201D01*
X012324Y011342D01*
X012400Y011526D01*
X012400Y011724D01*
X012324Y011908D01*
X012183Y012049D01*
X011999Y012125D01*
X011801Y012125D01*
X011999Y012125D01*
X012183Y012201D01*
X012324Y012342D01*
X012400Y012526D01*
X012400Y012715D01*
X013110Y012005D01*
X013110Y011688D01*
X013110Y011689D01*
X012974Y011745D01*
X012826Y011745D01*
X012690Y011689D01*
X012586Y011585D01*
X012530Y011449D01*
X012530Y011301D01*
X012586Y011165D01*
X012610Y011142D01*
X012610Y008358D01*
X012586Y008335D01*
X012530Y008199D01*
X012530Y008051D01*
X012586Y007915D01*
X012690Y007811D01*
X012826Y007755D01*
X012974Y007755D01*
X013110Y007811D01*
X013214Y007915D01*
X013270Y008051D01*
X013270Y008199D01*
X013214Y008335D01*
X013190Y008358D01*
X013190Y008425D01*
X015063Y006552D01*
X014942Y006431D01*
X014900Y006329D01*
X014858Y006431D01*
X014706Y006583D01*
X014620Y006618D01*
X014620Y006716D01*
X014491Y006845D01*
X013991Y007345D01*
X012325Y007345D01*
X012400Y007526D01*
X012400Y007724D01*
X012324Y007908D01*
X012183Y008049D01*
X011999Y008125D01*
X012183Y008201D01*
X012324Y008342D01*
X012400Y008526D01*
X012400Y008724D01*
X012324Y008908D01*
X012183Y009049D01*
X011999Y009125D01*
X012183Y009201D01*
X012324Y009342D01*
X012400Y009526D01*
X012400Y009724D01*
X012324Y009908D01*
X012183Y010049D01*
X011999Y010125D01*
X012183Y010201D01*
X012324Y010342D01*
X012400Y010526D01*
X012400Y010724D01*
X012324Y010908D01*
X012183Y011049D01*
X011999Y011125D01*
X011801Y011125D01*
X011617Y011049D01*
X011476Y010908D01*
X011400Y010724D01*
X011400Y010526D01*
X011476Y010342D01*
X011617Y010201D01*
X011801Y010125D01*
X011999Y010125D01*
X011801Y010125D01*
X011617Y010049D01*
X011476Y009908D01*
X011400Y009724D01*
X011400Y009526D01*
X011476Y009342D01*
X011617Y009201D01*
X011801Y009125D01*
X011999Y009125D01*
X011801Y009125D01*
X011617Y009049D01*
X011476Y008908D01*
X011400Y008724D01*
X011400Y008526D01*
X011476Y008342D01*
X011617Y008201D01*
X011801Y008125D01*
X011999Y008125D01*
X011801Y008125D01*
X011617Y008049D01*
X011476Y007908D01*
X011400Y007724D01*
X011400Y007526D01*
X011475Y007345D01*
X011453Y007345D01*
X011360Y007439D01*
X011224Y007495D01*
X011076Y007495D01*
X010940Y007439D01*
X010836Y007335D01*
X010780Y007199D01*
X010780Y007051D01*
X010836Y006915D01*
X010907Y006845D01*
X010741Y006845D01*
X010620Y006966D01*
X010620Y007572D01*
X010714Y007665D01*
X010770Y007801D01*
X010770Y007949D01*
X010714Y008085D01*
X010610Y008189D01*
X010474Y008245D01*
X010326Y008245D01*
X010190Y008189D01*
X010086Y008085D01*
X010030Y007949D01*
X010030Y007801D01*
X010086Y007665D01*
X010180Y007572D01*
X010180Y006784D01*
X010430Y006534D01*
X010559Y006405D01*
X011450Y006405D01*
X011476Y006342D01*
X011617Y006201D01*
X011801Y006125D01*
X011617Y006049D01*
X011476Y005908D01*
X011400Y005724D01*
X011400Y005526D01*
X011476Y005342D01*
X011617Y005201D01*
X011801Y005125D01*
X011617Y005049D01*
X011476Y004908D01*
X011400Y004724D01*
X011400Y004526D01*
X011476Y004342D01*
X011617Y004201D01*
X011801Y004125D01*
X011617Y004049D01*
X011523Y003955D01*
X010584Y003955D01*
X010463Y003905D01*
X010370Y003812D01*
X008513Y001955D01*
X005787Y001955D01*
X005230Y002512D01*
X005230Y005128D01*
X005285Y005128D01*
X005385Y005228D01*
X005385Y005920D01*
X005285Y006019D01*
X004515Y006019D01*
X004415Y005920D01*
X004415Y005904D01*
X004385Y005904D01*
X004385Y005920D01*
X004285Y006019D01*
X003921Y006019D01*
X003690Y006251D01*
X003850Y006251D01*
X003850Y006626D01*
X003950Y006626D01*
X003950Y006251D01*
X004235Y006251D01*
X004273Y006261D01*
X004307Y006281D01*
X004335Y006308D01*
X004355Y006343D01*
X004365Y006381D01*
X004365Y006626D01*
X003950Y006626D01*
X003950Y006726D01*
X004365Y006726D01*
X004365Y006972D01*
X004355Y007010D01*
X004335Y007044D01*
X004307Y007072D01*
X004273Y007092D01*
X004235Y007102D01*
X003950Y007102D01*
X003950Y006726D01*
X003850Y006726D01*
X003850Y006626D01*
X003435Y006626D01*
X003435Y006446D01*
X003414Y006455D01*
X003325Y006455D01*
X003203Y006578D01*
X003006Y006659D01*
X002794Y006659D01*
X002597Y006578D01*
X002447Y006428D01*
X002388Y006286D01*
X002377Y006322D01*
X002340Y006394D01*
X002292Y006460D01*
X002235Y006517D01*
X002169Y006565D01*
X002097Y006602D01*
X002020Y006627D01*
X001940Y006639D01*
X001939Y006639D01*
X001939Y006164D01*
X001861Y006164D01*
X001861Y006639D01*
X001860Y006639D01*
X001780Y006627D01*
X001703Y006602D01*
X001631Y006565D01*
X001565Y006517D01*
X001508Y006460D01*
X001460Y006394D01*
X001423Y006322D01*
X001398Y006245D01*
X001386Y006165D01*
X001386Y006164D01*
X001861Y006164D01*
X001861Y006086D01*
X001386Y006086D01*
X001386Y006085D01*
X001398Y006005D01*
X001423Y005928D01*
X001460Y005856D01*
X001508Y005790D01*
X001565Y005733D01*
X001631Y005685D01*
X001703Y005648D01*
X001739Y005637D01*
X001597Y005578D01*
X001447Y005428D01*
X001366Y005231D01*
X001366Y005019D01*
X001447Y004822D01*
X001597Y004672D01*
X001711Y004625D01*
X001597Y004578D01*
X001447Y004428D01*
X001366Y004231D01*
X001366Y004019D01*
X001447Y003822D01*
X001597Y003672D01*
X001711Y003625D01*
X001597Y003578D01*
X001447Y003428D01*
X001366Y003231D01*
X001366Y003019D01*
X001447Y002822D01*
X001597Y002672D01*
X001794Y002591D01*
X002006Y002591D01*
X002059Y002613D01*
X002758Y001913D01*
X002850Y001875D01*
X003877Y001875D01*
X003940Y001811D01*
X004076Y001755D01*
X004224Y001755D01*
X004360Y001811D01*
X004464Y001915D01*
X004520Y002051D01*
X004520Y002199D01*
X004464Y002335D01*
X004360Y002439D01*
X004224Y002495D01*
X004076Y002495D01*
X003940Y002439D01*
X003877Y002375D01*
X003004Y002375D01*
X002783Y002595D01*
X002794Y002591D01*
X003006Y002591D01*
X003203Y002672D01*
X003353Y002822D01*
X003434Y003019D01*
X003434Y003231D01*
X003353Y003428D01*
X003203Y003578D01*
X003089Y003625D01*
X003203Y003672D01*
X003353Y003822D01*
X003434Y004019D01*
X003434Y004231D01*
X003353Y004428D01*
X003203Y004578D01*
X003089Y004625D01*
X003203Y004672D01*
X003353Y004822D01*
X003434Y005019D01*
X003434Y005209D01*
X003515Y005128D01*
X004285Y005128D01*
X004570Y005065D02*
X003434Y005065D01*
X003434Y005164D02*
X003479Y005164D01*
X003413Y004967D02*
X004570Y004967D01*
X004570Y004868D02*
X003372Y004868D01*
X003300Y004770D02*
X004570Y004770D01*
X004570Y004671D02*
X003200Y004671D01*
X003208Y004573D02*
X004570Y004573D01*
X004570Y004474D02*
X003306Y004474D01*
X003374Y004376D02*
X004570Y004376D01*
X004570Y004277D02*
X003415Y004277D01*
X003434Y004179D02*
X004570Y004179D01*
X004570Y004080D02*
X003434Y004080D01*
X003419Y003982D02*
X004570Y003982D01*
X004570Y003883D02*
X003378Y003883D01*
X003315Y003785D02*
X004570Y003785D01*
X004570Y003686D02*
X003216Y003686D01*
X003179Y003588D02*
X004570Y003588D01*
X004570Y003489D02*
X003291Y003489D01*
X003368Y003391D02*
X004570Y003391D01*
X004570Y003292D02*
X003409Y003292D01*
X003434Y003194D02*
X004570Y003194D01*
X004570Y003095D02*
X003434Y003095D01*
X003425Y002997D02*
X004570Y002997D01*
X004570Y002898D02*
X003384Y002898D01*
X003330Y002800D02*
X004570Y002800D01*
X004570Y002701D02*
X003231Y002701D01*
X003034Y002603D02*
X004570Y002603D01*
X004570Y002504D02*
X002875Y002504D01*
X002973Y002406D02*
X003907Y002406D01*
X004393Y002406D02*
X004570Y002406D01*
X004571Y002307D02*
X004475Y002307D01*
X004516Y002209D02*
X004612Y002209D01*
X004698Y002110D02*
X004520Y002110D01*
X004503Y002012D02*
X004797Y002012D01*
X004895Y001913D02*
X004461Y001913D01*
X004363Y001815D02*
X004994Y001815D01*
X005092Y001716D02*
X000610Y001716D01*
X000610Y001618D02*
X005191Y001618D01*
X005289Y001519D02*
X000610Y001519D01*
X000610Y001421D02*
X005388Y001421D01*
X005730Y002012D02*
X008570Y002012D01*
X008668Y002110D02*
X005632Y002110D01*
X005609Y002209D02*
X005533Y002209D01*
X005511Y002307D02*
X005435Y002307D01*
X005450Y002406D02*
X005336Y002406D01*
X005409Y002504D02*
X005238Y002504D01*
X005230Y002603D02*
X005400Y002603D01*
X005400Y002701D02*
X005230Y002701D01*
X005230Y002800D02*
X005431Y002800D01*
X005472Y002898D02*
X005230Y002898D01*
X005230Y002997D02*
X005564Y002997D01*
X005728Y003095D02*
X005230Y003095D01*
X005230Y003194D02*
X005635Y003194D01*
X005526Y003292D02*
X005230Y003292D01*
X005230Y003391D02*
X005456Y003391D01*
X005415Y003489D02*
X005230Y003489D01*
X005230Y003588D02*
X005400Y003588D01*
X005400Y003686D02*
X005230Y003686D01*
X005230Y003785D02*
X005425Y003785D01*
X005466Y003883D02*
X005230Y003883D01*
X005230Y003982D02*
X005549Y003982D01*
X005692Y004080D02*
X005230Y004080D01*
X005230Y004179D02*
X005671Y004179D01*
X005541Y004277D02*
X005230Y004277D01*
X005230Y004376D02*
X005462Y004376D01*
X005421Y004474D02*
X005230Y004474D01*
X005230Y004573D02*
X005400Y004573D01*
X005400Y004671D02*
X005230Y004671D01*
X005230Y004770D02*
X005419Y004770D01*
X005459Y004868D02*
X005230Y004868D01*
X005230Y004967D02*
X005534Y004967D01*
X005656Y005065D02*
X005230Y005065D01*
X005321Y005164D02*
X005708Y005164D01*
X005556Y005262D02*
X005385Y005262D01*
X005385Y005361D02*
X005468Y005361D01*
X005428Y005459D02*
X005385Y005459D01*
X005385Y005558D02*
X005400Y005558D01*
X005400Y005656D02*
X005385Y005656D01*
X005385Y005755D02*
X005412Y005755D01*
X005385Y005853D02*
X005453Y005853D01*
X005519Y005952D02*
X005353Y005952D01*
X005620Y006050D02*
X003890Y006050D01*
X003792Y006149D02*
X005744Y006149D01*
X005571Y006247D02*
X003693Y006247D01*
X003850Y006346D02*
X003950Y006346D01*
X003950Y006444D02*
X003850Y006444D01*
X003850Y006543D02*
X003950Y006543D01*
X003950Y006641D02*
X004850Y006641D01*
X004850Y006626D02*
X004435Y006626D01*
X004435Y006381D01*
X004445Y006343D01*
X004465Y006308D01*
X004493Y006281D01*
X004527Y006261D01*
X004565Y006251D01*
X004850Y006251D01*
X004850Y006626D01*
X004950Y006626D01*
X004950Y006251D01*
X005235Y006251D01*
X005273Y006261D01*
X005307Y006281D01*
X005335Y006308D01*
X005355Y006343D01*
X005365Y006381D01*
X005365Y006626D01*
X004950Y006626D01*
X004950Y006726D01*
X005365Y006726D01*
X005365Y006972D01*
X005355Y007010D01*
X005335Y007044D01*
X005307Y007072D01*
X005273Y007092D01*
X005235Y007102D01*
X004950Y007102D01*
X004950Y006726D01*
X004850Y006726D01*
X004850Y006626D01*
X004850Y006543D02*
X004950Y006543D01*
X004950Y006641D02*
X005400Y006641D01*
X005400Y006543D02*
X005365Y006543D01*
X005365Y006444D02*
X005434Y006444D01*
X005475Y006346D02*
X005355Y006346D01*
X005365Y006740D02*
X005406Y006740D01*
X005365Y006838D02*
X005447Y006838D01*
X005504Y006937D02*
X005365Y006937D01*
X005340Y007035D02*
X005603Y007035D01*
X005780Y007134D02*
X002070Y007134D01*
X002100Y007143D02*
X002173Y007180D01*
X002239Y007228D01*
X002297Y007286D01*
X002345Y007352D01*
X002382Y007425D01*
X002407Y007503D01*
X002420Y007584D01*
X002420Y007595D01*
X001930Y007595D01*
X001930Y007105D01*
X001941Y007105D01*
X002022Y007118D01*
X002100Y007143D01*
X002242Y007232D02*
X005586Y007232D01*
X005487Y007331D02*
X002329Y007331D01*
X002383Y007429D02*
X004492Y007429D01*
X004394Y007528D02*
X002411Y007528D01*
X002411Y007725D02*
X004197Y007725D01*
X004098Y007823D02*
X002382Y007823D01*
X002327Y007922D02*
X004000Y007922D01*
X003901Y008020D02*
X002240Y008020D01*
X002088Y008119D02*
X002946Y008119D01*
X002876Y008217D02*
X002256Y008217D01*
X002354Y008316D02*
X002876Y008316D01*
X002876Y008875D02*
X002381Y008875D01*
X002358Y008931D01*
X002206Y009083D01*
X002104Y009125D01*
X002206Y009167D01*
X002358Y009319D01*
X002381Y009375D01*
X002876Y009375D01*
X002876Y009291D01*
X002975Y009191D01*
X003825Y009191D01*
X003924Y009291D01*
X003924Y010062D01*
X003861Y010125D01*
X005450Y010125D01*
X005542Y010163D01*
X005598Y010220D01*
X005617Y010201D01*
X005801Y010125D01*
X005617Y010049D01*
X005476Y009908D01*
X005400Y009724D01*
X005400Y009526D01*
X005476Y009342D01*
X005617Y009201D01*
X005801Y009125D01*
X005617Y009049D01*
X005476Y008908D01*
X005400Y008724D01*
X005400Y008526D01*
X005476Y008342D01*
X005617Y008201D01*
X005801Y008125D01*
X005999Y008125D01*
X006183Y008201D01*
X006324Y008342D01*
X006400Y008526D01*
X006400Y008724D01*
X006324Y008908D01*
X006183Y009049D01*
X005999Y009125D01*
X005801Y009125D01*
X005999Y009125D01*
X006183Y009201D01*
X006324Y009342D01*
X006400Y009526D01*
X006400Y009724D01*
X006324Y009908D01*
X006183Y010049D01*
X005999Y010125D01*
X005801Y010125D01*
X005999Y010125D01*
X006183Y010201D01*
X006324Y010342D01*
X006400Y010526D01*
X006400Y010724D01*
X006324Y010908D01*
X006183Y011049D01*
X005999Y011125D01*
X006183Y011201D01*
X006324Y011342D01*
X006400Y011526D01*
X006400Y011724D01*
X006324Y011908D01*
X006183Y012049D01*
X005999Y012125D01*
X006183Y012201D01*
X006324Y012342D01*
X006400Y012526D01*
X006400Y012724D01*
X006324Y012908D01*
X006183Y013049D01*
X005999Y013125D01*
X005801Y013125D01*
X005617Y013049D01*
X005476Y012908D01*
X005400Y012724D01*
X005400Y012526D01*
X005433Y012445D01*
X005292Y012587D01*
X005200Y012625D01*
X004044Y012625D01*
X004100Y012643D01*
X004173Y012680D01*
X004239Y012728D01*
X004297Y012786D01*
X004345Y012852D01*
X004382Y012925D01*
X004407Y013003D01*
X004419Y013075D01*
X003950Y013075D01*
X003950Y013175D01*
X003850Y013175D01*
X003850Y013644D01*
X003778Y013632D01*
X003700Y013607D01*
X003627Y013570D01*
X003561Y013522D01*
X003503Y013464D01*
X003455Y013398D01*
X003418Y013325D01*
X003411Y013303D01*
X003358Y013431D01*
X003206Y013583D01*
X003007Y013665D01*
X002793Y013665D01*
X002594Y013583D01*
X002442Y013431D01*
X002400Y013329D01*
X002358Y013431D01*
X002206Y013583D01*
X002190Y013589D01*
X002190Y016505D01*
X002360Y016675D01*
X002360Y016518D01*
X002442Y016319D01*
X002594Y016167D01*
X002696Y016125D01*
X002594Y016083D01*
X002442Y015931D01*
X002360Y015732D01*
X002360Y015518D01*
X002442Y015319D01*
X002594Y015167D01*
X002648Y015145D01*
X002510Y015145D01*
X002472Y015135D01*
X002438Y015115D01*
X002410Y015087D01*
X002390Y015053D01*
X002380Y015015D01*
X002380Y014675D01*
X002850Y014675D01*
X002850Y014575D01*
X002950Y014575D01*
X002950Y014675D01*
X003420Y014675D01*
X003420Y015015D01*
X003410Y015053D01*
X003390Y015087D01*
X003362Y015115D01*
X003328Y015135D01*
X003290Y015145D01*
X003152Y015145D01*
X003206Y015167D01*
X003358Y015319D01*
X003440Y015518D01*
X003440Y015732D01*
X003358Y015931D01*
X003206Y016083D01*
X003104Y016125D01*
X003206Y016167D01*
X003358Y016319D01*
X003381Y016375D01*
X003876Y016375D01*
X003876Y016188D01*
X003975Y016089D01*
X004165Y016089D01*
X004127Y016070D01*
X004061Y016022D01*
X004003Y015964D01*
X003955Y015898D01*
X003918Y015825D01*
X003893Y015747D01*
X003881Y015675D01*
X004350Y015675D01*
X004350Y015575D01*
X003881Y015575D01*
X003893Y015503D01*
X003918Y015425D01*
X003955Y015352D01*
X004003Y015286D01*
X004061Y015228D01*
X004127Y015180D01*
X004200Y015143D01*
X004222Y015136D01*
X004094Y015083D01*
X003942Y014931D01*
X003860Y014732D01*
X003860Y014518D01*
X003942Y014319D01*
X004094Y014167D01*
X004293Y014085D01*
X004507Y014085D01*
X004706Y014167D01*
X004858Y014319D01*
X004940Y014518D01*
X004940Y014732D01*
X004858Y014931D01*
X004706Y015083D01*
X004578Y015136D01*
X004600Y015143D01*
X004673Y015180D01*
X004739Y015228D01*
X004797Y015286D01*
X004845Y015352D01*
X004882Y015425D01*
X004907Y015503D01*
X004919Y015575D01*
X004450Y015575D01*
X004450Y015675D01*
X004919Y015675D01*
X004907Y015747D01*
X004882Y015825D01*
X004845Y015898D01*
X004797Y015964D01*
X004739Y016022D01*
X004673Y016070D01*
X004635Y016089D01*
X004825Y016089D01*
X004924Y016188D01*
X004924Y016334D01*
X004990Y016362D01*
X005433Y016805D01*
X005400Y016724D01*
X005400Y016526D01*
X005476Y016342D01*
X005617Y016201D01*
X005801Y016125D01*
X005617Y016049D01*
X005476Y015908D01*
X005400Y015724D01*
X005400Y015526D01*
X005476Y015342D01*
X005617Y015201D01*
X005801Y015125D01*
X005999Y015125D01*
X006183Y015201D01*
X006324Y015342D01*
X006400Y015526D01*
X006400Y015724D01*
X006324Y015908D01*
X006183Y016049D01*
X005999Y016125D01*
X005801Y016125D01*
X005999Y016125D01*
X006183Y016201D01*
X006324Y016342D01*
X006400Y016526D01*
X006400Y016724D01*
X006324Y016908D01*
X006183Y017049D01*
X005999Y017125D01*
X005801Y017125D01*
X005720Y017092D01*
X006004Y017375D01*
X006796Y017375D01*
X007150Y017021D01*
X007150Y008229D01*
X006367Y007445D01*
X006400Y007526D01*
X006400Y007724D01*
X006324Y007908D01*
X006183Y008049D01*
X005999Y008125D01*
X005801Y008125D01*
X005617Y008049D01*
X005476Y007908D01*
X005462Y007875D01*
X004754Y007875D01*
X003924Y008704D01*
X003924Y008959D01*
X003825Y009059D01*
X002975Y009059D01*
X002876Y008959D01*
X002876Y008875D01*
X002876Y008907D02*
X002368Y008907D01*
X002284Y009005D02*
X002921Y009005D01*
X002964Y009202D02*
X002241Y009202D01*
X002156Y009104D02*
X005749Y009104D01*
X005616Y009202D02*
X003836Y009202D01*
X003924Y009301D02*
X005517Y009301D01*
X005452Y009399D02*
X003924Y009399D01*
X003924Y009498D02*
X005412Y009498D01*
X005400Y009596D02*
X003924Y009596D01*
X003924Y009695D02*
X005400Y009695D01*
X005428Y009793D02*
X003924Y009793D01*
X003924Y009892D02*
X005469Y009892D01*
X005558Y009990D02*
X003924Y009990D01*
X003897Y010089D02*
X005712Y010089D01*
X005651Y010187D02*
X005566Y010187D01*
X005296Y010625D02*
X004044Y010625D01*
X004100Y010643D01*
X004173Y010680D01*
X004239Y010728D01*
X004297Y010786D01*
X004345Y010852D01*
X004382Y010925D01*
X004407Y011003D01*
X004419Y011075D01*
X003950Y011075D01*
X003950Y011175D01*
X003850Y011175D01*
X003850Y011644D01*
X003778Y011632D01*
X003700Y011607D01*
X003627Y011570D01*
X003561Y011522D01*
X003503Y011464D01*
X003455Y011398D01*
X003418Y011325D01*
X003411Y011303D01*
X003358Y011431D01*
X003206Y011583D01*
X003007Y011665D01*
X002793Y011665D01*
X002594Y011583D01*
X002442Y011431D01*
X002400Y011329D01*
X002358Y011431D01*
X002206Y011583D01*
X002190Y011589D01*
X002190Y012661D01*
X002206Y012667D01*
X002358Y012819D01*
X002400Y012921D01*
X002442Y012819D01*
X002594Y012667D01*
X002650Y012644D01*
X002650Y012575D01*
X002688Y012483D01*
X002938Y012233D01*
X003008Y012163D01*
X003100Y012125D01*
X005046Y012125D01*
X005414Y011758D01*
X005400Y011724D01*
X005400Y011526D01*
X005476Y011342D01*
X005617Y011201D01*
X005801Y011125D01*
X005999Y011125D01*
X005801Y011125D01*
X005617Y011049D01*
X005476Y010908D01*
X005403Y010731D01*
X005296Y010625D01*
X005351Y010680D02*
X004171Y010680D01*
X004288Y010778D02*
X005422Y010778D01*
X005463Y010877D02*
X004357Y010877D01*
X004398Y010975D02*
X005543Y010975D01*
X005676Y011074D02*
X004418Y011074D01*
X004419Y011175D02*
X004407Y011247D01*
X004382Y011325D01*
X004345Y011398D01*
X004297Y011464D01*
X004239Y011522D01*
X004173Y011570D01*
X004100Y011607D01*
X004022Y011632D01*
X003950Y011644D01*
X003950Y011175D01*
X004419Y011175D01*
X004399Y011271D02*
X005547Y011271D01*
X005465Y011369D02*
X004359Y011369D01*
X004293Y011468D02*
X005424Y011468D01*
X005400Y011566D02*
X004178Y011566D01*
X003950Y011566D02*
X003850Y011566D01*
X003850Y011468D02*
X003950Y011468D01*
X003950Y011369D02*
X003850Y011369D01*
X003850Y011271D02*
X003950Y011271D01*
X003950Y011172D02*
X005687Y011172D01*
X006113Y011172D02*
X007150Y011172D01*
X007150Y011074D02*
X006124Y011074D01*
X006257Y010975D02*
X007150Y010975D01*
X007150Y010877D02*
X006337Y010877D01*
X006378Y010778D02*
X007150Y010778D01*
X007150Y010680D02*
X006400Y010680D01*
X006400Y010581D02*
X007150Y010581D01*
X007150Y010483D02*
X006382Y010483D01*
X006341Y010384D02*
X007150Y010384D01*
X007150Y010286D02*
X006268Y010286D01*
X006149Y010187D02*
X007150Y010187D01*
X007150Y010089D02*
X006088Y010089D01*
X006242Y009990D02*
X007150Y009990D01*
X007150Y009892D02*
X006331Y009892D01*
X006372Y009793D02*
X007150Y009793D01*
X007150Y009695D02*
X006400Y009695D01*
X006400Y009596D02*
X007150Y009596D01*
X007150Y009498D02*
X006388Y009498D01*
X006348Y009399D02*
X007150Y009399D01*
X007150Y009301D02*
X006283Y009301D01*
X006184Y009202D02*
X007150Y009202D01*
X007150Y009104D02*
X006051Y009104D01*
X006227Y009005D02*
X007150Y009005D01*
X007150Y008907D02*
X006325Y008907D01*
X006365Y008808D02*
X007150Y008808D01*
X007150Y008710D02*
X006400Y008710D01*
X006400Y008611D02*
X007150Y008611D01*
X007150Y008513D02*
X006395Y008513D01*
X006354Y008414D02*
X007150Y008414D01*
X007150Y008316D02*
X006298Y008316D01*
X006199Y008217D02*
X007138Y008217D01*
X007040Y008119D02*
X006015Y008119D01*
X006212Y008020D02*
X006941Y008020D01*
X006843Y007922D02*
X006311Y007922D01*
X006359Y007823D02*
X006744Y007823D01*
X006646Y007725D02*
X006400Y007725D01*
X006400Y007626D02*
X006547Y007626D01*
X006449Y007528D02*
X006400Y007528D01*
X006080Y007158D02*
X006033Y007111D01*
X005999Y007125D01*
X005801Y007125D01*
X005999Y007125D01*
X006080Y007158D01*
X006055Y007134D02*
X006020Y007134D01*
X006394Y006740D02*
X010224Y006740D01*
X010180Y006838D02*
X006467Y006838D01*
X006565Y006937D02*
X010180Y006937D01*
X010180Y007035D02*
X006664Y007035D01*
X006762Y007134D02*
X010180Y007134D01*
X010180Y007232D02*
X006861Y007232D01*
X006959Y007331D02*
X010180Y007331D01*
X010180Y007429D02*
X007058Y007429D01*
X007156Y007528D02*
X010180Y007528D01*
X010126Y007626D02*
X007255Y007626D01*
X007353Y007725D02*
X010062Y007725D01*
X010030Y007823D02*
X007452Y007823D01*
X007550Y007922D02*
X010030Y007922D01*
X010060Y008020D02*
X007627Y008020D01*
X007650Y008119D02*
X010120Y008119D01*
X010259Y008217D02*
X007650Y008217D01*
X007650Y008316D02*
X011502Y008316D01*
X011446Y008414D02*
X007650Y008414D01*
X007650Y008513D02*
X011405Y008513D01*
X011400Y008611D02*
X007650Y008611D01*
X007650Y008710D02*
X011400Y008710D01*
X011435Y008808D02*
X007650Y008808D01*
X007650Y008907D02*
X011475Y008907D01*
X011573Y009005D02*
X007650Y009005D01*
X007650Y009104D02*
X011749Y009104D01*
X011616Y009202D02*
X007650Y009202D01*
X007650Y009301D02*
X011517Y009301D01*
X011452Y009399D02*
X007650Y009399D01*
X007650Y009498D02*
X011412Y009498D01*
X011400Y009596D02*
X007650Y009596D01*
X007650Y009695D02*
X011400Y009695D01*
X011428Y009793D02*
X007650Y009793D01*
X007650Y009892D02*
X011469Y009892D01*
X011558Y009990D02*
X007650Y009990D01*
X007650Y010089D02*
X011712Y010089D01*
X011651Y010187D02*
X007650Y010187D01*
X007650Y010286D02*
X011532Y010286D01*
X011459Y010384D02*
X007650Y010384D01*
X007650Y010483D02*
X011418Y010483D01*
X011400Y010581D02*
X007650Y010581D01*
X007650Y010680D02*
X011400Y010680D01*
X011422Y010778D02*
X007650Y010778D01*
X007650Y010877D02*
X011463Y010877D01*
X011543Y010975D02*
X007650Y010975D01*
X007650Y011074D02*
X011676Y011074D01*
X011687Y011172D02*
X007650Y011172D01*
X007650Y011271D02*
X011547Y011271D01*
X011465Y011369D02*
X007650Y011369D01*
X007650Y011468D02*
X011424Y011468D01*
X011400Y011566D02*
X007650Y011566D01*
X007650Y011665D02*
X011400Y011665D01*
X011416Y011763D02*
X007650Y011763D01*
X007650Y011862D02*
X011457Y011862D01*
X011528Y011960D02*
X007650Y011960D01*
X007650Y012059D02*
X011640Y012059D01*
X011723Y012157D02*
X007650Y012157D01*
X007650Y012256D02*
X011562Y012256D01*
X011471Y012354D02*
X007650Y012354D01*
X007650Y012453D02*
X011430Y012453D01*
X011400Y012551D02*
X007650Y012551D01*
X007650Y012650D02*
X011400Y012650D01*
X011410Y012748D02*
X007650Y012748D01*
X007650Y012847D02*
X011451Y012847D01*
X011513Y012945D02*
X007650Y012945D01*
X007650Y013044D02*
X011611Y013044D01*
X011759Y013142D02*
X007650Y013142D01*
X007650Y013241D02*
X011577Y013241D01*
X011801Y013125D02*
X011990Y013125D01*
X011801Y013125D01*
X011990Y013125D02*
X011990Y013125D01*
X012400Y012650D02*
X012465Y012650D01*
X012400Y012551D02*
X012564Y012551D01*
X012662Y012453D02*
X012370Y012453D01*
X012329Y012354D02*
X012761Y012354D01*
X012859Y012256D02*
X012238Y012256D01*
X012077Y012157D02*
X012958Y012157D01*
X013056Y012059D02*
X012160Y012059D01*
X012272Y011960D02*
X013110Y011960D01*
X013110Y011862D02*
X012343Y011862D01*
X012384Y011763D02*
X013110Y011763D01*
X012666Y011665D02*
X012400Y011665D01*
X012400Y011566D02*
X012579Y011566D01*
X012538Y011468D02*
X012376Y011468D01*
X012335Y011369D02*
X012530Y011369D01*
X012543Y011271D02*
X012253Y011271D01*
X012113Y011172D02*
X012584Y011172D01*
X012610Y011074D02*
X012124Y011074D01*
X012257Y010975D02*
X012610Y010975D01*
X012610Y010877D02*
X012337Y010877D01*
X012378Y010778D02*
X012610Y010778D01*
X012610Y010680D02*
X012400Y010680D01*
X012400Y010581D02*
X012610Y010581D01*
X012610Y010483D02*
X012382Y010483D01*
X012341Y010384D02*
X012610Y010384D01*
X012610Y010286D02*
X012268Y010286D01*
X012149Y010187D02*
X012610Y010187D01*
X012610Y010089D02*
X012088Y010089D01*
X012242Y009990D02*
X012610Y009990D01*
X012610Y009892D02*
X012331Y009892D01*
X012372Y009793D02*
X012610Y009793D01*
X012610Y009695D02*
X012400Y009695D01*
X012400Y009596D02*
X012610Y009596D01*
X012610Y009498D02*
X012388Y009498D01*
X012348Y009399D02*
X012610Y009399D01*
X012610Y009301D02*
X012283Y009301D01*
X012184Y009202D02*
X012610Y009202D01*
X012610Y009104D02*
X012051Y009104D01*
X012227Y009005D02*
X012610Y009005D01*
X012610Y008907D02*
X012325Y008907D01*
X012365Y008808D02*
X012610Y008808D01*
X012610Y008710D02*
X012400Y008710D01*
X012400Y008611D02*
X012610Y008611D01*
X012610Y008513D02*
X012395Y008513D01*
X012354Y008414D02*
X012610Y008414D01*
X012578Y008316D02*
X012298Y008316D01*
X012199Y008217D02*
X012538Y008217D01*
X012530Y008119D02*
X012015Y008119D01*
X012212Y008020D02*
X012543Y008020D01*
X012584Y007922D02*
X012311Y007922D01*
X012359Y007823D02*
X012679Y007823D01*
X012400Y007725D02*
X013890Y007725D01*
X013792Y007823D02*
X013121Y007823D01*
X013216Y007922D02*
X013693Y007922D01*
X013595Y008020D02*
X013257Y008020D01*
X013270Y008119D02*
X013496Y008119D01*
X013398Y008217D02*
X013262Y008217D01*
X013299Y008316D02*
X013222Y008316D01*
X013201Y008414D02*
X013190Y008414D01*
X013726Y008710D02*
X014880Y008710D01*
X014880Y008808D02*
X013690Y008808D01*
X013690Y008907D02*
X014880Y008907D01*
X014880Y009005D02*
X013690Y009005D01*
X013690Y009104D02*
X014926Y009104D01*
X015059Y009202D02*
X013690Y009202D01*
X013690Y009301D02*
X014961Y009301D01*
X014909Y009399D02*
X013690Y009399D01*
X013690Y009498D02*
X014868Y009498D01*
X014860Y009596D02*
X013690Y009596D01*
X013690Y009695D02*
X014860Y009695D01*
X014885Y009793D02*
X013690Y009793D01*
X013690Y009892D02*
X014926Y009892D01*
X015001Y009990D02*
X013690Y009990D01*
X013690Y010089D02*
X015108Y010089D01*
X015074Y010187D02*
X013690Y010187D01*
X013690Y010286D02*
X014976Y010286D01*
X014915Y010384D02*
X013690Y010384D01*
X013690Y010483D02*
X014875Y010483D01*
X014860Y010581D02*
X013690Y010581D01*
X013690Y010680D02*
X014860Y010680D01*
X014879Y010778D02*
X013690Y010778D01*
X013690Y010877D02*
X014920Y010877D01*
X014986Y010975D02*
X013690Y010975D01*
X013690Y011074D02*
X015085Y011074D01*
X015089Y011172D02*
X013690Y011172D01*
X013690Y011271D02*
X014991Y011271D01*
X014922Y011369D02*
X013690Y011369D01*
X013690Y011468D02*
X014881Y011468D01*
X014860Y011566D02*
X013690Y011566D01*
X013690Y011665D02*
X014860Y011665D01*
X014873Y011763D02*
X013690Y011763D01*
X013690Y011862D02*
X014913Y011862D01*
X014971Y011960D02*
X013690Y011960D01*
X013690Y012059D02*
X015070Y012059D01*
X015273Y012157D02*
X013690Y012157D01*
X013660Y012256D02*
X013825Y012256D01*
X013975Y012256D02*
X015938Y012256D01*
X015938Y012354D02*
X014152Y012354D01*
X014270Y012650D02*
X015938Y012650D01*
X015938Y012748D02*
X014250Y012748D01*
X014202Y012847D02*
X015938Y012847D01*
X015938Y012945D02*
X014094Y012945D01*
X014155Y013142D02*
X013878Y013142D01*
X013924Y013241D02*
X014021Y013241D01*
X013934Y013339D02*
X013924Y013339D01*
X013793Y013044D02*
X015938Y013044D01*
X015938Y013142D02*
X015596Y013142D01*
X015600Y013143D02*
X015673Y013180D01*
X015739Y013228D01*
X015797Y013286D01*
X015845Y013352D01*
X015882Y013425D01*
X015907Y013503D01*
X015920Y013584D01*
X015920Y013595D01*
X015430Y013595D01*
X015430Y013105D01*
X015441Y013105D01*
X015522Y013118D01*
X015600Y013143D01*
X015430Y013142D02*
X015370Y013142D01*
X015370Y013241D02*
X015430Y013241D01*
X015430Y013339D02*
X015370Y013339D01*
X015370Y013438D02*
X015430Y013438D01*
X015430Y013536D02*
X015370Y013536D01*
X015430Y013635D02*
X015938Y013635D01*
X015920Y013655D02*
X015920Y013666D01*
X015907Y013747D01*
X015882Y013825D01*
X015845Y013898D01*
X015797Y013964D01*
X015739Y014022D01*
X015673Y014070D01*
X015600Y014107D01*
X015522Y014132D01*
X015441Y014145D01*
X015430Y014145D01*
X015430Y013655D01*
X015920Y013655D01*
X015909Y013733D02*
X015938Y013733D01*
X015938Y013832D02*
X015878Y013832D01*
X015821Y013930D02*
X015938Y013930D01*
X015938Y014029D02*
X015729Y014029D01*
X015538Y014127D02*
X015938Y014127D01*
X015938Y014226D02*
X014629Y014226D01*
X014650Y014127D02*
X015262Y014127D01*
X015370Y014127D02*
X015430Y014127D01*
X015430Y014029D02*
X015370Y014029D01*
X015370Y013930D02*
X015430Y013930D01*
X015430Y013832D02*
X015370Y013832D01*
X015370Y013733D02*
X015430Y013733D01*
X015071Y014029D02*
X014760Y014029D01*
X014858Y013930D02*
X014979Y013930D01*
X014922Y013832D02*
X014899Y013832D01*
X014907Y013438D02*
X014914Y013438D01*
X014866Y013339D02*
X014965Y013339D01*
X015049Y013241D02*
X014779Y013241D01*
X014645Y013142D02*
X015204Y013142D01*
X015751Y013241D02*
X015938Y013241D01*
X015938Y013339D02*
X015835Y013339D01*
X015886Y013438D02*
X015938Y013438D01*
X015938Y013536D02*
X015912Y013536D01*
X015938Y014324D02*
X014555Y014324D01*
X014456Y014423D02*
X015938Y014423D01*
X015938Y014521D02*
X014358Y014521D01*
X014259Y014620D02*
X015938Y014620D01*
X015938Y014718D02*
X014161Y014718D01*
X014112Y014767D02*
X014112Y014767D01*
X014062Y014817D02*
X015938Y014817D01*
X015938Y014915D02*
X013924Y014915D01*
X013924Y015014D02*
X015938Y015014D01*
X015938Y015112D02*
X015485Y015112D01*
X015522Y015118D02*
X015600Y015143D01*
X015673Y015180D01*
X015739Y015228D01*
X015797Y015286D01*
X015845Y015352D01*
X015882Y015425D01*
X015907Y015503D01*
X015920Y015584D01*
X015920Y015595D01*
X015430Y015595D01*
X015430Y015105D01*
X015441Y015105D01*
X015522Y015118D01*
X015430Y015112D02*
X015370Y015112D01*
X015315Y015112D02*
X014573Y015112D01*
X014749Y015211D02*
X015086Y015211D01*
X014987Y015309D02*
X014848Y015309D01*
X014894Y015408D02*
X014927Y015408D01*
X015370Y015408D02*
X015430Y015408D01*
X015430Y015506D02*
X015370Y015506D01*
X015430Y015605D02*
X015938Y015605D01*
X015920Y015655D02*
X015920Y015666D01*
X015907Y015747D01*
X015882Y015825D01*
X015845Y015898D01*
X015797Y015964D01*
X015739Y016022D01*
X015673Y016070D01*
X015600Y016107D01*
X015522Y016132D01*
X015441Y016145D01*
X015430Y016145D01*
X015430Y015655D01*
X015920Y015655D01*
X015914Y015703D02*
X015938Y015703D01*
X015938Y015802D02*
X015889Y015802D01*
X015843Y015900D02*
X015938Y015900D01*
X015938Y015999D02*
X015762Y015999D01*
X015619Y016097D02*
X015938Y016097D01*
X015938Y016196D02*
X014650Y016196D01*
X014650Y016294D02*
X015938Y016294D01*
X015938Y016393D02*
X014650Y016393D01*
X014623Y016491D02*
X015938Y016491D01*
X015938Y016590D02*
X014539Y016590D01*
X014441Y016688D02*
X015938Y016688D01*
X015938Y016787D02*
X014342Y016787D01*
X014244Y016885D02*
X015938Y016885D01*
X015938Y016984D02*
X015320Y016984D01*
X015398Y017016D02*
X015118Y016900D01*
X014816Y016900D01*
X014536Y017016D01*
X014322Y017230D01*
X014206Y017509D01*
X014206Y017812D01*
X014322Y018091D01*
X014536Y018305D01*
X014816Y018421D01*
X015118Y018421D01*
X015398Y018305D01*
X015612Y018091D01*
X015727Y017812D01*
X015727Y017509D01*
X015612Y017230D01*
X015398Y017016D01*
X015464Y017082D02*
X015938Y017082D01*
X015938Y017181D02*
X015563Y017181D01*
X015632Y017279D02*
X015938Y017279D01*
X015938Y017378D02*
X015673Y017378D01*
X015714Y017476D02*
X015938Y017476D01*
X015938Y017575D02*
X015727Y017575D01*
X015727Y017673D02*
X015938Y017673D01*
X015938Y017772D02*
X015727Y017772D01*
X015703Y017870D02*
X015938Y017870D01*
X015937Y017969D02*
X015663Y017969D01*
X015622Y018067D02*
X015838Y018067D01*
X015740Y018166D02*
X015537Y018166D01*
X015439Y018264D02*
X015641Y018264D01*
X015543Y018363D02*
X015259Y018363D01*
X015444Y018461D02*
X001104Y018461D01*
X001202Y018560D02*
X015346Y018560D01*
X014675Y018363D02*
X008073Y018363D01*
X008171Y018264D02*
X014495Y018264D01*
X014396Y018166D02*
X008270Y018166D01*
X008368Y018067D02*
X014312Y018067D01*
X014271Y017969D02*
X008467Y017969D01*
X008565Y017870D02*
X014231Y017870D01*
X014206Y017772D02*
X008664Y017772D01*
X008762Y017673D02*
X014206Y017673D01*
X014206Y017575D02*
X008861Y017575D01*
X008959Y017476D02*
X014220Y017476D01*
X014261Y017378D02*
X009058Y017378D01*
X009150Y017279D02*
X014302Y017279D01*
X014371Y017181D02*
X009190Y017181D01*
X009190Y017082D02*
X011697Y017082D01*
X011617Y017049D02*
X011476Y016908D01*
X011400Y016724D01*
X011400Y016526D01*
X011476Y016342D01*
X011617Y016201D01*
X011801Y016125D01*
X011999Y016125D01*
X012183Y016201D01*
X012324Y016342D01*
X012400Y016526D01*
X012400Y016724D01*
X012324Y016908D01*
X012183Y017049D01*
X011999Y017125D01*
X011801Y017125D01*
X011617Y017049D01*
X011551Y016984D02*
X009190Y016984D01*
X009190Y016885D02*
X011467Y016885D01*
X011426Y016787D02*
X009190Y016787D01*
X009190Y016688D02*
X011400Y016688D01*
X011400Y016590D02*
X009190Y016590D01*
X009190Y016491D02*
X011414Y016491D01*
X011455Y016393D02*
X009190Y016393D01*
X009190Y016294D02*
X011524Y016294D01*
X011630Y016196D02*
X009190Y016196D01*
X009190Y016097D02*
X011812Y016097D01*
X011861Y016097D02*
X011939Y016097D01*
X011939Y016105D02*
X011939Y015664D01*
X012380Y015664D01*
X012368Y015737D01*
X012345Y015809D01*
X012311Y015877D01*
X012266Y015938D01*
X012213Y015991D01*
X012152Y016036D01*
X012084Y016070D01*
X012012Y016093D01*
X011939Y016105D01*
X011988Y016097D02*
X014129Y016097D01*
X014150Y016196D02*
X013829Y016196D01*
X013924Y016294D02*
X014127Y016294D01*
X014029Y016393D02*
X013924Y016393D01*
X013885Y015999D02*
X014010Y015999D01*
X013929Y015900D02*
X013924Y015900D01*
X013924Y015309D02*
X013952Y015309D01*
X013924Y015211D02*
X014051Y015211D01*
X014227Y015112D02*
X013874Y015112D01*
X013400Y015375D02*
X013400Y015574D01*
X013400Y015375D02*
X012900Y015375D01*
X012650Y015125D01*
X010900Y015125D01*
X010650Y014875D01*
X010650Y014625D01*
X010428Y014324D02*
X010111Y014324D01*
X010013Y014423D02*
X010333Y014423D01*
X010293Y014521D02*
X009914Y014521D01*
X009816Y014620D02*
X010280Y014620D01*
X010288Y014718D02*
X009717Y014718D01*
X009619Y014817D02*
X010329Y014817D01*
X010417Y014915D02*
X009520Y014915D01*
X009422Y015014D02*
X010477Y015014D01*
X010576Y015112D02*
X009323Y015112D01*
X009225Y015211D02*
X010674Y015211D01*
X010773Y015309D02*
X009190Y015309D01*
X009190Y015408D02*
X011472Y015408D01*
X011434Y015506D02*
X009190Y015506D01*
X009190Y015605D02*
X011861Y015605D01*
X011861Y015586D02*
X011861Y015345D01*
X011939Y015345D01*
X011939Y015586D01*
X011861Y015586D01*
X011939Y015605D02*
X012876Y015605D01*
X012876Y015703D02*
X012374Y015703D01*
X012347Y015802D02*
X012876Y015802D01*
X012876Y015900D02*
X012293Y015900D01*
X012202Y015999D02*
X012915Y015999D01*
X012971Y016196D02*
X012170Y016196D01*
X012276Y016294D02*
X012876Y016294D01*
X012876Y016393D02*
X012345Y016393D01*
X012386Y016491D02*
X012876Y016491D01*
X012876Y016590D02*
X012400Y016590D01*
X012400Y016688D02*
X012876Y016688D01*
X012876Y016787D02*
X012374Y016787D01*
X012333Y016885D02*
X012876Y016885D01*
X012876Y016984D02*
X012249Y016984D01*
X012103Y017082D02*
X012896Y017082D01*
X011939Y015999D02*
X011861Y015999D01*
X011861Y015900D02*
X011939Y015900D01*
X011939Y015802D02*
X011861Y015802D01*
X011861Y015703D02*
X011939Y015703D01*
X011939Y015506D02*
X011861Y015506D01*
X011861Y015408D02*
X011939Y015408D01*
X012328Y015408D02*
X012621Y015408D01*
X012720Y015506D02*
X012366Y015506D01*
X012850Y015014D02*
X012876Y015014D01*
X012876Y014915D02*
X012751Y014915D01*
X012876Y014817D02*
X012362Y014817D01*
X012400Y014718D02*
X012876Y014718D01*
X012876Y014620D02*
X012400Y014620D01*
X012398Y014521D02*
X012876Y014521D01*
X012876Y014423D02*
X012357Y014423D01*
X012306Y014324D02*
X012876Y014324D01*
X012941Y014226D02*
X012208Y014226D01*
X012204Y014029D02*
X012945Y014029D01*
X012876Y013930D02*
X012302Y013930D01*
X012356Y013832D02*
X012876Y013832D01*
X012876Y013733D02*
X012396Y013733D01*
X012400Y013635D02*
X012876Y013635D01*
X012876Y013536D02*
X012400Y013536D01*
X012498Y013438D02*
X012876Y013438D01*
X012876Y013339D02*
X012596Y013339D01*
X012695Y013241D02*
X012876Y013241D01*
X012922Y013142D02*
X012793Y013142D01*
X012892Y013044D02*
X013180Y013044D01*
X013269Y012945D02*
X012990Y012945D01*
X013089Y012847D02*
X013367Y012847D01*
X013466Y012748D02*
X013187Y012748D01*
X013400Y013125D02*
X013400Y013574D01*
X013400Y013125D02*
X013900Y012625D01*
X013648Y012354D02*
X013581Y012354D01*
X013571Y012453D02*
X013483Y012453D01*
X013924Y013930D02*
X013942Y013930D01*
X013855Y014029D02*
X014040Y014029D01*
X014044Y014127D02*
X012004Y014127D01*
X011796Y014127D02*
X010308Y014127D01*
X010210Y014226D02*
X011592Y014226D01*
X011494Y014324D02*
X010872Y014324D01*
X010967Y014423D02*
X011443Y014423D01*
X011402Y014521D02*
X011007Y014521D01*
X011020Y014620D02*
X011400Y014620D01*
X011400Y014718D02*
X011012Y014718D01*
X010971Y014817D02*
X011438Y014817D01*
X011596Y014029D02*
X010407Y014029D01*
X010505Y013930D02*
X011498Y013930D01*
X010333Y013339D02*
X007650Y013339D01*
X007650Y013438D02*
X010177Y013438D01*
X010079Y013536D02*
X007650Y013536D01*
X007650Y013635D02*
X009980Y013635D01*
X009882Y013733D02*
X007650Y013733D01*
X007650Y013832D02*
X009783Y013832D01*
X009685Y013930D02*
X007650Y013930D01*
X007650Y014029D02*
X009586Y014029D01*
X009488Y014127D02*
X007650Y014127D01*
X007650Y014226D02*
X009389Y014226D01*
X009291Y014324D02*
X007650Y014324D01*
X007650Y014423D02*
X009192Y014423D01*
X009094Y014521D02*
X007650Y014521D01*
X007650Y014620D02*
X008995Y014620D01*
X008897Y014718D02*
X007650Y014718D01*
X007650Y014817D02*
X008798Y014817D01*
X008700Y014915D02*
X007650Y014915D01*
X007650Y015014D02*
X008632Y015014D01*
X008610Y015112D02*
X007650Y015112D01*
X007650Y015211D02*
X008610Y015211D01*
X008610Y015309D02*
X007650Y015309D01*
X007650Y015408D02*
X008610Y015408D01*
X008610Y015506D02*
X007650Y015506D01*
X007650Y015605D02*
X008610Y015605D01*
X008610Y015703D02*
X007650Y015703D01*
X007650Y015802D02*
X008610Y015802D01*
X008610Y015900D02*
X007650Y015900D01*
X007650Y015999D02*
X008610Y015999D01*
X008610Y016097D02*
X007650Y016097D01*
X007650Y016196D02*
X008610Y016196D01*
X008610Y016294D02*
X007650Y016294D01*
X007650Y016393D02*
X008610Y016393D01*
X008610Y016491D02*
X007650Y016491D01*
X007650Y016590D02*
X008610Y016590D01*
X008610Y016688D02*
X007650Y016688D01*
X007650Y016787D02*
X008610Y016787D01*
X008610Y016885D02*
X007650Y016885D01*
X007650Y016984D02*
X008610Y016984D01*
X008533Y017082D02*
X007650Y017082D01*
X007648Y017181D02*
X008434Y017181D01*
X008336Y017279D02*
X007600Y017279D01*
X007501Y017378D02*
X008237Y017378D01*
X008139Y017476D02*
X007403Y017476D01*
X007304Y017575D02*
X008040Y017575D01*
X007942Y017673D02*
X007206Y017673D01*
X007107Y017772D02*
X007843Y017772D01*
X007150Y016984D02*
X006249Y016984D01*
X006333Y016885D02*
X007150Y016885D01*
X007150Y016787D02*
X006374Y016787D01*
X006400Y016688D02*
X007150Y016688D01*
X007150Y016590D02*
X006400Y016590D01*
X006386Y016491D02*
X007150Y016491D01*
X007150Y016393D02*
X006345Y016393D01*
X006276Y016294D02*
X007150Y016294D01*
X007150Y016196D02*
X006170Y016196D01*
X006067Y016097D02*
X007150Y016097D01*
X007150Y015999D02*
X006234Y015999D01*
X006327Y015900D02*
X007150Y015900D01*
X007150Y015802D02*
X006368Y015802D01*
X006400Y015703D02*
X007150Y015703D01*
X007150Y015605D02*
X006400Y015605D01*
X006392Y015506D02*
X007150Y015506D01*
X007150Y015408D02*
X006351Y015408D01*
X006291Y015309D02*
X007150Y015309D01*
X007150Y015211D02*
X006193Y015211D01*
X006183Y015049D02*
X005999Y015125D01*
X005801Y015125D01*
X005617Y015049D01*
X005476Y014908D01*
X005400Y014724D01*
X005400Y014526D01*
X005476Y014342D01*
X005617Y014201D01*
X005801Y014125D01*
X005999Y014125D01*
X006183Y014201D01*
X006324Y014342D01*
X006400Y014526D01*
X006400Y014724D01*
X006324Y014908D01*
X006183Y015049D01*
X006219Y015014D02*
X007150Y015014D01*
X007150Y015112D02*
X006031Y015112D01*
X005769Y015112D02*
X004635Y015112D01*
X004714Y015211D02*
X005607Y015211D01*
X005509Y015309D02*
X004813Y015309D01*
X004873Y015408D02*
X005449Y015408D01*
X005408Y015506D02*
X004908Y015506D01*
X004914Y015703D02*
X005400Y015703D01*
X005400Y015605D02*
X004450Y015605D01*
X004350Y015605D02*
X003440Y015605D01*
X003440Y015703D02*
X003886Y015703D01*
X003911Y015802D02*
X003411Y015802D01*
X003371Y015900D02*
X003957Y015900D01*
X004038Y015999D02*
X003290Y015999D01*
X003171Y016097D02*
X003967Y016097D01*
X003876Y016196D02*
X003234Y016196D01*
X003333Y016294D02*
X003876Y016294D01*
X004400Y016574D02*
X004400Y016625D01*
X004924Y016294D02*
X005524Y016294D01*
X005455Y016393D02*
X005021Y016393D01*
X005120Y016491D02*
X005414Y016491D01*
X005400Y016590D02*
X005218Y016590D01*
X005317Y016688D02*
X005400Y016688D01*
X005415Y016787D02*
X005426Y016787D01*
X005809Y017181D02*
X006991Y017181D01*
X006892Y017279D02*
X005908Y017279D01*
X006103Y017082D02*
X007089Y017082D01*
X005733Y016097D02*
X004833Y016097D01*
X004762Y015999D02*
X005566Y015999D01*
X005473Y015900D02*
X004843Y015900D01*
X004889Y015802D02*
X005432Y015802D01*
X005630Y016196D02*
X004924Y016196D01*
X003987Y015309D02*
X003348Y015309D01*
X003394Y015408D02*
X003927Y015408D01*
X003892Y015506D02*
X003435Y015506D01*
X003249Y015211D02*
X004086Y015211D01*
X004165Y015112D02*
X003365Y015112D01*
X003420Y015014D02*
X004025Y015014D01*
X003936Y014915D02*
X003420Y014915D01*
X003420Y014817D02*
X003895Y014817D01*
X003860Y014718D02*
X003420Y014718D01*
X003420Y014575D02*
X002950Y014575D01*
X002950Y014105D01*
X003290Y014105D01*
X003328Y014115D01*
X003362Y014135D01*
X003390Y014163D01*
X003410Y014197D01*
X003420Y014235D01*
X003420Y014575D01*
X003420Y014521D02*
X003860Y014521D01*
X003860Y014620D02*
X002950Y014620D01*
X002950Y014521D02*
X002850Y014521D01*
X002850Y014575D02*
X002850Y014105D01*
X002510Y014105D01*
X002472Y014115D01*
X002438Y014135D01*
X002410Y014163D01*
X002390Y014197D01*
X002380Y014235D01*
X002380Y014575D01*
X002850Y014575D01*
X002850Y014620D02*
X002190Y014620D01*
X002190Y014718D02*
X002380Y014718D01*
X002380Y014817D02*
X002190Y014817D01*
X002190Y014915D02*
X002380Y014915D01*
X002380Y015014D02*
X002190Y015014D01*
X002190Y015112D02*
X002435Y015112D01*
X002551Y015211D02*
X002190Y015211D01*
X002190Y015309D02*
X002452Y015309D01*
X002406Y015408D02*
X002190Y015408D01*
X002190Y015506D02*
X002365Y015506D01*
X002360Y015605D02*
X002190Y015605D01*
X002190Y015703D02*
X002360Y015703D01*
X002389Y015802D02*
X002190Y015802D01*
X002190Y015900D02*
X002429Y015900D01*
X002510Y015999D02*
X002190Y015999D01*
X002190Y016097D02*
X002629Y016097D01*
X002566Y016196D02*
X002190Y016196D01*
X002190Y016294D02*
X002467Y016294D01*
X002412Y016393D02*
X002190Y016393D01*
X002190Y016491D02*
X002371Y016491D01*
X002360Y016590D02*
X002275Y016590D01*
X001750Y016885D02*
X000610Y016885D01*
X000610Y016787D02*
X001653Y016787D01*
X001612Y016688D02*
X000610Y016688D01*
X000610Y016590D02*
X001610Y016590D01*
X001610Y016491D02*
X000610Y016491D01*
X000610Y016393D02*
X001610Y016393D01*
X001610Y016294D02*
X000610Y016294D01*
X000610Y016196D02*
X001610Y016196D01*
X001610Y016097D02*
X000610Y016097D01*
X000610Y015999D02*
X001610Y015999D01*
X001610Y015900D02*
X000610Y015900D01*
X000610Y015802D02*
X001610Y015802D01*
X001610Y015703D02*
X000610Y015703D01*
X000610Y015605D02*
X001610Y015605D01*
X001610Y015506D02*
X000610Y015506D01*
X000610Y015408D02*
X001610Y015408D01*
X001610Y015309D02*
X000610Y015309D01*
X000610Y015211D02*
X001610Y015211D01*
X001610Y015112D02*
X000610Y015112D01*
X000610Y015014D02*
X001610Y015014D01*
X001610Y014915D02*
X000610Y014915D01*
X000610Y014817D02*
X001610Y014817D01*
X001610Y014718D02*
X000610Y014718D01*
X000610Y014620D02*
X001610Y014620D01*
X001610Y014521D02*
X000610Y014521D01*
X000610Y014423D02*
X001610Y014423D01*
X001610Y014324D02*
X000610Y014324D01*
X000610Y014226D02*
X001610Y014226D01*
X001610Y014127D02*
X000610Y014127D01*
X000610Y014029D02*
X001610Y014029D01*
X001610Y013930D02*
X000610Y013930D01*
X000610Y013832D02*
X001610Y013832D01*
X001610Y013733D02*
X000610Y013733D01*
X000610Y013635D02*
X001610Y013635D01*
X001547Y013536D02*
X000610Y013536D01*
X000610Y013438D02*
X001449Y013438D01*
X001404Y013339D02*
X000610Y013339D01*
X000610Y013241D02*
X001363Y013241D01*
X001360Y013142D02*
X000610Y013142D01*
X000610Y013044D02*
X001360Y013044D01*
X001390Y012945D02*
X000610Y012945D01*
X000610Y012847D02*
X001431Y012847D01*
X001513Y012748D02*
X000610Y012748D01*
X000610Y012650D02*
X001610Y012650D01*
X001610Y012551D02*
X000610Y012551D01*
X000610Y012453D02*
X001610Y012453D01*
X001610Y012354D02*
X000610Y012354D01*
X000610Y012256D02*
X001610Y012256D01*
X001610Y012157D02*
X000610Y012157D01*
X000610Y012059D02*
X001610Y012059D01*
X001610Y011960D02*
X000610Y011960D01*
X000610Y011862D02*
X001610Y011862D01*
X001610Y011763D02*
X000610Y011763D01*
X000610Y011665D02*
X001610Y011665D01*
X001577Y011566D02*
X000610Y011566D01*
X000610Y011468D02*
X001479Y011468D01*
X001417Y011369D02*
X000610Y011369D01*
X000610Y011271D02*
X001376Y011271D01*
X001360Y011172D02*
X000610Y011172D01*
X000610Y011074D02*
X001360Y011074D01*
X001378Y010975D02*
X000610Y010975D01*
X000610Y010877D02*
X001418Y010877D01*
X001483Y010778D02*
X000610Y010778D01*
X000610Y010680D02*
X001582Y010680D01*
X001610Y010581D02*
X000610Y010581D01*
X000610Y010483D02*
X001610Y010483D01*
X001610Y010384D02*
X000610Y010384D01*
X000610Y010286D02*
X001610Y010286D01*
X001610Y010187D02*
X000610Y010187D01*
X000610Y010089D02*
X001608Y010089D01*
X001501Y009990D02*
X000610Y009990D01*
X000610Y009892D02*
X001426Y009892D01*
X001385Y009793D02*
X000610Y009793D01*
X000610Y009695D02*
X001360Y009695D01*
X001360Y009596D02*
X000610Y009596D01*
X000610Y009498D02*
X001368Y009498D01*
X001409Y009399D02*
X000610Y009399D01*
X000610Y009301D02*
X001461Y009301D01*
X001559Y009202D02*
X000610Y009202D01*
X000610Y009104D02*
X001644Y009104D01*
X001516Y009005D02*
X000610Y009005D01*
X000610Y008907D02*
X001432Y008907D01*
X001391Y008808D02*
X000610Y008808D01*
X000610Y008710D02*
X001360Y008710D01*
X001360Y008611D02*
X000610Y008611D01*
X000610Y008513D02*
X001362Y008513D01*
X001403Y008414D02*
X000610Y008414D01*
X000610Y008316D02*
X001446Y008316D01*
X001544Y008217D02*
X000610Y008217D01*
X000610Y008119D02*
X001712Y008119D01*
X001560Y008020D02*
X000610Y008020D01*
X000610Y007922D02*
X001473Y007922D01*
X001418Y007823D02*
X000610Y007823D01*
X000610Y007725D02*
X001389Y007725D01*
X001380Y007595D02*
X001380Y007584D01*
X001393Y007503D01*
X001418Y007425D01*
X001455Y007352D01*
X001503Y007286D01*
X001561Y007228D01*
X001627Y007180D01*
X001700Y007143D01*
X001778Y007118D01*
X001859Y007105D01*
X001870Y007105D01*
X001870Y007595D01*
X001380Y007595D01*
X001389Y007528D02*
X000610Y007528D01*
X000610Y007626D02*
X001870Y007626D01*
X001930Y007626D02*
X004295Y007626D01*
X004609Y008020D02*
X005588Y008020D01*
X005489Y007922D02*
X004707Y007922D01*
X004510Y008119D02*
X005785Y008119D01*
X005601Y008217D02*
X004412Y008217D01*
X004313Y008316D02*
X005502Y008316D01*
X005446Y008414D02*
X004215Y008414D01*
X004116Y008513D02*
X005405Y008513D01*
X005400Y008611D02*
X004018Y008611D01*
X003924Y008710D02*
X005400Y008710D01*
X005435Y008808D02*
X003924Y008808D01*
X003924Y008907D02*
X005475Y008907D01*
X005573Y009005D02*
X003879Y009005D01*
X002876Y009301D02*
X002339Y009301D01*
X002381Y009875D02*
X002358Y009931D01*
X002206Y010083D01*
X002190Y010089D01*
X002190Y010661D01*
X002206Y010667D01*
X002358Y010819D01*
X002400Y010921D01*
X002442Y010819D01*
X002594Y010667D01*
X002793Y010585D01*
X003007Y010585D01*
X003063Y010608D01*
X003438Y010233D01*
X003508Y010163D01*
X003513Y010161D01*
X002975Y010161D01*
X002876Y010062D01*
X002876Y009875D01*
X002381Y009875D01*
X002374Y009892D02*
X002876Y009892D01*
X002876Y009990D02*
X002299Y009990D01*
X002192Y010089D02*
X002903Y010089D01*
X003287Y010384D02*
X002190Y010384D01*
X002190Y010286D02*
X003386Y010286D01*
X003484Y010187D02*
X002190Y010187D01*
X002190Y010483D02*
X003189Y010483D01*
X003090Y010581D02*
X002190Y010581D01*
X002218Y010680D02*
X002582Y010680D01*
X002483Y010778D02*
X002317Y010778D01*
X002382Y010877D02*
X002418Y010877D01*
X002417Y011369D02*
X002383Y011369D01*
X002321Y011468D02*
X002479Y011468D01*
X002577Y011566D02*
X002223Y011566D01*
X002190Y011665D02*
X002791Y011665D01*
X003009Y011665D02*
X005400Y011665D01*
X005408Y011763D02*
X002190Y011763D01*
X002190Y011862D02*
X005310Y011862D01*
X005211Y011960D02*
X002190Y011960D01*
X002190Y012059D02*
X005113Y012059D01*
X005426Y012453D02*
X005430Y012453D01*
X005400Y012551D02*
X005328Y012551D01*
X005400Y012650D02*
X004112Y012650D01*
X004258Y012748D02*
X005410Y012748D01*
X005451Y012847D02*
X004340Y012847D01*
X004388Y012945D02*
X005513Y012945D01*
X005611Y013044D02*
X004414Y013044D01*
X004419Y013175D02*
X004407Y013247D01*
X004382Y013325D01*
X004345Y013398D01*
X004297Y013464D01*
X004239Y013522D01*
X004173Y013570D01*
X004100Y013607D01*
X004022Y013632D01*
X003950Y013644D01*
X003950Y013175D01*
X004419Y013175D01*
X004408Y013241D02*
X005613Y013241D01*
X005587Y013259D02*
X005648Y013214D01*
X005716Y013180D01*
X005788Y013157D01*
X005861Y013145D01*
X005861Y013586D01*
X005939Y013586D01*
X005939Y013664D01*
X006380Y013664D01*
X006368Y013737D01*
X006345Y013809D01*
X006311Y013877D01*
X006266Y013938D01*
X006213Y013991D01*
X006152Y014036D01*
X006084Y014070D01*
X006012Y014093D01*
X005939Y014105D01*
X005939Y013664D01*
X005861Y013664D01*
X005861Y014105D01*
X005788Y014093D01*
X005716Y014070D01*
X005648Y014036D01*
X005587Y013991D01*
X005534Y013938D01*
X005489Y013877D01*
X005455Y013809D01*
X005432Y013737D01*
X005420Y013664D01*
X005861Y013664D01*
X005861Y013586D01*
X005420Y013586D01*
X005432Y013513D01*
X005455Y013441D01*
X005489Y013373D01*
X005534Y013312D01*
X005587Y013259D01*
X005514Y013339D02*
X004375Y013339D01*
X004316Y013438D02*
X005457Y013438D01*
X005428Y013536D02*
X004219Y013536D01*
X004007Y013635D02*
X005861Y013635D01*
X005939Y013635D02*
X007150Y013635D01*
X007150Y013733D02*
X006369Y013733D01*
X006333Y013832D02*
X007150Y013832D01*
X007150Y013930D02*
X006272Y013930D01*
X006161Y014029D02*
X007150Y014029D01*
X007150Y014127D02*
X006004Y014127D01*
X005939Y014029D02*
X005861Y014029D01*
X005861Y013930D02*
X005939Y013930D01*
X005939Y013832D02*
X005861Y013832D01*
X005861Y013733D02*
X005939Y013733D01*
X005939Y013586D02*
X006380Y013586D01*
X006368Y013513D01*
X006345Y013441D01*
X006311Y013373D01*
X006266Y013312D01*
X006213Y013259D01*
X006152Y013214D01*
X006084Y013180D01*
X006012Y013157D01*
X005939Y013145D01*
X005939Y013586D01*
X005939Y013536D02*
X005861Y013536D01*
X005861Y013438D02*
X005939Y013438D01*
X005939Y013339D02*
X005861Y013339D01*
X005861Y013241D02*
X005939Y013241D01*
X006187Y013241D02*
X007150Y013241D01*
X007150Y013339D02*
X006286Y013339D01*
X006343Y013438D02*
X007150Y013438D01*
X007150Y013536D02*
X006372Y013536D01*
X006189Y013044D02*
X007150Y013044D01*
X007150Y013142D02*
X003950Y013142D01*
X003950Y013241D02*
X003850Y013241D01*
X003850Y013339D02*
X003950Y013339D01*
X003950Y013438D02*
X003850Y013438D01*
X003850Y013536D02*
X003950Y013536D01*
X003950Y013635D02*
X003850Y013635D01*
X003793Y013635D02*
X003081Y013635D01*
X003253Y013536D02*
X003581Y013536D01*
X003484Y013438D02*
X003351Y013438D01*
X003396Y013339D02*
X003425Y013339D01*
X002719Y013635D02*
X002190Y013635D01*
X002190Y013733D02*
X005431Y013733D01*
X005467Y013832D02*
X002190Y013832D01*
X002190Y013930D02*
X005528Y013930D01*
X005639Y014029D02*
X002190Y014029D01*
X002190Y014127D02*
X002452Y014127D01*
X002383Y014226D02*
X002190Y014226D01*
X002190Y014324D02*
X002380Y014324D01*
X002380Y014423D02*
X002190Y014423D01*
X002190Y014521D02*
X002380Y014521D01*
X002850Y014423D02*
X002950Y014423D01*
X002950Y014324D02*
X002850Y014324D01*
X002850Y014226D02*
X002950Y014226D01*
X002950Y014127D02*
X002850Y014127D01*
X003348Y014127D02*
X004191Y014127D01*
X004036Y014226D02*
X003417Y014226D01*
X003420Y014324D02*
X003940Y014324D01*
X003899Y014423D02*
X003420Y014423D01*
X002547Y013536D02*
X002253Y013536D01*
X002351Y013438D02*
X002449Y013438D01*
X002404Y013339D02*
X002396Y013339D01*
X002369Y012847D02*
X002431Y012847D01*
X002513Y012748D02*
X002287Y012748D01*
X002190Y012650D02*
X002637Y012650D01*
X002660Y012551D02*
X002190Y012551D01*
X002190Y012453D02*
X002719Y012453D01*
X002817Y012354D02*
X002190Y012354D01*
X002190Y012256D02*
X002916Y012256D01*
X003023Y012157D02*
X002190Y012157D01*
X003223Y011566D02*
X003622Y011566D01*
X003507Y011468D02*
X003321Y011468D01*
X003383Y011369D02*
X003441Y011369D01*
X005720Y012158D02*
X005801Y012125D01*
X005999Y012125D01*
X005801Y012125D01*
X005767Y012111D01*
X005720Y012158D01*
X005722Y012157D02*
X005723Y012157D01*
X006077Y012157D02*
X007150Y012157D01*
X007150Y012059D02*
X006160Y012059D01*
X006272Y011960D02*
X007150Y011960D01*
X007150Y011862D02*
X006343Y011862D01*
X006384Y011763D02*
X007150Y011763D01*
X007150Y011665D02*
X006400Y011665D01*
X006400Y011566D02*
X007150Y011566D01*
X007150Y011468D02*
X006376Y011468D01*
X006335Y011369D02*
X007150Y011369D01*
X007150Y011271D02*
X006253Y011271D01*
X006238Y012256D02*
X007150Y012256D01*
X007150Y012354D02*
X006329Y012354D01*
X006370Y012453D02*
X007150Y012453D01*
X007150Y012551D02*
X006400Y012551D01*
X006400Y012650D02*
X007150Y012650D01*
X007150Y012748D02*
X006390Y012748D01*
X006349Y012847D02*
X007150Y012847D01*
X007150Y012945D02*
X006287Y012945D01*
X005796Y014127D02*
X004609Y014127D01*
X004764Y014226D02*
X005592Y014226D01*
X005494Y014324D02*
X004860Y014324D01*
X004901Y014423D02*
X005443Y014423D01*
X005402Y014521D02*
X004940Y014521D01*
X004940Y014620D02*
X005400Y014620D01*
X005400Y014718D02*
X004940Y014718D01*
X004905Y014817D02*
X005438Y014817D01*
X005483Y014915D02*
X004864Y014915D01*
X004775Y015014D02*
X005581Y015014D01*
X006208Y014226D02*
X007150Y014226D01*
X007150Y014324D02*
X006306Y014324D01*
X006357Y014423D02*
X007150Y014423D01*
X007150Y014521D02*
X006398Y014521D01*
X006400Y014620D02*
X007150Y014620D01*
X007150Y014718D02*
X006400Y014718D01*
X006362Y014817D02*
X007150Y014817D01*
X007150Y014915D02*
X006317Y014915D01*
X004400Y017625D02*
X004400Y017676D01*
X004349Y017625D01*
X004530Y018166D02*
X002152Y018166D01*
X002236Y018067D02*
X002578Y018067D01*
X002480Y017969D02*
X002277Y017969D01*
X002317Y017870D02*
X002417Y017870D01*
X002376Y017772D02*
X002342Y017772D01*
X002342Y017673D02*
X002360Y017673D01*
X002360Y017575D02*
X002342Y017575D01*
X002328Y017476D02*
X002341Y017476D01*
X002053Y018264D02*
X004629Y018264D01*
X004727Y018363D02*
X001873Y018363D01*
X001289Y018363D02*
X001005Y018363D01*
X000907Y018264D02*
X001109Y018264D01*
X001011Y018166D02*
X000808Y018166D01*
X000710Y018067D02*
X000926Y018067D01*
X000886Y017969D02*
X000611Y017969D01*
X000610Y017870D02*
X000845Y017870D01*
X000821Y017772D02*
X000610Y017772D01*
X000610Y017673D02*
X000821Y017673D01*
X000821Y017575D02*
X000610Y017575D01*
X000610Y017476D02*
X000834Y017476D01*
X000875Y017378D02*
X000610Y017378D01*
X000610Y017279D02*
X000916Y017279D01*
X000985Y017181D02*
X000610Y017181D01*
X000610Y017082D02*
X001084Y017082D01*
X001228Y016984D02*
X000610Y016984D01*
X003222Y018067D02*
X003881Y018067D01*
X003876Y017969D02*
X003320Y017969D01*
X009190Y015999D02*
X011598Y015999D01*
X011507Y015900D02*
X009190Y015900D01*
X009190Y015802D02*
X011453Y015802D01*
X011426Y015703D02*
X009190Y015703D01*
X013859Y014226D02*
X013946Y014226D01*
X015370Y015211D02*
X015430Y015211D01*
X015430Y015309D02*
X015370Y015309D01*
X015714Y015211D02*
X015938Y015211D01*
X015938Y015309D02*
X015813Y015309D01*
X015873Y015408D02*
X015938Y015408D01*
X015938Y015506D02*
X015908Y015506D01*
X015430Y015703D02*
X015370Y015703D01*
X015370Y015802D02*
X015430Y015802D01*
X015430Y015900D02*
X015370Y015900D01*
X015370Y015999D02*
X015430Y015999D01*
X015430Y016097D02*
X015370Y016097D01*
X015181Y016097D02*
X014671Y016097D01*
X014790Y015999D02*
X015038Y015999D01*
X014957Y015900D02*
X014871Y015900D01*
X014614Y016984D02*
X013924Y016984D01*
X013904Y017082D02*
X014470Y017082D01*
X015527Y012157D02*
X015938Y012157D01*
X015938Y012059D02*
X015730Y012059D01*
X015829Y011960D02*
X015938Y011960D01*
X015938Y011862D02*
X015887Y011862D01*
X015927Y011763D02*
X015938Y011763D01*
X015932Y009498D02*
X015938Y009498D01*
X015938Y009399D02*
X015891Y009399D01*
X015938Y009301D02*
X015839Y009301D01*
X015741Y009202D02*
X015938Y009202D01*
X015938Y009104D02*
X015874Y009104D01*
X015920Y009005D02*
X015938Y009005D01*
X015938Y008907D02*
X015920Y008907D01*
X015920Y008808D02*
X015938Y008808D01*
X015938Y008710D02*
X015920Y008710D01*
X015938Y008611D02*
X015450Y008611D01*
X015450Y008575D02*
X015920Y008575D01*
X015920Y008235D01*
X015910Y008197D01*
X015890Y008163D01*
X015862Y008135D01*
X015828Y008115D01*
X015790Y008105D01*
X015450Y008105D01*
X015450Y008575D01*
X015450Y008513D02*
X015350Y008513D01*
X015350Y008575D02*
X015350Y008105D01*
X015010Y008105D01*
X014972Y008115D01*
X014938Y008135D01*
X014910Y008163D01*
X014890Y008197D01*
X014880Y008235D01*
X014880Y008575D01*
X015350Y008575D01*
X015350Y008611D02*
X013824Y008611D01*
X013923Y008513D02*
X014880Y008513D01*
X014880Y008414D02*
X014021Y008414D01*
X014120Y008316D02*
X014880Y008316D01*
X014885Y008217D02*
X014218Y008217D01*
X014317Y008119D02*
X014966Y008119D01*
X015350Y008119D02*
X015450Y008119D01*
X015450Y008217D02*
X015350Y008217D01*
X015350Y008316D02*
X015450Y008316D01*
X015450Y008414D02*
X015350Y008414D01*
X015834Y008119D02*
X015938Y008119D01*
X015938Y008217D02*
X015915Y008217D01*
X015920Y008316D02*
X015938Y008316D01*
X015938Y008414D02*
X015920Y008414D01*
X015920Y008513D02*
X015938Y008513D01*
X015938Y008020D02*
X014415Y008020D01*
X014514Y007922D02*
X015938Y007922D01*
X015938Y007823D02*
X014612Y007823D01*
X014711Y007725D02*
X015938Y007725D01*
X015938Y007626D02*
X014809Y007626D01*
X014908Y007528D02*
X015938Y007528D01*
X015938Y007429D02*
X015006Y007429D01*
X015105Y007331D02*
X015938Y007331D01*
X015938Y007232D02*
X015203Y007232D01*
X015302Y007134D02*
X015938Y007134D01*
X015938Y007035D02*
X015400Y007035D01*
X015499Y006937D02*
X015938Y006937D01*
X015938Y006838D02*
X015597Y006838D01*
X015666Y006740D02*
X015938Y006740D01*
X015938Y006641D02*
X015690Y006641D01*
X015746Y006543D02*
X015938Y006543D01*
X015938Y006444D02*
X015845Y006444D01*
X015893Y006346D02*
X015938Y006346D01*
X015934Y006247D02*
X015938Y006247D01*
X015110Y005661D02*
X015110Y004589D01*
X015094Y004583D01*
X014942Y004431D01*
X014900Y004329D01*
X014858Y004431D01*
X014706Y004583D01*
X014650Y004606D01*
X014650Y004925D01*
X014612Y005017D01*
X014292Y005337D01*
X014200Y005375D01*
X012504Y005375D01*
X012386Y005492D01*
X012400Y005526D01*
X012400Y005724D01*
X012324Y005908D01*
X012183Y006049D01*
X011999Y006125D01*
X011801Y006125D01*
X011999Y006125D01*
X012183Y006201D01*
X012324Y006342D01*
X012400Y006526D01*
X012400Y006724D01*
X012325Y006905D01*
X013809Y006905D01*
X014120Y006594D01*
X014094Y006583D01*
X013942Y006431D01*
X013889Y006303D01*
X013882Y006325D01*
X013845Y006398D01*
X013797Y006464D01*
X013739Y006522D01*
X013673Y006570D01*
X013600Y006607D01*
X013522Y006632D01*
X013450Y006644D01*
X013450Y006175D01*
X013350Y006175D01*
X013350Y006644D01*
X013278Y006632D01*
X013200Y006607D01*
X013127Y006570D01*
X013061Y006522D01*
X013003Y006464D01*
X012955Y006398D01*
X012918Y006325D01*
X012893Y006247D01*
X012229Y006247D01*
X012325Y006346D02*
X012929Y006346D01*
X012893Y006247D02*
X012881Y006175D01*
X013350Y006175D01*
X013350Y006075D01*
X013450Y006075D01*
X013450Y005606D01*
X013522Y005618D01*
X013600Y005643D01*
X013673Y005680D01*
X013739Y005728D01*
X013797Y005786D01*
X013845Y005852D01*
X013882Y005925D01*
X013889Y005947D01*
X013942Y005819D01*
X014094Y005667D01*
X014293Y005585D01*
X014507Y005585D01*
X014706Y005667D01*
X014858Y005819D01*
X014900Y005921D01*
X014942Y005819D01*
X015094Y005667D01*
X015110Y005661D01*
X015110Y005656D02*
X014679Y005656D01*
X014793Y005755D02*
X015007Y005755D01*
X014928Y005853D02*
X014872Y005853D01*
X015110Y005558D02*
X012400Y005558D01*
X012400Y005656D02*
X013175Y005656D01*
X013200Y005643D02*
X013278Y005618D01*
X013350Y005606D01*
X013350Y006075D01*
X012881Y006075D01*
X012893Y006003D01*
X012918Y005925D01*
X012955Y005852D01*
X013003Y005786D01*
X013061Y005728D01*
X013127Y005680D01*
X013200Y005643D01*
X013350Y005656D02*
X013450Y005656D01*
X013450Y005755D02*
X013350Y005755D01*
X013350Y005853D02*
X013450Y005853D01*
X013450Y005952D02*
X013350Y005952D01*
X013350Y006050D02*
X013450Y006050D01*
X013350Y006149D02*
X012056Y006149D01*
X012180Y006050D02*
X012885Y006050D01*
X012910Y005952D02*
X012281Y005952D01*
X012347Y005853D02*
X012955Y005853D01*
X013035Y005755D02*
X012388Y005755D01*
X012420Y005459D02*
X015110Y005459D01*
X015110Y005361D02*
X014235Y005361D01*
X014367Y005262D02*
X015110Y005262D01*
X015110Y005164D02*
X014465Y005164D01*
X014564Y005065D02*
X015110Y005065D01*
X015110Y004967D02*
X014633Y004967D01*
X014650Y004868D02*
X015110Y004868D01*
X015110Y004770D02*
X014650Y004770D01*
X014650Y004671D02*
X015110Y004671D01*
X015084Y004573D02*
X014716Y004573D01*
X014815Y004474D02*
X014985Y004474D01*
X014919Y004376D02*
X014881Y004376D01*
X014900Y003921D02*
X014858Y003819D01*
X014706Y003667D01*
X014507Y003585D01*
X014293Y003585D01*
X014094Y003667D01*
X013942Y003819D01*
X013889Y003947D01*
X013882Y003925D01*
X013845Y003852D01*
X013797Y003786D01*
X013739Y003728D01*
X013673Y003680D01*
X013600Y003643D01*
X013522Y003618D01*
X013450Y003606D01*
X013450Y004075D01*
X013350Y004075D01*
X013350Y003606D01*
X013278Y003618D01*
X013200Y003643D01*
X013127Y003680D01*
X013061Y003728D01*
X013003Y003786D01*
X012955Y003852D01*
X012918Y003925D01*
X012893Y004003D01*
X012881Y004075D01*
X013350Y004075D01*
X013350Y004175D01*
X013350Y004644D01*
X013278Y004632D01*
X013200Y004607D01*
X013127Y004570D01*
X013061Y004522D01*
X013003Y004464D01*
X012955Y004398D01*
X012918Y004325D01*
X012893Y004247D01*
X012881Y004175D01*
X013350Y004175D01*
X013450Y004175D01*
X013450Y004644D01*
X013522Y004632D01*
X013600Y004607D01*
X013673Y004570D01*
X013739Y004522D01*
X013797Y004464D01*
X013845Y004398D01*
X013882Y004325D01*
X013889Y004303D01*
X013942Y004431D01*
X014094Y004583D01*
X014150Y004606D01*
X014150Y004771D01*
X014046Y004875D01*
X012350Y004875D01*
X012335Y004881D01*
X012400Y004724D01*
X012400Y004526D01*
X012324Y004342D01*
X012183Y004201D01*
X011999Y004125D01*
X011801Y004125D01*
X011999Y004125D01*
X012183Y004049D01*
X012324Y003908D01*
X012400Y003724D01*
X012400Y003526D01*
X012324Y003342D01*
X012183Y003201D01*
X011999Y003125D01*
X011801Y003125D01*
X011617Y003049D01*
X011476Y002908D01*
X011400Y002724D01*
X011400Y002526D01*
X011476Y002342D01*
X011617Y002201D01*
X011801Y002125D01*
X011999Y002125D01*
X012183Y002201D01*
X012324Y002342D01*
X012400Y002526D01*
X012400Y002724D01*
X012324Y002908D01*
X012183Y003049D01*
X011999Y003125D01*
X011801Y003125D01*
X011617Y003201D01*
X011523Y003295D01*
X010787Y003295D01*
X008837Y001345D01*
X008812Y001335D01*
X015274Y001335D01*
X015938Y001999D01*
X015938Y004013D01*
X015858Y003819D01*
X015706Y003667D01*
X015507Y003585D01*
X015293Y003585D01*
X015094Y003667D01*
X014942Y003819D01*
X014900Y003921D01*
X014884Y003883D02*
X014916Y003883D01*
X014977Y003785D02*
X014823Y003785D01*
X014725Y003686D02*
X015075Y003686D01*
X015287Y003588D02*
X014513Y003588D01*
X014287Y003588D02*
X012400Y003588D01*
X012400Y003686D02*
X013120Y003686D01*
X013005Y003785D02*
X012375Y003785D01*
X012334Y003883D02*
X012940Y003883D01*
X012900Y003982D02*
X012251Y003982D01*
X012108Y004080D02*
X013350Y004080D01*
X013350Y003982D02*
X013450Y003982D01*
X013450Y003883D02*
X013350Y003883D01*
X013350Y003785D02*
X013450Y003785D01*
X013450Y003686D02*
X013350Y003686D01*
X013680Y003686D02*
X014075Y003686D01*
X013977Y003785D02*
X013795Y003785D01*
X013860Y003883D02*
X013916Y003883D01*
X013919Y004376D02*
X013856Y004376D01*
X013786Y004474D02*
X013985Y004474D01*
X014084Y004573D02*
X013667Y004573D01*
X013450Y004573D02*
X013350Y004573D01*
X013350Y004474D02*
X013450Y004474D01*
X013450Y004376D02*
X013350Y004376D01*
X013350Y004277D02*
X013450Y004277D01*
X013450Y004179D02*
X013350Y004179D01*
X013014Y004474D02*
X012379Y004474D01*
X012400Y004573D02*
X013133Y004573D01*
X012944Y004376D02*
X012338Y004376D01*
X012259Y004277D02*
X012903Y004277D01*
X012882Y004179D02*
X012129Y004179D01*
X011692Y004080D02*
X006108Y004080D01*
X006129Y004179D02*
X011671Y004179D01*
X011541Y004277D02*
X006259Y004277D01*
X006338Y004376D02*
X011462Y004376D01*
X011421Y004474D02*
X006379Y004474D01*
X006400Y004573D02*
X011400Y004573D01*
X011400Y004671D02*
X006400Y004671D01*
X006381Y004770D02*
X011419Y004770D01*
X011459Y004868D02*
X006341Y004868D01*
X006266Y004967D02*
X011534Y004967D01*
X011656Y005065D02*
X006144Y005065D01*
X006092Y005164D02*
X011708Y005164D01*
X011801Y005125D02*
X011999Y005125D01*
X012080Y005092D01*
X012033Y005139D01*
X011999Y005125D01*
X011801Y005125D01*
X011556Y005262D02*
X006244Y005262D01*
X006332Y005361D02*
X011468Y005361D01*
X011428Y005459D02*
X006372Y005459D01*
X006400Y005558D02*
X011400Y005558D01*
X011400Y005656D02*
X006400Y005656D01*
X006388Y005755D02*
X011412Y005755D01*
X011453Y005853D02*
X006347Y005853D01*
X006281Y005952D02*
X011519Y005952D01*
X011620Y006050D02*
X006180Y006050D01*
X006056Y006149D02*
X011744Y006149D01*
X011571Y006247D02*
X006229Y006247D01*
X006325Y006346D02*
X011475Y006346D01*
X011900Y006625D02*
X010650Y006625D01*
X010400Y006875D01*
X010400Y007875D01*
X010541Y008217D02*
X011601Y008217D01*
X011588Y008020D02*
X010740Y008020D01*
X010770Y007922D02*
X011489Y007922D01*
X011441Y007823D02*
X010770Y007823D01*
X010738Y007725D02*
X011400Y007725D01*
X011400Y007626D02*
X010674Y007626D01*
X010620Y007528D02*
X011400Y007528D01*
X011369Y007429D02*
X011440Y007429D01*
X011150Y007125D02*
X013900Y007125D01*
X014400Y006625D01*
X014400Y006125D01*
X014893Y006346D02*
X014907Y006346D01*
X014955Y006444D02*
X014845Y006444D01*
X014746Y006543D02*
X015054Y006543D01*
X014974Y006641D02*
X014620Y006641D01*
X014597Y006740D02*
X014875Y006740D01*
X014777Y006838D02*
X014498Y006838D01*
X014400Y006937D02*
X014678Y006937D01*
X014580Y007035D02*
X014301Y007035D01*
X014203Y007134D02*
X014481Y007134D01*
X014383Y007232D02*
X014104Y007232D01*
X014006Y007331D02*
X014284Y007331D01*
X014186Y007429D02*
X012360Y007429D01*
X012400Y007528D02*
X014087Y007528D01*
X013989Y007626D02*
X012400Y007626D01*
X011785Y008119D02*
X010680Y008119D01*
X010620Y007429D02*
X010931Y007429D01*
X010835Y007331D02*
X010620Y007331D01*
X010620Y007232D02*
X010794Y007232D01*
X010780Y007134D02*
X010620Y007134D01*
X010620Y007035D02*
X010787Y007035D01*
X010828Y006937D02*
X010650Y006937D01*
X010323Y006641D02*
X006400Y006641D01*
X006400Y006543D02*
X010421Y006543D01*
X010520Y006444D02*
X006366Y006444D01*
X004950Y006444D02*
X004850Y006444D01*
X004850Y006346D02*
X004950Y006346D01*
X004850Y006726D02*
X004435Y006726D01*
X004435Y006972D01*
X004445Y007010D01*
X004465Y007044D01*
X004493Y007072D01*
X004527Y007092D01*
X004565Y007102D01*
X004850Y007102D01*
X004850Y006726D01*
X004850Y006740D02*
X004950Y006740D01*
X004950Y006838D02*
X004850Y006838D01*
X004850Y006937D02*
X004950Y006937D01*
X004950Y007035D02*
X004850Y007035D01*
X004460Y007035D02*
X004340Y007035D01*
X004365Y006937D02*
X004435Y006937D01*
X004435Y006838D02*
X004365Y006838D01*
X004365Y006740D02*
X004435Y006740D01*
X004435Y006543D02*
X004365Y006543D01*
X004365Y006444D02*
X004435Y006444D01*
X004445Y006346D02*
X004355Y006346D01*
X004353Y005952D02*
X004447Y005952D01*
X003850Y006641D02*
X003050Y006641D01*
X003238Y006543D02*
X003435Y006543D01*
X003435Y006726D02*
X003850Y006726D01*
X003850Y007102D01*
X003565Y007102D01*
X003527Y007092D01*
X003493Y007072D01*
X003465Y007044D01*
X003445Y007010D01*
X003435Y006972D01*
X003435Y006726D01*
X003435Y006740D02*
X000610Y006740D01*
X000610Y006838D02*
X003435Y006838D01*
X003435Y006937D02*
X000610Y006937D01*
X000610Y007035D02*
X003460Y007035D01*
X003850Y007035D02*
X003950Y007035D01*
X003950Y006937D02*
X003850Y006937D01*
X003850Y006838D02*
X003950Y006838D01*
X003950Y006740D02*
X003850Y006740D01*
X002750Y006641D02*
X000610Y006641D01*
X000610Y006543D02*
X001600Y006543D01*
X001496Y006444D02*
X000610Y006444D01*
X000610Y006346D02*
X001435Y006346D01*
X001399Y006247D02*
X000610Y006247D01*
X000610Y006149D02*
X001861Y006149D01*
X001861Y006247D02*
X001939Y006247D01*
X001939Y006346D02*
X001861Y006346D01*
X001861Y006444D02*
X001939Y006444D01*
X001939Y006543D02*
X001861Y006543D01*
X002200Y006543D02*
X002562Y006543D01*
X002464Y006444D02*
X002304Y006444D01*
X002365Y006346D02*
X002413Y006346D01*
X001930Y007134D02*
X001870Y007134D01*
X001870Y007232D02*
X001930Y007232D01*
X001930Y007331D02*
X001870Y007331D01*
X001870Y007429D02*
X001930Y007429D01*
X001930Y007528D02*
X001870Y007528D01*
X001870Y007725D02*
X001930Y007725D01*
X001930Y007823D02*
X001870Y007823D01*
X001870Y007922D02*
X001930Y007922D01*
X001930Y008020D02*
X001870Y008020D01*
X001417Y007429D02*
X000610Y007429D01*
X000610Y007331D02*
X001471Y007331D01*
X001558Y007232D02*
X000610Y007232D01*
X000610Y007134D02*
X001730Y007134D01*
X001391Y006050D02*
X000610Y006050D01*
X000610Y005952D02*
X001416Y005952D01*
X001462Y005853D02*
X000610Y005853D01*
X000610Y005755D02*
X001543Y005755D01*
X001688Y005656D02*
X000610Y005656D01*
X000610Y005558D02*
X001577Y005558D01*
X001479Y005459D02*
X000610Y005459D01*
X000610Y005361D02*
X001419Y005361D01*
X001379Y005262D02*
X000610Y005262D01*
X000610Y005164D02*
X001366Y005164D01*
X001366Y005065D02*
X000610Y005065D01*
X000610Y004967D02*
X001387Y004967D01*
X001428Y004868D02*
X000610Y004868D01*
X000610Y004770D02*
X001500Y004770D01*
X001600Y004671D02*
X000610Y004671D01*
X000610Y004573D02*
X001592Y004573D01*
X001494Y004474D02*
X000610Y004474D01*
X000610Y004376D02*
X001426Y004376D01*
X001385Y004277D02*
X000610Y004277D01*
X000610Y004179D02*
X001366Y004179D01*
X001366Y004080D02*
X000610Y004080D01*
X000610Y003982D02*
X001381Y003982D01*
X001422Y003883D02*
X000610Y003883D01*
X000610Y003785D02*
X001485Y003785D01*
X001584Y003686D02*
X000610Y003686D01*
X000610Y003588D02*
X001621Y003588D01*
X001509Y003489D02*
X000610Y003489D01*
X000610Y003391D02*
X001432Y003391D01*
X001391Y003292D02*
X000610Y003292D01*
X000610Y003194D02*
X001366Y003194D01*
X001366Y003095D02*
X000610Y003095D01*
X000610Y002997D02*
X001375Y002997D01*
X001416Y002898D02*
X000610Y002898D01*
X000610Y002800D02*
X001470Y002800D01*
X001569Y002701D02*
X000610Y002701D01*
X000610Y002603D02*
X001766Y002603D01*
X002034Y002603D02*
X002069Y002603D01*
X002167Y002504D02*
X000610Y002504D01*
X000610Y002406D02*
X002266Y002406D01*
X002364Y002307D02*
X000610Y002307D01*
X000610Y002209D02*
X002463Y002209D01*
X002561Y002110D02*
X000610Y002110D01*
X000610Y002012D02*
X002660Y002012D01*
X002759Y001913D02*
X000610Y001913D01*
X000610Y001815D02*
X003937Y001815D01*
X006072Y003095D02*
X009653Y003095D01*
X009555Y002997D02*
X006236Y002997D01*
X006328Y002898D02*
X009456Y002898D01*
X009358Y002800D02*
X006369Y002800D01*
X006400Y002701D02*
X009259Y002701D01*
X009161Y002603D02*
X006400Y002603D01*
X006391Y002504D02*
X009062Y002504D01*
X008964Y002406D02*
X006350Y002406D01*
X006289Y002307D02*
X008865Y002307D01*
X008767Y002209D02*
X006191Y002209D01*
X006165Y003194D02*
X009752Y003194D01*
X009850Y003292D02*
X006274Y003292D01*
X006344Y003391D02*
X009949Y003391D01*
X010047Y003489D02*
X006385Y003489D01*
X006400Y003588D02*
X010146Y003588D01*
X010244Y003686D02*
X006400Y003686D01*
X006375Y003785D02*
X010343Y003785D01*
X010441Y003883D02*
X006334Y003883D01*
X006251Y003982D02*
X011549Y003982D01*
X011526Y003292D02*
X010784Y003292D01*
X010685Y003194D02*
X011635Y003194D01*
X011728Y003095D02*
X010587Y003095D01*
X010488Y002997D02*
X011564Y002997D01*
X011472Y002898D02*
X010390Y002898D01*
X010291Y002800D02*
X011431Y002800D01*
X011400Y002701D02*
X010193Y002701D01*
X010094Y002603D02*
X011400Y002603D01*
X011409Y002504D02*
X009996Y002504D01*
X009897Y002406D02*
X011450Y002406D01*
X011511Y002307D02*
X009799Y002307D01*
X009700Y002209D02*
X011609Y002209D01*
X012191Y002209D02*
X014206Y002209D01*
X014206Y002155D02*
X014322Y001875D01*
X014536Y001661D01*
X014816Y001546D01*
X015118Y001546D01*
X015398Y001661D01*
X015612Y001875D01*
X015727Y002155D01*
X015727Y002457D01*
X015612Y002737D01*
X015398Y002951D01*
X015118Y003067D01*
X014816Y003067D01*
X014536Y002951D01*
X014322Y002737D01*
X014206Y002457D01*
X014206Y002155D01*
X014225Y002110D02*
X009602Y002110D01*
X009503Y002012D02*
X014266Y002012D01*
X014307Y001913D02*
X009405Y001913D01*
X009306Y001815D02*
X014383Y001815D01*
X014481Y001716D02*
X009208Y001716D01*
X009109Y001618D02*
X014642Y001618D01*
X015292Y001618D02*
X015556Y001618D01*
X015655Y001716D02*
X015452Y001716D01*
X015551Y001815D02*
X015753Y001815D01*
X015852Y001913D02*
X015627Y001913D01*
X015668Y002012D02*
X015938Y002012D01*
X015938Y002110D02*
X015709Y002110D01*
X015727Y002209D02*
X015938Y002209D01*
X015938Y002307D02*
X015727Y002307D01*
X015727Y002406D02*
X015938Y002406D01*
X015938Y002504D02*
X015708Y002504D01*
X015667Y002603D02*
X015938Y002603D01*
X015938Y002701D02*
X015627Y002701D01*
X015549Y002800D02*
X015938Y002800D01*
X015938Y002898D02*
X015451Y002898D01*
X015288Y002997D02*
X015938Y002997D01*
X015938Y003095D02*
X012072Y003095D01*
X012165Y003194D02*
X015938Y003194D01*
X015938Y003292D02*
X012274Y003292D01*
X012344Y003391D02*
X015938Y003391D01*
X015938Y003489D02*
X012385Y003489D01*
X012236Y002997D02*
X014646Y002997D01*
X014483Y002898D02*
X012328Y002898D01*
X012369Y002800D02*
X014385Y002800D01*
X014307Y002701D02*
X012400Y002701D01*
X012400Y002603D02*
X014266Y002603D01*
X014226Y002504D02*
X012391Y002504D01*
X012350Y002406D02*
X014206Y002406D01*
X014206Y002307D02*
X012289Y002307D01*
X012400Y004671D02*
X014150Y004671D01*
X014150Y004770D02*
X012381Y004770D01*
X012341Y004868D02*
X014053Y004868D01*
X014121Y005656D02*
X013625Y005656D01*
X013765Y005755D02*
X014007Y005755D01*
X013928Y005853D02*
X013845Y005853D01*
X013450Y006247D02*
X013350Y006247D01*
X013350Y006346D02*
X013450Y006346D01*
X013450Y006444D02*
X013350Y006444D01*
X013350Y006543D02*
X013450Y006543D01*
X013450Y006641D02*
X013350Y006641D01*
X013334Y006641D02*
X012400Y006641D01*
X012400Y006543D02*
X013090Y006543D01*
X012989Y006444D02*
X012366Y006444D01*
X012394Y006740D02*
X013974Y006740D01*
X013876Y006838D02*
X012353Y006838D01*
X013466Y006641D02*
X014073Y006641D01*
X014054Y006543D02*
X013710Y006543D01*
X013811Y006444D02*
X013955Y006444D01*
X013907Y006346D02*
X013871Y006346D01*
X015925Y003982D02*
X015938Y003982D01*
X015938Y003883D02*
X015884Y003883D01*
X015938Y003785D02*
X015823Y003785D01*
X015725Y003686D02*
X015938Y003686D01*
X015938Y003588D02*
X015513Y003588D01*
X015458Y001519D02*
X009011Y001519D01*
X008912Y001421D02*
X015359Y001421D01*
D19*
X011150Y007125D03*
X010400Y007875D03*
X012900Y008125D03*
X013900Y010125D03*
X013900Y011125D03*
X012900Y011375D03*
X013900Y012625D03*
X010650Y014625D03*
X009150Y018375D03*
X013400Y018375D03*
X003650Y018375D03*
X002650Y010125D03*
X004150Y002125D03*
D20*
X001900Y009625D02*
X001900Y011125D01*
X001900Y013125D01*
X001900Y016625D01*
X002900Y017625D01*
X004349Y017625D01*
X004400Y017625D02*
X004900Y018125D01*
X007900Y018125D01*
X008900Y017125D01*
X008900Y015125D01*
X010400Y013625D01*
X011900Y013625D01*
X013400Y012125D01*
X013400Y008875D01*
X013400Y008625D01*
X015400Y006625D01*
X015400Y006125D01*
X015400Y004125D01*
X012900Y008125D02*
X012900Y011375D01*
D21*
X014400Y013625D02*
X014400Y014125D01*
X013900Y014625D01*
X013451Y014625D01*
X013400Y014676D01*
X013201Y014875D01*
X014400Y015625D02*
X014400Y016375D01*
X014099Y016676D01*
X013400Y016676D01*
X007400Y017125D02*
X007400Y008125D01*
X005900Y006625D01*
X005900Y007625D02*
X004650Y007625D01*
X003701Y008574D01*
X003400Y008574D01*
X003349Y008625D01*
X001900Y008625D01*
X001900Y009625D02*
X003349Y009625D01*
X003400Y009676D01*
X003650Y010375D02*
X005400Y010375D01*
X005650Y010625D01*
X005900Y010625D01*
X005900Y011625D02*
X005150Y012375D01*
X003150Y012375D01*
X002900Y012625D01*
X002900Y013125D01*
X002900Y011125D02*
X003650Y010375D01*
X004400Y016574D02*
X004849Y016574D01*
X005900Y017625D01*
X006900Y017625D01*
X007400Y017125D01*
X004400Y016625D02*
X003349Y016625D01*
X002900Y016625D01*
X011900Y005625D02*
X012400Y005125D01*
X014150Y005125D01*
X014400Y004875D01*
X014400Y004125D01*
X004150Y002125D02*
X002900Y002125D01*
X001900Y003125D01*
D22*
X003900Y005574D02*
X004900Y005574D01*
X004900Y002375D01*
X005650Y001625D01*
X008650Y001625D01*
X010650Y003625D01*
X011900Y003625D01*
X003900Y005574D02*
X003349Y006125D01*
X002900Y006125D01*
M02*
