G75*
%MOIN*%
%OFA0B0*%
%FSLAX24Y24*%
%IPPOS*%
%LPD*%
%AMOC8*
5,1,8,0,0,1.08239X$1,22.5*
%
%ADD10C,0.0080*%
%ADD11C,0.0050*%
%ADD12C,0.0060*%
%ADD13C,0.0000*%
%ADD14C,0.0030*%
%ADD15C,0.0040*%
%ADD16C,0.0008*%
%ADD17C,0.0010*%
%ADD18C,0.0100*%
D10*
X000400Y001125D02*
X000400Y018054D01*
X001187Y018842D01*
X015361Y018842D01*
X016148Y018054D01*
X016148Y001912D01*
X015361Y001125D01*
X000400Y001125D01*
X003585Y005141D02*
X003428Y005298D01*
X003428Y005731D01*
X003585Y005141D02*
X004215Y005141D01*
X004372Y005298D01*
X004372Y005731D01*
X004428Y005731D02*
X004428Y005298D01*
X004585Y005141D01*
X005215Y005141D01*
X005372Y005298D01*
X005372Y005731D01*
X005372Y006519D02*
X005372Y007109D01*
X004428Y007109D01*
X004428Y006519D01*
X004372Y006519D02*
X004372Y007109D01*
X003428Y007109D01*
X003428Y006519D01*
X002550Y007800D02*
X002550Y009450D01*
X000900Y008875D02*
X000888Y008809D01*
X000879Y008743D01*
X000874Y008677D01*
X000873Y008610D01*
X000876Y008543D01*
X000883Y008477D01*
X000893Y008411D01*
X000907Y008346D01*
X000925Y008281D01*
X000947Y008218D01*
X000973Y008156D01*
X001001Y008096D01*
X001034Y008038D01*
X001069Y007981D01*
X001108Y007927D01*
X001150Y007875D01*
X000900Y008875D02*
X000916Y008936D01*
X000934Y008996D01*
X000956Y009054D01*
X000981Y009112D01*
X001009Y009168D01*
X001040Y009223D01*
X001074Y009275D01*
X001111Y009326D01*
X001150Y009375D01*
X000900Y008875D02*
X000888Y008813D01*
X000880Y008751D01*
X000875Y008688D01*
X000873Y008625D01*
X000875Y008562D01*
X000880Y008499D01*
X000888Y008437D01*
X000900Y008375D01*
X001650Y010625D02*
X001400Y010875D01*
X001400Y011375D01*
X001650Y011625D01*
X002150Y011625D01*
X002400Y011375D01*
X002650Y011625D01*
X003150Y011625D01*
X003400Y011375D01*
X003650Y011625D01*
X004150Y011625D01*
X004400Y011375D01*
X004400Y010875D01*
X004150Y010625D01*
X003650Y010625D01*
X003400Y010875D01*
X003150Y010625D01*
X002650Y010625D01*
X002400Y010875D01*
X002150Y010625D01*
X001650Y010625D01*
X001650Y012625D02*
X001400Y012875D01*
X001400Y013375D01*
X001650Y013625D01*
X002150Y013625D01*
X002400Y013375D01*
X002650Y013625D01*
X003150Y013625D01*
X003400Y013375D01*
X003650Y013625D01*
X004150Y013625D01*
X004400Y013375D01*
X004400Y012875D01*
X004150Y012625D01*
X003650Y012625D01*
X003400Y012875D01*
X003150Y012625D01*
X002650Y012625D01*
X002400Y012875D01*
X002150Y012625D01*
X001650Y012625D01*
X002650Y014125D02*
X002400Y014375D01*
X002400Y014875D01*
X002650Y015125D01*
X002400Y015375D01*
X002400Y015875D01*
X002650Y016125D01*
X002400Y016375D01*
X002400Y016875D01*
X002650Y017125D01*
X002400Y017375D01*
X002400Y017875D01*
X002650Y018125D01*
X003150Y018125D01*
X003400Y017875D01*
X003400Y017375D01*
X003150Y017125D01*
X003400Y016875D01*
X003400Y016375D01*
X003150Y016125D01*
X003400Y015875D01*
X003400Y015375D01*
X003150Y015125D01*
X003400Y014875D01*
X003400Y014375D01*
X003150Y014125D01*
X002650Y014125D01*
X003900Y014375D02*
X003900Y014875D01*
X004150Y015125D01*
X003900Y015375D01*
X003900Y015875D01*
X004150Y016125D01*
X004650Y016125D01*
X004900Y015875D01*
X004900Y015375D01*
X004650Y015125D01*
X004900Y014875D01*
X004900Y014375D01*
X004650Y014125D01*
X004150Y014125D01*
X003900Y014375D01*
X004760Y014055D02*
X005040Y014055D01*
X004900Y013915D02*
X004900Y014195D01*
X005400Y018125D02*
X005400Y002125D01*
X012400Y002125D02*
X012400Y018125D01*
X015150Y012125D02*
X015650Y012125D01*
X015900Y011875D01*
X015900Y011375D01*
X015650Y011125D01*
X015900Y010875D01*
X015900Y010375D01*
X015650Y010125D01*
X015900Y009875D01*
X015900Y009375D01*
X015650Y009125D01*
X015900Y008875D01*
X015900Y008375D01*
X015650Y008125D01*
X015150Y008125D01*
X014900Y008375D01*
X014900Y008875D01*
X015150Y009125D01*
X014900Y009375D01*
X014900Y009875D01*
X015150Y010125D01*
X014900Y010375D01*
X014900Y010875D01*
X015150Y011125D01*
X014900Y011375D01*
X014900Y011875D01*
X015150Y012125D01*
X015150Y006625D02*
X015650Y006625D01*
X015900Y006375D01*
X015900Y005875D01*
X015650Y005625D01*
X015150Y005625D01*
X014900Y005875D01*
X014650Y005625D01*
X014150Y005625D01*
X013900Y005875D01*
X013650Y005625D01*
X013150Y005625D01*
X012900Y005875D01*
X012900Y006375D01*
X013150Y006625D01*
X013650Y006625D01*
X013900Y006375D01*
X014150Y006625D01*
X014650Y006625D01*
X014900Y006375D01*
X015150Y006625D01*
X015150Y004625D02*
X015650Y004625D01*
X015900Y004375D01*
X015900Y003875D01*
X015650Y003625D01*
X015150Y003625D01*
X014900Y003875D01*
X014650Y003625D01*
X014150Y003625D01*
X013900Y003875D01*
X013650Y003625D01*
X013150Y003625D01*
X012900Y003875D01*
X012900Y004375D01*
X013150Y004625D01*
X013650Y004625D01*
X013900Y004375D01*
X014150Y004625D01*
X014650Y004625D01*
X014900Y004375D01*
X015150Y004625D01*
D11*
X015131Y005080D02*
X015086Y005125D01*
X015131Y005080D02*
X015221Y005080D01*
X015266Y005125D01*
X015266Y005215D01*
X015221Y005260D01*
X015176Y005260D01*
X015086Y005215D01*
X015086Y005350D01*
X015266Y005350D01*
X015380Y005350D02*
X015380Y005170D01*
X015470Y005080D01*
X015561Y005170D01*
X015561Y005350D01*
X014561Y005305D02*
X014561Y005125D01*
X014515Y005080D01*
X014425Y005080D01*
X014380Y005125D01*
X014380Y005305D01*
X014425Y005350D01*
X014515Y005350D01*
X014561Y005305D01*
X014470Y005170D02*
X014561Y005080D01*
X014266Y005125D02*
X014266Y005305D01*
X014221Y005350D01*
X014086Y005350D01*
X014086Y005080D01*
X014221Y005080D01*
X014266Y005125D01*
X013561Y005125D02*
X013561Y005305D01*
X013515Y005350D01*
X013380Y005350D01*
X013380Y005080D01*
X013515Y005080D01*
X013561Y005125D01*
X013266Y005080D02*
X013266Y005350D01*
X013086Y005350D02*
X013266Y005080D01*
X013086Y005080D02*
X013086Y005350D01*
X012971Y005305D02*
X012926Y005350D01*
X012836Y005350D01*
X012791Y005305D01*
X012791Y005125D01*
X012836Y005080D01*
X012926Y005080D01*
X012971Y005125D01*
X012971Y005215D01*
X012881Y005215D01*
X012349Y007094D02*
X000931Y007094D01*
X000931Y001188D01*
X012349Y001188D01*
X012349Y007094D01*
X013941Y008475D02*
X013986Y008430D01*
X014076Y008430D01*
X014121Y008475D01*
X014121Y008565D01*
X014031Y008565D01*
X013941Y008655D02*
X013941Y008475D01*
X013941Y008655D02*
X013986Y008700D01*
X014076Y008700D01*
X014121Y008655D01*
X014236Y008700D02*
X014236Y008430D01*
X014416Y008430D02*
X014236Y008700D01*
X014416Y008700D02*
X014416Y008430D01*
X014530Y008430D02*
X014665Y008430D01*
X014711Y008475D01*
X014711Y008655D01*
X014665Y008700D01*
X014530Y008700D01*
X014530Y008430D01*
X014471Y009580D02*
X014336Y009580D01*
X014336Y009850D01*
X014471Y009850D01*
X014516Y009805D01*
X014516Y009625D01*
X014471Y009580D01*
X014630Y009580D02*
X014630Y009760D01*
X014720Y009850D01*
X014811Y009760D01*
X014811Y009580D01*
X014811Y009715D02*
X014630Y009715D01*
X014221Y009670D02*
X014221Y009625D01*
X014176Y009580D01*
X014086Y009580D01*
X014041Y009625D01*
X014086Y009715D02*
X014041Y009760D01*
X014041Y009805D01*
X014086Y009850D01*
X014176Y009850D01*
X014221Y009805D01*
X014176Y009715D02*
X014221Y009670D01*
X014176Y009715D02*
X014086Y009715D01*
X014086Y010580D02*
X014041Y010625D01*
X014086Y010580D02*
X014176Y010580D01*
X014221Y010625D01*
X014221Y010670D01*
X014176Y010715D01*
X014086Y010715D01*
X014041Y010760D01*
X014041Y010805D01*
X014086Y010850D01*
X014176Y010850D01*
X014221Y010805D01*
X014336Y010805D02*
X014336Y010625D01*
X014381Y010580D01*
X014471Y010580D01*
X014516Y010625D01*
X014630Y010580D02*
X014811Y010580D01*
X014630Y010580D02*
X014630Y010850D01*
X014516Y010805D02*
X014471Y010850D01*
X014381Y010850D01*
X014336Y010805D01*
X014381Y011580D02*
X014336Y011625D01*
X014381Y011580D02*
X014471Y011580D01*
X014516Y011625D01*
X014516Y011670D01*
X014471Y011715D01*
X014426Y011715D01*
X014471Y011715D02*
X014516Y011760D01*
X014516Y011805D01*
X014471Y011850D01*
X014381Y011850D01*
X014336Y011805D01*
X014630Y011850D02*
X014630Y011670D01*
X014720Y011580D01*
X014811Y011670D01*
X014811Y011850D01*
X010400Y016125D02*
X007400Y016125D01*
X007400Y018125D01*
X010400Y018125D01*
X010400Y016125D01*
X010400Y018125D02*
X012400Y018125D01*
X007400Y018125D02*
X005400Y018125D01*
X005275Y016003D02*
X005185Y015913D01*
X005185Y015958D02*
X005185Y015823D01*
X005275Y015823D02*
X005005Y015823D01*
X005005Y015958D01*
X005050Y016003D01*
X005140Y016003D01*
X005185Y015958D01*
X005275Y015709D02*
X005275Y015529D01*
X005005Y015529D01*
X005005Y015709D01*
X005140Y015619D02*
X005140Y015529D01*
X005050Y015414D02*
X005230Y015234D01*
X005275Y015234D01*
X005275Y015414D01*
X005050Y015414D02*
X005005Y015414D01*
X005005Y015234D01*
X005005Y015119D02*
X005050Y015119D01*
X005230Y014939D01*
X005275Y014939D01*
X005275Y015119D01*
X005005Y015119D02*
X005005Y014939D01*
X005005Y014825D02*
X005230Y014825D01*
X005275Y014780D01*
X005275Y014690D01*
X005230Y014645D01*
X005005Y014645D01*
X005050Y014530D02*
X005095Y014530D01*
X005140Y014485D01*
X005140Y014350D01*
X005275Y014350D02*
X005275Y014485D01*
X005230Y014530D01*
X005185Y014530D01*
X005140Y014485D01*
X005050Y014530D02*
X005005Y014485D01*
X005005Y014350D01*
X005275Y014350D01*
X004265Y012100D02*
X004130Y012100D01*
X004130Y011830D01*
X004265Y011830D01*
X004311Y011875D01*
X004311Y012055D01*
X004265Y012100D01*
X004016Y012100D02*
X004016Y011830D01*
X003836Y012100D01*
X003836Y011830D01*
X003721Y011875D02*
X003721Y011965D01*
X003631Y011965D01*
X003541Y011875D02*
X003586Y011830D01*
X003676Y011830D01*
X003721Y011875D01*
X003541Y011875D02*
X003541Y012055D01*
X003586Y012100D01*
X003676Y012100D01*
X003721Y012055D01*
X003061Y012010D02*
X003061Y011830D01*
X003061Y011965D02*
X002880Y011965D01*
X002880Y012010D02*
X002880Y011830D01*
X002766Y011875D02*
X002766Y012055D01*
X002721Y012100D01*
X002586Y012100D01*
X002586Y011830D01*
X002721Y011830D01*
X002766Y011875D01*
X002880Y012010D02*
X002970Y012100D01*
X003061Y012010D01*
X002061Y011920D02*
X002061Y012100D01*
X002061Y011920D02*
X001970Y011830D01*
X001880Y011920D01*
X001880Y012100D01*
X001766Y012100D02*
X001586Y012100D01*
X001586Y011965D01*
X001676Y012010D01*
X001721Y012010D01*
X001766Y011965D01*
X001766Y011875D01*
X001721Y011830D01*
X001631Y011830D01*
X001586Y011875D01*
X000855Y010036D02*
X000675Y010036D01*
X000855Y010036D02*
X000945Y009945D01*
X000855Y009855D01*
X000675Y009855D01*
X000675Y009741D02*
X000675Y009561D01*
X000810Y009561D01*
X000765Y009651D01*
X000765Y009696D01*
X000810Y009741D01*
X000900Y009741D01*
X000945Y009696D01*
X000945Y009606D01*
X000900Y009561D01*
X001120Y008886D02*
X001300Y008886D01*
X001345Y008840D01*
X001345Y008750D01*
X001300Y008705D01*
X001120Y008705D01*
X001075Y008750D01*
X001075Y008840D01*
X001120Y008886D01*
X001255Y008795D02*
X001345Y008886D01*
X001300Y008591D02*
X001120Y008591D01*
X001075Y008546D01*
X001075Y008411D01*
X001345Y008411D01*
X001345Y008546D01*
X001300Y008591D01*
X000900Y008036D02*
X000720Y008036D01*
X000675Y007990D01*
X000675Y007855D01*
X000945Y007855D01*
X000945Y007990D01*
X000900Y008036D01*
X000945Y007741D02*
X000675Y007741D01*
X000675Y007561D02*
X000945Y007741D01*
X000945Y007561D02*
X000675Y007561D01*
X000720Y007446D02*
X000675Y007401D01*
X000675Y007311D01*
X000720Y007266D01*
X000900Y007266D01*
X000945Y007311D01*
X000945Y007401D01*
X000900Y007446D01*
X000810Y007446D01*
X000810Y007356D01*
X001650Y006625D02*
X001400Y006375D01*
X001400Y005875D01*
X001650Y005625D01*
X003150Y005625D01*
X003400Y005375D01*
X003400Y004875D01*
X003150Y004625D01*
X001650Y004625D01*
X001400Y004875D01*
X001400Y005375D01*
X001650Y005625D01*
X001650Y004625D02*
X001400Y004375D01*
X001400Y003875D01*
X001650Y003625D01*
X003150Y003625D01*
X003400Y003375D01*
X003400Y002875D01*
X003150Y002625D01*
X001650Y002625D01*
X001400Y002875D01*
X001400Y003375D01*
X001650Y003625D01*
X003150Y003625D02*
X003400Y003875D01*
X003400Y004375D01*
X003150Y004625D01*
X003150Y005625D02*
X003400Y005875D01*
X003400Y006375D01*
X003150Y006625D01*
X001650Y006625D01*
X003500Y005975D02*
X004300Y005975D01*
X004500Y005975D02*
X005300Y005975D01*
X005400Y002125D02*
X005400Y001125D01*
X007900Y001125D01*
X007900Y000125D01*
X009900Y000125D01*
X009900Y001125D01*
X012400Y001125D01*
X012400Y002125D01*
X009900Y001125D02*
X007900Y001125D01*
X009005Y001680D02*
X009050Y001590D01*
X009140Y001500D01*
X009140Y001635D01*
X009185Y001680D01*
X009230Y001680D01*
X009275Y001635D01*
X009275Y001545D01*
X009230Y001500D01*
X009140Y001500D01*
X009275Y001795D02*
X009005Y001975D01*
X009095Y002089D02*
X009005Y002179D01*
X009275Y002179D01*
X009275Y002089D02*
X009275Y002269D01*
X009230Y002384D02*
X009050Y002564D01*
X009230Y002564D01*
X009275Y002519D01*
X009275Y002429D01*
X009230Y002384D01*
X009050Y002384D01*
X009005Y002429D01*
X009005Y002519D01*
X009050Y002564D01*
X009275Y002679D02*
X009005Y002859D01*
X009050Y002973D02*
X009005Y003018D01*
X009005Y003108D01*
X009050Y003153D01*
X009095Y003153D01*
X009275Y002973D01*
X009275Y003153D01*
X009230Y003268D02*
X009050Y003448D01*
X009230Y003448D01*
X009275Y003403D01*
X009275Y003313D01*
X009230Y003268D01*
X009050Y003268D01*
X009005Y003313D01*
X009005Y003403D01*
X009050Y003448D01*
X009095Y003563D02*
X009005Y003653D01*
X009275Y003653D01*
X009275Y003563D02*
X009275Y003743D01*
X009140Y003857D02*
X009140Y004037D01*
X009275Y003992D02*
X009005Y003992D01*
X009140Y003857D01*
X009230Y004447D02*
X009050Y004447D01*
X009005Y004492D01*
X009005Y004582D01*
X009050Y004627D01*
X009230Y004447D01*
X009275Y004492D01*
X009275Y004582D01*
X009230Y004627D01*
X009050Y004627D01*
X009050Y004741D02*
X009005Y004786D01*
X009005Y004876D01*
X009050Y004921D01*
X009230Y004741D01*
X009275Y004786D01*
X009275Y004876D01*
X009230Y004921D01*
X009050Y004921D01*
X009095Y005036D02*
X009140Y005036D01*
X009140Y005081D01*
X009095Y005081D01*
X009095Y005036D01*
X009230Y005036D02*
X009275Y005036D01*
X009275Y005081D01*
X009230Y005081D01*
X009230Y005036D01*
X009230Y005183D02*
X009275Y005228D01*
X009275Y005318D01*
X009230Y005363D01*
X009140Y005363D01*
X009095Y005318D01*
X009095Y005273D01*
X009140Y005183D01*
X009005Y005183D01*
X009005Y005363D01*
X009140Y005478D02*
X009005Y005613D01*
X009275Y005613D01*
X009140Y005658D02*
X009140Y005478D01*
X009140Y005772D02*
X009095Y005772D01*
X009095Y005817D01*
X009140Y005817D01*
X009140Y005772D01*
X009230Y005772D02*
X009275Y005772D01*
X009275Y005817D01*
X009230Y005817D01*
X009230Y005772D01*
X009275Y005920D02*
X009095Y006100D01*
X009050Y006100D01*
X009005Y006055D01*
X009005Y005965D01*
X009050Y005920D01*
X009050Y006214D02*
X009005Y006259D01*
X009005Y006350D01*
X009050Y006395D01*
X009095Y006395D01*
X009140Y006350D01*
X009185Y006395D01*
X009230Y006395D01*
X009275Y006350D01*
X009275Y006259D01*
X009230Y006214D01*
X009275Y006100D02*
X009275Y005920D01*
X009140Y006305D02*
X009140Y006350D01*
X009230Y004741D02*
X009050Y004741D01*
X002180Y014250D02*
X002000Y014250D01*
X001955Y014295D01*
X001955Y014385D01*
X002000Y014430D01*
X002090Y014430D02*
X002090Y014340D01*
X002090Y014430D02*
X002180Y014430D01*
X002225Y014385D01*
X002225Y014295D01*
X002180Y014250D01*
X002225Y014545D02*
X001955Y014545D01*
X002225Y014725D01*
X001955Y014725D01*
X001955Y014839D02*
X001955Y014974D01*
X002000Y015019D01*
X002180Y015019D01*
X002225Y014974D01*
X002225Y014839D01*
X001955Y014839D01*
X001955Y015400D02*
X002225Y015580D01*
X001955Y015580D01*
X002000Y015695D02*
X001955Y015740D01*
X001955Y015830D01*
X002000Y015875D01*
X002180Y015875D02*
X002225Y015830D01*
X002225Y015740D01*
X002180Y015695D01*
X002000Y015695D01*
X001955Y015400D02*
X002225Y015400D01*
X002225Y016400D02*
X001955Y016400D01*
X001955Y016535D01*
X002000Y016580D01*
X002180Y016580D01*
X002225Y016535D01*
X002225Y016400D01*
X002225Y016695D02*
X002045Y016695D01*
X001955Y016785D01*
X002045Y016875D01*
X002225Y016875D01*
X002090Y016875D02*
X002090Y016695D01*
X002631Y018180D02*
X002586Y018225D01*
X002631Y018180D02*
X002721Y018180D01*
X002766Y018225D01*
X002766Y018315D01*
X002721Y018360D01*
X002676Y018360D01*
X002586Y018315D01*
X002586Y018450D01*
X002766Y018450D01*
X002880Y018450D02*
X002880Y018270D01*
X002970Y018180D01*
X003061Y018270D01*
X003061Y018450D01*
D12*
X008236Y005967D02*
X008463Y005741D01*
X008520Y005797D01*
X008520Y005911D01*
X008463Y005967D01*
X008236Y005967D01*
X008180Y005911D01*
X008180Y005797D01*
X008236Y005741D01*
X008463Y005741D01*
X008520Y005599D02*
X008520Y005372D01*
X008293Y005599D01*
X008236Y005599D01*
X008180Y005542D01*
X008180Y005429D01*
X008236Y005372D01*
X008293Y005231D02*
X008520Y005117D01*
X008293Y005004D01*
X008350Y004863D02*
X008293Y004806D01*
X008293Y004692D01*
X008350Y004636D01*
X008463Y004636D01*
X008520Y004692D01*
X008520Y004806D01*
X008463Y004863D01*
X008350Y004863D01*
X008350Y004494D02*
X008520Y004494D01*
X008350Y004494D02*
X008293Y004438D01*
X008293Y004267D01*
X008520Y004267D01*
X008520Y004126D02*
X008350Y004126D01*
X008293Y004069D01*
X008293Y003956D01*
X008407Y003956D02*
X008407Y004126D01*
X008520Y004126D02*
X008520Y003956D01*
X008463Y003899D01*
X008407Y003956D01*
X008520Y003758D02*
X008180Y003758D01*
X008180Y003531D02*
X008520Y003758D01*
X008520Y003531D02*
X008180Y003531D01*
X008293Y003394D02*
X008293Y003337D01*
X008407Y003224D01*
X008520Y003224D02*
X008293Y003224D01*
X008350Y003082D02*
X008407Y003082D01*
X008407Y002855D01*
X008463Y002855D02*
X008350Y002855D01*
X008293Y002912D01*
X008293Y003026D01*
X008350Y003082D01*
X008520Y003026D02*
X008520Y002912D01*
X008463Y002855D01*
X008520Y002719D02*
X008407Y002549D01*
X008293Y002719D01*
X008180Y002549D02*
X008520Y002549D01*
X008293Y002412D02*
X008293Y002355D01*
X008407Y002242D01*
X008520Y002242D02*
X008293Y002242D01*
X008293Y002100D02*
X008520Y002100D01*
X008520Y001930D01*
X008463Y001873D01*
X008293Y001873D01*
X008520Y001732D02*
X008520Y001505D01*
X008180Y001505D01*
X007770Y001505D02*
X007430Y001505D01*
X007600Y001562D02*
X007770Y001732D01*
X007713Y001873D02*
X007657Y001930D01*
X007657Y002100D01*
X007600Y002100D02*
X007770Y002100D01*
X007770Y001930D01*
X007713Y001873D01*
X007543Y001930D02*
X007543Y002043D01*
X007600Y002100D01*
X007657Y002242D02*
X007543Y002355D01*
X007543Y002412D01*
X007543Y002242D02*
X007770Y002242D01*
X007770Y002549D02*
X007770Y002662D01*
X007770Y002605D02*
X007430Y002605D01*
X007430Y002549D01*
X007430Y003162D02*
X007543Y003276D01*
X007430Y003389D01*
X007770Y003389D01*
X007713Y003531D02*
X007600Y003531D01*
X007543Y003587D01*
X007543Y003701D01*
X007600Y003758D01*
X007713Y003758D01*
X007770Y003701D01*
X007770Y003587D01*
X007713Y003531D01*
X007770Y003899D02*
X007430Y003899D01*
X007543Y003956D02*
X007543Y004069D01*
X007600Y004126D01*
X007770Y004126D01*
X007770Y004267D02*
X007543Y004267D01*
X007657Y004267D02*
X007543Y004381D01*
X007543Y004438D01*
X007543Y004574D02*
X007543Y004631D01*
X007770Y004631D01*
X007770Y004574D02*
X007770Y004688D01*
X007770Y004820D02*
X007543Y004820D01*
X007543Y004990D01*
X007600Y005047D01*
X007770Y005047D01*
X007713Y005188D02*
X007600Y005188D01*
X007543Y005245D01*
X007543Y005415D01*
X007827Y005415D01*
X007883Y005358D01*
X007883Y005302D01*
X007770Y005245D02*
X007770Y005415D01*
X007770Y005245D02*
X007713Y005188D01*
X007430Y004631D02*
X007373Y004631D01*
X007543Y003956D02*
X007600Y003899D01*
X007770Y003162D02*
X007430Y003162D01*
X007430Y001732D02*
X007657Y001505D01*
D13*
X014376Y002306D02*
X014378Y002354D01*
X014384Y002402D01*
X014394Y002449D01*
X014407Y002495D01*
X014425Y002540D01*
X014445Y002584D01*
X014470Y002626D01*
X014498Y002665D01*
X014528Y002702D01*
X014562Y002736D01*
X014599Y002768D01*
X014637Y002797D01*
X014678Y002822D01*
X014721Y002844D01*
X014766Y002862D01*
X014812Y002876D01*
X014859Y002887D01*
X014907Y002894D01*
X014955Y002897D01*
X015003Y002896D01*
X015051Y002891D01*
X015099Y002882D01*
X015145Y002870D01*
X015190Y002853D01*
X015234Y002833D01*
X015276Y002810D01*
X015316Y002783D01*
X015354Y002753D01*
X015389Y002720D01*
X015421Y002684D01*
X015451Y002646D01*
X015477Y002605D01*
X015499Y002562D01*
X015519Y002518D01*
X015534Y002473D01*
X015546Y002426D01*
X015554Y002378D01*
X015558Y002330D01*
X015558Y002282D01*
X015554Y002234D01*
X015546Y002186D01*
X015534Y002139D01*
X015519Y002094D01*
X015499Y002050D01*
X015477Y002007D01*
X015451Y001966D01*
X015421Y001928D01*
X015389Y001892D01*
X015354Y001859D01*
X015316Y001829D01*
X015276Y001802D01*
X015234Y001779D01*
X015190Y001759D01*
X015145Y001742D01*
X015099Y001730D01*
X015051Y001721D01*
X015003Y001716D01*
X014955Y001715D01*
X014907Y001718D01*
X014859Y001725D01*
X014812Y001736D01*
X014766Y001750D01*
X014721Y001768D01*
X014678Y001790D01*
X014637Y001815D01*
X014599Y001844D01*
X014562Y001876D01*
X014528Y001910D01*
X014498Y001947D01*
X014470Y001986D01*
X014445Y002028D01*
X014425Y002072D01*
X014407Y002117D01*
X014394Y002163D01*
X014384Y002210D01*
X014378Y002258D01*
X014376Y002306D01*
X014376Y017660D02*
X014378Y017708D01*
X014384Y017756D01*
X014394Y017803D01*
X014407Y017849D01*
X014425Y017894D01*
X014445Y017938D01*
X014470Y017980D01*
X014498Y018019D01*
X014528Y018056D01*
X014562Y018090D01*
X014599Y018122D01*
X014637Y018151D01*
X014678Y018176D01*
X014721Y018198D01*
X014766Y018216D01*
X014812Y018230D01*
X014859Y018241D01*
X014907Y018248D01*
X014955Y018251D01*
X015003Y018250D01*
X015051Y018245D01*
X015099Y018236D01*
X015145Y018224D01*
X015190Y018207D01*
X015234Y018187D01*
X015276Y018164D01*
X015316Y018137D01*
X015354Y018107D01*
X015389Y018074D01*
X015421Y018038D01*
X015451Y018000D01*
X015477Y017959D01*
X015499Y017916D01*
X015519Y017872D01*
X015534Y017827D01*
X015546Y017780D01*
X015554Y017732D01*
X015558Y017684D01*
X015558Y017636D01*
X015554Y017588D01*
X015546Y017540D01*
X015534Y017493D01*
X015519Y017448D01*
X015499Y017404D01*
X015477Y017361D01*
X015451Y017320D01*
X015421Y017282D01*
X015389Y017246D01*
X015354Y017213D01*
X015316Y017183D01*
X015276Y017156D01*
X015234Y017133D01*
X015190Y017113D01*
X015145Y017096D01*
X015099Y017084D01*
X015051Y017075D01*
X015003Y017070D01*
X014955Y017069D01*
X014907Y017072D01*
X014859Y017079D01*
X014812Y017090D01*
X014766Y017104D01*
X014721Y017122D01*
X014678Y017144D01*
X014637Y017169D01*
X014599Y017198D01*
X014562Y017230D01*
X014528Y017264D01*
X014498Y017301D01*
X014470Y017340D01*
X014445Y017382D01*
X014425Y017426D01*
X014407Y017471D01*
X014394Y017517D01*
X014384Y017564D01*
X014378Y017612D01*
X014376Y017660D01*
X000990Y017660D02*
X000992Y017708D01*
X000998Y017756D01*
X001008Y017803D01*
X001021Y017849D01*
X001039Y017894D01*
X001059Y017938D01*
X001084Y017980D01*
X001112Y018019D01*
X001142Y018056D01*
X001176Y018090D01*
X001213Y018122D01*
X001251Y018151D01*
X001292Y018176D01*
X001335Y018198D01*
X001380Y018216D01*
X001426Y018230D01*
X001473Y018241D01*
X001521Y018248D01*
X001569Y018251D01*
X001617Y018250D01*
X001665Y018245D01*
X001713Y018236D01*
X001759Y018224D01*
X001804Y018207D01*
X001848Y018187D01*
X001890Y018164D01*
X001930Y018137D01*
X001968Y018107D01*
X002003Y018074D01*
X002035Y018038D01*
X002065Y018000D01*
X002091Y017959D01*
X002113Y017916D01*
X002133Y017872D01*
X002148Y017827D01*
X002160Y017780D01*
X002168Y017732D01*
X002172Y017684D01*
X002172Y017636D01*
X002168Y017588D01*
X002160Y017540D01*
X002148Y017493D01*
X002133Y017448D01*
X002113Y017404D01*
X002091Y017361D01*
X002065Y017320D01*
X002035Y017282D01*
X002003Y017246D01*
X001968Y017213D01*
X001930Y017183D01*
X001890Y017156D01*
X001848Y017133D01*
X001804Y017113D01*
X001759Y017096D01*
X001713Y017084D01*
X001665Y017075D01*
X001617Y017070D01*
X001569Y017069D01*
X001521Y017072D01*
X001473Y017079D01*
X001426Y017090D01*
X001380Y017104D01*
X001335Y017122D01*
X001292Y017144D01*
X001251Y017169D01*
X001213Y017198D01*
X001176Y017230D01*
X001142Y017264D01*
X001112Y017301D01*
X001084Y017340D01*
X001059Y017382D01*
X001039Y017426D01*
X001021Y017471D01*
X001008Y017517D01*
X000998Y017564D01*
X000992Y017612D01*
X000990Y017660D01*
D14*
X004044Y017134D02*
X004237Y017134D01*
X004338Y017085D02*
X004532Y017279D01*
X004633Y017279D02*
X004827Y017279D01*
X004827Y017230D01*
X004633Y017037D01*
X004633Y016988D01*
X004532Y016988D02*
X004387Y017134D01*
X004338Y017279D02*
X004338Y016988D01*
X004189Y016988D02*
X004189Y017279D01*
X004044Y017134D01*
X004076Y018120D02*
X004076Y018410D01*
X004221Y018410D01*
X004269Y018362D01*
X004269Y018265D01*
X004221Y018217D01*
X004076Y018217D01*
X004172Y018217D02*
X004269Y018120D01*
X004370Y018265D02*
X004564Y018265D01*
X004515Y018120D02*
X004515Y018410D01*
X004370Y018265D01*
X006495Y016878D02*
X006785Y016685D01*
X006785Y016878D02*
X006495Y016685D01*
X006495Y016583D02*
X006495Y016390D01*
X006495Y016487D02*
X006785Y016487D01*
X006785Y015828D02*
X006495Y015635D01*
X006543Y015533D02*
X006640Y015533D01*
X006688Y015485D01*
X006688Y015340D01*
X006688Y015437D02*
X006785Y015533D01*
X006785Y015635D02*
X006495Y015828D01*
X006543Y015533D02*
X006495Y015485D01*
X006495Y015340D01*
X006785Y015340D01*
X006785Y014876D02*
X006495Y014876D01*
X006495Y014779D02*
X006495Y014973D01*
X006543Y014678D02*
X006495Y014630D01*
X006495Y014533D01*
X006543Y014485D01*
X006592Y014485D01*
X006640Y014533D01*
X006640Y014630D01*
X006688Y014678D01*
X006737Y014678D01*
X006785Y014630D01*
X006785Y014533D01*
X006737Y014485D01*
X006785Y014383D02*
X006688Y014287D01*
X006688Y014335D02*
X006688Y014190D01*
X006785Y014190D02*
X006495Y014190D01*
X006495Y014335D01*
X006543Y014383D01*
X006640Y014383D01*
X006688Y014335D01*
X006737Y013873D02*
X006543Y013873D01*
X006495Y013824D01*
X006495Y013679D01*
X006785Y013679D01*
X006785Y013824D01*
X006737Y013873D01*
X006785Y013578D02*
X006495Y013578D01*
X006495Y013385D02*
X006785Y013578D01*
X006785Y013385D02*
X006495Y013385D01*
X006543Y013283D02*
X006495Y013235D01*
X006495Y013138D01*
X006543Y013090D01*
X006737Y013090D01*
X006785Y013138D01*
X006785Y013235D01*
X006737Y013283D01*
X006640Y013283D01*
X006640Y013187D01*
X006592Y012828D02*
X006543Y012828D01*
X006495Y012780D01*
X006495Y012683D01*
X006543Y012635D01*
X006543Y012533D02*
X006495Y012485D01*
X006495Y012340D01*
X006785Y012340D01*
X006785Y012485D01*
X006737Y012533D01*
X006543Y012533D01*
X006785Y012635D02*
X006592Y012828D01*
X006785Y012828D02*
X006785Y012635D01*
X006737Y011828D02*
X006785Y011780D01*
X006785Y011683D01*
X006737Y011635D01*
X006737Y011533D02*
X006543Y011533D01*
X006495Y011485D01*
X006495Y011340D01*
X006785Y011340D01*
X006785Y011485D01*
X006737Y011533D01*
X006543Y011635D02*
X006495Y011683D01*
X006495Y011780D01*
X006543Y011828D01*
X006592Y011828D01*
X006640Y011780D01*
X006688Y011828D01*
X006737Y011828D01*
X006640Y011780D02*
X006640Y011731D01*
X006640Y010828D02*
X006640Y010635D01*
X006495Y010780D01*
X006785Y010780D01*
X006737Y010533D02*
X006543Y010533D01*
X006495Y010485D01*
X006495Y010340D01*
X006785Y010340D01*
X006785Y010485D01*
X006737Y010533D01*
X006737Y009828D02*
X006785Y009780D01*
X006785Y009683D01*
X006737Y009635D01*
X006640Y009635D02*
X006592Y009731D01*
X006592Y009780D01*
X006640Y009828D01*
X006737Y009828D01*
X006640Y009635D02*
X006495Y009635D01*
X006495Y009828D01*
X006543Y009533D02*
X006495Y009485D01*
X006495Y009340D01*
X006785Y009340D01*
X006785Y009485D01*
X006737Y009533D01*
X006543Y009533D01*
X006495Y008828D02*
X006543Y008731D01*
X006640Y008635D01*
X006640Y008780D01*
X006688Y008828D01*
X006737Y008828D01*
X006785Y008780D01*
X006785Y008683D01*
X006737Y008635D01*
X006640Y008635D01*
X006737Y008533D02*
X006543Y008533D01*
X006495Y008485D01*
X006495Y008340D01*
X006785Y008340D01*
X006785Y008485D01*
X006737Y008533D01*
X006543Y007828D02*
X006737Y007635D01*
X006785Y007635D01*
X006737Y007533D02*
X006543Y007533D01*
X006495Y007485D01*
X006495Y007340D01*
X006785Y007340D01*
X006785Y007485D01*
X006737Y007533D01*
X006495Y007635D02*
X006495Y007828D01*
X006543Y007828D01*
X006543Y006828D02*
X006592Y006828D01*
X006640Y006780D01*
X006640Y006683D01*
X006592Y006635D01*
X006543Y006635D01*
X006495Y006683D01*
X006495Y006780D01*
X006543Y006828D01*
X006640Y006780D02*
X006688Y006828D01*
X006737Y006828D01*
X006785Y006780D01*
X006785Y006683D01*
X006737Y006635D01*
X006688Y006635D01*
X006640Y006683D01*
X006737Y006533D02*
X006543Y006533D01*
X006495Y006485D01*
X006495Y006340D01*
X006785Y006340D01*
X006785Y006485D01*
X006737Y006533D01*
X006737Y005828D02*
X006543Y005828D01*
X006495Y005780D01*
X006495Y005683D01*
X006543Y005635D01*
X006592Y005635D01*
X006640Y005683D01*
X006640Y005828D01*
X006737Y005828D02*
X006785Y005780D01*
X006785Y005683D01*
X006737Y005635D01*
X006737Y005533D02*
X006543Y005533D01*
X006495Y005485D01*
X006495Y005340D01*
X006785Y005340D01*
X006785Y005485D01*
X006737Y005533D01*
X006737Y005023D02*
X006543Y005023D01*
X006737Y004829D01*
X006785Y004878D01*
X006785Y004974D01*
X006737Y005023D01*
X006737Y004829D02*
X006543Y004829D01*
X006495Y004878D01*
X006495Y004974D01*
X006543Y005023D01*
X006785Y004728D02*
X006785Y004535D01*
X006785Y004631D02*
X006495Y004631D01*
X006592Y004535D01*
X006543Y004433D02*
X006495Y004385D01*
X006495Y004240D01*
X006785Y004240D01*
X006785Y004385D01*
X006737Y004433D01*
X006543Y004433D01*
X006785Y004023D02*
X006785Y003829D01*
X006785Y003926D02*
X006495Y003926D01*
X006592Y003829D01*
X006785Y003728D02*
X006785Y003535D01*
X006785Y003631D02*
X006495Y003631D01*
X006592Y003535D01*
X006543Y003433D02*
X006495Y003385D01*
X006495Y003240D01*
X006785Y003240D01*
X006785Y003385D01*
X006737Y003433D01*
X006543Y003433D01*
X006543Y003023D02*
X006495Y002974D01*
X006495Y002878D01*
X006543Y002829D01*
X006543Y003023D02*
X006592Y003023D01*
X006785Y002829D01*
X006785Y003023D01*
X006785Y002728D02*
X006785Y002535D01*
X006785Y002631D02*
X006495Y002631D01*
X006592Y002535D01*
X006543Y002433D02*
X006495Y002385D01*
X006495Y002240D01*
X006785Y002240D01*
X006785Y002385D01*
X006737Y002433D01*
X006543Y002433D01*
X005153Y004684D02*
X004960Y004684D01*
X005056Y004684D02*
X005056Y004974D01*
X004960Y004877D01*
X004858Y004926D02*
X004810Y004974D01*
X004713Y004974D01*
X004665Y004926D01*
X004665Y004732D01*
X004713Y004684D01*
X004810Y004684D01*
X004858Y004732D01*
X004153Y004684D02*
X003960Y004684D01*
X004153Y004877D01*
X004153Y004926D01*
X004105Y004974D01*
X004008Y004974D01*
X003960Y004926D01*
X003858Y004926D02*
X003810Y004974D01*
X003713Y004974D01*
X003665Y004926D01*
X003665Y004732D01*
X003713Y004684D01*
X003810Y004684D01*
X003858Y004732D01*
X003869Y006014D02*
X004014Y006014D01*
X004014Y006208D01*
X004115Y006160D02*
X004212Y006160D01*
X004376Y006208D02*
X004472Y006305D01*
X004472Y006014D01*
X004376Y006014D02*
X004569Y006014D01*
X004670Y006063D02*
X004670Y006256D01*
X004719Y006305D01*
X004815Y006305D01*
X004864Y006256D01*
X004670Y006063D01*
X004719Y006014D01*
X004815Y006014D01*
X004864Y006063D01*
X004864Y006256D01*
X004965Y006208D02*
X004965Y006063D01*
X005013Y006014D01*
X005158Y006014D01*
X005158Y006208D01*
X005260Y006160D02*
X005356Y006160D01*
X005260Y006305D02*
X005260Y006014D01*
X005260Y006305D02*
X005453Y006305D01*
X004308Y006305D02*
X004115Y006305D01*
X004115Y006014D01*
X003869Y006014D02*
X003820Y006063D01*
X003820Y006208D01*
X003719Y006014D02*
X003526Y006014D01*
X003622Y006014D02*
X003622Y006305D01*
X003526Y006208D01*
X004165Y008077D02*
X004165Y008223D01*
X004213Y008271D01*
X004407Y008271D01*
X004455Y008223D01*
X004455Y008077D01*
X004165Y008077D01*
X004213Y008372D02*
X004262Y008372D01*
X004310Y008420D01*
X004310Y008517D01*
X004358Y008566D01*
X004407Y008566D01*
X004455Y008517D01*
X004455Y008420D01*
X004407Y008372D01*
X004213Y008372D02*
X004165Y008420D01*
X004165Y008517D01*
X004213Y008566D01*
X004262Y008667D02*
X004165Y008763D01*
X004455Y008763D01*
X004455Y008667D02*
X004455Y008860D01*
X004407Y008961D02*
X004358Y008961D01*
X004310Y009010D01*
X004310Y009107D01*
X004358Y009155D01*
X004407Y009155D01*
X004455Y009107D01*
X004455Y009010D01*
X004407Y008961D01*
X004310Y009010D02*
X004262Y008961D01*
X004213Y008961D01*
X004165Y009010D01*
X004165Y009107D01*
X004213Y009155D01*
X004262Y009155D01*
X004310Y009107D01*
X004310Y009256D02*
X004310Y009401D01*
X004358Y009450D01*
X004407Y009450D01*
X004455Y009401D01*
X004455Y009256D01*
X004165Y009256D01*
X004165Y009401D01*
X004213Y009450D01*
X004262Y009450D01*
X004310Y009401D01*
X004213Y009551D02*
X004165Y009599D01*
X004165Y009696D01*
X004213Y009744D01*
X004262Y009744D01*
X004455Y009551D01*
X004455Y009744D01*
X004407Y009845D02*
X004213Y010039D01*
X004407Y010039D01*
X004455Y009990D01*
X004455Y009894D01*
X004407Y009845D01*
X004213Y009845D01*
X004165Y009894D01*
X004165Y009990D01*
X004213Y010039D01*
X003614Y010312D02*
X003420Y010118D01*
X003420Y010070D01*
X003319Y010070D02*
X003222Y010167D01*
X003271Y010167D02*
X003126Y010167D01*
X003126Y010070D02*
X003126Y010360D01*
X003271Y010360D01*
X003319Y010312D01*
X003319Y010215D01*
X003271Y010167D01*
X003420Y010360D02*
X003614Y010360D01*
X003614Y010312D01*
X003604Y009280D02*
X003798Y009280D01*
X003798Y009232D01*
X003604Y009038D01*
X003604Y008990D01*
X003503Y008990D02*
X003358Y009135D01*
X003310Y009087D02*
X003503Y009280D01*
X003310Y009280D02*
X003310Y008990D01*
X003160Y008990D02*
X003160Y009280D01*
X003015Y009135D01*
X003208Y009135D01*
X001920Y002060D02*
X001797Y001937D01*
X001675Y002060D02*
X001428Y002060D01*
X001428Y001690D01*
X001307Y001690D02*
X001183Y001813D01*
X001245Y001813D02*
X001060Y001813D01*
X001060Y001690D02*
X001060Y002060D01*
X001245Y002060D01*
X001307Y001999D01*
X001307Y001875D01*
X001245Y001813D01*
X001428Y001875D02*
X001552Y001875D01*
X001505Y001580D02*
X001360Y001580D01*
X001360Y001290D01*
X001360Y001387D02*
X001505Y001387D01*
X001553Y001435D01*
X001553Y001532D01*
X001505Y001580D01*
X001654Y001580D02*
X001848Y001580D01*
X001949Y001532D02*
X001997Y001580D01*
X002094Y001580D01*
X002142Y001532D01*
X002142Y001483D01*
X001949Y001290D01*
X002142Y001290D01*
X002244Y001435D02*
X002437Y001435D01*
X002389Y001290D02*
X002389Y001580D01*
X002244Y001435D01*
X002044Y001690D02*
X001797Y001690D01*
X001920Y001690D02*
X001920Y002060D01*
X001654Y001580D02*
X001654Y001290D01*
X001553Y001290D02*
X001456Y001387D01*
X001654Y001435D02*
X001751Y001435D01*
X001258Y001290D02*
X001258Y001580D01*
X001065Y001580D02*
X001258Y001290D01*
X001065Y001290D02*
X001065Y001580D01*
X002538Y001580D02*
X002538Y001290D01*
X002732Y001290D01*
X002833Y001338D02*
X003026Y001532D01*
X003026Y001338D01*
X002978Y001290D01*
X002881Y001290D01*
X002833Y001338D01*
X002833Y001532D01*
X002881Y001580D01*
X002978Y001580D01*
X003026Y001532D01*
X003128Y001483D02*
X003224Y001580D01*
X003224Y001290D01*
X003128Y001290D02*
X003321Y001290D01*
X003422Y001435D02*
X003616Y001435D01*
X003519Y001532D02*
X003519Y001338D01*
X010995Y002240D02*
X010995Y002385D01*
X011043Y002433D01*
X011237Y002433D01*
X011285Y002385D01*
X011285Y002240D01*
X010995Y002240D01*
X011092Y002535D02*
X010995Y002631D01*
X011285Y002631D01*
X011285Y002535D02*
X011285Y002728D01*
X011237Y002829D02*
X011285Y002878D01*
X011285Y002974D01*
X011237Y003023D01*
X011188Y003023D01*
X011140Y002974D01*
X011140Y002926D01*
X011140Y002974D02*
X011092Y003023D01*
X011043Y003023D01*
X010995Y002974D01*
X010995Y002878D01*
X011043Y002829D01*
X011043Y003240D02*
X010995Y003288D01*
X010995Y003385D01*
X011043Y003433D01*
X011092Y003433D01*
X011140Y003385D01*
X011188Y003433D01*
X011237Y003433D01*
X011285Y003385D01*
X011285Y003288D01*
X011237Y003240D01*
X011140Y003337D02*
X011140Y003385D01*
X011188Y003535D02*
X010995Y003535D01*
X010995Y003728D02*
X011188Y003728D01*
X011285Y003631D01*
X011188Y003535D01*
X011237Y003829D02*
X011285Y003878D01*
X011285Y003974D01*
X011237Y004023D01*
X011188Y004023D01*
X011140Y003974D01*
X011140Y003926D01*
X011140Y003974D02*
X011092Y004023D01*
X011043Y004023D01*
X010995Y003974D01*
X010995Y003878D01*
X011043Y003829D01*
X010995Y004240D02*
X010995Y004385D01*
X011043Y004433D01*
X011140Y004433D01*
X011188Y004385D01*
X011188Y004240D01*
X011188Y004337D02*
X011285Y004433D01*
X011285Y004535D02*
X011285Y004728D01*
X011285Y004829D02*
X010995Y004829D01*
X010995Y005023D01*
X011140Y004926D02*
X011140Y004829D01*
X010995Y004728D02*
X010995Y004535D01*
X011285Y004535D01*
X011140Y004535D02*
X011140Y004631D01*
X011285Y004240D02*
X010995Y004240D01*
X011092Y005340D02*
X010995Y005437D01*
X011092Y005533D01*
X011285Y005533D01*
X011237Y005635D02*
X011285Y005683D01*
X011285Y005780D01*
X011237Y005828D01*
X011043Y005828D01*
X011237Y005635D01*
X011043Y005635D01*
X010995Y005683D01*
X010995Y005780D01*
X011043Y005828D01*
X011140Y005533D02*
X011140Y005340D01*
X011092Y005340D02*
X011285Y005340D01*
X011285Y006340D02*
X011092Y006340D01*
X010995Y006437D01*
X011092Y006533D01*
X011285Y006533D01*
X011285Y006635D02*
X011285Y006828D01*
X011285Y006731D02*
X010995Y006731D01*
X011092Y006635D01*
X011140Y006533D02*
X011140Y006340D01*
X011140Y007340D02*
X011140Y007533D01*
X011092Y007533D02*
X011285Y007533D01*
X011285Y007635D02*
X011092Y007828D01*
X011043Y007828D01*
X010995Y007780D01*
X010995Y007683D01*
X011043Y007635D01*
X011092Y007533D02*
X010995Y007437D01*
X011092Y007340D01*
X011285Y007340D01*
X011285Y007635D02*
X011285Y007828D01*
X011285Y008340D02*
X011092Y008340D01*
X010995Y008437D01*
X011092Y008533D01*
X011285Y008533D01*
X011237Y008635D02*
X011285Y008683D01*
X011285Y008780D01*
X011237Y008828D01*
X011188Y008828D01*
X011140Y008780D01*
X011140Y008731D01*
X011140Y008780D02*
X011092Y008828D01*
X011043Y008828D01*
X010995Y008780D01*
X010995Y008683D01*
X011043Y008635D01*
X011140Y008533D02*
X011140Y008340D01*
X011140Y009340D02*
X011140Y009533D01*
X011092Y009533D02*
X011285Y009533D01*
X011140Y009635D02*
X011140Y009828D01*
X011285Y009780D02*
X010995Y009780D01*
X011140Y009635D01*
X011092Y009533D02*
X010995Y009437D01*
X011092Y009340D01*
X011285Y009340D01*
X011285Y010340D02*
X011092Y010340D01*
X010995Y010437D01*
X011092Y010533D01*
X011285Y010533D01*
X011237Y010635D02*
X011285Y010683D01*
X011285Y010780D01*
X011237Y010828D01*
X011140Y010828D01*
X011092Y010780D01*
X011092Y010731D01*
X011140Y010635D01*
X010995Y010635D01*
X010995Y010828D01*
X011140Y010533D02*
X011140Y010340D01*
X011140Y011340D02*
X011140Y011533D01*
X011092Y011533D02*
X011285Y011533D01*
X011237Y011635D02*
X011285Y011683D01*
X011285Y011780D01*
X011237Y011828D01*
X011188Y011828D01*
X011140Y011780D01*
X011140Y011635D01*
X011237Y011635D01*
X011140Y011635D02*
X011043Y011731D01*
X010995Y011828D01*
X011092Y011533D02*
X010995Y011437D01*
X011092Y011340D01*
X011285Y011340D01*
X011285Y012340D02*
X011092Y012340D01*
X010995Y012437D01*
X011092Y012533D01*
X011285Y012533D01*
X011285Y012635D02*
X011237Y012635D01*
X011043Y012828D01*
X010995Y012828D01*
X010995Y012635D01*
X011140Y012533D02*
X011140Y012340D01*
X011140Y013390D02*
X010995Y013390D01*
X010995Y013583D01*
X010995Y013685D02*
X011188Y013685D01*
X011285Y013781D01*
X011188Y013878D01*
X010995Y013878D01*
X011140Y013583D02*
X011237Y013583D01*
X011285Y013535D01*
X011285Y013438D01*
X011237Y013390D01*
X011140Y013390D02*
X011092Y013487D01*
X011092Y013535D01*
X011140Y013583D01*
X011188Y014190D02*
X011188Y014335D01*
X011140Y014383D01*
X011043Y014383D01*
X010995Y014335D01*
X010995Y014190D01*
X011285Y014190D01*
X011188Y014287D02*
X011285Y014383D01*
X011237Y014485D02*
X011285Y014533D01*
X011285Y014630D01*
X011237Y014678D01*
X011188Y014678D01*
X011140Y014630D01*
X011140Y014533D01*
X011092Y014485D01*
X011043Y014485D01*
X010995Y014533D01*
X010995Y014630D01*
X011043Y014678D01*
X010995Y014779D02*
X010995Y014973D01*
X010995Y014876D02*
X011285Y014876D01*
X011237Y015140D02*
X011285Y015188D01*
X011285Y015285D01*
X011237Y015333D01*
X011140Y015333D01*
X011140Y015237D01*
X011043Y015333D02*
X010995Y015285D01*
X010995Y015188D01*
X011043Y015140D01*
X011237Y015140D01*
X011285Y015435D02*
X010995Y015435D01*
X011285Y015628D01*
X010995Y015628D01*
X010995Y015729D02*
X010995Y015874D01*
X011043Y015923D01*
X011237Y015923D01*
X011285Y015874D01*
X011285Y015729D01*
X010995Y015729D01*
X010995Y016290D02*
X011188Y016290D01*
X011285Y016387D01*
X011188Y016483D01*
X010995Y016483D01*
X010995Y016585D02*
X010995Y016681D01*
X010995Y016633D02*
X011285Y016633D01*
X011285Y016585D02*
X011285Y016681D01*
X011285Y016781D02*
X010995Y016781D01*
X011285Y016975D01*
X010995Y016975D01*
X012786Y016162D02*
X012835Y016210D01*
X012932Y016210D01*
X012980Y016162D01*
X012980Y016113D01*
X012932Y016065D01*
X012980Y016017D01*
X012980Y015968D01*
X012932Y015920D01*
X012835Y015920D01*
X012786Y015968D01*
X012883Y016065D02*
X012932Y016065D01*
X013081Y016113D02*
X013129Y016065D01*
X013275Y016065D01*
X013275Y015968D02*
X013275Y016162D01*
X013226Y016210D01*
X013129Y016210D01*
X013081Y016162D01*
X013081Y016113D01*
X013081Y015968D02*
X013129Y015920D01*
X013226Y015920D01*
X013275Y015968D01*
X013376Y015968D02*
X013569Y016162D01*
X013569Y015968D01*
X013521Y015920D01*
X013424Y015920D01*
X013376Y015968D01*
X013376Y016162D01*
X013424Y016210D01*
X013521Y016210D01*
X013569Y016162D01*
X013670Y016210D02*
X013670Y015920D01*
X013670Y016017D02*
X013815Y016017D01*
X013864Y016065D01*
X013864Y016162D01*
X013815Y016210D01*
X013670Y016210D01*
X013767Y016017D02*
X013864Y015920D01*
X014336Y016570D02*
X014530Y016570D01*
X014631Y016570D02*
X014631Y016860D01*
X014825Y016860D01*
X014926Y016860D02*
X014926Y016570D01*
X015071Y016570D01*
X015119Y016618D01*
X015119Y016812D01*
X015071Y016860D01*
X014926Y016860D01*
X014825Y016570D02*
X014631Y016570D01*
X014631Y016715D02*
X014728Y016715D01*
X014336Y016860D02*
X014336Y016570D01*
X015220Y016570D02*
X015414Y016570D01*
X015317Y016570D02*
X015317Y016860D01*
X015220Y016763D01*
X013564Y017220D02*
X013370Y017220D01*
X013467Y017220D02*
X013467Y017510D01*
X013370Y017413D01*
X013269Y017365D02*
X013221Y017317D01*
X013076Y017317D01*
X013172Y017317D02*
X013269Y017220D01*
X013269Y017365D02*
X013269Y017462D01*
X013221Y017510D01*
X013076Y017510D01*
X013076Y017220D01*
X013060Y014230D02*
X013108Y014182D01*
X013108Y014133D01*
X013060Y014085D01*
X013108Y014037D01*
X013108Y013988D01*
X013060Y013940D01*
X012963Y013940D01*
X012915Y013988D01*
X013012Y014085D02*
X013060Y014085D01*
X013060Y014230D02*
X012963Y014230D01*
X012915Y014182D01*
X013210Y014182D02*
X013210Y014133D01*
X013258Y014085D01*
X013403Y014085D01*
X013403Y013988D02*
X013403Y014182D01*
X013355Y014230D01*
X013258Y014230D01*
X013210Y014182D01*
X013210Y013988D02*
X013258Y013940D01*
X013355Y013940D01*
X013403Y013988D01*
X013504Y013988D02*
X013504Y014182D01*
X013553Y014230D01*
X013649Y014230D01*
X013698Y014182D01*
X013504Y013988D01*
X013553Y013940D01*
X013649Y013940D01*
X013698Y013988D01*
X013698Y014182D01*
X013799Y014230D02*
X013799Y013940D01*
X013799Y014037D02*
X013944Y014037D01*
X013992Y014085D01*
X013992Y014182D01*
X013944Y014230D01*
X013799Y014230D01*
X013896Y014037D02*
X013992Y013940D01*
X013515Y013110D02*
X013419Y013110D01*
X013370Y013062D01*
X013269Y013062D02*
X013269Y012965D01*
X013221Y012917D01*
X013076Y012917D01*
X013172Y012917D02*
X013269Y012820D01*
X013370Y012820D02*
X013564Y013013D01*
X013564Y013062D01*
X013515Y013110D01*
X013269Y013062D02*
X013221Y013110D01*
X013076Y013110D01*
X013076Y012820D01*
X013370Y012820D02*
X013564Y012820D01*
X014336Y012710D02*
X014336Y012420D01*
X014530Y012420D01*
X014631Y012420D02*
X014631Y012710D01*
X014825Y012710D01*
X014926Y012710D02*
X014926Y012420D01*
X015071Y012420D01*
X015119Y012468D01*
X015119Y012662D01*
X015071Y012710D01*
X014926Y012710D01*
X015220Y012662D02*
X015269Y012710D01*
X015365Y012710D01*
X015414Y012662D01*
X015414Y012613D01*
X015220Y012420D01*
X015414Y012420D01*
X014825Y012420D02*
X014631Y012420D01*
X014631Y012565D02*
X014728Y012565D01*
D15*
X014720Y007885D02*
X014600Y007885D01*
X014660Y007885D02*
X014660Y007525D01*
X014600Y007525D02*
X014720Y007525D01*
X014845Y007585D02*
X014905Y007525D01*
X015025Y007525D01*
X015085Y007585D01*
X015085Y007705D01*
X014965Y007705D01*
X014845Y007825D02*
X014845Y007585D01*
X014845Y007825D02*
X014905Y007885D01*
X015025Y007885D01*
X015085Y007825D01*
X015213Y007885D02*
X015213Y007525D01*
X015213Y007705D02*
X015454Y007705D01*
X015454Y007885D02*
X015454Y007525D01*
X015702Y007525D02*
X015702Y007885D01*
X015582Y007885D02*
X015822Y007885D01*
X014471Y007525D02*
X014231Y007525D01*
X014231Y007885D01*
X014195Y007125D02*
X014195Y006765D01*
X014435Y006765D01*
X014315Y006945D02*
X014195Y006945D01*
X014067Y006885D02*
X013947Y006765D01*
X013827Y006885D01*
X013827Y007125D01*
X013699Y007065D02*
X013638Y007125D01*
X013518Y007125D01*
X013458Y007065D01*
X013458Y006825D01*
X013518Y006765D01*
X013638Y006765D01*
X013699Y006825D01*
X013699Y007065D01*
X014067Y007125D02*
X014067Y006885D01*
X014195Y007125D02*
X014435Y007125D01*
X013330Y007125D02*
X013330Y006765D01*
X013090Y006765D02*
X013090Y007125D01*
X013210Y007005D01*
X013330Y007125D01*
X013370Y003525D02*
X013250Y003525D01*
X013190Y003465D01*
X013190Y003405D01*
X013250Y003345D01*
X013370Y003345D01*
X013430Y003285D01*
X013430Y003225D01*
X013370Y003165D01*
X013250Y003165D01*
X013190Y003225D01*
X013430Y003465D02*
X013370Y003525D01*
X013558Y003465D02*
X013558Y003225D01*
X013618Y003165D01*
X013738Y003165D01*
X013799Y003225D01*
X013799Y003465D01*
X013738Y003525D01*
X013618Y003525D01*
X013558Y003465D01*
X013927Y003525D02*
X013927Y003225D01*
X013987Y003165D01*
X014107Y003165D01*
X014167Y003225D01*
X014167Y003525D01*
X014295Y003525D02*
X014535Y003165D01*
X014535Y003525D01*
X014663Y003525D02*
X014843Y003525D01*
X014903Y003465D01*
X014903Y003225D01*
X014843Y003165D01*
X014663Y003165D01*
X014663Y003525D01*
X014295Y003525D02*
X014295Y003165D01*
X006267Y003722D02*
X005960Y004029D01*
X006113Y004029D02*
X006113Y003722D01*
X005960Y003722D02*
X006267Y004029D01*
X006267Y003875D02*
X005960Y003875D01*
X005960Y004722D02*
X006267Y005029D01*
X006267Y004875D02*
X005960Y004875D01*
X005960Y005029D02*
X006267Y004722D01*
X006113Y004722D02*
X006113Y005029D01*
X006113Y005722D02*
X006113Y006029D01*
X005960Y006029D02*
X006267Y005722D01*
X006267Y005875D02*
X005960Y005875D01*
X005960Y005722D02*
X006267Y006029D01*
X004015Y007575D02*
X003955Y007515D01*
X003775Y007515D01*
X003775Y007395D02*
X003775Y007755D01*
X003955Y007755D01*
X004015Y007695D01*
X004015Y007575D01*
X003647Y007755D02*
X003647Y007395D01*
X003407Y007395D02*
X003407Y007755D01*
X003527Y007635D01*
X003647Y007755D01*
X003279Y007755D02*
X003038Y007755D01*
X003038Y007395D01*
X003279Y007395D01*
X003158Y007575D02*
X003038Y007575D01*
X002910Y007755D02*
X002670Y007755D01*
X002790Y007755D02*
X002790Y007395D01*
X002823Y006952D02*
X002746Y006952D01*
X002670Y006875D01*
X002670Y006722D01*
X002746Y006645D01*
X002823Y006952D02*
X003130Y006645D01*
X003130Y006952D01*
X002130Y006952D02*
X002130Y006645D01*
X002130Y006798D02*
X001670Y006798D01*
X001823Y006645D01*
X001310Y010415D02*
X001310Y010535D01*
X001310Y010475D02*
X000950Y010475D01*
X000950Y010415D02*
X000950Y010535D01*
X000950Y010661D02*
X000950Y010841D01*
X001010Y010901D01*
X001130Y010901D01*
X001190Y010841D01*
X001190Y010661D01*
X001190Y010781D02*
X001310Y010901D01*
X001130Y011029D02*
X001130Y011269D01*
X001190Y011397D02*
X001190Y011577D01*
X001130Y011637D01*
X001010Y011637D01*
X000950Y011577D01*
X000950Y011397D01*
X001310Y011397D01*
X001190Y011517D02*
X001310Y011637D01*
X001310Y011765D02*
X000950Y012006D01*
X000950Y011765D02*
X001310Y012006D01*
X001310Y012415D02*
X001310Y012535D01*
X001310Y012475D02*
X000950Y012475D01*
X000950Y012415D02*
X000950Y012535D01*
X000950Y012661D02*
X000950Y012841D01*
X001010Y012901D01*
X001130Y012901D01*
X001190Y012841D01*
X001190Y012661D01*
X001190Y012781D02*
X001310Y012901D01*
X001130Y013029D02*
X001130Y013269D01*
X000950Y013397D02*
X000950Y013637D01*
X000950Y013517D02*
X001310Y013517D01*
X001310Y013765D02*
X000950Y014006D01*
X000950Y013765D02*
X001310Y014006D01*
X001356Y015119D02*
X001717Y015119D01*
X001536Y015119D02*
X001536Y015359D01*
X001656Y015487D02*
X001356Y015487D01*
X001356Y015359D02*
X001717Y015359D01*
X001656Y015487D02*
X001717Y015547D01*
X001717Y015668D01*
X001656Y015728D01*
X001356Y015728D01*
X001356Y015856D02*
X001476Y015976D01*
X001356Y016096D01*
X001717Y016096D01*
X001717Y016224D02*
X001717Y016404D01*
X001656Y016464D01*
X001416Y016464D01*
X001356Y016404D01*
X001356Y016224D01*
X001717Y016224D01*
X001717Y015856D02*
X001356Y015856D01*
X001310Y012661D02*
X000950Y012661D01*
X000950Y010661D02*
X001310Y010661D01*
X005960Y010029D02*
X006267Y009722D01*
X006267Y009875D02*
X005960Y009875D01*
X005960Y009722D02*
X006267Y010029D01*
X006113Y010029D02*
X006113Y009722D01*
X006113Y009029D02*
X006113Y008722D01*
X005960Y008722D02*
X006267Y009029D01*
X006267Y008875D02*
X005960Y008875D01*
X005960Y009029D02*
X006267Y008722D01*
X006267Y011722D02*
X005960Y012029D01*
X006113Y012029D02*
X006113Y011722D01*
X005960Y011722D02*
X006267Y012029D01*
X006267Y011875D02*
X005960Y011875D01*
X003053Y002492D02*
X002977Y002492D01*
X002900Y002415D01*
X002900Y002261D01*
X002823Y002185D01*
X002746Y002185D01*
X002670Y002261D01*
X002670Y002415D01*
X002746Y002492D01*
X002823Y002492D01*
X002900Y002415D01*
X002900Y002261D02*
X002977Y002185D01*
X003053Y002185D01*
X003130Y002261D01*
X003130Y002415D01*
X003053Y002492D01*
X002130Y002185D02*
X002053Y002185D01*
X001746Y002492D01*
X001670Y002492D01*
X001670Y002185D01*
D16*
X002569Y009480D02*
X002524Y009423D01*
X002525Y009424D02*
X002475Y009460D01*
X002424Y009493D01*
X002371Y009523D01*
X002315Y009550D01*
X002259Y009573D01*
X002201Y009593D01*
X002142Y009610D01*
X002082Y009622D01*
X002022Y009632D01*
X001961Y009637D01*
X001900Y009639D01*
X001839Y009637D01*
X001778Y009632D01*
X001717Y009622D01*
X001657Y009610D01*
X001598Y009593D01*
X001541Y009573D01*
X001484Y009550D01*
X001429Y009523D01*
X001376Y009493D01*
X001324Y009460D01*
X001275Y009424D01*
X001228Y009384D01*
X001183Y009342D01*
X001141Y009298D01*
X001102Y009251D01*
X001066Y009202D01*
X001033Y009150D01*
X001003Y009097D01*
X000976Y009042D01*
X000952Y008986D01*
X000932Y008928D01*
X000864Y008949D01*
X000863Y008949D01*
X000885Y009011D01*
X000910Y009071D01*
X000939Y009130D01*
X000971Y009187D01*
X001007Y009242D01*
X001046Y009295D01*
X001088Y009346D01*
X001132Y009393D01*
X001180Y009438D01*
X001231Y009480D01*
X001283Y009519D01*
X001338Y009555D01*
X001396Y009587D01*
X001454Y009615D01*
X001515Y009640D01*
X001577Y009662D01*
X001640Y009679D01*
X001704Y009693D01*
X001769Y009703D01*
X001834Y009709D01*
X001900Y009711D01*
X001965Y009709D01*
X002031Y009703D01*
X002095Y009693D01*
X002160Y009680D01*
X002223Y009662D01*
X002285Y009641D01*
X002345Y009616D01*
X002404Y009587D01*
X002461Y009555D01*
X002516Y009519D01*
X002569Y009480D01*
X002565Y009475D01*
X002512Y009513D01*
X002458Y009549D01*
X002401Y009581D01*
X002342Y009609D01*
X002282Y009634D01*
X002221Y009655D01*
X002158Y009673D01*
X002094Y009686D01*
X002030Y009696D01*
X001965Y009702D01*
X001900Y009704D01*
X001835Y009702D01*
X001770Y009696D01*
X001705Y009686D01*
X001642Y009673D01*
X001579Y009655D01*
X001518Y009634D01*
X001457Y009609D01*
X001399Y009581D01*
X001342Y009549D01*
X001287Y009513D01*
X001235Y009475D01*
X001185Y009433D01*
X001137Y009388D01*
X001093Y009341D01*
X001051Y009291D01*
X001012Y009239D01*
X000977Y009184D01*
X000945Y009127D01*
X000916Y009069D01*
X000891Y009008D01*
X000870Y008947D01*
X000877Y008945D01*
X000898Y009006D01*
X000923Y009066D01*
X000951Y009124D01*
X000983Y009180D01*
X001018Y009235D01*
X001057Y009287D01*
X001098Y009336D01*
X001142Y009383D01*
X001189Y009428D01*
X001239Y009469D01*
X001291Y009507D01*
X001346Y009543D01*
X001402Y009574D01*
X001460Y009603D01*
X001520Y009627D01*
X001581Y009648D01*
X001643Y009666D01*
X001707Y009679D01*
X001771Y009689D01*
X001835Y009695D01*
X001900Y009697D01*
X001964Y009695D01*
X002029Y009689D01*
X002093Y009680D01*
X002156Y009666D01*
X002218Y009649D01*
X002280Y009628D01*
X002339Y009603D01*
X002398Y009575D01*
X002454Y009543D01*
X002508Y009508D01*
X002560Y009469D01*
X002556Y009464D01*
X002504Y009502D01*
X002450Y009537D01*
X002394Y009568D01*
X002337Y009596D01*
X002277Y009621D01*
X002216Y009642D01*
X002154Y009659D01*
X002092Y009673D01*
X002028Y009682D01*
X001964Y009688D01*
X001900Y009690D01*
X001836Y009688D01*
X001772Y009682D01*
X001708Y009673D01*
X001645Y009659D01*
X001583Y009642D01*
X001522Y009621D01*
X001463Y009596D01*
X001405Y009568D01*
X001349Y009537D01*
X001295Y009502D01*
X001244Y009464D01*
X001194Y009422D01*
X001147Y009378D01*
X001103Y009332D01*
X001062Y009282D01*
X001024Y009231D01*
X000989Y009177D01*
X000957Y009121D01*
X000929Y009063D01*
X000905Y009004D01*
X000884Y008943D01*
X000890Y008941D01*
X000911Y009001D01*
X000936Y009060D01*
X000964Y009117D01*
X000995Y009173D01*
X001030Y009227D01*
X001068Y009278D01*
X001108Y009327D01*
X001152Y009374D01*
X001199Y009417D01*
X001248Y009458D01*
X001299Y009496D01*
X001353Y009531D01*
X001409Y009562D01*
X001466Y009590D01*
X001525Y009614D01*
X001585Y009635D01*
X001647Y009652D01*
X001709Y009666D01*
X001772Y009675D01*
X001836Y009681D01*
X001900Y009683D01*
X001964Y009681D01*
X002027Y009675D01*
X002090Y009666D01*
X002153Y009652D01*
X002214Y009635D01*
X002275Y009614D01*
X002334Y009590D01*
X002391Y009562D01*
X002447Y009531D01*
X002500Y009496D01*
X002552Y009458D01*
X002547Y009453D01*
X002496Y009490D01*
X002443Y009525D01*
X002388Y009556D01*
X002331Y009584D01*
X002272Y009608D01*
X002212Y009629D01*
X002151Y009646D01*
X002089Y009659D01*
X002026Y009668D01*
X001963Y009674D01*
X001900Y009676D01*
X001836Y009674D01*
X001773Y009668D01*
X001711Y009659D01*
X001649Y009645D01*
X001587Y009628D01*
X001527Y009608D01*
X001469Y009583D01*
X001412Y009556D01*
X001357Y009525D01*
X001303Y009490D01*
X001252Y009453D01*
X001203Y009412D01*
X001157Y009369D01*
X001114Y009322D01*
X001073Y009274D01*
X001035Y009223D01*
X001001Y009169D01*
X000970Y009114D01*
X000942Y009057D01*
X000918Y008999D01*
X000897Y008939D01*
X000904Y008937D01*
X000924Y008996D01*
X000948Y009054D01*
X000976Y009111D01*
X001007Y009166D01*
X001041Y009219D01*
X001079Y009269D01*
X001119Y009318D01*
X001162Y009364D01*
X001208Y009407D01*
X001257Y009447D01*
X001307Y009484D01*
X001360Y009519D01*
X001415Y009550D01*
X001472Y009577D01*
X001530Y009601D01*
X001589Y009622D01*
X001650Y009639D01*
X001712Y009652D01*
X001774Y009661D01*
X001837Y009667D01*
X001900Y009669D01*
X001963Y009667D01*
X002025Y009661D01*
X002088Y009652D01*
X002149Y009639D01*
X002210Y009622D01*
X002270Y009601D01*
X002328Y009577D01*
X002385Y009550D01*
X002439Y009519D01*
X002492Y009485D01*
X002543Y009447D01*
X002539Y009442D01*
X002488Y009479D01*
X002436Y009513D01*
X002381Y009544D01*
X002325Y009571D01*
X002267Y009595D01*
X002208Y009615D01*
X002148Y009632D01*
X002087Y009645D01*
X002025Y009654D01*
X001962Y009660D01*
X001900Y009662D01*
X001837Y009660D01*
X001775Y009654D01*
X001713Y009645D01*
X001652Y009632D01*
X001592Y009615D01*
X001532Y009595D01*
X001475Y009571D01*
X001418Y009543D01*
X001364Y009513D01*
X001311Y009479D01*
X001261Y009442D01*
X001213Y009402D01*
X001167Y009359D01*
X001124Y009313D01*
X001084Y009265D01*
X001047Y009215D01*
X001013Y009162D01*
X000982Y009108D01*
X000955Y009051D01*
X000931Y008994D01*
X000910Y008935D01*
X000917Y008932D01*
X000937Y008991D01*
X000961Y009049D01*
X000988Y009104D01*
X001019Y009159D01*
X001053Y009211D01*
X001090Y009261D01*
X001129Y009309D01*
X001172Y009354D01*
X001217Y009396D01*
X001265Y009436D01*
X001315Y009473D01*
X001367Y009507D01*
X001422Y009537D01*
X001477Y009564D01*
X001535Y009588D01*
X001594Y009608D01*
X001654Y009625D01*
X001714Y009638D01*
X001776Y009647D01*
X001838Y009653D01*
X001900Y009655D01*
X001962Y009653D01*
X002024Y009648D01*
X002085Y009638D01*
X002146Y009625D01*
X002206Y009609D01*
X002265Y009588D01*
X002322Y009565D01*
X002378Y009537D01*
X002432Y009507D01*
X002484Y009473D01*
X002534Y009436D01*
X002530Y009431D01*
X002480Y009467D01*
X002429Y009501D01*
X002375Y009531D01*
X002319Y009558D01*
X002262Y009582D01*
X002204Y009602D01*
X002144Y009618D01*
X002084Y009631D01*
X002023Y009641D01*
X001961Y009646D01*
X001900Y009648D01*
X001838Y009646D01*
X001777Y009641D01*
X001716Y009631D01*
X001655Y009618D01*
X001596Y009602D01*
X001537Y009582D01*
X001480Y009558D01*
X001425Y009531D01*
X001371Y009501D01*
X001319Y009467D01*
X001269Y009431D01*
X001222Y009391D01*
X001177Y009349D01*
X001135Y009304D01*
X001095Y009256D01*
X001059Y009207D01*
X001025Y009155D01*
X000995Y009101D01*
X000968Y009046D01*
X000944Y008989D01*
X000924Y008930D01*
X000930Y008928D01*
X000950Y008986D01*
X000974Y009043D01*
X001001Y009098D01*
X001031Y009151D01*
X001064Y009203D01*
X001101Y009252D01*
X001140Y009299D01*
X001182Y009344D01*
X001227Y009386D01*
X001274Y009425D01*
X001323Y009461D01*
X001375Y009495D01*
X001428Y009525D01*
X001483Y009552D01*
X001540Y009575D01*
X001598Y009595D01*
X001657Y009611D01*
X001717Y009624D01*
X001777Y009634D01*
X001838Y009639D01*
X001900Y009641D01*
X001961Y009639D01*
X002022Y009634D01*
X002083Y009624D01*
X002143Y009612D01*
X002202Y009595D01*
X002260Y009575D01*
X002316Y009552D01*
X002371Y009525D01*
X002425Y009495D01*
X002476Y009462D01*
X002526Y009425D01*
X000864Y008302D02*
X000933Y008323D01*
X000932Y008322D02*
X000952Y008264D01*
X000976Y008208D01*
X001003Y008153D01*
X001033Y008100D01*
X001066Y008048D01*
X001102Y007999D01*
X001141Y007952D01*
X001183Y007908D01*
X001228Y007866D01*
X001275Y007827D01*
X001324Y007790D01*
X001376Y007757D01*
X001429Y007727D01*
X001484Y007700D01*
X001541Y007677D01*
X001598Y007657D01*
X001657Y007640D01*
X001717Y007628D01*
X001778Y007618D01*
X001839Y007613D01*
X001900Y007611D01*
X001961Y007613D01*
X002022Y007618D01*
X002082Y007628D01*
X002142Y007640D01*
X002201Y007657D01*
X002259Y007677D01*
X002315Y007700D01*
X002371Y007727D01*
X002424Y007757D01*
X002475Y007790D01*
X002525Y007826D01*
X002569Y007770D01*
X002516Y007731D01*
X002461Y007695D01*
X002404Y007663D01*
X002345Y007634D01*
X002285Y007609D01*
X002223Y007588D01*
X002159Y007570D01*
X002095Y007557D01*
X002031Y007547D01*
X001965Y007541D01*
X001900Y007539D01*
X001834Y007541D01*
X001769Y007547D01*
X001704Y007557D01*
X001640Y007571D01*
X001577Y007588D01*
X001515Y007610D01*
X001454Y007635D01*
X001396Y007663D01*
X001338Y007695D01*
X001283Y007731D01*
X001231Y007770D01*
X001180Y007812D01*
X001132Y007857D01*
X001087Y007904D01*
X001046Y007955D01*
X001007Y008008D01*
X000971Y008063D01*
X000939Y008120D01*
X000910Y008179D01*
X000885Y008239D01*
X000863Y008301D01*
X000870Y008303D01*
X000891Y008242D01*
X000916Y008181D01*
X000945Y008123D01*
X000977Y008066D01*
X001012Y008011D01*
X001051Y007959D01*
X001093Y007909D01*
X001137Y007862D01*
X001185Y007817D01*
X001235Y007775D01*
X001287Y007737D01*
X001342Y007701D01*
X001399Y007669D01*
X001457Y007641D01*
X001518Y007616D01*
X001579Y007595D01*
X001642Y007577D01*
X001705Y007564D01*
X001770Y007554D01*
X001835Y007548D01*
X001900Y007546D01*
X001965Y007548D01*
X002030Y007554D01*
X002094Y007564D01*
X002158Y007577D01*
X002221Y007595D01*
X002282Y007616D01*
X002342Y007641D01*
X002401Y007669D01*
X002458Y007701D01*
X002512Y007737D01*
X002565Y007775D01*
X002560Y007781D01*
X002508Y007742D01*
X002454Y007707D01*
X002398Y007675D01*
X002339Y007647D01*
X002280Y007622D01*
X002218Y007601D01*
X002156Y007584D01*
X002093Y007570D01*
X002029Y007561D01*
X001964Y007555D01*
X001900Y007553D01*
X001835Y007555D01*
X001771Y007561D01*
X001707Y007571D01*
X001643Y007584D01*
X001581Y007602D01*
X001520Y007623D01*
X001460Y007647D01*
X001402Y007676D01*
X001346Y007707D01*
X001291Y007743D01*
X001239Y007781D01*
X001189Y007822D01*
X001142Y007867D01*
X001098Y007914D01*
X001057Y007963D01*
X001018Y008015D01*
X000983Y008070D01*
X000951Y008126D01*
X000923Y008184D01*
X000898Y008244D01*
X000877Y008305D01*
X000884Y008307D01*
X000905Y008246D01*
X000929Y008187D01*
X000957Y008129D01*
X000989Y008073D01*
X001024Y008019D01*
X001062Y007968D01*
X001103Y007918D01*
X001147Y007872D01*
X001194Y007828D01*
X001244Y007786D01*
X001295Y007748D01*
X001349Y007713D01*
X001405Y007682D01*
X001463Y007654D01*
X001522Y007629D01*
X001583Y007608D01*
X001645Y007591D01*
X001708Y007577D01*
X001772Y007568D01*
X001836Y007562D01*
X001900Y007560D01*
X001964Y007562D01*
X002028Y007568D01*
X002092Y007577D01*
X002154Y007591D01*
X002216Y007608D01*
X002277Y007629D01*
X002337Y007654D01*
X002394Y007682D01*
X002450Y007713D01*
X002504Y007748D01*
X002556Y007786D01*
X002552Y007792D01*
X002500Y007754D01*
X002447Y007719D01*
X002391Y007688D01*
X002334Y007660D01*
X002275Y007636D01*
X002214Y007615D01*
X002153Y007598D01*
X002090Y007584D01*
X002027Y007575D01*
X001964Y007569D01*
X001900Y007567D01*
X001836Y007569D01*
X001772Y007575D01*
X001709Y007584D01*
X001647Y007598D01*
X001585Y007615D01*
X001525Y007636D01*
X001466Y007660D01*
X001409Y007688D01*
X001353Y007719D01*
X001299Y007754D01*
X001248Y007792D01*
X001199Y007833D01*
X001152Y007876D01*
X001108Y007923D01*
X001068Y007972D01*
X001030Y008023D01*
X000995Y008077D01*
X000964Y008133D01*
X000936Y008190D01*
X000911Y008249D01*
X000890Y008309D01*
X000897Y008311D01*
X000918Y008251D01*
X000942Y008193D01*
X000970Y008136D01*
X001001Y008081D01*
X001035Y008027D01*
X001073Y007976D01*
X001114Y007928D01*
X001157Y007881D01*
X001203Y007838D01*
X001252Y007797D01*
X001303Y007760D01*
X001357Y007725D01*
X001412Y007694D01*
X001469Y007667D01*
X001527Y007642D01*
X001587Y007622D01*
X001648Y007605D01*
X001711Y007591D01*
X001773Y007582D01*
X001836Y007576D01*
X001900Y007574D01*
X001963Y007576D01*
X002026Y007582D01*
X002089Y007591D01*
X002151Y007604D01*
X002212Y007621D01*
X002272Y007642D01*
X002331Y007666D01*
X002388Y007694D01*
X002443Y007725D01*
X002496Y007760D01*
X002547Y007797D01*
X002543Y007803D01*
X002492Y007765D01*
X002439Y007731D01*
X002385Y007700D01*
X002328Y007673D01*
X002270Y007649D01*
X002210Y007628D01*
X002149Y007611D01*
X002088Y007598D01*
X002025Y007589D01*
X001963Y007583D01*
X001900Y007581D01*
X001837Y007583D01*
X001774Y007589D01*
X001712Y007598D01*
X001650Y007611D01*
X001589Y007628D01*
X001530Y007649D01*
X001472Y007673D01*
X001415Y007700D01*
X001360Y007731D01*
X001307Y007766D01*
X001256Y007803D01*
X001208Y007843D01*
X001162Y007886D01*
X001119Y007932D01*
X001079Y007981D01*
X001041Y008031D01*
X001007Y008084D01*
X000976Y008139D01*
X000948Y008196D01*
X000924Y008254D01*
X000904Y008313D01*
X000910Y008315D01*
X000931Y008256D01*
X000955Y008199D01*
X000982Y008142D01*
X001013Y008088D01*
X001047Y008035D01*
X001084Y007985D01*
X001124Y007937D01*
X001167Y007891D01*
X001213Y007848D01*
X001261Y007808D01*
X001311Y007771D01*
X001364Y007737D01*
X001418Y007707D01*
X001475Y007679D01*
X001532Y007655D01*
X001592Y007635D01*
X001652Y007618D01*
X001713Y007605D01*
X001775Y007596D01*
X001837Y007590D01*
X001900Y007588D01*
X001962Y007590D01*
X002025Y007596D01*
X002086Y007605D01*
X002148Y007618D01*
X002208Y007635D01*
X002267Y007655D01*
X002325Y007679D01*
X002381Y007706D01*
X002436Y007737D01*
X002488Y007771D01*
X002539Y007808D01*
X002534Y007814D01*
X002484Y007777D01*
X002432Y007743D01*
X002378Y007713D01*
X002322Y007685D01*
X002265Y007662D01*
X002206Y007641D01*
X002146Y007625D01*
X002085Y007612D01*
X002024Y007602D01*
X001962Y007597D01*
X001900Y007595D01*
X001838Y007597D01*
X001776Y007603D01*
X001714Y007612D01*
X001654Y007625D01*
X001594Y007642D01*
X001535Y007662D01*
X001477Y007686D01*
X001422Y007713D01*
X001367Y007743D01*
X001315Y007777D01*
X001265Y007814D01*
X001217Y007854D01*
X001172Y007896D01*
X001129Y007941D01*
X001090Y007989D01*
X001053Y008039D01*
X001019Y008091D01*
X000988Y008146D01*
X000961Y008201D01*
X000937Y008259D01*
X000917Y008318D01*
X000924Y008320D01*
X000944Y008261D01*
X000968Y008204D01*
X000995Y008149D01*
X001025Y008095D01*
X001059Y008043D01*
X001095Y007994D01*
X001135Y007946D01*
X001177Y007901D01*
X001222Y007859D01*
X001269Y007819D01*
X001319Y007783D01*
X001371Y007749D01*
X001425Y007719D01*
X001480Y007692D01*
X001537Y007668D01*
X001596Y007648D01*
X001655Y007632D01*
X001716Y007619D01*
X001777Y007609D01*
X001838Y007604D01*
X001900Y007602D01*
X001961Y007604D01*
X002023Y007609D01*
X002084Y007619D01*
X002144Y007632D01*
X002204Y007648D01*
X002262Y007668D01*
X002319Y007692D01*
X002375Y007719D01*
X002429Y007749D01*
X002480Y007783D01*
X002530Y007819D01*
X002526Y007825D01*
X002476Y007788D01*
X002425Y007755D01*
X002371Y007725D01*
X002316Y007698D01*
X002260Y007675D01*
X002202Y007655D01*
X002143Y007638D01*
X002083Y007626D01*
X002022Y007616D01*
X001961Y007611D01*
X001900Y007609D01*
X001838Y007611D01*
X001777Y007616D01*
X001717Y007626D01*
X001657Y007639D01*
X001598Y007655D01*
X001540Y007675D01*
X001483Y007698D01*
X001428Y007725D01*
X001375Y007755D01*
X001323Y007789D01*
X001274Y007825D01*
X001227Y007864D01*
X001182Y007906D01*
X001140Y007951D01*
X001101Y007998D01*
X001064Y008047D01*
X001031Y008099D01*
X001001Y008152D01*
X000974Y008207D01*
X000950Y008264D01*
X000930Y008322D01*
D17*
X014169Y013202D02*
X014247Y013247D01*
X014247Y013246D02*
X014275Y013202D01*
X014306Y013160D01*
X014339Y013120D01*
X014375Y013082D01*
X014414Y013047D01*
X014455Y013015D01*
X014499Y012985D01*
X014544Y012959D01*
X014591Y012936D01*
X014639Y012916D01*
X014689Y012900D01*
X014739Y012887D01*
X014791Y012878D01*
X014843Y012872D01*
X014895Y012870D01*
X014896Y012781D01*
X014895Y012780D01*
X014840Y012782D01*
X014786Y012788D01*
X014731Y012797D01*
X014678Y012810D01*
X014626Y012826D01*
X014574Y012845D01*
X014524Y012868D01*
X014476Y012894D01*
X014429Y012923D01*
X014385Y012955D01*
X014342Y012990D01*
X014302Y013028D01*
X014265Y013068D01*
X014230Y013110D01*
X014198Y013155D01*
X014169Y013201D01*
X014177Y013206D01*
X014205Y013160D01*
X014237Y013116D01*
X014272Y013074D01*
X014309Y013034D01*
X014348Y012997D01*
X014390Y012962D01*
X014434Y012931D01*
X014480Y012902D01*
X014528Y012876D01*
X014578Y012854D01*
X014628Y012834D01*
X014680Y012818D01*
X014733Y012806D01*
X014787Y012797D01*
X014841Y012791D01*
X014895Y012789D01*
X014895Y012798D01*
X014841Y012800D01*
X014788Y012806D01*
X014735Y012815D01*
X014683Y012827D01*
X014631Y012843D01*
X014581Y012862D01*
X014532Y012884D01*
X014485Y012910D01*
X014439Y012938D01*
X014396Y012970D01*
X014354Y013004D01*
X014315Y013040D01*
X014278Y013080D01*
X014244Y013121D01*
X014213Y013165D01*
X014184Y013210D01*
X014192Y013215D01*
X014222Y013167D01*
X014256Y013121D01*
X014292Y013078D01*
X014332Y013037D01*
X014374Y012999D01*
X014418Y012964D01*
X014465Y012932D01*
X014514Y012904D01*
X014565Y012879D01*
X014618Y012857D01*
X014671Y012840D01*
X014726Y012826D01*
X014782Y012816D01*
X014838Y012809D01*
X014895Y012807D01*
X014895Y012816D01*
X014839Y012818D01*
X014783Y012824D01*
X014728Y012834D01*
X014674Y012848D01*
X014621Y012866D01*
X014569Y012887D01*
X014518Y012912D01*
X014470Y012940D01*
X014424Y012971D01*
X014379Y013006D01*
X014338Y013043D01*
X014299Y013084D01*
X014263Y013126D01*
X014230Y013172D01*
X014200Y013219D01*
X014208Y013224D01*
X014237Y013177D01*
X014270Y013132D01*
X014306Y013090D01*
X014344Y013050D01*
X014385Y013013D01*
X014429Y012978D01*
X014475Y012947D01*
X014523Y012920D01*
X014572Y012895D01*
X014624Y012874D01*
X014676Y012857D01*
X014730Y012843D01*
X014785Y012833D01*
X014840Y012827D01*
X014895Y012825D01*
X014895Y012834D01*
X014840Y012836D01*
X014786Y012842D01*
X014732Y012852D01*
X014679Y012866D01*
X014627Y012883D01*
X014576Y012903D01*
X014527Y012928D01*
X014480Y012955D01*
X014434Y012986D01*
X014391Y013019D01*
X014350Y013056D01*
X014312Y013096D01*
X014277Y013138D01*
X014245Y013182D01*
X014216Y013228D01*
X014224Y013233D01*
X014252Y013187D01*
X014284Y013143D01*
X014319Y013102D01*
X014357Y013063D01*
X014397Y013026D01*
X014439Y012993D01*
X014484Y012963D01*
X014531Y012935D01*
X014580Y012912D01*
X014630Y012891D01*
X014681Y012874D01*
X014734Y012861D01*
X014787Y012851D01*
X014841Y012845D01*
X014895Y012843D01*
X014895Y012852D01*
X014842Y012854D01*
X014788Y012860D01*
X014736Y012870D01*
X014684Y012883D01*
X014633Y012900D01*
X014583Y012920D01*
X014535Y012943D01*
X014489Y012970D01*
X014445Y013000D01*
X014403Y013033D01*
X014363Y013069D01*
X014326Y013108D01*
X014291Y013149D01*
X014260Y013192D01*
X014231Y013237D01*
X014239Y013242D01*
X014267Y013197D01*
X014298Y013154D01*
X014332Y013114D01*
X014369Y013076D01*
X014408Y013040D01*
X014450Y013008D01*
X014494Y012978D01*
X014540Y012951D01*
X014587Y012928D01*
X014636Y012908D01*
X014686Y012891D01*
X014738Y012878D01*
X014790Y012869D01*
X014842Y012863D01*
X014895Y012861D01*
X014895Y014469D02*
X014895Y014379D01*
X014895Y014380D02*
X014841Y014378D01*
X014788Y014372D01*
X014735Y014362D01*
X014683Y014348D01*
X014632Y014331D01*
X014583Y014310D01*
X014535Y014286D01*
X014489Y014258D01*
X014445Y014227D01*
X014403Y014193D01*
X014364Y014157D01*
X014327Y014117D01*
X014294Y014075D01*
X014263Y014031D01*
X014236Y013985D01*
X014157Y014027D01*
X014185Y014076D01*
X014217Y014122D01*
X014252Y014167D01*
X014289Y014209D01*
X014330Y014249D01*
X014373Y014285D01*
X014418Y014319D01*
X014465Y014350D01*
X014515Y014377D01*
X014566Y014401D01*
X014618Y014422D01*
X014672Y014439D01*
X014727Y014452D01*
X014782Y014462D01*
X014839Y014468D01*
X014895Y014470D01*
X014895Y014461D01*
X014839Y014459D01*
X014784Y014453D01*
X014729Y014443D01*
X014674Y014430D01*
X014621Y014413D01*
X014569Y014393D01*
X014519Y014369D01*
X014470Y014342D01*
X014423Y014312D01*
X014378Y014278D01*
X014336Y014242D01*
X014296Y014203D01*
X014259Y014161D01*
X014224Y014117D01*
X014193Y014071D01*
X014165Y014023D01*
X014173Y014019D01*
X014201Y014066D01*
X014232Y014112D01*
X014266Y014155D01*
X014302Y014197D01*
X014342Y014235D01*
X014384Y014271D01*
X014428Y014304D01*
X014474Y014334D01*
X014523Y014361D01*
X014573Y014384D01*
X014624Y014405D01*
X014677Y014421D01*
X014730Y014434D01*
X014785Y014444D01*
X014840Y014450D01*
X014895Y014452D01*
X014895Y014443D01*
X014840Y014441D01*
X014786Y014435D01*
X014732Y014426D01*
X014679Y014413D01*
X014627Y014396D01*
X014576Y014376D01*
X014527Y014353D01*
X014479Y014326D01*
X014433Y014297D01*
X014389Y014264D01*
X014348Y014229D01*
X014309Y014190D01*
X014272Y014150D01*
X014239Y014107D01*
X014208Y014061D01*
X014181Y014014D01*
X014189Y014010D01*
X014216Y014057D01*
X014246Y014101D01*
X014279Y014144D01*
X014315Y014184D01*
X014354Y014222D01*
X014395Y014257D01*
X014438Y014289D01*
X014484Y014319D01*
X014531Y014345D01*
X014580Y014368D01*
X014630Y014388D01*
X014682Y014404D01*
X014734Y014417D01*
X014787Y014426D01*
X014841Y014432D01*
X014895Y014434D01*
X014895Y014425D01*
X014842Y014423D01*
X014789Y014417D01*
X014736Y014408D01*
X014684Y014395D01*
X014633Y014379D01*
X014583Y014360D01*
X014535Y014337D01*
X014488Y014311D01*
X014444Y014282D01*
X014401Y014250D01*
X014360Y014215D01*
X014322Y014178D01*
X014286Y014138D01*
X014253Y014096D01*
X014223Y014052D01*
X014196Y014006D01*
X014204Y014002D01*
X014231Y014047D01*
X014261Y014091D01*
X014293Y014132D01*
X014328Y014172D01*
X014366Y014209D01*
X014406Y014243D01*
X014449Y014275D01*
X014493Y014303D01*
X014539Y014329D01*
X014587Y014351D01*
X014636Y014371D01*
X014686Y014387D01*
X014738Y014399D01*
X014790Y014408D01*
X014842Y014414D01*
X014895Y014416D01*
X014895Y014407D01*
X014839Y014405D01*
X014784Y014398D01*
X014729Y014388D01*
X014675Y014374D01*
X014623Y014356D01*
X014571Y014335D01*
X014522Y014309D01*
X014474Y014281D01*
X014428Y014249D01*
X014385Y014214D01*
X014345Y014176D01*
X014307Y014135D01*
X014272Y014091D01*
X014241Y014045D01*
X014212Y013997D01*
X014220Y013993D01*
X014248Y014041D01*
X014279Y014086D01*
X014314Y014129D01*
X014351Y014169D01*
X014391Y014207D01*
X014434Y014242D01*
X014479Y014273D01*
X014526Y014302D01*
X014575Y014326D01*
X014626Y014348D01*
X014678Y014365D01*
X014731Y014379D01*
X014785Y014389D01*
X014840Y014396D01*
X014895Y014398D01*
X014895Y014389D01*
X014841Y014387D01*
X014787Y014381D01*
X014733Y014371D01*
X014681Y014357D01*
X014629Y014339D01*
X014579Y014318D01*
X014530Y014294D01*
X014484Y014266D01*
X014439Y014234D01*
X014397Y014200D01*
X014358Y014163D01*
X014321Y014123D01*
X014287Y014081D01*
X014256Y014036D01*
X014228Y013989D01*
X015545Y014169D02*
X015476Y014112D01*
X015477Y014112D02*
X015440Y014152D01*
X015401Y014190D01*
X015359Y014224D01*
X015315Y014256D01*
X015269Y014284D01*
X015220Y014309D01*
X015170Y014330D01*
X015119Y014348D01*
X015066Y014361D01*
X015013Y014371D01*
X014959Y014378D01*
X014905Y014380D01*
X014904Y014469D01*
X014905Y014470D01*
X014961Y014468D01*
X015017Y014462D01*
X015072Y014452D01*
X015127Y014439D01*
X015180Y014422D01*
X015233Y014402D01*
X015284Y014378D01*
X015333Y014351D01*
X015380Y014320D01*
X015425Y014287D01*
X015468Y014251D01*
X015508Y014212D01*
X015546Y014170D01*
X015539Y014164D01*
X015502Y014205D01*
X015462Y014244D01*
X015420Y014280D01*
X015375Y014313D01*
X015328Y014343D01*
X015280Y014370D01*
X015229Y014393D01*
X015177Y014414D01*
X015124Y014430D01*
X015070Y014443D01*
X015016Y014453D01*
X014961Y014459D01*
X014905Y014461D01*
X014905Y014452D01*
X014960Y014450D01*
X015015Y014444D01*
X015069Y014435D01*
X015122Y014422D01*
X015174Y014405D01*
X015226Y014385D01*
X015275Y014362D01*
X015324Y014335D01*
X015370Y014306D01*
X015414Y014273D01*
X015456Y014237D01*
X015495Y014199D01*
X015532Y014158D01*
X015525Y014153D01*
X015489Y014193D01*
X015450Y014231D01*
X015408Y014266D01*
X015365Y014298D01*
X015319Y014328D01*
X015271Y014354D01*
X015222Y014377D01*
X015172Y014397D01*
X015120Y014413D01*
X015067Y014426D01*
X015013Y014435D01*
X014959Y014441D01*
X014905Y014443D01*
X014905Y014434D01*
X014959Y014432D01*
X015012Y014426D01*
X015065Y014417D01*
X015117Y014404D01*
X015169Y014388D01*
X015219Y014369D01*
X015267Y014346D01*
X015314Y014320D01*
X015360Y014291D01*
X015403Y014259D01*
X015444Y014224D01*
X015482Y014187D01*
X015518Y014147D01*
X015511Y014141D01*
X015476Y014180D01*
X015438Y014217D01*
X015397Y014252D01*
X015354Y014283D01*
X015310Y014312D01*
X015263Y014338D01*
X015215Y014360D01*
X015166Y014380D01*
X015115Y014396D01*
X015063Y014408D01*
X015011Y014417D01*
X014958Y014423D01*
X014905Y014425D01*
X014905Y014416D01*
X014957Y014414D01*
X015010Y014408D01*
X015061Y014399D01*
X015112Y014387D01*
X015163Y014371D01*
X015212Y014352D01*
X015259Y014330D01*
X015305Y014304D01*
X015349Y014276D01*
X015391Y014245D01*
X015432Y014211D01*
X015469Y014174D01*
X015504Y014135D01*
X015498Y014129D01*
X015463Y014168D01*
X015425Y014204D01*
X015386Y014238D01*
X015344Y014269D01*
X015300Y014297D01*
X015255Y014322D01*
X015208Y014344D01*
X015160Y014363D01*
X015110Y014378D01*
X015060Y014391D01*
X015008Y014399D01*
X014957Y014405D01*
X014905Y014407D01*
X014905Y014398D01*
X014956Y014396D01*
X015007Y014391D01*
X015058Y014382D01*
X015108Y014370D01*
X015157Y014354D01*
X015204Y014336D01*
X015251Y014314D01*
X015296Y014289D01*
X015339Y014261D01*
X015380Y014231D01*
X015419Y014198D01*
X015456Y014162D01*
X015491Y014124D01*
X015484Y014118D01*
X015447Y014159D01*
X015407Y014197D01*
X015365Y014231D01*
X015320Y014263D01*
X015273Y014292D01*
X015224Y014317D01*
X015173Y014338D01*
X015122Y014356D01*
X015068Y014370D01*
X015014Y014380D01*
X014960Y014387D01*
X014905Y014389D01*
X014904Y012781D02*
X014904Y012871D01*
X014905Y012870D02*
X014959Y012872D01*
X015012Y012878D01*
X015065Y012888D01*
X015117Y012902D01*
X015168Y012919D01*
X015218Y012940D01*
X015266Y012964D01*
X015312Y012992D01*
X015356Y013023D01*
X015397Y013057D01*
X015437Y013094D01*
X015473Y013133D01*
X015541Y013076D01*
X015542Y013075D01*
X015504Y013034D01*
X015464Y012996D01*
X015421Y012960D01*
X015376Y012927D01*
X015329Y012897D01*
X015281Y012871D01*
X015230Y012847D01*
X015178Y012827D01*
X015125Y012811D01*
X015071Y012797D01*
X015016Y012788D01*
X014961Y012782D01*
X014905Y012780D01*
X014905Y012789D01*
X014960Y012791D01*
X015015Y012797D01*
X015069Y012806D01*
X015123Y012819D01*
X015175Y012836D01*
X015227Y012855D01*
X015277Y012879D01*
X015325Y012905D01*
X015371Y012935D01*
X015416Y012967D01*
X015458Y013002D01*
X015498Y013041D01*
X015535Y013081D01*
X015528Y013087D01*
X015491Y013047D01*
X015452Y013009D01*
X015410Y012974D01*
X015366Y012942D01*
X015320Y012913D01*
X015272Y012887D01*
X015223Y012864D01*
X015172Y012844D01*
X015120Y012828D01*
X015067Y012815D01*
X015014Y012806D01*
X014959Y012800D01*
X014905Y012798D01*
X014905Y012807D01*
X014959Y012809D01*
X015012Y012815D01*
X015065Y012824D01*
X015118Y012837D01*
X015169Y012853D01*
X015220Y012872D01*
X015268Y012895D01*
X015316Y012920D01*
X015361Y012949D01*
X015405Y012981D01*
X015446Y013016D01*
X015485Y013053D01*
X015521Y013093D01*
X015514Y013099D01*
X015478Y013059D01*
X015440Y013022D01*
X015399Y012988D01*
X015356Y012957D01*
X015311Y012928D01*
X015264Y012903D01*
X015216Y012880D01*
X015166Y012861D01*
X015115Y012845D01*
X015064Y012833D01*
X015011Y012824D01*
X014958Y012818D01*
X014905Y012816D01*
X014905Y012825D01*
X014958Y012827D01*
X015010Y012833D01*
X015062Y012842D01*
X015113Y012854D01*
X015163Y012870D01*
X015213Y012889D01*
X015260Y012911D01*
X015307Y012936D01*
X015351Y012964D01*
X015393Y012995D01*
X015434Y013029D01*
X015472Y013066D01*
X015507Y013104D01*
X015501Y013110D01*
X015465Y013072D01*
X015428Y013036D01*
X015388Y013002D01*
X015346Y012972D01*
X015302Y012944D01*
X015256Y012919D01*
X015209Y012897D01*
X015160Y012878D01*
X015111Y012863D01*
X015060Y012850D01*
X015009Y012842D01*
X014957Y012836D01*
X014905Y012834D01*
X014905Y012843D01*
X014961Y012845D01*
X015016Y012852D01*
X015071Y012862D01*
X015125Y012876D01*
X015178Y012894D01*
X015229Y012916D01*
X015279Y012941D01*
X015327Y012970D01*
X015372Y013002D01*
X015415Y013037D01*
X015456Y013075D01*
X015494Y013116D01*
X015487Y013122D01*
X015450Y013081D01*
X015409Y013044D01*
X015367Y013009D01*
X015322Y012977D01*
X015274Y012949D01*
X015225Y012924D01*
X015174Y012902D01*
X015122Y012885D01*
X015069Y012871D01*
X015015Y012861D01*
X014960Y012854D01*
X014905Y012852D01*
X014905Y012861D01*
X014959Y012863D01*
X015013Y012869D01*
X015067Y012879D01*
X015120Y012893D01*
X015171Y012911D01*
X015221Y012932D01*
X015270Y012957D01*
X015317Y012985D01*
X015361Y013016D01*
X015403Y013050D01*
X015443Y013088D01*
X015480Y013128D01*
X014895Y016469D02*
X014895Y016379D01*
X014895Y016380D02*
X014841Y016378D01*
X014788Y016372D01*
X014735Y016362D01*
X014683Y016348D01*
X014632Y016331D01*
X014583Y016310D01*
X014535Y016286D01*
X014489Y016258D01*
X014445Y016227D01*
X014403Y016193D01*
X014364Y016157D01*
X014327Y016117D01*
X014294Y016075D01*
X014263Y016031D01*
X014236Y015985D01*
X014157Y016027D01*
X014185Y016076D01*
X014217Y016122D01*
X014252Y016167D01*
X014289Y016209D01*
X014330Y016249D01*
X014373Y016285D01*
X014418Y016319D01*
X014465Y016350D01*
X014515Y016377D01*
X014566Y016401D01*
X014618Y016422D01*
X014672Y016439D01*
X014727Y016452D01*
X014782Y016462D01*
X014839Y016468D01*
X014895Y016470D01*
X014895Y016461D01*
X014839Y016459D01*
X014784Y016453D01*
X014729Y016443D01*
X014674Y016430D01*
X014621Y016413D01*
X014569Y016393D01*
X014519Y016369D01*
X014470Y016342D01*
X014423Y016312D01*
X014378Y016278D01*
X014336Y016242D01*
X014296Y016203D01*
X014259Y016161D01*
X014224Y016117D01*
X014193Y016071D01*
X014165Y016023D01*
X014173Y016019D01*
X014201Y016066D01*
X014232Y016112D01*
X014266Y016155D01*
X014302Y016197D01*
X014342Y016235D01*
X014384Y016271D01*
X014428Y016304D01*
X014474Y016334D01*
X014523Y016361D01*
X014573Y016384D01*
X014624Y016405D01*
X014677Y016421D01*
X014730Y016434D01*
X014785Y016444D01*
X014840Y016450D01*
X014895Y016452D01*
X014895Y016443D01*
X014840Y016441D01*
X014786Y016435D01*
X014732Y016426D01*
X014679Y016413D01*
X014627Y016396D01*
X014576Y016376D01*
X014527Y016353D01*
X014479Y016326D01*
X014433Y016297D01*
X014389Y016264D01*
X014348Y016229D01*
X014309Y016190D01*
X014272Y016150D01*
X014239Y016107D01*
X014208Y016061D01*
X014181Y016014D01*
X014189Y016010D01*
X014216Y016057D01*
X014246Y016101D01*
X014279Y016144D01*
X014315Y016184D01*
X014354Y016222D01*
X014395Y016257D01*
X014438Y016289D01*
X014484Y016319D01*
X014531Y016345D01*
X014580Y016368D01*
X014630Y016388D01*
X014682Y016404D01*
X014734Y016417D01*
X014787Y016426D01*
X014841Y016432D01*
X014895Y016434D01*
X014895Y016425D01*
X014842Y016423D01*
X014789Y016417D01*
X014736Y016408D01*
X014684Y016395D01*
X014633Y016379D01*
X014583Y016360D01*
X014535Y016337D01*
X014488Y016311D01*
X014444Y016282D01*
X014401Y016250D01*
X014360Y016215D01*
X014322Y016178D01*
X014286Y016138D01*
X014253Y016096D01*
X014223Y016052D01*
X014196Y016006D01*
X014204Y016002D01*
X014231Y016047D01*
X014261Y016091D01*
X014293Y016132D01*
X014328Y016172D01*
X014366Y016209D01*
X014406Y016243D01*
X014449Y016275D01*
X014493Y016303D01*
X014539Y016329D01*
X014587Y016351D01*
X014636Y016371D01*
X014686Y016387D01*
X014738Y016399D01*
X014790Y016408D01*
X014842Y016414D01*
X014895Y016416D01*
X014895Y016407D01*
X014839Y016405D01*
X014784Y016398D01*
X014729Y016388D01*
X014675Y016374D01*
X014623Y016356D01*
X014571Y016335D01*
X014522Y016309D01*
X014474Y016281D01*
X014428Y016249D01*
X014385Y016214D01*
X014345Y016176D01*
X014307Y016135D01*
X014272Y016091D01*
X014241Y016045D01*
X014212Y015997D01*
X014220Y015993D01*
X014248Y016041D01*
X014279Y016086D01*
X014314Y016129D01*
X014351Y016169D01*
X014391Y016207D01*
X014434Y016242D01*
X014479Y016273D01*
X014526Y016302D01*
X014575Y016326D01*
X014626Y016348D01*
X014678Y016365D01*
X014731Y016379D01*
X014785Y016389D01*
X014840Y016396D01*
X014895Y016398D01*
X014895Y016389D01*
X014841Y016387D01*
X014787Y016381D01*
X014733Y016371D01*
X014681Y016357D01*
X014629Y016339D01*
X014579Y016318D01*
X014530Y016294D01*
X014484Y016266D01*
X014439Y016234D01*
X014397Y016200D01*
X014358Y016163D01*
X014321Y016123D01*
X014287Y016081D01*
X014256Y016036D01*
X014228Y015989D01*
X014169Y015202D02*
X014247Y015247D01*
X014247Y015246D02*
X014275Y015202D01*
X014306Y015160D01*
X014339Y015120D01*
X014375Y015082D01*
X014414Y015047D01*
X014455Y015015D01*
X014499Y014985D01*
X014544Y014959D01*
X014591Y014936D01*
X014639Y014916D01*
X014689Y014900D01*
X014739Y014887D01*
X014791Y014878D01*
X014843Y014872D01*
X014895Y014870D01*
X014896Y014781D01*
X014895Y014780D01*
X014840Y014782D01*
X014786Y014788D01*
X014731Y014797D01*
X014678Y014810D01*
X014626Y014826D01*
X014574Y014845D01*
X014524Y014868D01*
X014476Y014894D01*
X014429Y014923D01*
X014385Y014955D01*
X014342Y014990D01*
X014302Y015028D01*
X014265Y015068D01*
X014230Y015110D01*
X014198Y015155D01*
X014169Y015201D01*
X014177Y015206D01*
X014205Y015160D01*
X014237Y015116D01*
X014272Y015074D01*
X014309Y015034D01*
X014348Y014997D01*
X014390Y014962D01*
X014434Y014931D01*
X014480Y014902D01*
X014528Y014876D01*
X014578Y014854D01*
X014628Y014834D01*
X014680Y014818D01*
X014733Y014806D01*
X014787Y014797D01*
X014841Y014791D01*
X014895Y014789D01*
X014895Y014798D01*
X014841Y014800D01*
X014788Y014806D01*
X014735Y014815D01*
X014683Y014827D01*
X014631Y014843D01*
X014581Y014862D01*
X014532Y014884D01*
X014485Y014910D01*
X014439Y014938D01*
X014396Y014970D01*
X014354Y015004D01*
X014315Y015040D01*
X014278Y015080D01*
X014244Y015121D01*
X014213Y015165D01*
X014184Y015210D01*
X014192Y015215D01*
X014222Y015167D01*
X014256Y015121D01*
X014292Y015078D01*
X014332Y015037D01*
X014374Y014999D01*
X014418Y014964D01*
X014465Y014932D01*
X014514Y014904D01*
X014565Y014879D01*
X014618Y014857D01*
X014671Y014840D01*
X014726Y014826D01*
X014782Y014816D01*
X014838Y014809D01*
X014895Y014807D01*
X014895Y014816D01*
X014839Y014818D01*
X014783Y014824D01*
X014728Y014834D01*
X014674Y014848D01*
X014621Y014866D01*
X014569Y014887D01*
X014518Y014912D01*
X014470Y014940D01*
X014424Y014971D01*
X014379Y015006D01*
X014338Y015043D01*
X014299Y015084D01*
X014263Y015126D01*
X014230Y015172D01*
X014200Y015219D01*
X014208Y015224D01*
X014237Y015177D01*
X014270Y015132D01*
X014306Y015090D01*
X014344Y015050D01*
X014385Y015013D01*
X014429Y014978D01*
X014475Y014947D01*
X014523Y014920D01*
X014572Y014895D01*
X014624Y014874D01*
X014676Y014857D01*
X014730Y014843D01*
X014785Y014833D01*
X014840Y014827D01*
X014895Y014825D01*
X014895Y014834D01*
X014840Y014836D01*
X014786Y014842D01*
X014732Y014852D01*
X014679Y014866D01*
X014627Y014883D01*
X014576Y014903D01*
X014527Y014928D01*
X014480Y014955D01*
X014434Y014986D01*
X014391Y015019D01*
X014350Y015056D01*
X014312Y015096D01*
X014277Y015138D01*
X014245Y015182D01*
X014216Y015228D01*
X014224Y015233D01*
X014252Y015187D01*
X014284Y015143D01*
X014319Y015102D01*
X014357Y015063D01*
X014397Y015026D01*
X014439Y014993D01*
X014484Y014963D01*
X014531Y014935D01*
X014580Y014912D01*
X014630Y014891D01*
X014681Y014874D01*
X014734Y014861D01*
X014787Y014851D01*
X014841Y014845D01*
X014895Y014843D01*
X014895Y014852D01*
X014842Y014854D01*
X014788Y014860D01*
X014736Y014870D01*
X014684Y014883D01*
X014633Y014900D01*
X014583Y014920D01*
X014535Y014943D01*
X014489Y014970D01*
X014445Y015000D01*
X014403Y015033D01*
X014363Y015069D01*
X014326Y015108D01*
X014291Y015149D01*
X014260Y015192D01*
X014231Y015237D01*
X014239Y015242D01*
X014267Y015197D01*
X014298Y015154D01*
X014332Y015114D01*
X014369Y015076D01*
X014408Y015040D01*
X014450Y015008D01*
X014494Y014978D01*
X014540Y014951D01*
X014587Y014928D01*
X014636Y014908D01*
X014686Y014891D01*
X014738Y014878D01*
X014790Y014869D01*
X014842Y014863D01*
X014895Y014861D01*
X014904Y014781D02*
X014904Y014871D01*
X014905Y014870D02*
X014959Y014872D01*
X015012Y014878D01*
X015065Y014888D01*
X015117Y014902D01*
X015168Y014919D01*
X015218Y014940D01*
X015266Y014964D01*
X015312Y014992D01*
X015356Y015023D01*
X015397Y015057D01*
X015437Y015094D01*
X015473Y015133D01*
X015541Y015076D01*
X015542Y015075D01*
X015504Y015034D01*
X015464Y014996D01*
X015421Y014960D01*
X015376Y014927D01*
X015329Y014897D01*
X015281Y014871D01*
X015230Y014847D01*
X015178Y014827D01*
X015125Y014811D01*
X015071Y014797D01*
X015016Y014788D01*
X014961Y014782D01*
X014905Y014780D01*
X014905Y014789D01*
X014960Y014791D01*
X015015Y014797D01*
X015069Y014806D01*
X015123Y014819D01*
X015175Y014836D01*
X015227Y014855D01*
X015277Y014879D01*
X015325Y014905D01*
X015371Y014935D01*
X015416Y014967D01*
X015458Y015002D01*
X015498Y015041D01*
X015535Y015081D01*
X015528Y015087D01*
X015491Y015047D01*
X015452Y015009D01*
X015410Y014974D01*
X015366Y014942D01*
X015320Y014913D01*
X015272Y014887D01*
X015223Y014864D01*
X015172Y014844D01*
X015120Y014828D01*
X015067Y014815D01*
X015014Y014806D01*
X014959Y014800D01*
X014905Y014798D01*
X014905Y014807D01*
X014959Y014809D01*
X015012Y014815D01*
X015065Y014824D01*
X015118Y014837D01*
X015169Y014853D01*
X015220Y014872D01*
X015268Y014895D01*
X015316Y014920D01*
X015361Y014949D01*
X015405Y014981D01*
X015446Y015016D01*
X015485Y015053D01*
X015521Y015093D01*
X015514Y015099D01*
X015478Y015059D01*
X015440Y015022D01*
X015399Y014988D01*
X015356Y014957D01*
X015311Y014928D01*
X015264Y014903D01*
X015216Y014880D01*
X015166Y014861D01*
X015115Y014845D01*
X015064Y014833D01*
X015011Y014824D01*
X014958Y014818D01*
X014905Y014816D01*
X014905Y014825D01*
X014958Y014827D01*
X015010Y014833D01*
X015062Y014842D01*
X015113Y014854D01*
X015163Y014870D01*
X015213Y014889D01*
X015260Y014911D01*
X015307Y014936D01*
X015351Y014964D01*
X015393Y014995D01*
X015434Y015029D01*
X015472Y015066D01*
X015507Y015104D01*
X015501Y015110D01*
X015465Y015072D01*
X015428Y015036D01*
X015388Y015002D01*
X015346Y014972D01*
X015302Y014944D01*
X015256Y014919D01*
X015209Y014897D01*
X015160Y014878D01*
X015111Y014863D01*
X015060Y014850D01*
X015009Y014842D01*
X014957Y014836D01*
X014905Y014834D01*
X014905Y014843D01*
X014961Y014845D01*
X015016Y014852D01*
X015071Y014862D01*
X015125Y014876D01*
X015178Y014894D01*
X015229Y014916D01*
X015279Y014941D01*
X015327Y014970D01*
X015372Y015002D01*
X015415Y015037D01*
X015456Y015075D01*
X015494Y015116D01*
X015487Y015122D01*
X015450Y015081D01*
X015409Y015044D01*
X015367Y015009D01*
X015322Y014977D01*
X015274Y014949D01*
X015225Y014924D01*
X015174Y014902D01*
X015122Y014885D01*
X015069Y014871D01*
X015015Y014861D01*
X014960Y014854D01*
X014905Y014852D01*
X014905Y014861D01*
X014959Y014863D01*
X015013Y014869D01*
X015067Y014879D01*
X015120Y014893D01*
X015171Y014911D01*
X015221Y014932D01*
X015270Y014957D01*
X015317Y014985D01*
X015361Y015016D01*
X015403Y015050D01*
X015443Y015088D01*
X015480Y015128D01*
X015545Y016169D02*
X015476Y016112D01*
X015477Y016112D02*
X015440Y016152D01*
X015401Y016190D01*
X015359Y016224D01*
X015315Y016256D01*
X015269Y016284D01*
X015220Y016309D01*
X015170Y016330D01*
X015119Y016348D01*
X015066Y016361D01*
X015013Y016371D01*
X014959Y016378D01*
X014905Y016380D01*
X014904Y016469D01*
X014905Y016470D01*
X014961Y016468D01*
X015017Y016462D01*
X015072Y016452D01*
X015127Y016439D01*
X015180Y016422D01*
X015233Y016402D01*
X015284Y016378D01*
X015333Y016351D01*
X015380Y016320D01*
X015425Y016287D01*
X015468Y016251D01*
X015508Y016212D01*
X015546Y016170D01*
X015539Y016164D01*
X015502Y016205D01*
X015462Y016244D01*
X015420Y016280D01*
X015375Y016313D01*
X015328Y016343D01*
X015280Y016370D01*
X015229Y016393D01*
X015177Y016414D01*
X015124Y016430D01*
X015070Y016443D01*
X015016Y016453D01*
X014961Y016459D01*
X014905Y016461D01*
X014905Y016452D01*
X014960Y016450D01*
X015015Y016444D01*
X015069Y016435D01*
X015122Y016422D01*
X015174Y016405D01*
X015226Y016385D01*
X015275Y016362D01*
X015324Y016335D01*
X015370Y016306D01*
X015414Y016273D01*
X015456Y016237D01*
X015495Y016199D01*
X015532Y016158D01*
X015525Y016153D01*
X015489Y016193D01*
X015450Y016231D01*
X015408Y016266D01*
X015365Y016298D01*
X015319Y016328D01*
X015271Y016354D01*
X015222Y016377D01*
X015172Y016397D01*
X015120Y016413D01*
X015067Y016426D01*
X015013Y016435D01*
X014959Y016441D01*
X014905Y016443D01*
X014905Y016434D01*
X014959Y016432D01*
X015012Y016426D01*
X015065Y016417D01*
X015117Y016404D01*
X015169Y016388D01*
X015219Y016369D01*
X015267Y016346D01*
X015314Y016320D01*
X015360Y016291D01*
X015403Y016259D01*
X015444Y016224D01*
X015482Y016187D01*
X015518Y016147D01*
X015511Y016141D01*
X015476Y016180D01*
X015438Y016217D01*
X015397Y016252D01*
X015354Y016283D01*
X015310Y016312D01*
X015263Y016338D01*
X015215Y016360D01*
X015166Y016380D01*
X015115Y016396D01*
X015063Y016408D01*
X015011Y016417D01*
X014958Y016423D01*
X014905Y016425D01*
X014905Y016416D01*
X014957Y016414D01*
X015010Y016408D01*
X015061Y016399D01*
X015112Y016387D01*
X015163Y016371D01*
X015212Y016352D01*
X015259Y016330D01*
X015305Y016304D01*
X015349Y016276D01*
X015391Y016245D01*
X015432Y016211D01*
X015469Y016174D01*
X015504Y016135D01*
X015498Y016129D01*
X015463Y016168D01*
X015425Y016204D01*
X015386Y016238D01*
X015344Y016269D01*
X015300Y016297D01*
X015255Y016322D01*
X015208Y016344D01*
X015160Y016363D01*
X015110Y016378D01*
X015060Y016391D01*
X015008Y016399D01*
X014957Y016405D01*
X014905Y016407D01*
X014905Y016398D01*
X014956Y016396D01*
X015007Y016391D01*
X015058Y016382D01*
X015108Y016370D01*
X015157Y016354D01*
X015204Y016336D01*
X015251Y016314D01*
X015296Y016289D01*
X015339Y016261D01*
X015380Y016231D01*
X015419Y016198D01*
X015456Y016162D01*
X015491Y016124D01*
X015484Y016118D01*
X015447Y016159D01*
X015407Y016197D01*
X015365Y016231D01*
X015320Y016263D01*
X015273Y016292D01*
X015224Y016317D01*
X015173Y016338D01*
X015122Y016356D01*
X015068Y016370D01*
X015014Y016380D01*
X014960Y016387D01*
X014905Y016389D01*
D18*
X015520Y016135D02*
X015520Y015935D01*
X015520Y015295D02*
X015520Y015115D01*
X015520Y014135D02*
X015520Y013935D01*
X015520Y013295D02*
X015520Y013115D01*
M02*
